%FSDAX24Y24*%
%MOIN*%
%SFA1B1*%

%IPPOS*%
%ADD10C,0.012000*%
%ADD11C,0.010000*%
%ADD12C,0.015000*%
%ADD13C,0.059100*%
%ADD14R,0.059100X0.059100*%
%ADD15C,0.055100*%
%ADD16C,0.049200*%
%ADD17R,0.049200X0.049200*%
%ADD18R,0.059100X0.059100*%
%ADD19C,0.059100*%
%ADD20R,0.049200X0.049200*%
%ADD21C,0.066900*%
%ADD22R,0.066900X0.066900*%
%ADD23R,0.059100X0.059100*%
%ADD24C,0.250000*%
%ADD25R,0.059100X0.059100*%
%ADD26C,0.137800*%
%ADD27C,0.157500*%
%ADD28R,0.063000X0.063000*%
%ADD29C,0.063000*%
%ADD30C,0.050000*%
%ADD36C,0.005000*%
%LNboardr2-1*%
%LPD*%
G54D36*
X066861Y085422D02*
Y085070D01*
X066787Y085012*
X066719Y084924*
X066675Y084820*
X066661Y084710*
X066675Y084599*
X066719Y084495*
X066787Y084407*
X066875Y084339*
X066979Y084295*
X067090Y084281*
X067200Y084295*
X067304Y084339*
X067392Y084407*
X067413Y084433*
X067438*
X067467Y084397*
X067555Y084329*
X067659Y084285*
X067770Y084271*
X067880Y084285*
X067984Y084329*
X068072Y084397*
X068140Y084485*
X068184Y084589*
X068198Y084700*
X068184Y084810*
X068140Y084914*
X068072Y085002*
X067999Y085060*
Y085179*
X068014Y085185*
X068972Y084228*
X069052Y084174*
X069147Y084156*
X069420*
X069498Y084078*
X069492Y084060*
X069477Y084058*
X069362Y084010*
X069264Y083935*
X069189Y083837*
X069141Y083722*
X069128Y083625*
X069575*
Y083575*
X069625*
Y083128*
X069722Y083141*
X069837Y083189*
X069864Y083209*
X069881Y083201*
Y082998*
X069864Y082990*
X069837Y083010*
X069722Y083058*
X069600Y083074*
X069477Y083058*
X069468Y083054*
X069254Y083268*
X069182Y083316*
X069097Y083334*
X069009*
X069001Y083350*
X069010Y083362*
X069058Y083477*
X069071Y083575*
X068625*
Y083625*
X068575*
Y084071*
X068477Y084058*
X068362Y084010*
X068264Y083935*
X068189Y083837*
X068141Y083722*
X068134Y083669*
X068111Y083652*
X068102Y083654*
X065397*
X065335Y083735*
X065237Y083810*
X065122Y083858*
X065000Y083874*
X064877Y083858*
X064762Y083810*
X064664Y083735*
X064589Y083637*
X064541Y083522*
X064525Y083400*
X064541Y083277*
X064589Y083162*
X064664Y083064*
X064762Y082989*
X064877Y082941*
X065000Y082925*
X065122Y082941*
X065237Y082989*
X065335Y083064*
X065397Y083146*
X068030*
X068234Y082942*
X068239Y082938*
X068244Y082909*
X068188Y082836*
X068190Y082844*
X067138*
X067092Y082902*
X067004Y082970*
X066900Y083014*
X066790Y083028*
X066679Y083014*
X066575Y082970*
X066487Y082902*
X066419Y082814*
X066381Y082724*
X066360Y082717*
X066210Y082866*
X066135Y082917*
X066044Y082935*
X065989Y082925*
X064122*
X064108Y082944*
X064107Y082939*
X064122Y082941*
X064237Y082989*
X064335Y083064*
X064410Y083162*
X064458Y083277*
X064474Y083400*
X064458Y083522*
X064454Y083531*
X064668Y083745*
X064716Y083817*
X064734Y083902*
Y083990*
X064750Y083998*
X064762Y083989*
X064877Y083941*
X065000Y083925*
X065122Y083941*
X065237Y083989*
X065335Y084064*
X065410Y084162*
X065458Y084277*
X065474Y084400*
X065458Y084522*
X065410Y084637*
X065335Y084735*
X065237Y084810*
X065122Y084858*
X065107Y084860*
X065101Y084878*
X065594Y085371*
X065906*
X065905Y085372*
X065978Y085278*
X066072Y085206*
X066182Y085160*
X066300Y085145*
X066417Y085160*
X066527Y085206*
X066621Y085278*
X066693Y085372*
X066739Y085482*
X066743Y085516*
X066761Y085522*
X066861Y085422*
X066350Y082740D02*
X066380D01*
X066300Y082790D02*
X066410D01*
X066250Y082840D02*
X066440D01*
X067150D02*
X068180D01*
X066200Y082890D02*
X066480D01*
X067110D02*
X068220D01*
X064130Y082940D02*
X064870D01*
X065130D02*
X066540D01*
X067050D02*
X068220D01*
X064250Y082990D02*
X064750D01*
X065250D02*
X066620D01*
X066960D02*
X068180D01*
X064330Y083040D02*
X064680D01*
X065330D02*
X068130D01*
X069780D02*
X069880D01*
X064380Y083090D02*
X064630D01*
X065370D02*
X068080D01*
X069440D02*
X069880D01*
X064410Y083140D02*
X064600D01*
X065410D02*
X068030D01*
X069390D02*
X069610D01*
X069730D02*
X069880D01*
X064440Y083190D02*
X064570D01*
X069340D02*
X069610D01*
X069850D02*
X069880D01*
X064460Y083240D02*
X064550D01*
X069290D02*
X069610D01*
X064480Y083290D02*
X064530D01*
X069240D02*
X069610D01*
X064480Y083340D02*
X064530D01*
X069020D02*
X069610D01*
X064480Y083390D02*
X064530D01*
X069040D02*
X069610D01*
X064480Y083440D02*
X064530D01*
X069060D02*
X069610D01*
X064480Y083490D02*
X064530D01*
X069080D02*
X069610D01*
X064470Y083540D02*
X064540D01*
X069080D02*
X069610D01*
X064520Y083590D02*
X064560D01*
X068630D02*
X069560D01*
X064570Y083640D02*
X064580D01*
X068580D02*
X069130D01*
X064620Y083690D02*
D01*
X065390D02*
X068130D01*
X068580D02*
X069130D01*
X065350Y083740D02*
X068140D01*
X068580D02*
X069140D01*
X064710Y083790D02*
X064730D01*
X065280D02*
X068160D01*
X068580D02*
X069160D01*
X064740Y083840D02*
X064830D01*
X065180D02*
X068180D01*
X068580D02*
X069180D01*
X064740Y083890D02*
X068220D01*
X068580D02*
X069220D01*
X064740Y083940D02*
X064870D01*
X065130D02*
X068250D01*
X068580D02*
X069250D01*
X064740Y083990D02*
X064750D01*
X065250D02*
X068330D01*
X068580D02*
X069330D01*
X065330Y084040D02*
X068430D01*
X068580D02*
X069430D01*
X065380Y084090D02*
X069480D01*
X065410Y084140D02*
X069430D01*
X065440Y084190D02*
X069020D01*
X065460Y084240D02*
X068950D01*
X065480Y084290D02*
X067030D01*
X067160D02*
X067650D01*
X067890D02*
X068900D01*
X065480Y084340D02*
X066870D01*
X067310D02*
X067540D01*
X068010D02*
X068850D01*
X065480Y084390D02*
X066810D01*
X067380D02*
X067480D01*
X068070D02*
X068800D01*
X065480Y084440D02*
X066760D01*
X068120D02*
X068750D01*
X065480Y084490D02*
X066720D01*
X068150D02*
X068700D01*
X065470Y084540D02*
X066700D01*
X068170D02*
X068650D01*
X065450Y084590D02*
X066680D01*
X068190D02*
X068600D01*
X065420Y084640D02*
X066670D01*
X068200D02*
X068550D01*
X065390Y084690D02*
X066660D01*
X068210D02*
X068500D01*
X065350Y084740D02*
X066660D01*
X068210D02*
X068450D01*
X065280Y084790D02*
X066670D01*
X068200D02*
X068400D01*
X065180Y084840D02*
X066680D01*
X068180D02*
X068350D01*
X065120Y084890D02*
X066700D01*
X068160D02*
X068300D01*
X065170Y084940D02*
X066730D01*
X068130D02*
X068250D01*
X065220Y084990D02*
X066770D01*
X068090D02*
X068200D01*
X065270Y085040D02*
X066820D01*
X068040D02*
X068150D01*
X065320Y085090D02*
X066850D01*
X068010D02*
X068100D01*
X065370Y085140D02*
X066850D01*
X068010D02*
X068050D01*
X065420Y085190D02*
X066110D01*
X066500D02*
X066850D01*
X065470Y085240D02*
X066030D01*
X066580D02*
X066850D01*
X065520Y085290D02*
X065970D01*
X066640D02*
X066850D01*
X065570Y085340D02*
X065930D01*
X066680D02*
X066850D01*
X066710Y085390D02*
X066850D01*
X066740Y085440D02*
X066830D01*
X066750Y085490D02*
X066780D01*
X062653Y084731D02*
X062665Y084737D01*
X062589Y084637*
X062541Y084522*
X062528Y084425*
X062975*
Y084375*
X063025*
Y083928*
X063122Y083941*
X063237Y083989*
X063249Y083998*
X063266Y083990*
Y083809*
X063249Y083801*
X063237Y083810*
X063122Y083858*
X063000Y083874*
X062877Y083858*
X062762Y083810*
X062664Y083735*
X062589Y083637*
X062541Y083522*
X062525Y083400*
X062538Y083298*
X062432Y083192*
X062424Y083197*
X062458Y083277*
X062471Y083375*
X061528*
X061541Y083277*
X061589Y083162*
X061664Y083064*
X061692Y083042*
X061687Y083029*
X061312*
X061307Y083042*
X061335Y083064*
X061410Y083162*
X061458Y083277*
X061474Y083400*
X061458Y083522*
X061410Y083637*
X061401Y083649*
X061409Y083666*
X061488*
X061573Y083683*
X061645Y083731*
X061862Y083947*
X061877Y083941*
X062000Y083925*
X062122Y083941*
X062237Y083989*
X062335Y084064*
X062410Y084162*
X062458Y084277*
X062474Y084400*
X062458Y084522*
X062410Y084637*
X062334Y084737*
X062346Y084731*
X062349Y084741*
X062650*
X062653Y084731*
X061340Y083050D02*
X061670D01*
X061380Y083100D02*
X061630D01*
X061420Y083150D02*
X061590D01*
X061440Y083200D02*
X061570D01*
X062430D02*
D01*
X061460Y083250D02*
X061550D01*
X062460D02*
X062480D01*
X061480Y083300D02*
X061530D01*
X062480D02*
X062530D01*
X061480Y083350D02*
X061530D01*
X062480D02*
X062530D01*
X061480Y083400D02*
X062520D01*
X061480Y083450D02*
X062530D01*
X061480Y083500D02*
X062530D01*
X061460Y083550D02*
X062550D01*
X061440Y083600D02*
X062570D01*
X061410Y083650D02*
X062590D01*
X061620Y083700D02*
X062630D01*
X061680Y083750D02*
X062670D01*
X061730Y083800D02*
X062740D01*
X061780Y083850D02*
X062850D01*
X063160D02*
X063270D01*
X061830Y083900D02*
X063270D01*
X062160Y083950D02*
X063010D01*
X063160D02*
X063270D01*
X062270Y084000D02*
X063010D01*
X062340Y084050D02*
X063010D01*
X062380Y084100D02*
X063010D01*
X062420Y084150D02*
X063010D01*
X062440Y084200D02*
X063010D01*
X062460Y084250D02*
X063010D01*
X062480Y084300D02*
X063010D01*
X062480Y084350D02*
X063010D01*
X062480Y084400D02*
X062960D01*
X062480Y084450D02*
X062530D01*
X062480Y084500D02*
X062530D01*
X062460Y084550D02*
X062550D01*
X062440Y084600D02*
X062570D01*
X062420Y084650D02*
X062590D01*
X062380Y084700D02*
X062630D01*
X065973Y085918D02*
X065978Y085922D01*
X065905Y085827*
X065906Y085829*
X065497*
X065412Y085811*
X065339Y085763*
X064342Y084765*
X064338Y084760*
X064309Y084755*
X064237Y084810*
X064122Y084858*
X064025Y084871*
Y084425*
X063975*
Y084871*
X063877Y084858*
X063762Y084810*
X063690Y084755*
X063661Y084760*
X063657Y084765*
X063291Y085133*
X063285Y085137*
X063288Y085147*
X063300Y085145*
X063417Y085160*
X063527Y085206*
X063621Y085278*
X063693Y085372*
X063739Y085482*
X063754Y085600*
X063739Y085717*
X063693Y085827*
X063621Y085922*
X063626Y085918*
X063630Y085931*
X065969*
X065973Y085918*
X063980Y084440D02*
X064010D01*
X063980Y084490D02*
X064010D01*
X063980Y084540D02*
X064010D01*
X063980Y084590D02*
X064010D01*
X063980Y084640D02*
X064010D01*
X063980Y084690D02*
X064010D01*
X063980Y084740D02*
X064010D01*
X063650Y084790D02*
X063730D01*
X063980D02*
X064010D01*
X064280D02*
X064360D01*
X063600Y084840D02*
X063830D01*
X063980D02*
X064010D01*
X064180D02*
X064410D01*
X063550Y084890D02*
X064460D01*
X063500Y084940D02*
X064510D01*
X063450Y084990D02*
X064560D01*
X063400Y085040D02*
X064610D01*
X063350Y085090D02*
X064660D01*
X063300Y085140D02*
X064710D01*
X063500Y085190D02*
X064760D01*
X063580Y085240D02*
X064810D01*
X063640Y085290D02*
X064860D01*
X063680Y085340D02*
X064910D01*
X063710Y085390D02*
X064960D01*
X063740Y085440D02*
X065010D01*
X063760Y085490D02*
X065060D01*
X063760Y085540D02*
X065110D01*
X063760Y085590D02*
X065160D01*
X063760Y085640D02*
X065210D01*
X063760Y085690D02*
X065260D01*
X063750Y085740D02*
X065310D01*
X063720Y085790D02*
X065380D01*
X063700Y085840D02*
X065910D01*
X063660Y085890D02*
X065950D01*
%LNboardr2-2*%
%LPC*%
G36*
X050650Y064043D02*
Y063650D01*
X051043*
X051034Y063716*
X050989Y063825*
X050918Y063918*
X050825Y063989*
X050716Y064034*
X050650Y064043*
G37*
G36*
X068600Y065093D02*
X068497Y065080D01*
X068400Y065040*
X068318Y064976*
X068254Y064893*
X068214Y064797*
X068201Y064694*
X068214Y064590*
X068254Y064494*
X068318Y064411*
X068398Y064350*
X068382Y064304*
X068381Y064302*
X068204*
Y063956*
X068996*
Y064302*
X068819*
X068818Y064304*
X068802Y064350*
X068882Y064411*
X068946Y064494*
X068986Y064590*
X069000Y064694*
X068986Y064797*
X068946Y064893*
X068882Y064976*
X068800Y065040*
X068703Y065080*
X068600Y065093*
G37*
G36*
X050550Y064043D02*
X050484Y064034D01*
X050375Y063989*
X050282Y063918*
X050211Y063825*
X050166Y063716*
X050157Y063650*
X050550*
Y064043*
G37*
G36*
X068550Y063856D02*
X068204D01*
Y063510*
X068550*
Y063856*
G37*
G36*
X068996D02*
X068650D01*
Y063510*
X068996*
Y063856*
G37*
G36*
X053023Y064950D02*
X052650D01*
Y064577*
X052711Y064585*
X052815Y064628*
X052904Y064696*
X052972Y064785*
X053015Y064889*
X053023Y064950*
G37*
G36*
X052550Y065423D02*
X052489Y065415D01*
X052385Y065372*
X052296Y065304*
X052228Y065215*
X052185Y065111*
X052177Y065050*
X052550*
Y065423*
G37*
G36*
Y064950D02*
X052177D01*
X052185Y064889*
X052228Y064785*
X052296Y064696*
X052385Y064628*
X052489Y064585*
X052550Y064577*
Y064950*
G37*
G36*
X064097Y065081D02*
X063981Y065065D01*
X063872Y065020*
X063779Y064949*
X063708Y064856*
X063663Y064748*
X063648Y064632*
X063663Y064515*
X063708Y064407*
X063779Y064314*
X063872Y064243*
X063981Y064198*
X064097Y064182*
X064213Y064198*
X064321Y064243*
X064414Y064314*
X064486Y064407*
X064531Y064515*
X064546Y064632*
X064531Y064748*
X064486Y064856*
X064414Y064949*
X064321Y065020*
X064213Y065065*
X064097Y065081*
G37*
G36*
X067097D02*
X066981Y065065D01*
X066872Y065020*
X066779Y064949*
X066708Y064856*
X066663Y064748*
X066648Y064632*
X066663Y064515*
X066708Y064407*
X066779Y064314*
X066872Y064243*
X066981Y064198*
X067097Y064182*
X067213Y064198*
X067321Y064243*
X067414Y064314*
X067486Y064407*
X067531Y064515*
X067546Y064632*
X067531Y064748*
X067486Y064856*
X067414Y064949*
X067321Y065020*
X067213Y065065*
X067097Y065081*
G37*
G36*
X067150Y063043D02*
X067084Y063034D01*
X066975Y062989*
X066882Y062918*
X066811Y062825*
X066766Y062716*
X066757Y062650*
X067150*
Y063043*
G37*
G36*
X069150D02*
X069084Y063034D01*
X068975Y062989*
X068882Y062918*
X068811Y062825*
X068766Y062716*
X068757Y062650*
X069150*
Y063043*
G37*
G36*
X068250D02*
Y062650D01*
X068643*
X068634Y062716*
X068589Y062825*
X068518Y062918*
X068425Y062989*
X068316Y063034*
X068250Y063043*
G37*
G36*
X067250D02*
Y062650D01*
X067643*
X067634Y062716*
X067589Y062825*
X067518Y062918*
X067425Y062989*
X067316Y063034*
X067250Y063043*
G37*
G36*
X068150D02*
X068084Y063034D01*
X067975Y062989*
X067882Y062918*
X067811Y062825*
X067766Y062716*
X067757Y062650*
X068150*
Y063043*
G37*
G36*
X069250D02*
Y062650D01*
X069643*
X069634Y062716*
X069589Y062825*
X069518Y062918*
X069425Y062989*
X069316Y063034*
X069250Y063043*
G37*
G36*
X050550Y063550D02*
X050157D01*
X050166Y063484*
X050211Y063375*
X050282Y063282*
X050375Y063211*
X050484Y063166*
X050550Y063157*
Y063550*
G37*
G36*
X051043D02*
X050650D01*
Y063157*
X050716Y063166*
X050825Y063211*
X050918Y063282*
X050989Y063375*
X051034Y063484*
X051043Y063550*
G37*
G36*
X069643Y062550D02*
X069250D01*
Y062157*
X069316Y062166*
X069425Y062211*
X069518Y062282*
X069589Y062375*
X069634Y062484*
X069643Y062550*
G37*
G36*
X052045Y064045D02*
X051155D01*
Y063155*
X052045*
Y064045*
G37*
G36*
X052600Y063429D02*
X052489Y063415D01*
X052385Y063372*
X052296Y063304*
X052228Y063215*
X052185Y063111*
X052171Y063000*
X052185Y062889*
X052228Y062785*
X052296Y062696*
X052385Y062628*
X052489Y062585*
X052600Y062571*
X052711Y062585*
X052815Y062628*
X052904Y062696*
X052972Y062785*
X053015Y062889*
X053029Y063000*
X053015Y063111*
X052972Y063215*
X052904Y063304*
X052815Y063372*
X052711Y063415*
X052600Y063429*
G37*
G36*
X069044Y069293D02*
Y068950D01*
X069387*
X069380Y069003*
X069340Y069100*
X069276Y069182*
X069193Y069246*
X069097Y069286*
X069044Y069293*
G37*
G36*
X064097Y070081D02*
X063981Y070065D01*
X063872Y070020*
X063779Y069949*
X063708Y069856*
X063663Y069748*
X063648Y069632*
X063663Y069515*
X063708Y069407*
X063779Y069314*
X063872Y069243*
X063981Y069198*
X064097Y069182*
X064213Y069198*
X064321Y069243*
X064414Y069314*
X064486Y069407*
X064531Y069515*
X064546Y069632*
X064531Y069748*
X064486Y069856*
X064414Y069949*
X064321Y070020*
X064213Y070065*
X064097Y070081*
G37*
G36*
X069387Y068850D02*
X069044D01*
Y068507*
X069097Y068514*
X069193Y068554*
X069276Y068618*
X069340Y068700*
X069380Y068797*
X069387Y068850*
G37*
G36*
X067097Y069081D02*
X066981Y069065D01*
X066872Y069020*
X066779Y068949*
X066708Y068856*
X066663Y068748*
X066648Y068632*
X066663Y068515*
X066708Y068407*
X066779Y068314*
X066872Y068243*
X066981Y068198*
X067097Y068182*
X067213Y068198*
X067321Y068243*
X067414Y068314*
X067486Y068407*
X067531Y068515*
X067546Y068632*
X067531Y068748*
X067486Y068856*
X067414Y068949*
X067321Y069020*
X067213Y069065*
X067097Y069081*
G37*
G36*
X068602Y069296D02*
X067810D01*
Y068504*
X068602*
Y068681*
X068604Y068682*
X068650Y068698*
X068711Y068618*
X068794Y068554*
X068890Y068514*
X068944Y068507*
Y068900*
Y069293*
X068890Y069286*
X068794Y069246*
X068711Y069182*
X068650Y069102*
X068604Y069118*
X068602Y069119*
Y069296*
G37*
G36*
X050956Y070593D02*
X050903Y070586D01*
X050807Y070546*
X050724Y070482*
X050660Y070400*
X050620Y070303*
X050613Y070250*
X050956*
Y070593*
G37*
G36*
X068996Y071890D02*
X068204D01*
Y071098*
X068381*
X068382Y071096*
X068398Y071050*
X068318Y070989*
X068277Y070936*
X068172*
X068084Y070918*
X068009Y070869*
X067533Y070392*
X067491Y070419*
X067531Y070515*
X067546Y070631*
X067531Y070748*
X067486Y070856*
X067414Y070949*
X067321Y071020*
X067213Y071065*
X067097Y071081*
X066981Y071065*
X066872Y071020*
X066779Y070949*
X066708Y070856*
X066663Y070748*
X066648Y070631*
X066663Y070515*
X066708Y070407*
X066779Y070314*
X066872Y070243*
X066981Y070198*
X067097Y070182*
X067213Y070198*
X067309Y070237*
X067337Y070196*
X067207Y070066*
X067097Y070081*
X066981Y070065*
X066872Y070020*
X066779Y069949*
X066708Y069856*
X066663Y069748*
X066648Y069632*
X066663Y069515*
X066708Y069407*
X066779Y069314*
X066872Y069243*
X066981Y069198*
X067097Y069182*
X067213Y069198*
X067321Y069243*
X067414Y069314*
X067486Y069407*
X067531Y069515*
X067546Y069632*
X067531Y069742*
X068246Y070456*
X068295Y070453*
X068318Y070424*
X068400Y070360*
X068497Y070320*
X068600Y070307*
X068703Y070320*
X068800Y070360*
X068882Y070424*
X068946Y070507*
X068986Y070603*
X069000Y070706*
X068986Y070810*
X068946Y070906*
X068882Y070989*
X068800Y071052*
X068714Y071088*
X068703Y071092*
X068704Y071098*
X068996*
Y071890*
G37*
G36*
X064539Y070581D02*
X064147D01*
Y070189*
X064213Y070198*
X064321Y070243*
X064414Y070314*
X064486Y070407*
X064531Y070515*
X064539Y070581*
G37*
G36*
X050956Y070150D02*
X050613D01*
X050620Y070097*
X050660Y070000*
X050724Y069918*
X050807Y069854*
X050903Y069814*
X050956Y069807*
Y070150*
G37*
G36*
X064047Y070581D02*
X063654D01*
X063663Y070515*
X063708Y070407*
X063779Y070314*
X063872Y070243*
X063981Y070198*
X064047Y070189*
Y070581*
G37*
G36*
X064097Y069081D02*
X063981Y069065D01*
X063872Y069020*
X063779Y068949*
X063708Y068856*
X063663Y068748*
X063648Y068632*
X063663Y068515*
X063708Y068407*
X063779Y068314*
X063872Y068243*
X063981Y068198*
X064097Y068182*
X064213Y068198*
X064321Y068243*
X064414Y068314*
X064486Y068407*
X064531Y068515*
X064546Y068632*
X064531Y068748*
X064486Y068856*
X064414Y068949*
X064321Y069020*
X064213Y069065*
X064097Y069081*
G37*
G36*
X051982Y066725D02*
X051018D01*
X051028Y066648*
X051077Y066530*
X051154Y066429*
X051256Y066351*
X051359Y066308*
X051350Y066259*
X051015*
Y065290*
X051985*
Y066259*
X051650*
X051641Y066308*
X051744Y066351*
X051846Y066429*
X051923Y066530*
X051972Y066648*
X051982Y066725*
G37*
G36*
X068996Y067290D02*
X068204D01*
Y066498*
X068381*
X068382Y066496*
X068398Y066450*
X068318Y066389*
X068254Y066306*
X068214Y066210*
X068201Y066106*
X068214Y066003*
X068254Y065907*
X068318Y065824*
X068400Y065760*
X068497Y065720*
X068600Y065707*
X068703Y065720*
X068800Y065760*
X068882Y065824*
X068946Y065907*
X068986Y066003*
X069000Y066106*
X068986Y066210*
X068946Y066306*
X068882Y066389*
X068800Y066452*
X068714Y066488*
X068703Y066492*
X068704Y066498*
X068996*
Y067290*
G37*
G36*
X067097Y066081D02*
X066981Y066065D01*
X066872Y066020*
X066779Y065949*
X066708Y065856*
X066663Y065748*
X066648Y065631*
X066663Y065515*
X066708Y065407*
X066779Y065314*
X066872Y065243*
X066981Y065198*
X067097Y065182*
X067213Y065198*
X067321Y065243*
X067414Y065314*
X067486Y065407*
X067531Y065515*
X067546Y065631*
X067531Y065748*
X067486Y065856*
X067414Y065949*
X067321Y066020*
X067213Y066065*
X067097Y066081*
G37*
G36*
X052650Y065423D02*
Y065050D01*
X053023*
X053015Y065111*
X052972Y065215*
X052904Y065304*
X052815Y065372*
X052711Y065415*
X052650Y065423*
G37*
G36*
X064097Y066081D02*
X063981Y066065D01*
X063872Y066020*
X063779Y065949*
X063708Y065856*
X063663Y065748*
X063648Y065631*
X063663Y065515*
X063708Y065407*
X063779Y065314*
X063872Y065243*
X063981Y065198*
X064097Y065182*
X064213Y065198*
X064321Y065243*
X064414Y065314*
X064486Y065407*
X064531Y065515*
X064546Y065631*
X064531Y065748*
X064486Y065856*
X064414Y065949*
X064321Y066020*
X064213Y066065*
X064097Y066081*
G37*
G36*
Y068081D02*
X063981Y068065D01*
X063872Y068020*
X063779Y067949*
X063708Y067856*
X063663Y067748*
X063648Y067632*
X063663Y067515*
X063708Y067407*
X063779Y067314*
X063872Y067243*
X063981Y067198*
X064097Y067182*
X064213Y067198*
X064321Y067243*
X064414Y067314*
X064486Y067407*
X064531Y067515*
X064546Y067632*
X064531Y067748*
X064486Y067856*
X064414Y067949*
X064321Y068020*
X064213Y068065*
X064097Y068081*
G37*
G36*
X067097D02*
X066981Y068065D01*
X066872Y068020*
X066779Y067949*
X066708Y067856*
X066663Y067748*
X066648Y067632*
X066663Y067515*
X066708Y067407*
X066779Y067314*
X066872Y067243*
X066981Y067198*
X067097Y067182*
X067213Y067198*
X067321Y067243*
X067414Y067314*
X067486Y067407*
X067531Y067515*
X067546Y067632*
X067531Y067748*
X067486Y067856*
X067414Y067949*
X067321Y068020*
X067213Y068065*
X067097Y068081*
G37*
G36*
X051500Y068264D02*
X051373Y068247D01*
X051256Y068198*
X051154Y068120*
X051077Y068019*
X051028Y067901*
X051011Y067775*
X051028Y067648*
X051077Y067530*
X051154Y067429*
X051256Y067351*
X051373Y067303*
X051395Y067300*
Y067250*
X051373Y067247*
X051256Y067198*
X051154Y067120*
X051077Y067019*
X051028Y066901*
X051018Y066825*
X051982*
X051972Y066901*
X051923Y067019*
X051846Y067120*
X051744Y067198*
X051627Y067247*
X051605Y067250*
Y067300*
X051627Y067303*
X051744Y067351*
X051846Y067429*
X051923Y067530*
X051972Y067648*
X051989Y067775*
X051972Y067901*
X051923Y068019*
X051846Y068120*
X051744Y068198*
X051627Y068247*
X051500Y068264*
G37*
G36*
X064097Y067081D02*
X063981Y067065D01*
X063872Y067020*
X063779Y066949*
X063708Y066856*
X063663Y066748*
X063648Y066631*
X063663Y066515*
X063708Y066407*
X063779Y066314*
X063872Y066243*
X063981Y066198*
X064097Y066182*
X064213Y066198*
X064321Y066243*
X064414Y066314*
X064486Y066407*
X064531Y066515*
X064546Y066631*
X064531Y066748*
X064486Y066856*
X064414Y066949*
X064321Y067020*
X064213Y067065*
X064097Y067081*
G37*
G36*
X067097D02*
X066981Y067065D01*
X066872Y067020*
X066779Y066949*
X066708Y066856*
X066663Y066748*
X066648Y066631*
X066663Y066515*
X066708Y066407*
X066779Y066314*
X066872Y066243*
X066981Y066198*
X067097Y066182*
X067213Y066198*
X067321Y066243*
X067414Y066314*
X067486Y066407*
X067531Y066515*
X067546Y066631*
X067531Y066748*
X067486Y066856*
X067414Y066949*
X067321Y067020*
X067213Y067065*
X067097Y067081*
G37*
G36*
X064250Y055443D02*
Y055050D01*
X064643*
X064634Y055116*
X064589Y055225*
X064518Y055318*
X064425Y055389*
X064316Y055434*
X064250Y055443*
G37*
G36*
X056350Y058042D02*
X056166Y058024D01*
X055990Y057970*
X055827Y057883*
X055684Y057766*
X055567Y057623*
X055480Y057460*
X055426Y057284*
X055408Y057100*
X055426Y056916*
X055480Y056740*
X055567Y056577*
X055684Y056434*
X055827Y056317*
X055990Y056230*
X056166Y056176*
X056350Y056158*
X056534Y056176*
X056710Y056230*
X056873Y056317*
X057016Y056434*
X057133Y056577*
X057220Y056740*
X057274Y056916*
X057292Y057100*
X057274Y057284*
X057220Y057460*
X057133Y057623*
X057016Y057766*
X056873Y057883*
X056710Y057970*
X056534Y058024*
X056350Y058042*
G37*
G36*
X064150Y055443D02*
X064084Y055434D01*
X063975Y055389*
X063882Y055318*
X063811Y055225*
X063766Y055116*
X063757Y055050*
X064150*
Y055443*
G37*
G36*
X064643Y054950D02*
X064250D01*
Y054557*
X064316Y054566*
X064425Y054611*
X064518Y054682*
X064589Y054775*
X064634Y054884*
X064643Y054950*
G37*
G36*
X053200Y055829D02*
X053089Y055815D01*
X052985Y055772*
X052896Y055704*
X052828Y055615*
X052785Y055511*
X052771Y055400*
X052785Y055289*
X052828Y055185*
X052896Y055096*
X052985Y055028*
X053089Y054985*
X053200Y054971*
X053311Y054985*
X053415Y055028*
X053504Y055096*
X053572Y055185*
X053615Y055289*
X053629Y055400*
X053615Y055511*
X053572Y055615*
X053504Y055704*
X053415Y055772*
X053311Y055815*
X053200Y055829*
G37*
G36*
X069200Y057229D02*
X069089Y057215D01*
X068985Y057172*
X068896Y057104*
X068828Y057015*
X068785Y056911*
X068771Y056800*
X068785Y056689*
X068828Y056585*
X068896Y056496*
X068985Y056428*
X069089Y056385*
X069200Y056371*
X069311Y056385*
X069415Y056428*
X069504Y056496*
X069572Y056585*
X069615Y056689*
X069629Y056800*
X069615Y056911*
X069572Y057015*
X069504Y057104*
X069415Y057172*
X069311Y057215*
X069200Y057229*
G37*
G36*
X069150Y058750D02*
X068777D01*
X068785Y058689*
X068828Y058585*
X068896Y058496*
X068985Y058428*
X069089Y058385*
X069150Y058377*
Y058750*
G37*
G36*
X065234Y059140D02*
X065014Y059123D01*
X064800Y059071*
X064596Y058987*
X064408Y058872*
X064241Y058729*
X064098Y058561*
X063983Y058373*
X063898Y058170*
X063847Y057956*
X063830Y057736*
X063847Y057516*
X063898Y057302*
X063983Y057098*
X064098Y056910*
X064241Y056743*
X064408Y056600*
X064596Y056485*
X064800Y056400*
X065014Y056349*
X065234Y056331*
X065454Y056349*
X065668Y056400*
X065871Y056485*
X066059Y056600*
X066227Y056743*
X066370Y056910*
X066485Y057098*
X066569Y057302*
X066621Y057516*
X066638Y057736*
X066621Y057956*
X066569Y058170*
X066485Y058373*
X066370Y058561*
X066227Y058729*
X066059Y058872*
X065871Y058987*
X065668Y059071*
X065454Y059123*
X065234Y059140*
G37*
G36*
X060850Y058042D02*
X060666Y058024D01*
X060490Y057970*
X060327Y057883*
X060184Y057766*
X060067Y057623*
X059980Y057460*
X059926Y057284*
X059908Y057100*
X059926Y056916*
X059980Y056740*
X060067Y056577*
X060184Y056434*
X060327Y056317*
X060490Y056230*
X060666Y056176*
X060850Y056158*
X061034Y056176*
X061210Y056230*
X061373Y056317*
X061516Y056434*
X061633Y056577*
X061720Y056740*
X061774Y056916*
X061792Y057100*
X061774Y057284*
X061720Y057460*
X061633Y057623*
X061516Y057766*
X061373Y057883*
X061210Y057970*
X061034Y058024*
X060850Y058042*
G37*
G36*
X051734Y059140D02*
X051514Y059123D01*
X051300Y059071*
X051096Y058987*
X050908Y058872*
X050741Y058729*
X050598Y058561*
X050483Y058373*
X050398Y058170*
X050347Y057956*
X050330Y057736*
X050347Y057516*
X050398Y057302*
X050483Y057098*
X050598Y056910*
X050741Y056743*
X050908Y056600*
X051096Y056485*
X051300Y056400*
X051514Y056349*
X051734Y056331*
X051954Y056349*
X052168Y056400*
X052371Y056485*
X052559Y056600*
X052727Y056743*
X052870Y056910*
X052985Y057098*
X053069Y057302*
X053121Y057516*
X053138Y057736*
X053121Y057956*
X053069Y058170*
X052985Y058373*
X052870Y058561*
X052727Y058729*
X052559Y058872*
X052371Y058987*
X052168Y059071*
X051954Y059123*
X051734Y059140*
G37*
G36*
X064150Y054950D02*
X063757D01*
X063766Y054884*
X063811Y054775*
X063882Y054682*
X063975Y054611*
X064084Y054566*
X064150Y054557*
Y054950*
G37*
G36*
X063550Y053950D02*
X063177D01*
X063185Y053889*
X063228Y053785*
X063296Y053696*
X063385Y053628*
X063489Y053585*
X063550Y053577*
Y053950*
G37*
G36*
X064023D02*
X063650D01*
Y053577*
X063711Y053585*
X063815Y053628*
X063904Y053696*
X063972Y053785*
X064015Y053889*
X064023Y053950*
G37*
G36*
X065600Y054429D02*
X065489Y054415D01*
X065385Y054372*
X065296Y054304*
X065228Y054215*
X065185Y054111*
X065171Y054000*
X065185Y053889*
X065228Y053785*
X065296Y053696*
X065385Y053628*
X065489Y053585*
X065600Y053571*
X065711Y053585*
X065815Y053628*
X065904Y053696*
X065972Y053785*
X066015Y053889*
X066029Y054000*
X066015Y054111*
X065972Y054215*
X065904Y054304*
X065815Y054372*
X065711Y054415*
X065600Y054429*
G37*
G36*
X053150Y053823D02*
X053089Y053815D01*
X052985Y053772*
X052896Y053704*
X052828Y053615*
X052785Y053511*
X052777Y053450*
X053150*
Y053823*
G37*
G36*
X053250D02*
Y053450D01*
X053623*
X053615Y053511*
X053572Y053615*
X053504Y053704*
X053415Y053772*
X053311Y053815*
X053250Y053823*
G37*
G36*
X063200Y055449D02*
X063084Y055434D01*
X062975Y055389*
X062882Y055318*
X062811Y055225*
X062766Y055116*
X062751Y055000*
X062766Y054884*
X062811Y054775*
X062882Y054682*
X062975Y054611*
X063084Y054566*
X063200Y054551*
X063316Y054566*
X063425Y054611*
X063518Y054682*
X063589Y054775*
X063634Y054884*
X063649Y055000*
X063634Y055116*
X063589Y055225*
X063518Y055318*
X063425Y055389*
X063316Y055434*
X063200Y055449*
G37*
G36*
X065645Y055445D02*
X064755D01*
Y054555*
X065645*
Y055445*
G37*
G36*
X062200Y055449D02*
X062084Y055434D01*
X061975Y055389*
X061882Y055318*
X061811Y055225*
X061766Y055116*
X061751Y055000*
X061766Y054884*
X061811Y054775*
X061882Y054682*
X061975Y054611*
X062084Y054566*
X062200Y054551*
X062316Y054566*
X062425Y054611*
X062518Y054682*
X062589Y054775*
X062634Y054884*
X062649Y055000*
X062634Y055116*
X062589Y055225*
X062518Y055318*
X062425Y055389*
X062316Y055434*
X062200Y055449*
G37*
G36*
X063550Y054423D02*
X063489Y054415D01*
X063385Y054372*
X063296Y054304*
X063228Y054215*
X063185Y054111*
X063177Y054050*
X063550*
Y054423*
G37*
G36*
X063650D02*
Y054050D01*
X064023*
X064015Y054111*
X063972Y054215*
X063904Y054304*
X063815Y054372*
X063711Y054415*
X063650Y054423*
G37*
G36*
X065050Y062523D02*
Y062150D01*
X065423*
X065415Y062211*
X065372Y062315*
X065304Y062404*
X065215Y062472*
X065111Y062515*
X065050Y062523*
G37*
G36*
X066645Y063045D02*
X065755D01*
Y062155*
X066645*
Y063045*
G37*
G36*
X064950Y062523D02*
X064889Y062515D01*
X064785Y062472*
X064696Y062404*
X064628Y062315*
X064585Y062211*
X064577Y062150*
X064950*
Y062523*
G37*
G36*
Y062050D02*
X064577D01*
X064585Y061989*
X064628Y061885*
X064696Y061796*
X064785Y061728*
X064889Y061685*
X064950Y061677*
Y062050*
G37*
G36*
X065423D02*
X065050D01*
Y061677*
X065111Y061685*
X065215Y061728*
X065304Y061796*
X065372Y061885*
X065415Y061989*
X065423Y062050*
G37*
G36*
X068643Y062550D02*
X068250D01*
Y062157*
X068316Y062166*
X068425Y062211*
X068518Y062282*
X068589Y062375*
X068634Y062484*
X068643Y062550*
G37*
G36*
X069150D02*
X068757D01*
X068766Y062484*
X068811Y062375*
X068882Y062282*
X068975Y062211*
X069084Y062166*
X069150Y062157*
Y062550*
G37*
G36*
X068150D02*
X067757D01*
X067766Y062484*
X067811Y062375*
X067882Y062282*
X067975Y062211*
X068084Y062166*
X068150Y062157*
Y062550*
G37*
G36*
X067150D02*
X066757D01*
X066766Y062484*
X066811Y062375*
X066882Y062282*
X066975Y062211*
X067084Y062166*
X067150Y062157*
Y062550*
G37*
G36*
X067643D02*
X067250D01*
Y062157*
X067316Y062166*
X067425Y062211*
X067518Y062282*
X067589Y062375*
X067634Y062484*
X067643Y062550*
G37*
G36*
X051990Y061196D02*
X051198D01*
Y061019*
X051196Y061018*
X051150Y061002*
X051089Y061082*
X051006Y061146*
X050910Y061186*
X050856Y061193*
Y060800*
Y060407*
X050910Y060414*
X051006Y060454*
X051089Y060518*
X051150Y060598*
X051196Y060582*
X051198Y060581*
Y060404*
X051990*
Y061196*
G37*
G36*
X067200Y060049D02*
X067084Y060034D01*
X066975Y059989*
X066882Y059918*
X066811Y059825*
X066766Y059716*
X066751Y059600*
X066766Y059484*
X066811Y059375*
X066882Y059282*
X066975Y059211*
X067084Y059166*
X067200Y059151*
X067316Y059166*
X067425Y059211*
X067518Y059282*
X067589Y059375*
X067634Y059484*
X067649Y059600*
X067634Y059716*
X067589Y059825*
X067518Y059918*
X067425Y059989*
X067316Y060034*
X067200Y060049*
G37*
G36*
X068200D02*
X068084Y060034D01*
X067975Y059989*
X067882Y059918*
X067811Y059825*
X067766Y059716*
X067751Y059600*
X067766Y059484*
X067811Y059375*
X067882Y059282*
X067975Y059211*
X068084Y059166*
X068200Y059151*
X068316Y059166*
X068425Y059211*
X068518Y059282*
X068589Y059375*
X068634Y059484*
X068649Y059600*
X068634Y059716*
X068589Y059825*
X068518Y059918*
X068425Y059989*
X068316Y060034*
X068200Y060049*
G37*
G36*
X066200D02*
X066084Y060034D01*
X065975Y059989*
X065882Y059918*
X065811Y059825*
X065766Y059716*
X065751Y059600*
X065766Y059484*
X065811Y059375*
X065882Y059282*
X065975Y059211*
X066084Y059166*
X066200Y059151*
X066316Y059166*
X066425Y059211*
X066518Y059282*
X066589Y059375*
X066634Y059484*
X066649Y059600*
X066634Y059716*
X066589Y059825*
X066518Y059918*
X066425Y059989*
X066316Y060034*
X066200Y060049*
G37*
G36*
X069623Y058750D02*
X069250D01*
Y058377*
X069311Y058385*
X069415Y058428*
X069504Y058496*
X069572Y058585*
X069615Y058689*
X069623Y058750*
G37*
G36*
X069643Y059550D02*
X068757D01*
X068766Y059484*
X068811Y059375*
X068882Y059282*
X068973Y059213*
Y059206*
X068947Y059142*
X068896Y059104*
X068828Y059015*
X068785Y058911*
X068777Y058850*
X069623*
X069615Y058911*
X069572Y059015*
X069504Y059104*
X069415Y059172*
Y059207*
X069425Y059211*
X069518Y059282*
X069589Y059375*
X069634Y059484*
X069643Y059550*
G37*
G36*
X050756Y060750D02*
X050413D01*
X050420Y060697*
X050460Y060600*
X050524Y060518*
X050607Y060454*
X050703Y060414*
X050756Y060407*
Y060750*
G37*
G36*
Y061193D02*
X050703Y061186D01*
X050607Y061146*
X050524Y061082*
X050460Y061000*
X050420Y060903*
X050413Y060850*
X050756*
Y061193*
G37*
G36*
X065000Y060529D02*
X064889Y060515D01*
X064785Y060472*
X064696Y060404*
X064628Y060315*
X064585Y060211*
X064571Y060100*
X064585Y059989*
X064628Y059885*
X064696Y059796*
X064785Y059728*
X064889Y059685*
X065000Y059671*
X065111Y059685*
X065215Y059728*
X065304Y059796*
X065372Y059885*
X065415Y059989*
X065429Y060100*
X065415Y060211*
X065372Y060315*
X065304Y060404*
X065215Y060472*
X065111Y060515*
X065000Y060529*
G37*
G36*
X069150Y060043D02*
X069084Y060034D01*
X068975Y059989*
X068882Y059918*
X068811Y059825*
X068766Y059716*
X068757Y059650*
X069150*
Y060043*
G37*
G36*
X069250D02*
Y059650D01*
X069643*
X069634Y059716*
X069589Y059825*
X069518Y059918*
X069425Y059989*
X069316Y060034*
X069250Y060043*
G37*
G36*
X058000Y083849D02*
X057884Y083834D01*
X057775Y083789*
X057682Y083718*
X057611Y083625*
X057566Y083516*
X057551Y083400*
X057566Y083284*
X057611Y083175*
X057682Y083082*
X057775Y083011*
X057884Y082966*
X058000Y082951*
X058116Y082966*
X058225Y083011*
X058318Y083082*
X058389Y083175*
X058434Y083284*
X058449Y083400*
X058434Y083516*
X058389Y083625*
X058318Y083718*
X058225Y083789*
X058116Y083834*
X058000Y083849*
G37*
G36*
X069550Y083550D02*
X069157D01*
X069166Y083484*
X069211Y083375*
X069282Y083282*
X069375Y083211*
X069484Y083166*
X069550Y083157*
Y083550*
G37*
G36*
X053400Y083029D02*
X053289Y083015D01*
X053185Y082972*
X053096Y082904*
X053028Y082815*
X052985Y082711*
X052971Y082600*
X052985Y082489*
X053028Y082385*
X053096Y082296*
X053185Y082228*
X053289Y082185*
X053400Y082171*
X053511Y082185*
X053615Y082228*
X053704Y082296*
X053772Y082385*
X053815Y082489*
X053829Y082600*
X053815Y082711*
X053772Y082815*
X053704Y082904*
X053615Y082972*
X053511Y083015*
X053400Y083029*
G37*
G36*
X060950Y082150D02*
X060577D01*
X060585Y082089*
X060628Y081985*
X060696Y081896*
X060785Y081828*
X060889Y081785*
X060950Y081777*
Y082150*
G37*
G36*
X050200Y083029D02*
X050089Y083015D01*
X049985Y082972*
X049896Y082904*
X049828Y082815*
X049785Y082711*
X049771Y082600*
X049775Y082569*
X049458Y082252*
X049408Y082178*
X049391Y082090*
Y080370*
X049408Y080282*
X049458Y080208*
X050477Y079189*
Y078471*
X050310*
Y078003*
X050178Y077871*
X050128Y077796*
X050111Y077709*
Y075260*
X050128Y075172*
X050178Y075098*
X050549Y074726*
X050547Y074721*
X050531Y074600*
X050547Y074479*
X050594Y074366*
X050668Y074268*
X050766Y074194*
X050879Y074147*
X051000Y074131*
X051121Y074147*
X051234Y074194*
X051332Y074268*
X051406Y074366*
X051453Y074479*
X051469Y074600*
X051453Y074721*
X051406Y074834*
X051332Y074932*
X051234Y075006*
X051121Y075053*
X051000Y075069*
X050879Y075053*
X050874Y075051*
X050796Y075128*
X050824Y075170*
X050879Y075147*
X051000Y075131*
X051121Y075147*
X051234Y075194*
X051332Y075268*
X051406Y075366*
X051453Y075479*
X051469Y075600*
X051453Y075721*
X051406Y075834*
X051332Y075932*
X051234Y076006*
X051121Y076053*
X051000Y076069*
X050879Y076053*
X050766Y076006*
X050668Y075932*
X050617Y075864*
X050569Y075880*
Y077613*
X050635Y077679*
X051102*
Y077856*
X051104Y077857*
X051150Y077872*
X051211Y077792*
X051294Y077729*
X051390Y077689*
X051444Y077682*
Y078075*
Y078468*
X051390Y078461*
X051294Y078421*
X051211Y078357*
X051150Y078277*
X051104Y078292*
X051102Y078293*
Y078471*
X050936*
Y079284*
X050918Y079371*
X050869Y079446*
X049849Y080465*
Y081995*
X050054Y082200*
X050089Y082185*
X050200Y082171*
X050311Y082185*
X050415Y082228*
X050504Y082296*
X050572Y082385*
X050615Y082489*
X050629Y082600*
X050615Y082711*
X050572Y082815*
X050504Y082904*
X050415Y082972*
X050311Y083015*
X050200Y083029*
G37*
G36*
X058000Y084849D02*
X057884Y084834D01*
X057775Y084789*
X057682Y084718*
X057611Y084625*
X057566Y084516*
X057551Y084400*
X057566Y084284*
X057611Y084175*
X057682Y084082*
X057775Y084011*
X057884Y083966*
X058000Y083951*
X058116Y083966*
X058225Y084011*
X058318Y084082*
X058389Y084175*
X058434Y084284*
X058449Y084400*
X058434Y084516*
X058389Y084625*
X058318Y084718*
X058225Y084789*
X058116Y084834*
X058000Y084849*
G37*
G36*
X059000D02*
X058884Y084834D01*
X058775Y084789*
X058682Y084718*
X058611Y084625*
X058566Y084516*
X058551Y084400*
X058566Y084284*
X058611Y084175*
X058682Y084082*
X058775Y084011*
X058884Y083966*
X059000Y083951*
X059116Y083966*
X059225Y084011*
X059318Y084082*
X059389Y084175*
X059434Y084284*
X059449Y084400*
X059434Y084516*
X059389Y084625*
X059318Y084718*
X059225Y084789*
X059116Y084834*
X059000Y084849*
G37*
G36*
X068650Y084043D02*
Y083650D01*
X069043*
X069034Y083716*
X068989Y083825*
X068918Y083918*
X068825Y083989*
X068716Y084034*
X068650Y084043*
G37*
G36*
X061950Y083843D02*
X061884Y083834D01*
X061775Y083789*
X061682Y083718*
X061611Y083625*
X061566Y083516*
X061557Y083450*
X061950*
Y083843*
G37*
G36*
X062050D02*
Y083450D01*
X062443*
X062434Y083516*
X062389Y083625*
X062318Y083718*
X062225Y083789*
X062116Y083834*
X062050Y083843*
G37*
G36*
X063000Y082629D02*
X062889Y082615D01*
X062785Y082572*
X062696Y082504*
X062628Y082415*
X062585Y082311*
X062571Y082200*
X062585Y082089*
X062628Y081985*
X062696Y081896*
X062785Y081828*
X062889Y081785*
X063000Y081771*
X063111Y081785*
X063215Y081828*
X063304Y081896*
X063372Y081985*
X063415Y082089*
X063429Y082200*
X063415Y082311*
X063372Y082415*
X063304Y082504*
X063215Y082572*
X063111Y082615*
X063000Y082629*
G37*
G36*
X069550Y080550D02*
X069157D01*
X069166Y080484*
X069211Y080375*
X069282Y080282*
X069375Y080211*
X069484Y080166*
X069550Y080157*
Y080550*
G37*
G36*
Y081043D02*
X069484Y081034D01*
X069375Y080989*
X069282Y080918*
X069211Y080825*
X069166Y080716*
X069157Y080650*
X069550*
Y081043*
G37*
G36*
X068600Y081049D02*
X068484Y081034D01*
X068375Y080989*
X068282Y080918*
X068211Y080825*
X068166Y080716*
X068151Y080600*
X068166Y080484*
X068211Y080375*
X068282Y080282*
X068375Y080211*
X068484Y080166*
X068600Y080151*
X068716Y080166*
X068825Y080211*
X068918Y080282*
X068989Y080375*
X069034Y080484*
X069049Y080600*
X069034Y080716*
X068989Y080825*
X068918Y080918*
X068825Y080989*
X068716Y081034*
X068600Y081049*
G37*
G36*
Y080049D02*
X068484Y080034D01*
X068375Y079989*
X068282Y079918*
X068211Y079825*
X068166Y079716*
X068151Y079600*
X068166Y079484*
X068211Y079375*
X068282Y079282*
X068375Y079211*
X068484Y079166*
X068600Y079151*
X068716Y079166*
X068825Y079211*
X068918Y079282*
X068989Y079375*
X069034Y079484*
X069049Y079600*
X069034Y079716*
X068989Y079825*
X068918Y079918*
X068825Y079989*
X068716Y080034*
X068600Y080049*
G37*
G36*
X051734Y082640D02*
X051514Y082623D01*
X051300Y082571*
X051096Y082487*
X050908Y082372*
X050741Y082229*
X050598Y082061*
X050483Y081873*
X050398Y081670*
X050347Y081456*
X050330Y081236*
X050347Y081016*
X050398Y080802*
X050483Y080598*
X050598Y080410*
X050741Y080243*
X050908Y080100*
X051096Y079985*
X051300Y079900*
X051514Y079849*
X051734Y079831*
X051954Y079849*
X052168Y079900*
X052371Y079985*
X052559Y080100*
X052727Y080243*
X052870Y080410*
X052985Y080598*
X053069Y080802*
X053121Y081016*
X053138Y081236*
X053121Y081456*
X053069Y081670*
X052985Y081873*
X052870Y082061*
X052727Y082229*
X052559Y082372*
X052371Y082487*
X052168Y082571*
X051954Y082623*
X051734Y082640*
G37*
G36*
X061423Y082150D02*
X061050D01*
Y081777*
X061080Y081781*
X061089Y081769*
X061107Y081738*
X061038Y081649*
X060993Y081541*
X060985Y081474*
X061377*
Y081867*
X061335Y081861*
X061310Y081905*
X061372Y081985*
X061415Y082089*
X061423Y082150*
G37*
G36*
X061477Y081867D02*
Y081474D01*
X061870*
X061861Y081541*
X061816Y081649*
X061745Y081742*
X061652Y081813*
X061543Y081858*
X061477Y081867*
G37*
G36*
X062427Y081874D02*
X062311Y081858D01*
X062203Y081813*
X062110Y081742*
X062038Y081649*
X061993Y081541*
X061978Y081424*
X061993Y081314*
X061863Y081185*
X061821Y081212*
X061861Y081308*
X061870Y081374*
X061477*
Y080982*
X061543Y080991*
X061639Y081030*
X061667Y080989*
X060808Y080129*
X054820*
X054732Y080112*
X054658Y080062*
X054028Y079432*
X053978Y079358*
X053961Y079270*
Y076485*
X053493Y076017*
X053400Y076029*
X053289Y076015*
X053185Y075972*
X053096Y075904*
X053028Y075815*
X052985Y075711*
X052971Y075600*
X052985Y075489*
X053028Y075385*
X053096Y075296*
X053185Y075228*
X053289Y075185*
X053400Y075171*
X053511Y075185*
X053615Y075228*
X053704Y075296*
X053772Y075385*
X053815Y075489*
X053829Y075600*
X053817Y075693*
X054352Y076228*
X054402Y076302*
X054419Y076390*
Y079175*
X054915Y079671*
X060903*
X060991Y079688*
X061065Y079738*
X062317Y080990*
X062427Y080975*
X062543Y080991*
X062652Y081035*
X062745Y081107*
X062816Y081200*
X062861Y081308*
X062876Y081424*
X062861Y081541*
X062816Y081649*
X062745Y081742*
X062652Y081813*
X062543Y081858*
X062427Y081874*
G37*
G36*
X060427D02*
X060311Y081858D01*
X060203Y081813*
X060110Y081742*
X060038Y081649*
X059993Y081541*
X059978Y081424*
X059993Y081308*
X060038Y081200*
X060110Y081107*
X060203Y081035*
X060311Y080991*
X060427Y080975*
X060543Y080991*
X060652Y081035*
X060745Y081107*
X060816Y081200*
X060861Y081308*
X060876Y081424*
X060861Y081541*
X060816Y081649*
X060745Y081742*
X060652Y081813*
X060543Y081858*
X060427Y081874*
G37*
G36*
X061377Y081374D02*
X060985D01*
X060993Y081308*
X061038Y081200*
X061110Y081107*
X061203Y081035*
X061311Y080991*
X061377Y080982*
Y081374*
G37*
G36*
X054043Y086950D02*
X053650D01*
Y086557*
X053716Y086566*
X053825Y086611*
X053918Y086682*
X053989Y086775*
X054034Y086884*
X054043Y086950*
G37*
G36*
X054900Y087629D02*
X054789Y087615D01*
X054685Y087572*
X054596Y087504*
X054528Y087415*
X054485Y087311*
X054471Y087200*
X054485Y087089*
X054528Y086985*
X054596Y086896*
X054685Y086828*
X054789Y086785*
X054900Y086771*
X055011Y086785*
X055115Y086828*
X055204Y086896*
X055272Y086985*
X055315Y087089*
X055329Y087200*
X055315Y087311*
X055272Y087415*
X055204Y087504*
X055115Y087572*
X055011Y087615*
X054900Y087629*
G37*
G36*
X053550Y086950D02*
X053157D01*
X053166Y086884*
X053211Y086775*
X053282Y086682*
X053375Y086611*
X053484Y086566*
X053550Y086557*
Y086950*
G37*
G36*
X055100Y086029D02*
X054989Y086015D01*
X054885Y085972*
X054796Y085904*
X054728Y085815*
X054685Y085711*
X054671Y085600*
X054685Y085489*
X054728Y085385*
X054796Y085296*
X054885Y085228*
X054989Y085185*
X055100Y085171*
X055211Y085185*
X055315Y085228*
X055404Y085296*
X055472Y085385*
X055515Y085489*
X055529Y085600*
X055515Y085711*
X055472Y085815*
X055404Y085904*
X055315Y085972*
X055211Y086015*
X055100Y086029*
G37*
G36*
X053045Y087445D02*
X052155D01*
Y086555*
X053045*
Y087445*
G37*
G36*
X064350Y087443D02*
X064284Y087434D01*
X064175Y087389*
X064082Y087318*
X064011Y087225*
X063966Y087116*
X063957Y087050*
X064350*
Y087443*
G37*
G36*
X064450D02*
Y087050D01*
X064843*
X064834Y087116*
X064789Y087225*
X064718Y087318*
X064625Y087389*
X064516Y087434*
X064450Y087443*
G37*
G36*
X053650D02*
Y087050D01*
X054043*
X054034Y087116*
X053989Y087225*
X053918Y087318*
X053825Y087389*
X053716Y087434*
X053650Y087443*
G37*
G36*
X057900Y087629D02*
X057789Y087615D01*
X057685Y087572*
X057596Y087504*
X057528Y087415*
X057485Y087311*
X057471Y087200*
X057485Y087089*
X057528Y086985*
X057596Y086896*
X057685Y086828*
X057789Y086785*
X057900Y086771*
X058011Y086785*
X058115Y086828*
X058204Y086896*
X058272Y086985*
X058315Y087089*
X058329Y087200*
X058315Y087311*
X058272Y087415*
X058204Y087504*
X058115Y087572*
X058011Y087615*
X057900Y087629*
G37*
G36*
X053550Y087443D02*
X053484Y087434D01*
X053375Y087389*
X053282Y087318*
X053211Y087225*
X053166Y087116*
X053157Y087050*
X053550*
Y087443*
G37*
G36*
X052100Y086029D02*
X051989Y086015D01*
X051885Y085972*
X051796Y085904*
X051728Y085815*
X051685Y085711*
X051671Y085600*
X051685Y085489*
X051728Y085385*
X051796Y085296*
X051885Y085228*
X051989Y085185*
X052100Y085171*
X052211Y085185*
X052315Y085228*
X052404Y085296*
X052472Y085385*
X052515Y085489*
X052529Y085600*
X052515Y085711*
X052472Y085815*
X052404Y085904*
X052315Y085972*
X052211Y086015*
X052100Y086029*
G37*
G36*
X053350Y084550D02*
X052977D01*
X052985Y084489*
X053028Y084385*
X053096Y084296*
X053185Y084228*
X053289Y084185*
X053350Y084177*
Y084550*
G37*
G36*
X053823D02*
X053450D01*
Y084177*
X053511Y084185*
X053615Y084228*
X053704Y084296*
X053772Y084385*
X053815Y084489*
X053823Y084550*
G37*
G36*
X050623D02*
X050250D01*
Y084177*
X050311Y084185*
X050415Y084228*
X050504Y084296*
X050572Y084385*
X050615Y084489*
X050623Y084550*
G37*
G36*
X062950Y084350D02*
X062557D01*
X062566Y084284*
X062611Y084175*
X062682Y084082*
X062775Y084011*
X062884Y083966*
X062950Y083957*
Y084350*
G37*
G36*
X050150Y084550D02*
X049777D01*
X049785Y084489*
X049828Y084385*
X049896Y084296*
X049985Y084228*
X050089Y084185*
X050150Y084177*
Y084550*
G37*
G36*
X053350Y085023D02*
X053289Y085015D01*
X053185Y084972*
X053096Y084904*
X053028Y084815*
X052985Y084711*
X052977Y084650*
X053350*
Y085023*
G37*
G36*
X053450D02*
Y084650D01*
X053823*
X053815Y084711*
X053772Y084815*
X053704Y084904*
X053615Y084972*
X053511Y085015*
X053450Y085023*
G37*
G36*
X050250D02*
Y084650D01*
X050623*
X050615Y084711*
X050572Y084815*
X050504Y084904*
X050415Y084972*
X050311Y085015*
X050250Y085023*
G37*
G36*
X059950Y084843D02*
X059884Y084834D01*
X059775Y084789*
X059682Y084718*
X059611Y084625*
X059566Y084516*
X059557Y084450*
X059950*
Y084843*
G37*
G36*
X050150Y085023D02*
X050089Y085015D01*
X049985Y084972*
X049896Y084904*
X049828Y084815*
X049785Y084711*
X049777Y084650*
X050150*
Y085023*
G37*
G36*
X053823Y073550D02*
X053450D01*
Y073177*
X053511Y073185*
X053615Y073228*
X053704Y073296*
X053772Y073385*
X053815Y073489*
X053823Y073550*
G37*
G36*
X056350Y075242D02*
X056166Y075224D01*
X055990Y075170*
X055827Y075083*
X055684Y074966*
X055567Y074823*
X055480Y074660*
X055426Y074484*
X055408Y074300*
X055426Y074116*
X055480Y073940*
X055567Y073777*
X055684Y073634*
X055827Y073517*
X055990Y073430*
X056166Y073376*
X056350Y073358*
X056534Y073376*
X056710Y073430*
X056873Y073517*
X057016Y073634*
X057133Y073777*
X057220Y073940*
X057274Y074116*
X057292Y074300*
X057274Y074484*
X057220Y074660*
X057133Y074823*
X057016Y074966*
X056873Y075083*
X056710Y075170*
X056534Y075224*
X056350Y075242*
G37*
G36*
X053350Y073550D02*
X052977D01*
X052985Y073489*
X053028Y073385*
X053096Y073296*
X053185Y073228*
X053289Y073185*
X053350Y073177*
Y073550*
G37*
G36*
X050950D02*
X050535D01*
Y073135*
X050950*
Y073550*
G37*
G36*
X051465D02*
X051050D01*
Y073135*
X051465*
Y073550*
G37*
G36*
Y074065D02*
X051050D01*
Y073650*
X051465*
Y074065*
G37*
G36*
X053350Y074023D02*
X053289Y074015D01*
X053185Y073972*
X053096Y073904*
X053028Y073815*
X052985Y073711*
X052977Y073650*
X053350*
Y074023*
G37*
G36*
X050950Y074065D02*
X050535D01*
Y073650*
X050950*
Y074065*
G37*
G36*
X060800Y075242D02*
X060616Y075224D01*
X060440Y075170*
X060277Y075083*
X060134Y074966*
X060017Y074823*
X059930Y074660*
X059876Y074484*
X059858Y074300*
X059876Y074116*
X059930Y073940*
X060017Y073777*
X060134Y073634*
X060277Y073517*
X060440Y073430*
X060616Y073376*
X060800Y073358*
X060984Y073376*
X061160Y073430*
X061323Y073517*
X061466Y073634*
X061583Y073777*
X061670Y073940*
X061724Y074116*
X061742Y074300*
X061724Y074484*
X061670Y074660*
X061583Y074823*
X061466Y074966*
X061323Y075083*
X061160Y075170*
X060984Y075224*
X060800Y075242*
G37*
G36*
X069044Y073793D02*
Y073450D01*
X069387*
X069380Y073503*
X069340Y073600*
X069276Y073682*
X069193Y073746*
X069097Y073786*
X069044Y073793*
G37*
G36*
X069387Y073350D02*
X069044D01*
Y073007*
X069097Y073014*
X069193Y073054*
X069276Y073118*
X069340Y073200*
X069380Y073297*
X069387Y073350*
G37*
G36*
X067542Y072077D02*
X066652D01*
Y071186*
X067542*
Y072077*
G37*
G36*
X049800Y072429D02*
X049689Y072415D01*
X049585Y072372*
X049496Y072304*
X049428Y072215*
X049385Y072111*
X049371Y072000*
X049385Y071889*
X049428Y071785*
X049496Y071696*
X049585Y071628*
X049689Y071585*
X049800Y071571*
X049911Y071585*
X050015Y071628*
X050104Y071696*
X050172Y071785*
X050215Y071889*
X050229Y072000*
X050215Y072111*
X050172Y072215*
X050104Y072304*
X050015Y072372*
X049911Y072415*
X049800Y072429*
G37*
G36*
X064147Y071074D02*
Y070682D01*
X064539*
X064531Y070748*
X064486Y070856*
X064414Y070949*
X064321Y071020*
X064213Y071065*
X064147Y071074*
G37*
G36*
X052190Y070596D02*
X051398D01*
Y070419*
X051396Y070418*
X051350Y070402*
X051289Y070482*
X051206Y070546*
X051110Y070586*
X051056Y070593*
Y070200*
Y069807*
X051110Y069814*
X051206Y069854*
X051289Y069918*
X051350Y069998*
X051396Y069982*
X051398Y069981*
Y069804*
X052190*
Y070596*
G37*
G36*
X064047Y071074D02*
X063981Y071065D01*
X063872Y071020*
X063779Y070949*
X063708Y070856*
X063663Y070748*
X063654Y070682*
X064047*
Y071074*
G37*
G36*
X051850Y072423D02*
Y072050D01*
X052223*
X052215Y072111*
X052172Y072215*
X052104Y072304*
X052015Y072372*
X051911Y072415*
X051850Y072423*
G37*
G36*
X068602Y073796D02*
X067810D01*
Y073328*
X067561Y073079*
X065350*
X065262Y073062*
X065188Y073012*
X064233Y072057*
X064213Y072065*
X064097Y072081*
X063981Y072065*
X063872Y072020*
X063779Y071949*
X063708Y071856*
X063663Y071748*
X063648Y071631*
X063663Y071515*
X063708Y071407*
X063779Y071314*
X063872Y071243*
X063981Y071198*
X064097Y071182*
X064213Y071198*
X064321Y071243*
X064414Y071314*
X064486Y071407*
X064531Y071515*
X064546Y071631*
X064535Y071711*
X065445Y072621*
X067656*
X067744Y072638*
X067819Y072688*
X068135Y073004*
X068602*
Y073181*
X068604Y073182*
X068650Y073198*
X068711Y073118*
X068794Y073054*
X068890Y073014*
X068944Y073007*
Y073400*
Y073793*
X068890Y073786*
X068794Y073746*
X068711Y073682*
X068650Y073602*
X068604Y073618*
X068602Y073619*
Y073796*
G37*
G36*
X051750Y072423D02*
X051689Y072415D01*
X051585Y072372*
X051496Y072304*
X051428Y072215*
X051385Y072111*
X051377Y072050*
X051750*
Y072423*
G37*
G36*
Y071950D02*
X051377D01*
X051385Y071889*
X051428Y071785*
X051496Y071696*
X051585Y071628*
X051689Y071585*
X051750Y071577*
Y071950*
G37*
G36*
X052223D02*
X051850D01*
Y071577*
X051911Y071585*
X052015Y071628*
X052104Y071696*
X052172Y071785*
X052215Y071889*
X052223Y071950*
G37*
G36*
X051544Y078468D02*
Y078125D01*
X051887*
X051880Y078178*
X051840Y078275*
X051776Y078357*
X051693Y078421*
X051597Y078461*
X051544Y078468*
G37*
G36*
X065500Y079149D02*
X065384Y079134D01*
X065275Y079089*
X065182Y079018*
X065111Y078925*
X065066Y078816*
X065051Y078700*
X065066Y078584*
X065111Y078475*
X065182Y078382*
X065275Y078311*
X065384Y078266*
X065500Y078251*
X065616Y078266*
X065725Y078311*
X065818Y078382*
X065889Y078475*
X065934Y078584*
X065949Y078700*
X065934Y078816*
X065889Y078925*
X065818Y079018*
X065725Y079089*
X065616Y079134*
X065500Y079149*
G37*
G36*
X051887Y078025D02*
X051544D01*
Y077682*
X051597Y077689*
X051693Y077729*
X051776Y077792*
X051840Y077875*
X051880Y077971*
X051887Y078025*
G37*
G36*
X066450Y077243D02*
X066384Y077234D01*
X066275Y077189*
X066182Y077118*
X066111Y077025*
X066066Y076916*
X066057Y076850*
X066450*
Y077243*
G37*
G36*
X066550D02*
Y076850D01*
X066943*
X066934Y076916*
X066889Y077025*
X066818Y077118*
X066725Y077189*
X066616Y077234*
X066550Y077243*
G37*
G36*
Y079143D02*
Y078750D01*
X066943*
X066934Y078816*
X066889Y078925*
X066818Y079018*
X066725Y079089*
X066616Y079134*
X066550Y079143*
G37*
G36*
X063050Y079389D02*
X057163D01*
X057075Y079372*
X057001Y079322*
X056537Y078859*
X056427Y078874*
X056311Y078858*
X056203Y078813*
X056110Y078742*
X056038Y078649*
X055993Y078541*
X055978Y078424*
X055993Y078308*
X056034Y078210*
X055993Y078182*
X055862Y078313*
X055876Y078424*
X055861Y078541*
X055816Y078649*
X055745Y078742*
X055652Y078813*
X055543Y078858*
X055427Y078874*
X055311Y078858*
X055203Y078813*
X055110Y078742*
X055038Y078649*
X054993Y078541*
X054978Y078424*
X054993Y078308*
X055038Y078200*
X055110Y078107*
X055203Y078035*
X055311Y077991*
X055427Y077975*
X055536Y077990*
X057078Y076448*
X057082Y076445*
X057090Y076396*
X057028Y076315*
X056985Y076211*
X056971Y076100*
X056985Y075989*
X057028Y075885*
X057096Y075796*
X057185Y075728*
X057289Y075685*
X057400Y075671*
X057511Y075685*
X057615Y075728*
X057704Y075796*
X057772Y075885*
X057815Y075989*
X057829Y076100*
X057815Y076211*
X057772Y076315*
X057756Y076336*
X057778Y076381*
X059022*
X059044Y076336*
X059028Y076315*
X058985Y076211*
X058977Y076150*
X059400*
Y076100*
X059450*
Y075677*
X059511Y075685*
X059615Y075728*
X059704Y075796*
X059772Y075885*
X059775Y075893*
X059825*
X059828Y075885*
X059896Y075796*
X059985Y075728*
X060089Y075685*
X060150Y075677*
Y076100*
X060200*
Y076150*
X060623*
X060615Y076211*
X060572Y076315*
X060556Y076336*
X060578Y076381*
X061822*
X061844Y076336*
X061828Y076315*
X061785Y076211*
X061771Y076100*
X061785Y075989*
X061828Y075885*
X061896Y075796*
X061985Y075728*
X062089Y075685*
X062200Y075671*
X062311Y075685*
X062415Y075728*
X062504Y075796*
X062572Y075885*
X062615Y075989*
X062629Y076100*
X062615Y076211*
X062572Y076315*
X062556Y076336*
X062578Y076381*
X064055*
Y076355*
X064945*
Y076875*
X064991Y076894*
X065055Y076831*
X065051Y076800*
X065066Y076684*
X065111Y076575*
X065182Y076482*
X065275Y076411*
X065384Y076366*
X065500Y076351*
X065616Y076366*
X065725Y076411*
X065818Y076482*
X065889Y076575*
X065934Y076684*
X065949Y076800*
X065934Y076916*
X065889Y077025*
X065818Y077118*
X065725Y077189*
X065616Y077234*
X065500Y077249*
X065384Y077234*
X065325Y077209*
X064326Y078209*
X064345Y078255*
X064945*
Y079145*
X064055*
Y078545*
X064009Y078526*
X063212Y079322*
X063138Y079372*
X063050Y079389*
G37*
G36*
X066450Y079143D02*
X066384Y079134D01*
X066275Y079089*
X066182Y079018*
X066111Y078925*
X066066Y078816*
X066057Y078750*
X066450*
Y079143*
G37*
G36*
Y078650D02*
X066057D01*
X066066Y078584*
X066111Y078475*
X066182Y078382*
X066275Y078311*
X066384Y078266*
X066450Y078257*
Y078650*
G37*
G36*
X066943D02*
X066550D01*
Y078257*
X066616Y078266*
X066725Y078311*
X066818Y078382*
X066889Y078475*
X066934Y078584*
X066943Y078650*
G37*
G36*
Y076750D02*
X066550D01*
Y076357*
X066616Y076366*
X066725Y076411*
X066818Y076482*
X066889Y076575*
X066934Y076684*
X066943Y076750*
G37*
G36*
X066450Y074950D02*
X066057D01*
X066066Y074884*
X066111Y074775*
X066182Y074682*
X066275Y074611*
X066384Y074566*
X066450Y074557*
Y074950*
G37*
G36*
X066943D02*
X066550D01*
Y074557*
X066616Y074566*
X066725Y074611*
X066818Y074682*
X066889Y074775*
X066934Y074884*
X066943Y074950*
G37*
G36*
X064945Y075445D02*
X064055D01*
Y074555*
X064945*
Y075445*
G37*
G36*
X053450Y074023D02*
Y073650D01*
X053823*
X053815Y073711*
X053772Y073815*
X053704Y073904*
X053615Y073972*
X053511Y074015*
X053450Y074023*
G37*
G36*
X065500Y075449D02*
X065384Y075434D01*
X065275Y075389*
X065182Y075318*
X065111Y075225*
X065066Y075116*
X065051Y075000*
X065066Y074884*
X065111Y074775*
X065182Y074682*
X065275Y074611*
X065384Y074566*
X065500Y074551*
X065616Y074566*
X065725Y074611*
X065818Y074682*
X065889Y074775*
X065934Y074884*
X065949Y075000*
X065934Y075116*
X065889Y075225*
X065818Y075318*
X065725Y075389*
X065616Y075434*
X065500Y075449*
G37*
G36*
X060623Y076050D02*
X060250D01*
Y075677*
X060311Y075685*
X060415Y075728*
X060504Y075796*
X060572Y075885*
X060615Y075989*
X060623Y076050*
G37*
G36*
X066450Y076750D02*
X066057D01*
X066066Y076684*
X066111Y076575*
X066182Y076482*
X066275Y076411*
X066384Y076366*
X066450Y076357*
Y076750*
G37*
G36*
X059350Y076050D02*
X058977D01*
X058985Y075989*
X059028Y075885*
X059096Y075796*
X059185Y075728*
X059289Y075685*
X059350Y075677*
Y076050*
G37*
G36*
X066450Y075443D02*
X066384Y075434D01*
X066275Y075389*
X066182Y075318*
X066111Y075225*
X066066Y075116*
X066057Y075050*
X066450*
Y075443*
G37*
G36*
X066550D02*
Y075050D01*
X066943*
X066934Y075116*
X066889Y075225*
X066818Y075318*
X066725Y075389*
X066616Y075434*
X066550Y075443*
G37*
%LNboardr2-3*%
%LPD*%
G54D10*
X067139Y081600D02*
X068600D01*
X066044Y082696D02*
X067139Y081600D01*
X069600Y079600D02*
X070120Y080120D01*
Y083815*
G54D11*
X064004Y082696D02*
X066044D01*
X063495Y083204D02*
X064004Y082696D01*
X063495Y083204D02*
Y084605D01*
X063130Y084970D02*
X063495Y084605D01*
X060870Y084970D02*
X063130D01*
X060505Y084605D02*
X060870Y084970D01*
X060505Y084204D02*
Y084605D01*
X060205Y083905D02*
X060505Y084204D01*
X059514Y083905D02*
X060205D01*
X059009Y083400D02*
X059514Y083905D01*
X059000Y083400D02*
X059009D01*
X060705Y083895D02*
X061486D01*
X060500Y083690D02*
X060705Y083895D01*
X060500Y083200D02*
Y083690D01*
X059395Y082905D02*
X060205D01*
X058970Y082480D02*
X059395Y082905D01*
X056730Y082480D02*
X058970D01*
X060205Y082905D02*
X060500Y083200D01*
X065500Y085600D02*
X066300D01*
X064505Y084605D02*
X065500Y085600D01*
X064505Y083905D02*
Y084605D01*
X064000Y083400D02*
X064505Y083905D01*
X068395Y083105D02*
X069095D01*
X068100Y083400D02*
X068395Y083105D01*
X069095D02*
X069600Y082600D01*
X056720Y082470D02*
X056730Y082480D01*
X061486Y083895D02*
X061991Y084400D01*
X062000*
X058490Y086160D02*
X066448D01*
X058380Y086480D02*
X066552D01*
X067770Y085262*
X057000Y084670D02*
X058490Y086160D01*
X056505Y084605D02*
X058380Y086480D01*
X067770Y084700D02*
Y085262D01*
X056505Y083905D02*
X057000Y083409D01*
X056505Y083905D02*
Y084605D01*
X067090Y084710D02*
Y085518D01*
X066448Y086160D02*
X067090Y085518D01*
G54D12*
X060624Y082775D02*
X062375D01*
X059819Y081970D02*
X060624Y082775D01*
X056237Y081970D02*
X059819D01*
X065000Y083400D02*
X068100D01*
X062375Y082775D02*
X063000Y083400D01*
X069526Y084410D02*
X070120Y083815D01*
X069150Y084410D02*
X069526D01*
X065780Y087780D02*
X069150Y084410D01*
X062860Y087780D02*
X065780D01*
X062120Y087040D02*
X062860Y087780D01*
X059404Y087040D02*
X062120D01*
X058841Y087603D02*
X059404Y087040D01*
X055427Y081424D02*
X055691D01*
X057000Y084400D02*
Y084670D01*
X055691Y081424D02*
X056237Y081970D01*
X065410Y076800D02*
X065500D01*
X063050Y079160D02*
X065410Y076800D01*
X057163Y079160D02*
X063050D01*
X056427Y078424D02*
X057163Y079160D01*
X064310Y076610D02*
X064500Y076800D01*
X057240Y076610D02*
X064310D01*
X055427Y078423D02*
X057240Y076610D01*
X055427Y078423D02*
Y078424D01*
X057000Y083400D02*
Y083409D01*
X050340Y077709D02*
X050706Y078075D01*
X050340Y075260D02*
Y077709D01*
Y075260D02*
X051000Y074600D01*
X067656Y072850D02*
X068206Y073400D01*
X065350Y072850D02*
X067656D01*
X064131Y071631D02*
X065350Y072850D01*
X064097Y071631D02*
X064131D01*
X067097Y069632D02*
X068172Y070706D01*
X068600*
X060903Y079900D02*
X062427Y081424D01*
X054820Y079900D02*
X060903D01*
X054190Y079270D02*
X054820Y079900D01*
X054190Y076390D02*
Y079270D01*
X053400Y075600D02*
X054190Y076390D01*
X049620Y082090D02*
X050130Y082600D01*
X049620Y080370D02*
Y082090D01*
Y080370D02*
X050706Y079284D01*
Y078075D02*
Y079284D01*
X067090Y084680D02*
Y084710D01*
X066790Y082600D02*
X066800Y082590D01*
X068590*
G54D13*
X068600Y083600D03*
X069600D03*
X068600Y082600D03*
X069600D03*
X068600Y081600D03*
X069600D03*
X068600Y080600D03*
X069600D03*
X068600Y079600D03*
X061597Y085635D03*
X058841D03*
Y087603D03*
X061597D03*
X050600Y063600D03*
X065500Y078700D03*
X066500D03*
X065500Y076800D03*
X066500D03*
X062200Y055000D03*
X063200D03*
X064200D03*
X065500Y075000D03*
X066500D03*
X056000Y084400D03*
X057000Y083400D03*
Y084400D03*
X058000Y083400D03*
Y084400D03*
X059000Y083400D03*
Y084400D03*
X060000Y083400D03*
Y084400D03*
X061000Y083400D03*
Y084400D03*
X062000Y083400D03*
Y084400D03*
X063000Y083400D03*
Y084400D03*
X064000Y083400D03*
Y084400D03*
X065000Y083400D03*
Y084400D03*
X053600Y087000D03*
X064400D03*
G54D14*
X069600Y079600D03*
G54D15*
X053400Y084600D03*
Y082600D03*
X051800Y072000D03*
X049800D03*
X062177Y077624D03*
X060177D03*
X059377D03*
X057377D03*
X062200Y076100D03*
X060200D03*
X057400D03*
X059400D03*
X065600Y054000D03*
X063600D03*
X063300Y085600D03*
X066300D03*
X052100D03*
X055100D03*
X063000Y082200D03*
X061000D03*
X065000Y062100D03*
Y060100D03*
X050200Y082600D03*
Y084600D03*
X057900Y087200D03*
X054900D03*
X069200Y056800D03*
Y058800D03*
X052600Y063000D03*
Y065000D03*
X053400Y073600D03*
Y075600D03*
X053200Y055400D03*
Y053400D03*
G54D16*
X051006Y070200D03*
X068600Y070706D03*
Y066106D03*
X068994Y068900D03*
Y073400D03*
X068600Y064694D03*
X051494Y078075D03*
X050806Y060800D03*
G54D17*
X051794Y070200D03*
X068206Y068900D03*
Y073400D03*
X050706Y078075D03*
X051594Y060800D03*
G54D18*
X067097Y071631D03*
G54D19*
X067097Y070631D03*
Y069632D03*
Y068632D03*
Y067632D03*
Y066631D03*
Y065631D03*
Y064632D03*
X064097Y071631D03*
Y070631D03*
Y069632D03*
Y068632D03*
Y067632D03*
Y066631D03*
Y065631D03*
Y064632D03*
X061427Y078424D03*
X060427D03*
X059427D03*
X058427D03*
X057427D03*
X056427D03*
X055427D03*
X062427Y081424D03*
X061427D03*
X060427D03*
X059427D03*
X058427D03*
X057427D03*
X056427D03*
X055427D03*
X067200Y062600D03*
X068200D03*
X069200D03*
X066200Y059600D03*
X067200D03*
X068200D03*
X069200D03*
G54D20*
X068600Y071494D03*
Y066894D03*
Y063906D03*
G54D21*
X051500Y067775D03*
Y066775D03*
G54D22*
X051500Y065775D03*
G54D23*
X051600Y063600D03*
X064500Y078700D03*
Y076800D03*
X065200Y055000D03*
X064500Y075000D03*
X056000Y083400D03*
X052600Y087000D03*
X065400D03*
G54D24*
X051734Y057736D03*
X065234D03*
Y081236D03*
X051734D03*
X050400Y086700D03*
X069000D03*
Y054200D03*
X050400D03*
G54D25*
X062427Y078424D03*
X066200Y062600D03*
G54D26*
X058500Y053700D03*
X055000D03*
G54D27*
X060850Y057100D03*
X056350D03*
Y074300D03*
X060800D03*
G54D28*
X051000Y073600D03*
G54D29*
X051000Y074600D03*
Y075600D03*
G54D30*
X066790Y082600D03*
X056720Y082470D03*
X067090Y084710D03*
X067770Y084700D03*
M02*