%FSDAX24Y24*%
%MOIN*%
%SFA1B1*%

%IPPOS*%
%ADD38C,0.001000*%
%LNboardr2-1*%
%LPD*%
G54D38*
X068423Y083600D02*
X068777D01*
X068600Y083423D02*
Y083777D01*
X069423Y083600D02*
X069777D01*
X069600Y083423D02*
Y083777D01*
X068423Y082600D02*
X068777D01*
X068600Y082423D02*
Y082777D01*
X069423Y082600D02*
X069777D01*
X069600Y082423D02*
Y082777D01*
X068423Y081600D02*
X068777D01*
X068600Y081423D02*
Y081777D01*
X069423Y081600D02*
X069777D01*
X069600Y081423D02*
Y081777D01*
X068423Y080600D02*
X068777D01*
X068600Y080423D02*
Y080777D01*
X069423Y080600D02*
X069777D01*
X069600Y080423D02*
Y080777D01*
X068423Y079600D02*
X068777D01*
X068600Y079423D02*
Y079777D01*
X069423Y079600D02*
X069777D01*
X069600Y079423D02*
Y079777D01*
X061400Y085635D02*
X061794D01*
X061597Y085438D02*
Y085831D01*
X058644Y085635D02*
X059038D01*
X058841Y085438D02*
Y085831D01*
X058644Y087603D02*
X059038D01*
X058841Y087406D02*
Y087800D01*
X061400Y087603D02*
X061794D01*
X061597Y087406D02*
Y087800D01*
X053233Y084600D02*
X053567D01*
X053400Y084433D02*
Y084767D01*
X053233Y082600D02*
X053567D01*
X053400Y082433D02*
Y082767D01*
X051633Y072000D02*
X051967D01*
X051800Y071833D02*
Y072167D01*
X049633Y072000D02*
X049967D01*
X049800Y071833D02*
Y072167D01*
X050859Y070200D02*
X051154D01*
X051006Y070052D02*
Y070348D01*
X051646Y070200D02*
X051941D01*
X051794Y070052D02*
Y070348D01*
X066920Y071631D02*
X067274D01*
X067097Y071454D02*
Y071809D01*
X066920Y070631D02*
X067274D01*
X067097Y070454D02*
Y070809D01*
X066920Y069632D02*
X067274D01*
X067097Y069454D02*
Y069809D01*
X066920Y068632D02*
X067274D01*
X067097Y068454D02*
Y068809D01*
X066920Y067632D02*
X067274D01*
X067097Y067454D02*
Y067809D01*
X066920Y066631D02*
X067274D01*
X067097Y066454D02*
Y066809D01*
X066920Y065631D02*
X067274D01*
X067097Y065454D02*
Y065809D01*
X066920Y064632D02*
X067274D01*
X067097Y064454D02*
Y064809D01*
X063920Y071631D02*
X064274D01*
X064097Y071454D02*
Y071809D01*
X063920Y070631D02*
X064274D01*
X064097Y070454D02*
Y070809D01*
X063920Y069632D02*
X064274D01*
X064097Y069454D02*
Y069809D01*
X063920Y068632D02*
X064274D01*
X064097Y068454D02*
Y068809D01*
X063920Y067632D02*
X064274D01*
X064097Y067454D02*
Y067809D01*
X063920Y066631D02*
X064274D01*
X064097Y066454D02*
Y066809D01*
X063920Y065631D02*
X064274D01*
X064097Y065454D02*
Y065809D01*
X063920Y064632D02*
X064274D01*
X064097Y064454D02*
Y064809D01*
X068452Y071494D02*
X068748D01*
X068600Y071346D02*
Y071641D01*
X068452Y070706D02*
X068748D01*
X068600Y070559D02*
Y070854D01*
X068452Y066894D02*
X068748D01*
X068600Y066746D02*
Y067041D01*
X068452Y066106D02*
X068748D01*
X068600Y065959D02*
Y066254D01*
X068059Y068900D02*
X068354D01*
X068206Y068752D02*
Y069048D01*
X068846Y068900D02*
X069141D01*
X068994Y068752D02*
Y069048D01*
X068059Y073400D02*
X068354D01*
X068206Y073252D02*
Y073548D01*
X068846Y073400D02*
X069141D01*
X068994Y073252D02*
Y073548D01*
X068452Y063906D02*
X068748D01*
X068600Y063759D02*
Y064054D01*
X068452Y064694D02*
X068748D01*
X068600Y064546D02*
Y064841D01*
X051283Y067775D02*
X051717D01*
X051500Y067558D02*
Y067991D01*
X051283Y066775D02*
X051717D01*
X051500Y066558D02*
Y066991D01*
X051283Y065775D02*
X051717D01*
X051500Y065558D02*
Y065991D01*
X051423Y063600D02*
X051777D01*
X051600Y063423D02*
Y063777D01*
X050423Y063600D02*
X050777D01*
X050600Y063423D02*
Y063777D01*
X050559Y078075D02*
X050854D01*
X050706Y077927D02*
Y078222D01*
X051346Y078075D02*
X051641D01*
X051494Y077927D02*
Y078222D01*
X064323Y078700D02*
X064677D01*
X064500Y078523D02*
Y078877D01*
X065323Y078700D02*
X065677D01*
X065500Y078523D02*
Y078877D01*
X066323Y078700D02*
X066677D01*
X066500Y078523D02*
Y078877D01*
X064323Y076800D02*
X064677D01*
X064500Y076623D02*
Y076977D01*
X065323Y076800D02*
X065677D01*
X065500Y076623D02*
Y076977D01*
X066323Y076800D02*
X066677D01*
X066500Y076623D02*
Y076977D01*
X062023Y055000D02*
X062377D01*
X062200Y054823D02*
Y055177D01*
X063023Y055000D02*
X063377D01*
X063200Y054823D02*
Y055177D01*
X064023Y055000D02*
X064377D01*
X064200Y054823D02*
Y055177D01*
X065023Y055000D02*
X065377D01*
X065200Y054823D02*
Y055177D01*
X064323Y075000D02*
X064677D01*
X064500Y074823D02*
Y075177D01*
X065323Y075000D02*
X065677D01*
X065500Y074823D02*
Y075177D01*
X066323Y075000D02*
X066677D01*
X066500Y074823D02*
Y075177D01*
X051109Y057736D02*
X052359D01*
X051734Y057111D02*
Y058361D01*
X064609Y057736D02*
X065859D01*
X065234Y057111D02*
Y058361D01*
X064609Y081236D02*
X065859D01*
X065234Y080611D02*
Y081861D01*
X051109Y081236D02*
X052359D01*
X051734Y080611D02*
Y081861D01*
X062250Y078424D02*
X062604D01*
X062427Y078247D02*
Y078602D01*
X061250Y078424D02*
X061604D01*
X061427Y078247D02*
Y078602D01*
X060250Y078424D02*
X060604D01*
X060427Y078247D02*
Y078602D01*
X059250Y078424D02*
X059604D01*
X059427Y078247D02*
Y078602D01*
X058250Y078424D02*
X058604D01*
X058427Y078247D02*
Y078602D01*
X057250Y078424D02*
X057604D01*
X057427Y078247D02*
Y078602D01*
X056250Y078424D02*
X056604D01*
X056427Y078247D02*
Y078602D01*
X055250Y078424D02*
X055604D01*
X055427Y078247D02*
Y078602D01*
X062250Y081424D02*
X062604D01*
X062427Y081247D02*
Y081602D01*
X061250Y081424D02*
X061604D01*
X061427Y081247D02*
Y081602D01*
X060250Y081424D02*
X060604D01*
X060427Y081247D02*
Y081602D01*
X059250Y081424D02*
X059604D01*
X059427Y081247D02*
Y081602D01*
X058250Y081424D02*
X058604D01*
X058427Y081247D02*
Y081602D01*
X057250Y081424D02*
X057604D01*
X057427Y081247D02*
Y081602D01*
X056250Y081424D02*
X056604D01*
X056427Y081247D02*
Y081602D01*
X055250Y081424D02*
X055604D01*
X055427Y081247D02*
Y081602D01*
X062010Y077624D02*
X062344D01*
X062177Y077457D02*
Y077792D01*
X060010Y077624D02*
X060345D01*
X060177Y077457D02*
Y077792D01*
X059210Y077624D02*
X059545D01*
X059377Y077457D02*
Y077792D01*
X057210Y077624D02*
X057544D01*
X057377Y077457D02*
Y077792D01*
X062033Y076100D02*
X062367D01*
X062200Y075933D02*
Y076267D01*
X060033Y076100D02*
X060367D01*
X060200Y075933D02*
Y076267D01*
X057233Y076100D02*
X057567D01*
X057400Y075933D02*
Y076267D01*
X059233Y076100D02*
X059567D01*
X059400Y075933D02*
Y076267D01*
X065433Y054000D02*
X065767D01*
X065600Y053833D02*
Y054167D01*
X063433Y054000D02*
X063767D01*
X063600Y053833D02*
Y054167D01*
X066023Y062600D02*
X066377D01*
X066200Y062423D02*
Y062777D01*
X067023Y062600D02*
X067377D01*
X067200Y062423D02*
Y062777D01*
X068023Y062600D02*
X068377D01*
X068200Y062423D02*
Y062777D01*
X069023Y062600D02*
X069377D01*
X069200Y062423D02*
Y062777D01*
X066023Y059600D02*
X066377D01*
X066200Y059423D02*
Y059777D01*
X067023Y059600D02*
X067377D01*
X067200Y059423D02*
Y059777D01*
X068023Y059600D02*
X068377D01*
X068200Y059423D02*
Y059777D01*
X069023Y059600D02*
X069377D01*
X069200Y059423D02*
Y059777D01*
X063133Y085600D02*
X063467D01*
X063300Y085433D02*
Y085767D01*
X066133Y085600D02*
X066467D01*
X066300Y085433D02*
Y085767D01*
X051933Y085600D02*
X052267D01*
X052100Y085433D02*
Y085767D01*
X054933Y085600D02*
X055267D01*
X055100Y085433D02*
Y085767D01*
X055823Y083400D02*
X056177D01*
X056000Y083223D02*
Y083577D01*
X055823Y084400D02*
X056177D01*
X056000Y084223D02*
Y084577D01*
X056823Y083400D02*
X057177D01*
X057000Y083223D02*
Y083577D01*
X056823Y084400D02*
X057177D01*
X057000Y084223D02*
Y084577D01*
X057823Y083400D02*
X058177D01*
X058000Y083223D02*
Y083577D01*
X057823Y084400D02*
X058177D01*
X058000Y084223D02*
Y084577D01*
X058823Y083400D02*
X059177D01*
X059000Y083223D02*
Y083577D01*
X058823Y084400D02*
X059177D01*
X059000Y084223D02*
Y084577D01*
X059823Y083400D02*
X060177D01*
X060000Y083223D02*
Y083577D01*
X059823Y084400D02*
X060177D01*
X060000Y084223D02*
Y084577D01*
X060823Y083400D02*
X061177D01*
X061000Y083223D02*
Y083577D01*
X060823Y084400D02*
X061177D01*
X061000Y084223D02*
Y084577D01*
X061823Y083400D02*
X062177D01*
X062000Y083223D02*
Y083577D01*
X061823Y084400D02*
X062177D01*
X062000Y084223D02*
Y084577D01*
X062823Y083400D02*
X063177D01*
X063000Y083223D02*
Y083577D01*
X062823Y084400D02*
X063177D01*
X063000Y084223D02*
Y084577D01*
X063823Y083400D02*
X064177D01*
X064000Y083223D02*
Y083577D01*
X063823Y084400D02*
X064177D01*
X064000Y084223D02*
Y084577D01*
X064823Y083400D02*
X065177D01*
X065000Y083223D02*
Y083577D01*
X064823Y084400D02*
X065177D01*
X065000Y084223D02*
Y084577D01*
X050659Y060800D02*
X050954D01*
X050806Y060652D02*
Y060948D01*
X051446Y060800D02*
X051741D01*
X051594Y060652D02*
Y060948D01*
X049775Y086700D02*
X051025D01*
X050400Y086075D02*
Y087325D01*
X068375Y086700D02*
X069625D01*
X069000Y086075D02*
Y087325D01*
X068375Y054200D02*
X069625D01*
X069000Y053575D02*
Y054825D01*
X049775Y054200D02*
X051025D01*
X050400Y053575D02*
Y054825D01*
X062833Y082200D02*
X063167D01*
X063000Y082033D02*
Y082367D01*
X060833Y082200D02*
X061167D01*
X061000Y082033D02*
Y082367D01*
X057909Y053700D02*
X059091D01*
X058500Y053109D02*
Y054291D01*
X054409Y053700D02*
X055591D01*
X055000Y053109D02*
Y054291D01*
X064833Y062100D02*
X065167D01*
X065000Y061933D02*
Y062267D01*
X064833Y060100D02*
X065167D01*
X065000Y059933D02*
Y060267D01*
X050033Y082600D02*
X050367D01*
X050200Y082433D02*
Y082767D01*
X050033Y084600D02*
X050367D01*
X050200Y084433D02*
Y084767D01*
X060500Y057100D02*
X061200D01*
X060850Y056750D02*
Y057450D01*
X056000Y057100D02*
X056700D01*
X056350Y056750D02*
Y057450D01*
X056000Y074300D02*
X056700D01*
X056350Y073950D02*
Y074650D01*
X060450Y074300D02*
X061150D01*
X060800Y073950D02*
Y074650D01*
X057733Y087200D02*
X058067D01*
X057900Y087033D02*
Y087367D01*
X054733Y087200D02*
X055067D01*
X054900Y087033D02*
Y087367D01*
X069033Y056800D02*
X069367D01*
X069200Y056633D02*
Y056967D01*
X069033Y058800D02*
X069367D01*
X069200Y058633D02*
Y058967D01*
X052433Y063000D02*
X052767D01*
X052600Y062833D02*
Y063167D01*
X052433Y065000D02*
X052767D01*
X052600Y064833D02*
Y065167D01*
X053233Y073600D02*
X053567D01*
X053400Y073433D02*
Y073767D01*
X053233Y075600D02*
X053567D01*
X053400Y075433D02*
Y075767D01*
X053033Y055400D02*
X053367D01*
X053200Y055233D02*
Y055567D01*
X053033Y053400D02*
X053367D01*
X053200Y053233D02*
Y053567D01*
X052423Y087000D02*
X052777D01*
X052600Y086823D02*
Y087177D01*
X053423Y087000D02*
X053777D01*
X053600Y086823D02*
Y087177D01*
X065223Y087000D02*
X065577D01*
X065400Y086823D02*
Y087177D01*
X064223Y087000D02*
X064577D01*
X064400Y086823D02*
Y087177D01*
X050803Y073600D02*
X051197D01*
X051000Y073403D02*
Y073797D01*
X050803Y074600D02*
X051197D01*
X051000Y074403D02*
Y074797D01*
X050803Y075600D02*
X051197D01*
X051000Y075403D02*
Y075797D01*
X066650Y082600D02*
X066930D01*
X066790Y082460D02*
Y082740D01*
X056580Y082470D02*
X056860D01*
X056720Y082330D02*
Y082610D01*
X066950Y084710D02*
X067230D01*
X067090Y084570D02*
Y084850D01*
X067630Y084700D02*
X067910D01*
X067770Y084560D02*
Y084840D01*
M02*