%FSDAX24Y24*%
%MOIN*%
%SFA1B1*%

%IPPOS*%
%ADD11C,0.010000*%
%ADD12C,0.015000*%
%ADD31C,0.007900*%
%ADD32C,0.040000*%
%ADD33C,0.009800*%
%ADD34C,0.019700*%
%ADD35C,0.008000*%
%ADD36C,0.005000*%
%ADD37C,0.005900*%
%LNboardr2-1*%
%LPD*%
G54D11*
X060809Y086619D02*
D01*
X060807Y086660*
X060803Y086701*
X060796Y086741*
X060786Y086781*
X060773Y086821*
X060757Y086859*
X060739Y086896*
X060719Y086932*
X060696Y086966*
X060670Y086998*
X060643Y087029*
X060613Y087058*
X060581Y087084*
X060548Y087108*
X060513Y087130*
X060477Y087150*
X060439Y087166*
X060400Y087181*
X060360Y087192*
X060320Y087201*
X060279Y087206*
X060238Y087209*
X060197*
X060156Y087206*
X060115Y087201*
X060075Y087192*
X060035Y087181*
X059996Y087166*
X059958Y087150*
X059922Y087130*
X059887Y087108*
X059854Y087084*
X059822Y087058*
X059792Y087029*
X059765Y086998*
X059739Y086966*
X059716Y086932*
X059696Y086896*
X059678Y086859*
X059662Y086821*
X059649Y086781*
X059639Y086741*
X059632Y086701*
X059628Y086660*
X059627Y086619*
X059628Y086577*
X059632Y086536*
X059639Y086496*
X059649Y086456*
X059662Y086416*
X059678Y086378*
X059696Y086341*
X059716Y086305*
X059739Y086271*
X059765Y086239*
X059792Y086208*
X059822Y086179*
X059854Y086153*
X059887Y086129*
X059922Y086107*
X059958Y086087*
X059996Y086071*
X060035Y086056*
X060075Y086045*
X060115Y086036*
X060156Y086031*
X060197Y086028*
X060238*
X060279Y086031*
X060320Y086036*
X060360Y086045*
X060400Y086056*
X060439Y086071*
X060477Y086087*
X060513Y086107*
X060548Y086129*
X060581Y086153*
X060613Y086179*
X060643Y086208*
X060670Y086239*
X060696Y086271*
X060719Y086305*
X060739Y086341*
X060757Y086378*
X060773Y086416*
X060786Y086456*
X060796Y086496*
X060803Y086536*
X060807Y086577*
X060809Y086619*
X058916Y071700D02*
D01*
X058915Y071722*
X058912Y071743*
X058909Y071765*
X058903Y071787*
X058896Y071808*
X058888Y071828*
X058879Y071848*
X058867Y071867*
X058855Y071885*
X058842Y071903*
X058827Y071919*
X058811Y071934*
X058794Y071949*
X058776Y071961*
X058758Y071973*
X058738Y071984*
X058718Y071992*
X058697Y072000*
X058676Y072006*
X058654Y072011*
X058633Y072014*
X058611Y072015*
X058588*
X058566Y072014*
X058545Y072011*
X058523Y072006*
X058502Y072000*
X058481Y071992*
X058461Y071984*
X058442Y071973*
X058423Y071961*
X058405Y071949*
X058388Y071934*
X058372Y071919*
X058357Y071903*
X058344Y071885*
X058332Y071867*
X058320Y071848*
X058311Y071828*
X058303Y071808*
X058296Y071787*
X058290Y071765*
X058287Y071743*
X058284Y071722*
X058284Y071700*
X058284Y071677*
X058287Y071656*
X058290Y071634*
X058296Y071612*
X058303Y071591*
X058311Y071571*
X058320Y071551*
X058332Y071532*
X058344Y071514*
X058357Y071496*
X058372Y071480*
X058388Y071465*
X058405Y071450*
X058423Y071438*
X058442Y071426*
X058461Y071415*
X058481Y071407*
X058502Y071399*
X058523Y071393*
X058545Y071388*
X058566Y071385*
X058588Y071384*
X058611*
X058633Y071385*
X058654Y071388*
X058676Y071393*
X058697Y071399*
X058718Y071407*
X058738Y071415*
X058758Y071426*
X058776Y071438*
X058794Y071450*
X058811Y071465*
X058827Y071480*
X058842Y071496*
X058855Y071514*
X058867Y071532*
X058879Y071551*
X058888Y071571*
X058896Y071591*
X058903Y071612*
X058909Y071634*
X058912Y071656*
X058915Y071677*
X058916Y071700*
X068200Y078120D02*
X068150Y078170D01*
X068050*
X068000Y078120*
Y077920*
X068050Y077870*
X068150*
X068200Y077920*
Y078020*
X068100*
X068300Y077870D02*
Y078170D01*
X068450*
X068500Y078120*
Y078020*
X068450Y077970*
X068300*
X068800Y078120D02*
X068750Y078170D01*
X068650*
X068600Y078120*
Y078070*
X068650Y078020*
X068750*
X068800Y077970*
Y077920*
X068750Y077870*
X068650*
X068600Y077920*
X068900Y077820D02*
X069100D01*
X069200Y077870D02*
Y078170D01*
X069350*
X069400Y078120*
Y078020*
X069350Y077970*
X069200*
X069500Y078170D02*
X069599D01*
X069549*
Y077870*
X069500*
X069599*
X069749D02*
Y078170D01*
X069949Y077870*
Y078170*
X070249Y078120D02*
X070199Y078170D01*
X070099*
X070049Y078120*
Y078070*
X070099Y078020*
X070199*
X070249Y077970*
Y077920*
X070199Y077870*
X070099*
X070049Y077920*
X050100Y069300D02*
Y069500D01*
Y069400*
X049500*
X049600Y069300*
Y069800D02*
X049500Y069900D01*
Y070100*
X049600Y070200*
X050000*
X050100Y070100*
Y069900*
X050000Y069800*
X049600*
X049700Y070400D02*
X050000D01*
X050100Y070500*
Y070800*
X049700*
X049500Y071399D02*
Y070999D01*
X049800*
Y071199*
Y070999*
X050100*
X070300Y063500D02*
Y063700D01*
Y063600*
X069700*
X069800Y063500*
X069900Y064000D02*
X070200D01*
X070300Y064100*
Y064400*
X069900*
X069700Y065000D02*
Y064600D01*
X070000*
Y064800*
Y064600*
X070300*
X067900Y074600D02*
X068100D01*
X068000*
Y075200*
X067900Y075100*
X068400Y075000D02*
Y074700D01*
X068500Y074600*
X068800*
Y075000*
X069400Y075200D02*
X069000D01*
Y074900*
X069200*
X069000*
Y074600*
X070300Y068100D02*
Y068300D01*
Y068200*
X069700*
X069800Y068100*
X069900Y068600D02*
X070200D01*
X070300Y068700*
Y069000*
X069900*
X069700Y069600D02*
Y069200D01*
X070000*
Y069400*
Y069200*
X070300*
Y065800D02*
Y066000D01*
Y065900*
X069700*
X069800Y065800*
X069900Y066300D02*
X070200D01*
X070300Y066400*
Y066700*
X069900*
X069700Y067300D02*
Y066900D01*
X070000*
Y067100*
Y066900*
X070300*
Y070400D02*
Y070600D01*
Y070500*
X069700*
X069800Y070400*
X069900Y070900D02*
X070200D01*
X070300Y071000*
Y071300*
X069900*
X069700Y071900D02*
Y071500D01*
X070000*
Y071700*
Y071500*
X070300*
X049100Y073700D02*
X049700D01*
Y074100*
X049100Y074300D02*
X049700D01*
Y074600*
X049600Y074700*
X049200*
X049100Y074600*
Y074300*
X049200Y074900D02*
X049100Y075000D01*
Y075200*
X049200Y075299*
X049300*
X049400Y075200*
Y075100*
Y075200*
X049500Y075299*
X049600*
X049700Y075200*
Y075000*
X049600Y074900*
X049200Y075499D02*
X049100Y075599D01*
Y075799*
X049200Y075899*
X049300*
X049400Y075799*
Y075699*
Y075799*
X049500Y075899*
X049600*
X049700Y075799*
Y075599*
X049600Y075499*
X049500Y065500D02*
X050100D01*
Y065900*
X049500Y066100D02*
Y066500D01*
X049600*
X050000Y066100*
X050100*
X049600Y066700D02*
X049500Y066800D01*
Y067000*
X049600Y067099*
X049700*
X049800Y067000*
X049900Y067099*
X050000*
X050100Y067000*
Y066800*
X050000Y066700*
X049900*
X049800Y066800*
X049700Y066700*
X049600*
X049800Y066800D02*
Y067000D01*
X049600Y067299D02*
X049500Y067399D01*
Y067599*
X049600Y067699*
X050000*
X050100Y067599*
Y067399*
X050000Y067299*
X049600*
X049500Y068299D02*
Y067899D01*
X049800*
X049700Y068099*
Y068199*
X049800Y068299*
X050000*
X050100Y068199*
Y067999*
X050000Y067899*
X059900Y055300D02*
X060100D01*
X060000*
Y054700*
X059900*
X060100*
X060400D02*
Y055300D01*
X060600Y055100*
X060800Y055300*
Y054700*
X061000Y055300D02*
Y054800D01*
X061100Y054700*
X061300*
X061400Y054800*
Y055300*
X054100Y083500D02*
X054000Y083400D01*
Y083200*
X054100Y083100*
X054500*
X054600Y083200*
Y083400*
X054500Y083500*
X054300*
Y083300*
X054600Y083700D02*
X054000D01*
Y084000*
X054100Y084100*
X054300*
X054400Y084000*
Y083700*
X054100Y084699D02*
X054000Y084600D01*
Y084400*
X054100Y084300*
X054200*
X054300Y084400*
Y084600*
X054400Y084699*
X054500*
X054600Y084600*
Y084400*
X054500Y084300*
X064250Y074290D02*
X064383D01*
X064317*
Y073890*
X064250*
X064383*
X064583D02*
Y074290D01*
X064717Y074157*
X064850Y074290*
Y073890*
X064983Y074290D02*
Y073957D01*
X065050Y073890*
X065183*
X065250Y073957*
Y074290*
X065383Y073823D02*
X065650D01*
X065983Y074290D02*
X065849D01*
X065783Y074223*
Y073957*
X065849Y073890*
X065983*
X066049Y073957*
Y074223*
X065983Y074290*
X066183D02*
Y073957D01*
X066249Y073890*
X066383*
X066449Y073957*
Y074290*
X066583D02*
X066849D01*
X066716*
Y073890*
X064517Y076043D02*
X064450Y076110D01*
X064317*
X064250Y076043*
Y075777*
X064317Y075710*
X064450*
X064517Y075777*
Y075910*
X064383*
X064650Y075710D02*
Y076110D01*
X064850*
X064916Y076043*
Y075910*
X064850Y075843*
X064650*
X065316Y076043D02*
X065250Y076110D01*
X065116*
X065050Y076043*
Y075977*
X065116Y075910*
X065250*
X065316Y075843*
Y075777*
X065250Y075710*
X065116*
X065050Y075777*
X065450Y075643D02*
X065716D01*
X066116Y076043D02*
X066049Y076110D01*
X065916*
X065849Y076043*
Y075777*
X065916Y075710*
X066049*
X066116Y075777*
X066249Y076110D02*
Y075710D01*
Y075910*
X066516*
Y076110*
Y075710*
X066916D02*
X066649D01*
X066916Y075977*
Y076043*
X066849Y076110*
X066716*
X066649Y076043*
X064517Y077933D02*
X064450Y078000D01*
X064317*
X064250Y077933*
Y077667*
X064317Y077600*
X064450*
X064517Y077667*
Y077800*
X064383*
X064650Y077600D02*
Y078000D01*
X064850*
X064916Y077933*
Y077800*
X064850Y077733*
X064650*
X065316Y077933D02*
X065250Y078000D01*
X065116*
X065050Y077933*
Y077867*
X065116Y077800*
X065250*
X065316Y077733*
Y077667*
X065250Y077600*
X065116*
X065050Y077667*
X065450Y077533D02*
X065716D01*
X066116Y077933D02*
X066049Y078000D01*
X065916*
X065849Y077933*
Y077667*
X065916Y077600*
X066049*
X066116Y077667*
X066249Y078000D02*
Y077600D01*
Y077800*
X066516*
Y078000*
Y077600*
X066649D02*
X066783D01*
X066716*
Y078000*
X066649Y077933*
X050400Y062325D02*
Y062925D01*
X050700*
X050800Y062825*
Y062625*
X050700Y062525*
X050400*
X051000Y062925D02*
Y062325D01*
X051200Y062525*
X051400Y062325*
Y062925*
X051600Y062325D02*
Y062925D01*
X051900*
X051999Y062825*
Y062625*
X051900Y062525*
X051600*
X051800D02*
X051999Y062325D01*
X049900Y077100D02*
Y077300D01*
Y077200*
X049300*
X049400Y077100*
Y077600D02*
X049300Y077700D01*
Y077900*
X049400Y078000*
X049800*
X049900Y077900*
Y077700*
X049800Y077600*
X049400*
X049500Y078200D02*
X049800D01*
X049900Y078300*
Y078600*
X049500*
X049300Y079199D02*
Y078799D01*
X049600*
Y078999*
Y078799*
X049900*
Y060100D02*
Y060300D01*
Y060200*
X049300*
X049400Y060100*
Y060600D02*
X049300Y060700D01*
Y060900*
X049400Y061000*
X049800*
X049900Y060900*
Y060700*
X049800Y060600*
X049400*
X049500Y061200D02*
X049800D01*
X049900Y061300*
Y061600*
X049500*
X049300Y062199D02*
Y061799D01*
X049600*
Y061999*
Y061799*
X049900*
X056400Y069400D02*
Y070000D01*
X056600Y069800*
X056800Y070000*
Y069400*
X057400Y070000D02*
X057000D01*
Y069400*
X057400*
X057000Y069700D02*
X057200D01*
X057600Y069400D02*
Y070000D01*
X057800Y069800*
X057999Y070000*
Y069400*
X058599Y069900D02*
X058499Y070000D01*
X058299*
X058199Y069900*
Y069800*
X058299Y069700*
X058499*
X058599Y069600*
Y069500*
X058499Y069400*
X058299*
X058199Y069500*
X059199Y070000D02*
X058799D01*
Y069400*
X059199*
X058799Y069700D02*
X058999D01*
X059399Y069400D02*
Y070000D01*
X059799Y069400*
Y070000*
X060399Y069900D02*
X060299Y070000D01*
X060099*
X059999Y069900*
Y069800*
X060099Y069700*
X060299*
X060399Y069600*
Y069500*
X060299Y069400*
X060099*
X059999Y069500*
X060999Y070000D02*
X060599D01*
Y069400*
X060999*
X060599Y069700D02*
X060799D01*
X056451Y068550D02*
Y069150D01*
X056851Y068550*
Y069150*
X057151Y068950D02*
X057350D01*
X057450Y068850*
Y068550*
X057151*
X057051Y068650*
X057151Y068750*
X057450*
X057650Y068550D02*
Y068950D01*
X057950*
X058050Y068850*
Y068550*
X058350D02*
X058550D01*
X058650Y068650*
Y068850*
X058550Y068950*
X058350*
X058250Y068850*
Y068650*
X058350Y068550*
X059450Y069150D02*
X059650D01*
X059550*
Y068550*
X059450*
X059650*
X059950D02*
Y069150D01*
X060150Y068950*
X060349Y069150*
Y068550*
X060549Y069150D02*
Y068650D01*
X060649Y068550*
X060849*
X060949Y068650*
Y069150*
G54D12*
X059850Y071450D02*
X060100Y071700D01*
X059850Y071950D02*
X060100Y071700D01*
X058600Y073200D02*
X058850Y072950D01*
X058350D02*
X058600Y073200D01*
Y072050D02*
Y073200D01*
X058950Y071700D02*
X060100D01*
G54D31*
X052384Y070200D02*
D01*
X052381Y070268*
X052374Y070336*
X052362Y070404*
X052345Y070471*
X052324Y070536*
X052298Y070600*
X052268Y070661*
X052234Y070721*
X052196Y070778*
X052153Y070832*
X052107Y070883*
X052058Y070931*
X052005Y070975*
X051950Y071015*
X051892Y071052*
X051831Y071084*
X051768Y071112*
X051704Y071135*
X051638Y071154*
X051570Y071169*
X051502Y071178*
X051434Y071183*
X051365*
X051297Y071178*
X051229Y071169*
X051161Y071154*
X051095Y071135*
X051031Y071112*
X050968Y071084*
X050908Y071052*
X050849Y071015*
X050794Y070975*
X050741Y070931*
X050692Y070883*
X050646Y070832*
X050603Y070778*
X050565Y070721*
X050531Y070661*
X050501Y070600*
X050475Y070536*
X050454Y070471*
X050437Y070404*
X050425Y070336*
X050418Y070268*
X050416Y070200*
X050418Y070131*
X050425Y070063*
X050437Y069995*
X050454Y069928*
X050475Y069863*
X050501Y069799*
X050531Y069738*
X050565Y069678*
X050603Y069621*
X050646Y069567*
X050692Y069516*
X050741Y069468*
X050794Y069424*
X050849Y069384*
X050908Y069347*
X050968Y069315*
X051031Y069287*
X051095Y069264*
X051161Y069245*
X051229Y069230*
X051297Y069221*
X051365Y069216*
X051434*
X051502Y069221*
X051570Y069230*
X051638Y069245*
X051704Y069264*
X051768Y069287*
X051831Y069315*
X051892Y069347*
X051950Y069384*
X052005Y069424*
X052058Y069468*
X052107Y069516*
X052153Y069567*
X052196Y069621*
X052234Y069678*
X052268Y069738*
X052298Y069799*
X052324Y069863*
X052345Y069928*
X052362Y069995*
X052374Y070063*
X052381Y070131*
X052384Y070200*
X069584Y071100D02*
D01*
X069581Y071168*
X069574Y071236*
X069562Y071304*
X069545Y071371*
X069524Y071436*
X069498Y071500*
X069468Y071561*
X069434Y071621*
X069396Y071678*
X069353Y071732*
X069307Y071783*
X069258Y071831*
X069205Y071875*
X069150Y071915*
X069092Y071952*
X069031Y071984*
X068968Y072012*
X068904Y072035*
X068838Y072054*
X068770Y072069*
X068702Y072078*
X068634Y072083*
X068565*
X068497Y072078*
X068429Y072069*
X068361Y072054*
X068295Y072035*
X068231Y072012*
X068168Y071984*
X068108Y071952*
X068049Y071915*
X067994Y071875*
X067941Y071831*
X067892Y071783*
X067846Y071732*
X067803Y071678*
X067765Y071621*
X067731Y071561*
X067701Y071500*
X067675Y071436*
X067654Y071371*
X067637Y071304*
X067625Y071236*
X067618Y071168*
X067616Y071100*
X067618Y071031*
X067625Y070963*
X067637Y070895*
X067654Y070828*
X067675Y070763*
X067701Y070699*
X067731Y070638*
X067765Y070578*
X067803Y070521*
X067846Y070467*
X067892Y070416*
X067941Y070368*
X067994Y070324*
X068049Y070284*
X068108Y070247*
X068168Y070215*
X068231Y070187*
X068295Y070164*
X068361Y070145*
X068429Y070130*
X068497Y070121*
X068565Y070116*
X068634*
X068702Y070121*
X068770Y070130*
X068838Y070145*
X068904Y070164*
X068968Y070187*
X069031Y070215*
X069092Y070247*
X069150Y070284*
X069205Y070324*
X069258Y070368*
X069307Y070416*
X069353Y070467*
X069396Y070521*
X069434Y070578*
X069468Y070638*
X069498Y070699*
X069524Y070763*
X069545Y070828*
X069562Y070895*
X069574Y070963*
X069581Y071031*
X069584Y071100*
Y066500D02*
D01*
X069581Y066568*
X069574Y066636*
X069562Y066704*
X069545Y066771*
X069524Y066836*
X069498Y066900*
X069468Y066961*
X069434Y067021*
X069396Y067078*
X069353Y067132*
X069307Y067183*
X069258Y067231*
X069205Y067275*
X069150Y067315*
X069092Y067352*
X069031Y067384*
X068968Y067412*
X068904Y067435*
X068838Y067454*
X068770Y067469*
X068702Y067478*
X068634Y067483*
X068565*
X068497Y067478*
X068429Y067469*
X068361Y067454*
X068295Y067435*
X068231Y067412*
X068168Y067384*
X068108Y067352*
X068049Y067315*
X067994Y067275*
X067941Y067231*
X067892Y067183*
X067846Y067132*
X067803Y067078*
X067765Y067021*
X067731Y066961*
X067701Y066900*
X067675Y066836*
X067654Y066771*
X067637Y066704*
X067625Y066636*
X067618Y066568*
X067616Y066500*
X067618Y066431*
X067625Y066363*
X067637Y066295*
X067654Y066228*
X067675Y066163*
X067701Y066099*
X067731Y066038*
X067765Y065978*
X067803Y065921*
X067846Y065867*
X067892Y065816*
X067941Y065768*
X067994Y065724*
X068049Y065684*
X068108Y065647*
X068168Y065615*
X068231Y065587*
X068295Y065564*
X068361Y065545*
X068429Y065530*
X068497Y065521*
X068565Y065516*
X068634*
X068702Y065521*
X068770Y065530*
X068838Y065545*
X068904Y065564*
X068968Y065587*
X069031Y065615*
X069092Y065647*
X069150Y065684*
X069205Y065724*
X069258Y065768*
X069307Y065816*
X069353Y065867*
X069396Y065921*
X069434Y065978*
X069468Y066038*
X069498Y066099*
X069524Y066163*
X069545Y066228*
X069562Y066295*
X069574Y066363*
X069581Y066431*
X069584Y066500*
Y068900D02*
D01*
X069581Y068968*
X069574Y069036*
X069562Y069104*
X069545Y069171*
X069524Y069236*
X069498Y069300*
X069468Y069361*
X069434Y069421*
X069396Y069478*
X069353Y069532*
X069307Y069583*
X069258Y069631*
X069205Y069675*
X069150Y069715*
X069092Y069752*
X069031Y069784*
X068968Y069812*
X068904Y069835*
X068838Y069854*
X068770Y069869*
X068702Y069878*
X068634Y069883*
X068565*
X068497Y069878*
X068429Y069869*
X068361Y069854*
X068295Y069835*
X068231Y069812*
X068168Y069784*
X068108Y069752*
X068049Y069715*
X067994Y069675*
X067941Y069631*
X067892Y069583*
X067846Y069532*
X067803Y069478*
X067765Y069421*
X067731Y069361*
X067701Y069300*
X067675Y069236*
X067654Y069171*
X067637Y069104*
X067625Y069036*
X067618Y068968*
X067616Y068900*
X067618Y068831*
X067625Y068763*
X067637Y068695*
X067654Y068628*
X067675Y068563*
X067701Y068499*
X067731Y068438*
X067765Y068378*
X067803Y068321*
X067846Y068267*
X067892Y068216*
X067941Y068168*
X067994Y068124*
X068049Y068084*
X068108Y068047*
X068168Y068015*
X068231Y067987*
X068295Y067964*
X068361Y067945*
X068429Y067930*
X068497Y067921*
X068565Y067916*
X068634*
X068702Y067921*
X068770Y067930*
X068838Y067945*
X068904Y067964*
X068968Y067987*
X069031Y068015*
X069092Y068047*
X069150Y068084*
X069205Y068124*
X069258Y068168*
X069307Y068216*
X069353Y068267*
X069396Y068321*
X069434Y068378*
X069468Y068438*
X069498Y068499*
X069524Y068563*
X069545Y068628*
X069562Y068695*
X069574Y068763*
X069581Y068831*
X069584Y068900*
Y073400D02*
D01*
X069581Y073468*
X069574Y073536*
X069562Y073604*
X069545Y073671*
X069524Y073736*
X069498Y073800*
X069468Y073861*
X069434Y073921*
X069396Y073978*
X069353Y074032*
X069307Y074083*
X069258Y074131*
X069205Y074175*
X069150Y074215*
X069092Y074252*
X069031Y074284*
X068968Y074312*
X068904Y074335*
X068838Y074354*
X068770Y074369*
X068702Y074378*
X068634Y074383*
X068565*
X068497Y074378*
X068429Y074369*
X068361Y074354*
X068295Y074335*
X068231Y074312*
X068168Y074284*
X068108Y074252*
X068049Y074215*
X067994Y074175*
X067941Y074131*
X067892Y074083*
X067846Y074032*
X067803Y073978*
X067765Y073921*
X067731Y073861*
X067701Y073800*
X067675Y073736*
X067654Y073671*
X067637Y073604*
X067625Y073536*
X067618Y073468*
X067616Y073400*
X067618Y073331*
X067625Y073263*
X067637Y073195*
X067654Y073128*
X067675Y073063*
X067701Y072999*
X067731Y072938*
X067765Y072878*
X067803Y072821*
X067846Y072767*
X067892Y072716*
X067941Y072668*
X067994Y072624*
X068049Y072584*
X068108Y072547*
X068168Y072515*
X068231Y072487*
X068295Y072464*
X068361Y072445*
X068429Y072430*
X068497Y072421*
X068565Y072416*
X068634*
X068702Y072421*
X068770Y072430*
X068838Y072445*
X068904Y072464*
X068968Y072487*
X069031Y072515*
X069092Y072547*
X069150Y072584*
X069205Y072624*
X069258Y072668*
X069307Y072716*
X069353Y072767*
X069396Y072821*
X069434Y072878*
X069468Y072938*
X069498Y072999*
X069524Y073063*
X069545Y073128*
X069562Y073195*
X069574Y073263*
X069581Y073331*
X069584Y073400*
Y064300D02*
D01*
X069581Y064368*
X069574Y064436*
X069562Y064504*
X069545Y064571*
X069524Y064636*
X069498Y064700*
X069468Y064761*
X069434Y064821*
X069396Y064878*
X069353Y064932*
X069307Y064983*
X069258Y065031*
X069205Y065075*
X069150Y065115*
X069092Y065152*
X069031Y065184*
X068968Y065212*
X068904Y065235*
X068838Y065254*
X068770Y065269*
X068702Y065278*
X068634Y065283*
X068565*
X068497Y065278*
X068429Y065269*
X068361Y065254*
X068295Y065235*
X068231Y065212*
X068168Y065184*
X068108Y065152*
X068049Y065115*
X067994Y065075*
X067941Y065031*
X067892Y064983*
X067846Y064932*
X067803Y064878*
X067765Y064821*
X067731Y064761*
X067701Y064700*
X067675Y064636*
X067654Y064571*
X067637Y064504*
X067625Y064436*
X067618Y064368*
X067616Y064300*
X067618Y064231*
X067625Y064163*
X067637Y064095*
X067654Y064028*
X067675Y063963*
X067701Y063899*
X067731Y063838*
X067765Y063778*
X067803Y063721*
X067846Y063667*
X067892Y063616*
X067941Y063568*
X067994Y063524*
X068049Y063484*
X068108Y063447*
X068168Y063415*
X068231Y063387*
X068295Y063364*
X068361Y063345*
X068429Y063330*
X068497Y063321*
X068565Y063316*
X068634*
X068702Y063321*
X068770Y063330*
X068838Y063345*
X068904Y063364*
X068968Y063387*
X069031Y063415*
X069092Y063447*
X069150Y063484*
X069205Y063524*
X069258Y063568*
X069307Y063616*
X069353Y063667*
X069396Y063721*
X069434Y063778*
X069468Y063838*
X069498Y063899*
X069524Y063963*
X069545Y064028*
X069562Y064095*
X069574Y064163*
X069581Y064231*
X069584Y064300*
X052084Y078075D02*
D01*
X052081Y078143*
X052074Y078211*
X052062Y078279*
X052045Y078346*
X052024Y078411*
X051998Y078475*
X051968Y078536*
X051934Y078596*
X051896Y078653*
X051853Y078707*
X051807Y078758*
X051758Y078806*
X051705Y078850*
X051650Y078890*
X051592Y078927*
X051531Y078959*
X051468Y078987*
X051404Y079010*
X051338Y079029*
X051270Y079044*
X051202Y079053*
X051134Y079058*
X051065*
X050997Y079053*
X050929Y079044*
X050861Y079029*
X050795Y079010*
X050731Y078987*
X050668Y078959*
X050608Y078927*
X050549Y078890*
X050494Y078850*
X050441Y078806*
X050392Y078758*
X050346Y078707*
X050303Y078653*
X050265Y078596*
X050231Y078536*
X050201Y078475*
X050175Y078411*
X050154Y078346*
X050137Y078279*
X050125Y078211*
X050118Y078143*
X050116Y078075*
X050118Y078006*
X050125Y077938*
X050137Y077870*
X050154Y077803*
X050175Y077738*
X050201Y077674*
X050231Y077613*
X050265Y077553*
X050303Y077496*
X050346Y077442*
X050392Y077391*
X050441Y077343*
X050494Y077299*
X050549Y077259*
X050608Y077222*
X050668Y077190*
X050731Y077162*
X050795Y077139*
X050861Y077120*
X050929Y077105*
X050997Y077096*
X051065Y077091*
X051134*
X051202Y077096*
X051270Y077105*
X051338Y077120*
X051404Y077139*
X051468Y077162*
X051531Y077190*
X051592Y077222*
X051650Y077259*
X051705Y077299*
X051758Y077343*
X051807Y077391*
X051853Y077442*
X051896Y077496*
X051934Y077553*
X051968Y077613*
X051998Y077674*
X052024Y077738*
X052045Y077803*
X052062Y077870*
X052074Y077938*
X052081Y078006*
X052084Y078075*
X052184Y060800D02*
D01*
X052181Y060868*
X052174Y060936*
X052162Y061004*
X052145Y061071*
X052124Y061136*
X052098Y061200*
X052068Y061261*
X052034Y061321*
X051996Y061378*
X051953Y061432*
X051907Y061483*
X051858Y061531*
X051805Y061575*
X051750Y061615*
X051692Y061652*
X051631Y061684*
X051568Y061712*
X051504Y061735*
X051438Y061754*
X051370Y061769*
X051302Y061778*
X051234Y061783*
X051165*
X051097Y061778*
X051029Y061769*
X050961Y061754*
X050895Y061735*
X050831Y061712*
X050768Y061684*
X050708Y061652*
X050649Y061615*
X050594Y061575*
X050541Y061531*
X050492Y061483*
X050446Y061432*
X050403Y061378*
X050365Y061321*
X050331Y061261*
X050301Y061200*
X050275Y061136*
X050254Y061071*
X050237Y061004*
X050225Y060936*
X050218Y060868*
X050216Y060800*
X050218Y060731*
X050225Y060663*
X050237Y060595*
X050254Y060528*
X050275Y060463*
X050301Y060399*
X050331Y060338*
X050365Y060278*
X050403Y060221*
X050446Y060167*
X050492Y060116*
X050541Y060068*
X050594Y060024*
X050649Y059984*
X050708Y059947*
X050768Y059915*
X050831Y059887*
X050895Y059864*
X050961Y059845*
X051029Y059830*
X051097Y059821*
X051165Y059816*
X051234*
X051302Y059821*
X051370Y059830*
X051438Y059845*
X051504Y059864*
X051568Y059887*
X051631Y059915*
X051692Y059947*
X051750Y059984*
X051805Y060024*
X051858Y060068*
X051907Y060116*
X051953Y060167*
X051996Y060221*
X052034Y060278*
X052068Y060338*
X052098Y060399*
X052124Y060463*
X052145Y060528*
X052162Y060595*
X052174Y060663*
X052181Y060731*
X052184Y060800*
X070100Y079100D02*
Y084100D01*
X068100Y079100D02*
Y084100D01*
Y079100D02*
X070100D01*
X068100Y084100D02*
X070100D01*
X050555Y064728D02*
Y068822D01*
X050358Y064728D02*
X052169D01*
Y068822*
X050358D02*
X052169D01*
X050358Y064728D02*
Y068822D01*
X050100Y063100D02*
Y064100D01*
X052100*
Y063100D02*
Y064100D01*
X050100Y063100D02*
X052100D01*
X064000Y078200D02*
X067000D01*
Y079200*
X064000D02*
X067000D01*
X064000Y078200D02*
Y079200D01*
Y076300D02*
X067000D01*
Y077300*
X064000D02*
X067000D01*
X064000Y076300D02*
Y077300D01*
X065700Y054500D02*
Y055500D01*
X061700Y054500D02*
X065700D01*
X061700Y055500D02*
X065700D01*
X061700Y054500D02*
Y055500D01*
X064000Y074500D02*
X067000D01*
Y075500*
X064000D02*
X067000D01*
X064000Y074500D02*
Y075500D01*
X065500Y082900D02*
Y084900D01*
X055500Y082900D02*
X056250D01*
X055500D02*
Y084900D01*
X056250*
X065500*
X056250Y082900D02*
X065500D01*
X054100Y086500D02*
Y087500D01*
X052100Y086500D02*
X054100D01*
X052100D02*
Y087500D01*
X054100*
X063900Y086500D02*
Y087500D01*
X065900*
Y086500D02*
Y087500D01*
X063900Y086500D02*
X065900D01*
X050075Y072494D02*
Y076706D01*
X049878Y072494D02*
Y076706D01*
X051728Y072494D02*
Y076706D01*
X049878Y072494D02*
X051728D01*
X049878Y076706D02*
X051728D01*
G54D32*
X054200Y057200D02*
D01*
X054203Y057112*
X054212Y057026*
X054227Y056940*
X054248Y056855*
X054275Y056772*
X054308Y056691*
X054346Y056613*
X054389Y056537*
X054438Y056465*
X054492Y056396*
X054550Y056331*
X054613Y056271*
X054680Y056214*
X054751Y056163*
X054825Y056117*
X054902Y056076*
X054981Y056041*
X055063Y056011*
X055147Y055987*
X055232Y055968*
X055319Y055956*
X055406Y055950*
X055450Y055950*
X061950D02*
D01*
X062037Y055953*
X062123Y055962*
X062209Y055977*
X062294Y055998*
X062377Y056025*
X062458Y056058*
X062536Y056096*
X062612Y056139*
X062684Y056188*
X062753Y056242*
X062818Y056300*
X062878Y056363*
X062935Y056430*
X062986Y056501*
X063032Y056575*
X063073Y056652*
X063108Y056731*
X063138Y056813*
X063162Y056897*
X063181Y056982*
X063193Y057069*
X063199Y057156*
X063200Y057200*
X055450Y075450D02*
D01*
X055362Y075446*
X055276Y075437*
X055190Y075422*
X055105Y075401*
X055022Y075374*
X054941Y075341*
X054863Y075303*
X054787Y075260*
X054715Y075211*
X054646Y075157*
X054581Y075099*
X054521Y075036*
X054464Y074969*
X054413Y074898*
X054367Y074825*
X054326Y074747*
X054291Y074668*
X054261Y074586*
X054237Y074502*
X054218Y074417*
X054206Y074330*
X054200Y074243*
X054200Y074200*
X063200D02*
D01*
X063196Y074287*
X063187Y074373*
X063172Y074459*
X063151Y074544*
X063124Y074627*
X063091Y074708*
X063053Y074786*
X063010Y074862*
X062961Y074934*
X062907Y075003*
X062849Y075068*
X062786Y075128*
X062719Y075185*
X062648Y075236*
X062575Y075282*
X062497Y075323*
X062418Y075358*
X062336Y075388*
X062252Y075412*
X062167Y075431*
X062080Y075443*
X061993Y075449*
X061950Y075450*
X055450Y055950D02*
X061950D01*
X054200Y057200D02*
Y074200D01*
X063200Y057200D02*
Y074200D01*
X055450Y075450D02*
X061950D01*
G54D33*
X051522Y072750D02*
D01*
X051521Y072753*
X051521Y072756*
X051520Y072760*
X051520Y072763*
X051519Y072766*
X051517Y072769*
X051516Y072773*
X051514Y072775*
X051512Y072778*
X051510Y072781*
X051508Y072784*
X051505Y072786*
X051503Y072788*
X051500Y072790*
X051497Y072792*
X051494Y072794*
X051491Y072795*
X051488Y072796*
X051484Y072797*
X051481Y072798*
X051478Y072798*
X051474Y072798*
X051471*
X051467Y072798*
X051464Y072798*
X051461Y072797*
X051457Y072796*
X051454Y072795*
X051451Y072794*
X051448Y072792*
X051445Y072790*
X051442Y072788*
X051440Y072786*
X051437Y072784*
X051435Y072781*
X051433Y072778*
X051431Y072775*
X051429Y072773*
X051428Y072769*
X051426Y072766*
X051425Y072763*
X051425Y072760*
X051424Y072756*
X051424Y072753*
X051424Y072750*
X051424Y072746*
X051424Y072743*
X051425Y072739*
X051425Y072736*
X051426Y072733*
X051428Y072730*
X051429Y072726*
X051431Y072724*
X051433Y072721*
X051435Y072718*
X051437Y072715*
X051440Y072713*
X051442Y072711*
X051445Y072709*
X051448Y072707*
X051451Y072705*
X051454Y072704*
X051457Y072703*
X051461Y072702*
X051464Y072701*
X051467Y072701*
X051471Y072701*
X051474*
X051478Y072701*
X051481Y072701*
X051484Y072702*
X051488Y072703*
X051491Y072704*
X051494Y072705*
X051497Y072707*
X051500Y072709*
X051503Y072711*
X051505Y072713*
X051508Y072715*
X051510Y072718*
X051512Y072721*
X051514Y072724*
X051516Y072726*
X051517Y072730*
X051519Y072733*
X051520Y072736*
X051520Y072739*
X051521Y072743*
X051521Y072746*
X051522Y072750*
G54D34*
X059038Y087800D02*
X061400D01*
X059038Y085438D02*
Y087800D01*
Y085438D02*
X061400D01*
Y087800*
X058841Y085635D02*
X059038D01*
X058841Y087603D02*
X059038D01*
X061400D02*
X061597D01*
X061400Y085635D02*
X061597D01*
G54D35*
X068800Y084200D02*
Y084367D01*
Y084283*
X068300*
X068383Y084200*
Y084617D02*
X068300Y084700D01*
Y084866*
X068383Y084950*
X068717*
X068800Y084866*
Y084700*
X068717Y084617*
X068383*
X069717Y084200D02*
X069800Y084283D01*
Y084450*
X069717Y084533*
X069383*
X069300Y084450*
Y084283*
X069383Y084200*
X069467*
X069550Y084283*
Y084533*
X069800Y078800D02*
Y078967D01*
Y078883*
X069300*
X069383Y078800*
X068800Y078933D02*
Y078600D01*
X068467Y078933*
X068383*
X068300Y078850*
Y078683*
X068383Y078600*
X062500Y085730D02*
X062100D01*
Y085930*
X062167Y085997*
X062300*
X062367Y085930*
Y085730*
Y085863D02*
X062500Y085997D01*
X062100Y086396D02*
Y086130D01*
X062500*
Y086396*
X062300Y086130D02*
Y086263D01*
X062167Y086796D02*
X062100Y086730D01*
Y086596*
X062167Y086530*
X062233*
X062300Y086596*
Y086730*
X062367Y086796*
X062433*
X062500Y086730*
Y086596*
X062433Y086530*
X062100Y087196D02*
Y086930D01*
X062500*
Y087196*
X062300Y086930D02*
Y087063D01*
X062100Y087329D02*
Y087596D01*
Y087463*
X062500*
X063840Y087720D02*
Y088120D01*
X064040*
X064107Y088053*
Y087920*
X064040Y087853*
X063840*
X064240Y088120D02*
Y087853D01*
X064373Y087720*
X064506Y087853*
Y088120*
X064640Y087653D02*
X064906D01*
X065040Y088120D02*
Y087720D01*
X065306*
X065706Y088120D02*
X065439D01*
Y087720*
X065706*
X065439Y087920D02*
X065573D01*
X065839Y088120D02*
Y087720D01*
X066039*
X066106Y087787*
Y088053*
X066039Y088120*
X065839*
X051790Y087690D02*
Y088090D01*
X051990*
X052057Y088023*
Y087890*
X051990Y087823*
X051790*
X052190Y088090D02*
Y087690D01*
X052323Y087823*
X052456Y087690*
Y088090*
X052590Y087690D02*
Y088090D01*
X052790*
X052856Y088023*
Y087890*
X052790Y087823*
X052590*
X052723D02*
X052856Y087690D01*
X052990Y087623D02*
X053256D01*
X053389Y088090D02*
Y087690D01*
X053656*
X054056Y088090D02*
X053789D01*
Y087690*
X054056*
X053789Y087890D02*
X053923D01*
X054189Y088090D02*
Y087690D01*
X054389*
X054456Y087757*
Y088023*
X054389Y088090*
X054189*
X065933Y084200D02*
X065600D01*
X065933Y084533*
Y084617*
X065850Y084700*
X065683*
X065600Y084617*
X066100D02*
X066183Y084700D01*
X066350*
X066433Y084617*
Y084283*
X066350Y084200*
X066183*
X066100Y084283*
Y084617*
X065600Y083200D02*
X065767D01*
X065683*
Y083700*
X065600Y083617*
X066017Y083283D02*
X066100Y083200D01*
X066266*
X066350Y083283*
Y083617*
X066266Y083700*
X066100*
X066017Y083617*
Y083533*
X066100Y083450*
X066350*
X055000Y083200D02*
X055167D01*
X055083*
Y083700*
X055000Y083617*
X055333Y084200D02*
X055000D01*
X055333Y084533*
Y084617*
X055250Y084700*
X055083*
X055000Y084617*
G54D36*
X070430Y082340D02*
X070230D01*
Y082440*
X070263Y082473*
X070330*
X070363Y082440*
Y082340*
X070430Y082540D02*
X070230D01*
Y082640*
X070263Y082673*
X070330*
X070363Y082640*
Y082540*
X070263Y082873D02*
X070230Y082840D01*
Y082773*
X070263Y082740*
X070297*
X070330Y082773*
Y082840*
X070363Y082873*
X070397*
X070430Y082840*
Y082773*
X070397Y082740*
X067750Y080260D02*
X067917D01*
X067950Y080293*
Y080360*
X067917Y080393*
X067750*
X067783Y080593D02*
X067750Y080560D01*
Y080493*
X067783Y080460*
X067817*
X067850Y080493*
Y080560*
X067883Y080593*
X067917*
X067950Y080560*
Y080493*
X067917Y080460*
X067750Y080660D02*
X067950D01*
Y080760*
X067917Y080793*
X067883*
X067850Y080760*
Y080660*
Y080760*
X067817Y080793*
X067783*
X067750Y080760*
Y080660*
X067850Y080860D02*
Y080993D01*
X067760Y082483D02*
Y082350D01*
X067960*
Y082483*
X067860Y082350D02*
Y082417D01*
X067760Y082550D02*
X067893D01*
X067960Y082617*
X067893Y082683*
X067760*
X067960Y082750D02*
Y082817D01*
Y082783*
X067760*
X067793Y082750*
X070243Y083443D02*
X070210Y083410D01*
Y083343*
X070243Y083310*
X070377*
X070410Y083343*
Y083410*
X070377Y083443*
X070310*
Y083377*
X070410Y083510D02*
X070210D01*
X070410Y083643*
X070210*
Y083710D02*
X070410D01*
Y083810*
X070377Y083843*
X070243*
X070210Y083810*
Y083710*
X070253Y080473D02*
X070220Y080440D01*
Y080373*
X070253Y080340*
X070387*
X070420Y080373*
Y080440*
X070387Y080473*
X070320*
Y080407*
X070420Y080540D02*
X070220D01*
X070420Y080673*
X070220*
Y080740D02*
X070420D01*
Y080840*
X070387Y080873*
X070253*
X070220Y080840*
Y080740*
X070420Y079350D02*
X070220D01*
Y079450*
X070253Y079483*
X070320*
X070353Y079450*
Y079350*
Y079417D02*
X070420Y079483D01*
X070253Y079683D02*
X070220Y079650D01*
Y079583*
X070253Y079550*
X070287*
X070320Y079583*
Y079650*
X070353Y079683*
X070387*
X070420Y079650*
Y079583*
X070387Y079550*
X070220Y079750D02*
Y079883D01*
Y079817*
X070420*
X067783Y083443D02*
X067750Y083410D01*
Y083343*
X067783Y083310*
X067917*
X067950Y083343*
Y083410*
X067917Y083443*
X067850*
Y083377*
X067950Y083510D02*
X067750D01*
X067950Y083643*
X067750*
Y083710D02*
X067950D01*
Y083810*
X067917Y083843*
X067783*
X067750Y083810*
Y083710*
X067760Y079200D02*
X067927D01*
X067960Y079233*
Y079300*
X067927Y079333*
X067760*
X067793Y079533D02*
X067760Y079500D01*
Y079433*
X067793Y079400*
X067827*
X067860Y079433*
Y079500*
X067893Y079533*
X067927*
X067960Y079500*
Y079433*
X067927Y079400*
X067760Y079600D02*
X067960D01*
Y079700*
X067927Y079733*
X067893*
X067860Y079700*
Y079600*
Y079700*
X067827Y079733*
X067793*
X067760Y079700*
Y079600*
X067860Y079800D02*
Y079933D01*
X067793Y079866D02*
X067927D01*
X070430Y081460D02*
X070230D01*
Y081560*
X070263Y081593*
X070330*
X070363Y081560*
Y081460*
X070230Y081660D02*
X070363D01*
X070430Y081727*
X070363Y081793*
X070230*
X067740Y081473D02*
Y081340D01*
X067940*
Y081473*
X067840Y081340D02*
Y081407D01*
X067740Y081540D02*
X067873D01*
X067940Y081607*
X067873Y081673*
X067740*
X067940Y081873D02*
Y081740D01*
X067807Y081873*
X067773*
X067740Y081840*
Y081773*
X067773Y081740*
X052380Y065650D02*
X052480D01*
X052430*
Y065950*
X052380Y065900*
X052830Y065650D02*
X052630D01*
X052830Y065850*
Y065900*
X052780Y065950*
X052680*
X052630Y065900*
X052930Y065950D02*
Y065750D01*
X053030Y065650*
X053130Y065750*
Y065950*
X052570Y067920D02*
X052370D01*
Y067770*
X052470Y067820*
X052520*
X052570Y067770*
Y067670*
X052520Y067620*
X052420*
X052370Y067670*
X052670Y067920D02*
Y067720D01*
X052770Y067620*
X052870Y067720*
Y067920*
X052570Y066860D02*
X052520Y066910D01*
X052420*
X052370Y066860*
Y066660*
X052420Y066610*
X052520*
X052570Y066660*
Y066760*
X052470*
X052670Y066610D02*
Y066910D01*
X052870Y066610*
Y066910*
X052970D02*
Y066610D01*
X053120*
X053170Y066660*
Y066860*
X053120Y066910*
X052970*
X062100Y054400D02*
Y054200D01*
X062200*
X062233Y054233*
Y054267*
X062200Y054300*
X062100*
X062200*
X062233Y054333*
Y054367*
X062200Y054400*
X062100*
X063100Y054200D02*
Y054333D01*
X063167Y054400*
X063233Y054333*
Y054200*
Y054300*
X063100*
X064033Y054367D02*
X064000Y054400D01*
X063933*
X063900Y054367*
Y054233*
X063933Y054200*
X064000*
X064033Y054233*
Y054300*
X063967*
X064100Y054200D02*
Y054400D01*
X064233Y054200*
Y054400*
X064300D02*
Y054200D01*
X064400*
X064433Y054233*
Y054367*
X064400Y054400*
X064300*
X065133D02*
X065000D01*
Y054300*
X065067Y054333*
X065100*
X065133Y054300*
Y054233*
X065100Y054200*
X065033*
X065000Y054233*
X065200Y054400D02*
Y054267D01*
X065267Y054200*
X065333Y054267*
Y054400*
X053670Y086320D02*
X053470D01*
X052690Y086290D02*
X052490D01*
X052590Y086190D02*
Y086390D01*
X064460Y086240D02*
X064260D01*
X065570D02*
X065370D01*
X065470Y086140D02*
Y086340D01*
X051520Y064370D02*
X051720D01*
X051620Y064470D02*
Y064270D01*
X050540Y064350D02*
X050740D01*
X052130Y075760D02*
X051930D01*
Y075610*
X052030Y075660*
X052080*
X052130Y075610*
Y075510*
X052080Y075460*
X051980*
X051930Y075510*
X052230Y075760D02*
Y075560D01*
X052330Y075460*
X052430Y075560*
Y075760*
X051960Y074790D02*
X052010Y074840D01*
X052110*
X052160Y074790*
Y074740*
X052110Y074690*
X052060*
X052110*
X052160Y074640*
Y074590*
X052110Y074540*
X052010*
X051960Y074590*
X052260Y074540D02*
Y074590D01*
X052310*
Y074540*
X052260*
X052510Y074790D02*
X052560Y074840D01*
X052660*
X052710Y074790*
Y074740*
X052660Y074690*
X052610*
X052660*
X052710Y074640*
Y074590*
X052660Y074540*
X052560*
X052510Y074590*
X052810Y074840D02*
Y074640D01*
X052910Y074540*
X053010Y074640*
Y074840*
X052130Y073700D02*
X052080Y073750D01*
X051980*
X051930Y073700*
Y073500*
X051980Y073450*
X052080*
X052130Y073500*
Y073600*
X052030*
X052230Y073450D02*
Y073750D01*
X052430Y073450*
Y073750*
X052530D02*
Y073450D01*
X052680*
X052730Y073500*
Y073700*
X052680Y073750*
X052530*
X054740Y054940D02*
X054840D01*
X054790*
Y054640*
X054740*
X054840*
X054990D02*
Y054940D01*
X055090Y054840*
X055190Y054940*
Y054640*
X055290Y054940D02*
Y054690D01*
X055340Y054640*
X055440*
X055490Y054690*
Y054940*
X055890D02*
Y054640D01*
X055990Y054740*
X056090Y054640*
Y054940*
X056190Y054640D02*
X056290D01*
X056240*
Y054840*
X056190*
X056439D02*
Y054640D01*
Y054740*
X056489Y054790*
X056539Y054840*
X056589*
X056889Y054640D02*
X056789D01*
X056739Y054690*
Y054790*
X056789Y054840*
X056889*
X056939Y054790*
Y054740*
X056739*
X057339Y054940D02*
Y054640D01*
Y054790*
X057539*
Y054940*
Y054640*
X057689D02*
X057789D01*
X057839Y054690*
Y054790*
X057789Y054840*
X057689*
X057639Y054790*
Y054690*
X057689Y054640*
X057939D02*
X058039D01*
X057989*
Y054940*
X057939*
X058339Y054640D02*
X058239D01*
X058189Y054690*
Y054790*
X058239Y054840*
X058339*
X058389Y054790*
Y054740*
X058189*
X058489Y054640D02*
X058639D01*
X058689Y054690*
X058639Y054740*
X058539*
X058489Y054790*
X058539Y054840*
X058689*
X056780Y054160D02*
Y053660D01*
Y053657D02*
X057113D01*
X057280D02*
X057613D01*
X055950D02*
X056283D01*
X056450D02*
X056783D01*
X057360Y053400D02*
X057610Y053650D01*
X057360Y053900*
X056190Y053410D02*
X055940Y053660D01*
X056190Y053910*
G54D37*
X052900Y070205D02*
X052506D01*
X052703Y070008D02*
Y070402D01*
X067695Y072200D02*
Y071806D01*
X067892Y072003D02*
X067498D01*
X067695Y067600D02*
Y067206D01*
X067892Y067403D02*
X067498D01*
X067500Y067995D02*
X067894D01*
X067697Y068192D02*
Y067798D01*
X067000Y073395D02*
X067394D01*
X067197Y073592D02*
Y073198D01*
X067605Y063300D02*
Y063694D01*
X067408Y063497D02*
X067802D01*
X050100Y079095D02*
X050494D01*
X050297Y079292D02*
Y078898D01*
X052765Y060800D02*
X052371D01*
X052568Y060603D02*
Y060997D01*
G54D36*
X057977Y073101D02*
X058103Y072925D01*
X058102*
X058013Y073049*
X058013Y073050*
X058010Y073055*
X058007Y073058*
X058004Y073065*
X057987Y073080*
X057965Y073089*
X057951Y073068*
X057949Y073061*
X057949Y073063*
X057943Y073055*
X057939Y073050*
X057937Y073047*
X057848Y072925*
X057849*
X057979Y073098*
X057866Y073259*
X057865*
X057928Y073168*
X057932Y073165*
X057935Y073160*
X057939Y073155*
X057943Y073147*
X057948Y073139*
X057952Y073133*
X057972Y073098*
X057996Y073122*
X057999Y073125*
X058005Y073132*
X058008Y073139*
X058011Y073143*
X058017Y073151*
X058021Y073157*
X058028Y073165*
X058098Y073259*
X058092*
X057977Y073101*
X057910Y073210D02*
Y073200D01*
X057960Y073090D02*
Y073080D01*
Y073130D02*
Y073120D01*
X058010Y073060D02*
Y073050D01*
X058060Y073220D02*
Y073210D01*
X058616Y071696D02*
X058685Y071605D01*
X058684*
X058617Y071697*
X058549Y071605*
X058549*
X058616Y071695*
X058555Y071780*
X058554*
X058618Y071696*
X058680Y071780*
X058678*
X058616Y071696*
X058580Y071760D02*
Y071750D01*
X058680Y071610D02*
D01*
X060423Y071670D02*
Y071525D01*
X060422*
Y071670*
X060295Y071859*
X060297*
X060364Y071761*
X060375Y071751*
X060362Y071761*
X060366Y071753*
X060367Y071751*
X060373Y071742*
X060379Y071734*
X060384Y071725*
X060390Y071715*
X060397Y071702*
X060427Y071696*
X060426Y071687*
X060427Y071649*
X060450Y071694*
X060454Y071702*
X060459Y071709*
X060465Y071720*
X060472Y071731*
X060479Y071743*
X060489Y071757*
X060555Y071859*
X060554*
X060423Y071670*
X060430Y071680D02*
X060440D01*
X060390Y071730D02*
X060380D01*
X060360Y071780D02*
X060350D01*
X060510D02*
X060500D01*
X060540Y071830D02*
X060530D01*
M02*