%FSDAX24Y24*%
%MOIN*%
%SFA1B1*%

%IPPOS*%
%ADD39C,0.067100*%
%ADD40R,0.067100X0.067100*%
%ADD41C,0.063100*%
%ADD42C,0.057200*%
%ADD43R,0.057200X0.057200*%
%ADD44R,0.067100X0.067100*%
%ADD45C,0.067100*%
%ADD46R,0.057200X0.057200*%
%ADD47C,0.074900*%
%ADD48R,0.074900X0.074900*%
%ADD49R,0.067100X0.067100*%
%ADD50C,0.258000*%
%ADD51R,0.067100X0.067100*%
%ADD52C,0.145800*%
%ADD53C,0.165500*%
%ADD54R,0.071000X0.071000*%
%ADD55C,0.071000*%
%ADD56C,0.058000*%
%LNboardr2-1*%
%LPD*%
G54D39*
X068600Y083600D03*
X069600D03*
X068600Y082600D03*
X069600D03*
X068600Y081600D03*
X069600D03*
X068600Y080600D03*
X069600D03*
X068600Y079600D03*
X061597Y085635D03*
X058841D03*
Y087603D03*
X061597D03*
X050600Y063600D03*
X065500Y078700D03*
X066500D03*
X065500Y076800D03*
X066500D03*
X062200Y055000D03*
X063200D03*
X064200D03*
X065500Y075000D03*
X066500D03*
X056000Y084400D03*
X057000Y083400D03*
Y084400D03*
X058000Y083400D03*
Y084400D03*
X059000Y083400D03*
Y084400D03*
X060000Y083400D03*
Y084400D03*
X061000Y083400D03*
Y084400D03*
X062000Y083400D03*
Y084400D03*
X063000Y083400D03*
Y084400D03*
X064000Y083400D03*
Y084400D03*
X065000Y083400D03*
Y084400D03*
X053600Y087000D03*
X064400D03*
G54D40*
X069600Y079600D03*
G54D41*
X053400Y084600D03*
Y082600D03*
X051800Y072000D03*
X049800D03*
X062177Y077624D03*
X060177D03*
X059377D03*
X057377D03*
X062200Y076100D03*
X060200D03*
X057400D03*
X059400D03*
X065600Y054000D03*
X063600D03*
X063300Y085600D03*
X066300D03*
X052100D03*
X055100D03*
X063000Y082200D03*
X061000D03*
X065000Y062100D03*
Y060100D03*
X050200Y082600D03*
Y084600D03*
X057900Y087200D03*
X054900D03*
X069200Y056800D03*
Y058800D03*
X052600Y063000D03*
Y065000D03*
X053400Y073600D03*
Y075600D03*
X053200Y055400D03*
Y053400D03*
G54D42*
X051006Y070200D03*
X068600Y070706D03*
Y066106D03*
X068994Y068900D03*
Y073400D03*
X068600Y064694D03*
X051494Y078075D03*
X050806Y060800D03*
G54D43*
X051794Y070200D03*
X068206Y068900D03*
Y073400D03*
X050706Y078075D03*
X051594Y060800D03*
G54D44*
X067097Y071631D03*
G54D45*
X067097Y070631D03*
Y069632D03*
Y068632D03*
Y067632D03*
Y066631D03*
Y065631D03*
Y064632D03*
X064097Y071631D03*
Y070631D03*
Y069632D03*
Y068632D03*
Y067632D03*
Y066631D03*
Y065631D03*
Y064632D03*
X061427Y078424D03*
X060427D03*
X059427D03*
X058427D03*
X057427D03*
X056427D03*
X055427D03*
X062427Y081424D03*
X061427D03*
X060427D03*
X059427D03*
X058427D03*
X057427D03*
X056427D03*
X055427D03*
X067200Y062600D03*
X068200D03*
X069200D03*
X066200Y059600D03*
X067200D03*
X068200D03*
X069200D03*
G54D46*
X068600Y071494D03*
Y066894D03*
Y063906D03*
G54D47*
X051500Y067775D03*
Y066775D03*
G54D48*
X051500Y065775D03*
G54D49*
X051600Y063600D03*
X064500Y078700D03*
Y076800D03*
X065200Y055000D03*
X064500Y075000D03*
X056000Y083400D03*
X052600Y087000D03*
X065400D03*
G54D50*
X051734Y057736D03*
X065234D03*
Y081236D03*
X051734D03*
X050400Y086700D03*
X069000D03*
Y054200D03*
X050400D03*
G54D51*
X062427Y078424D03*
X066200Y062600D03*
G54D52*
X058500Y053700D03*
X055000D03*
G54D53*
X060850Y057100D03*
X056350D03*
Y074300D03*
X060800D03*
G54D54*
X051000Y073600D03*
G54D55*
X051000Y074600D03*
Y075600D03*
G54D56*
X066790Y082600D03*
X056720Y082470D03*
X067090Y084710D03*
X067770Y084700D03*
M02*