%FSLAX23Y23*%
%MOIN*%
G70*
G01*
G75*
G04 Layer_Color=65535*
%ADD10C,0.020*%
%ADD11C,0.060*%
%ADD12R,0.059X0.059*%
%ADD13C,0.059*%
%ADD14C,0.055*%
%ADD15C,0.250*%
%ADD16O,0.024X0.039*%
%ADD17R,0.059X0.059*%
%ADD18C,0.046*%
%ADD19R,0.046X0.046*%
%ADD20C,0.049*%
%ADD21R,0.049X0.049*%
%ADD22C,0.157*%
%ADD23R,0.059X0.059*%
%ADD24C,0.059*%
%ADD25R,0.049X0.049*%
%ADD26C,0.063*%
%ADD27R,0.063X0.063*%
%ADD28C,0.067*%
%ADD29R,0.067X0.067*%
%ADD30C,0.050*%
%ADD31C,0.015*%
%ADD32C,0.010*%
%ADD33C,0.008*%
%ADD34C,0.024*%
%ADD35C,0.010*%
%ADD36C,0.020*%
%ADD37C,0.008*%
%ADD38C,0.006*%
G36*
X2983Y2831D02*
Y2815D01*
X2978D01*
Y2831D01*
X2963Y2853D01*
X2970D01*
X2977Y2842D01*
Y2842D01*
X2977Y2842D01*
X2977Y2842D01*
X2977Y2841D01*
X2978Y2841D01*
X2978Y2840D01*
X2979Y2839D01*
X2980Y2838D01*
X2980Y2837D01*
X2981Y2835D01*
Y2835D01*
X2981Y2835D01*
X2981Y2836D01*
X2981Y2836D01*
X2982Y2836D01*
X2982Y2837D01*
X2983Y2838D01*
X2984Y2839D01*
X2984Y2841D01*
X2985Y2842D01*
X2993Y2853D01*
X2999D01*
X2983Y2831D01*
D02*
G37*
G36*
X2763Y2804D02*
X2742Y2777D01*
X2739Y2775D01*
X2764D01*
Y2770D01*
X2733D01*
Y2775D01*
X2753Y2799D01*
Y2799D01*
X2753Y2799D01*
X2753Y2800D01*
X2754Y2800D01*
X2754Y2801D01*
X2755Y2802D01*
X2756Y2802D01*
X2756Y2803D01*
X2757Y2804D01*
X2736D01*
Y2808D01*
X2763D01*
Y2804D01*
D02*
G37*
G36*
X2803Y2835D02*
X2812Y2823D01*
X2806D01*
X2800Y2830D01*
X2795Y2823D01*
X2788D01*
X2797Y2835D01*
X2789Y2845D01*
X2795D01*
X2800Y2839D01*
X2805Y2845D01*
X2811D01*
X2803Y2835D01*
D02*
G37*
G36*
X2739Y2975D02*
X2754Y2955D01*
X2747D01*
X2738Y2969D01*
X2738Y2969D01*
X2738Y2969D01*
X2737Y2969D01*
X2737Y2969D01*
X2737Y2970D01*
X2736Y2971D01*
X2736Y2971D01*
X2736Y2971D01*
X2736Y2970D01*
X2735Y2970D01*
X2735Y2969D01*
X2734Y2969D01*
X2734Y2968D01*
X2725Y2955D01*
X2718D01*
X2733Y2975D01*
X2720Y2993D01*
X2726D01*
X2733Y2984D01*
Y2983D01*
X2733Y2983D01*
X2734Y2983D01*
X2734Y2982D01*
X2734Y2982D01*
X2735Y2981D01*
X2735Y2980D01*
X2736Y2980D01*
X2736Y2979D01*
X2736Y2979D01*
X2737Y2979D01*
X2737Y2980D01*
X2737Y2980D01*
X2738Y2981D01*
X2738Y2982D01*
X2739Y2982D01*
X2739Y2983D01*
X2747Y2993D01*
X2753D01*
X2739Y2975D01*
D02*
G37*
D10*
X2507Y3250D02*
G03*
X2357Y3100I0J-150D01*
G01*
X3257D02*
G03*
X3107Y3250I-150J0D01*
G01*
Y1420D02*
G03*
X3257Y1570I0J150D01*
G01*
X2357D02*
G03*
X2507Y1420I150J0D01*
G01*
X2507D02*
X3107D01*
X3257Y1570D02*
Y3100D01*
X2509Y3252D02*
X3115D01*
X2357Y1570D02*
Y3100D01*
D31*
X2794Y2874D02*
X2798Y2870D01*
X2833Y2835D02*
X2948D01*
X2794Y2874D02*
Y2989D01*
X2773Y2960D02*
X2798Y2985D01*
X2794Y2989D02*
X2823Y2960D01*
X2923Y2860D02*
X2948Y2835D01*
X2923Y2810D02*
X2948Y2835D01*
D32*
X4022Y4231D02*
G03*
X4022Y4231I-59J0D01*
G01*
X2830Y2835D02*
G03*
X2830Y2835I-32J0D01*
G01*
X3571Y3399D02*
X3661D01*
X3541D02*
X3631D01*
X3661Y3374D02*
Y3399D01*
X3541Y3374D02*
X3661D01*
X3541D02*
Y3424D01*
X3661D01*
Y3399D02*
Y3424D01*
X1907Y3980D02*
X3707D01*
Y1180D02*
Y3980D01*
X1907Y1180D02*
X3707D01*
X1907D02*
Y3980D01*
X1101Y2849D02*
X1201D01*
X1101Y3029D02*
X1201D01*
Y2849D02*
Y3029D01*
X1101Y2849D02*
Y3029D01*
X3301Y4499D02*
X3381D01*
Y4409D02*
Y4499D01*
X3301Y4409D02*
X3381D01*
X3301D02*
Y4499D01*
X3951Y3289D02*
X4041D01*
X3921D02*
X4011D01*
X4041Y3264D02*
Y3289D01*
X3921Y3264D02*
X4041D01*
X3921D02*
Y3314D01*
X4041D01*
Y3289D02*
Y3314D01*
X1981Y1799D02*
X2071D01*
X1951D02*
X2041D01*
X2071Y1774D02*
Y1799D01*
X1951Y1774D02*
X2071D01*
X1951D02*
Y1824D01*
X2071D01*
Y1799D02*
Y1824D01*
X3541Y3309D02*
X3631D01*
X3571D02*
X3661D01*
X3541D02*
Y3334D01*
X3661D01*
Y3284D02*
Y3334D01*
X3541Y3284D02*
X3661D01*
X3541D02*
Y3309D01*
X1981Y3409D02*
X2071D01*
X1951D02*
X2041D01*
X2071Y3384D02*
Y3409D01*
X1951Y3384D02*
X2071D01*
X1951D02*
Y3434D01*
X2071D01*
Y3409D02*
Y3434D01*
X1981Y2699D02*
X2071D01*
X1951D02*
X2041D01*
X2071Y2674D02*
Y2699D01*
X1951Y2674D02*
X2071D01*
X1951D02*
Y2724D01*
X2071D01*
Y2699D02*
Y2724D01*
X3711Y4179D02*
X3736D01*
Y4299D01*
X3686D02*
X3736D01*
X3686Y4179D02*
Y4299D01*
Y4179D02*
X3711D01*
Y4209D02*
Y4299D01*
Y4179D02*
Y4269D01*
X1766Y3979D02*
X1791D01*
X1766Y3859D02*
Y3979D01*
Y3859D02*
X1816D01*
Y3979D01*
X1791D02*
X1816D01*
X1791Y3859D02*
Y3949D01*
Y3889D02*
Y3979D01*
X1481Y4069D02*
X1571D01*
X1511D02*
X1601D01*
X1481D02*
Y4094D01*
X1601D01*
Y4044D02*
Y4094D01*
X1481Y4044D02*
X1601D01*
X1481D02*
Y4069D01*
X1301Y3839D02*
Y3929D01*
Y3809D02*
Y3899D01*
Y3929D02*
X1326D01*
Y3809D02*
Y3929D01*
X1276Y3809D02*
X1326D01*
X1276D02*
Y3929D01*
X1301D01*
Y3549D02*
Y3639D01*
Y3519D02*
Y3609D01*
Y3639D02*
X1326D01*
Y3519D02*
Y3639D01*
X1276Y3519D02*
X1326D01*
X1276D02*
Y3639D01*
X1301D01*
Y3259D02*
Y3349D01*
Y3229D02*
Y3319D01*
Y3349D02*
X1326D01*
Y3229D02*
Y3349D01*
X1276Y3229D02*
X1326D01*
X1276D02*
Y3349D01*
X1301D01*
X3424Y4299D02*
X3449D01*
X3424Y4179D02*
Y4299D01*
Y4179D02*
X3474D01*
Y4299D01*
X3449D02*
X3474D01*
X3449Y4179D02*
Y4269D01*
Y4209D02*
Y4299D01*
X4378Y1578D02*
X4471D01*
X4378Y1498D02*
Y1578D01*
Y1498D02*
X4471D01*
Y1578D01*
X3865Y2154D02*
Y2179D01*
Y2154D02*
X3985D01*
Y2204D01*
X3865D02*
X3985D01*
X3865Y2179D02*
Y2204D01*
X3895Y2179D02*
X3985D01*
X3865D02*
X3955D01*
X3983Y2275D02*
Y2300D01*
X3863D02*
X3983D01*
X3863Y2250D02*
Y2300D01*
Y2250D02*
X3983D01*
Y2275D01*
X3863D02*
X3953D01*
X3893D02*
X3983D01*
X2498Y3719D02*
X2471D01*
Y3679D01*
X2498D01*
X2471Y3699D02*
X2484D01*
X2511Y3719D02*
X2538Y3679D01*
Y3719D02*
X2511Y3679D01*
X2551Y3719D02*
X2578D01*
X2564D01*
Y3679D01*
X2591D02*
Y3719D01*
X2611D01*
X2618Y3712D01*
Y3699D01*
X2611Y3692D01*
X2591D01*
X2604D02*
X2618Y3679D01*
X2631D02*
Y3706D01*
X2644Y3719D01*
X2658Y3706D01*
Y3679D01*
Y3699D01*
X2631D01*
X3531Y3449D02*
X3544D01*
X3538D01*
Y3489D01*
X3531Y3482D01*
X3564D02*
X3571Y3489D01*
X3584D01*
X3591Y3482D01*
Y3456D01*
X3584Y3449D01*
X3571D01*
X3564Y3456D01*
Y3482D01*
X3604D02*
X3611Y3489D01*
X3624D01*
X3631Y3482D01*
Y3456D01*
X3624Y3449D01*
X3611D01*
X3604Y3456D01*
Y3482D01*
X3644Y3449D02*
Y3476D01*
X3664D01*
X3671Y3469D01*
Y3449D01*
X3711Y3489D02*
X3684D01*
Y3469D01*
X3698D01*
X3684D01*
Y3449D01*
X2951Y3709D02*
Y3676D01*
X2958Y3669D01*
X2971D01*
X2978Y3676D01*
Y3709D01*
X3018Y3702D02*
X3011Y3709D01*
X2998D01*
X2991Y3702D01*
Y3696D01*
X2998Y3689D01*
X3011D01*
X3018Y3682D01*
Y3676D01*
X3011Y3669D01*
X2998D01*
X2991Y3676D01*
X3031Y3709D02*
Y3669D01*
X3051D01*
X3058Y3676D01*
Y3682D01*
X3051Y3689D01*
X3031D01*
X3051D01*
X3058Y3696D01*
Y3702D01*
X3051Y3709D01*
X3031D01*
X3893Y3200D02*
X3906D01*
X3900D01*
Y3240D01*
X3893Y3233D01*
X3926D02*
X3933Y3240D01*
X3946D01*
X3953Y3233D01*
Y3207D01*
X3946Y3200D01*
X3933D01*
X3926Y3207D01*
Y3233D01*
X3966D02*
X3973Y3240D01*
X3986D01*
X3993Y3233D01*
Y3207D01*
X3986Y3200D01*
X3973D01*
X3966Y3207D01*
Y3233D01*
X4006Y3200D02*
Y3227D01*
X4026D01*
X4033Y3220D01*
Y3200D01*
X4073Y3240D02*
X4046D01*
Y3220D01*
X4060D01*
X4046D01*
Y3200D01*
X3811Y4029D02*
Y4069D01*
X3831D01*
X3838Y4062D01*
Y4049D01*
X3831Y4042D01*
X3811D01*
X3824D02*
X3838Y4029D01*
X3878Y4069D02*
X3851D01*
Y4029D01*
X3878D01*
X3851Y4049D02*
X3864D01*
X3918Y4062D02*
X3911Y4069D01*
X3898D01*
X3891Y4062D01*
Y4056D01*
X3898Y4049D01*
X3911D01*
X3918Y4042D01*
Y4036D01*
X3911Y4029D01*
X3898D01*
X3891Y4036D01*
X3958Y4069D02*
X3931D01*
Y4029D01*
X3958D01*
X3931Y4049D02*
X3944D01*
X3971Y4069D02*
X3998D01*
X3984D01*
Y4029D01*
X4011Y4022D02*
X4038D01*
X4078Y4062D02*
X4071Y4069D01*
X4058D01*
X4051Y4062D01*
Y4056D01*
X4058Y4049D01*
X4071D01*
X4078Y4042D01*
Y4036D01*
X4071Y4029D01*
X4058D01*
X4051Y4036D01*
X4091Y4069D02*
Y4029D01*
X4104Y4042D01*
X4118Y4029D01*
Y4069D01*
X1931Y1859D02*
X1944D01*
X1938D01*
Y1899D01*
X1931Y1892D01*
X1964D02*
X1971Y1899D01*
X1984D01*
X1991Y1892D01*
Y1866D01*
X1984Y1859D01*
X1971D01*
X1964Y1866D01*
Y1892D01*
X2004D02*
X2011Y1899D01*
X2024D01*
X2031Y1892D01*
Y1866D01*
X2024Y1859D01*
X2011D01*
X2004Y1866D01*
Y1892D01*
X2044Y1859D02*
Y1886D01*
X2064D01*
X2071Y1879D01*
Y1859D01*
X2111Y1899D02*
X2084D01*
Y1879D01*
X2098D01*
X2084D01*
Y1859D01*
X1301Y2749D02*
Y2736D01*
Y2742D01*
X1341D01*
X1334Y2749D01*
X1328Y2716D02*
X1308D01*
X1301Y2709D01*
Y2689D01*
X1328D01*
X1341Y2649D02*
Y2676D01*
X1321D01*
Y2662D01*
Y2676D01*
X1301D01*
Y2439D02*
Y2426D01*
Y2432D01*
X1341D01*
X1334Y2439D01*
X1328Y2406D02*
X1308D01*
X1301Y2399D01*
Y2379D01*
X1328D01*
X1341Y2339D02*
Y2366D01*
X1321D01*
Y2352D01*
Y2366D01*
X1301D01*
X1291Y2889D02*
X1304D01*
X1298D01*
Y2929D01*
X1291Y2922D01*
X1324Y2916D02*
Y2896D01*
X1331Y2889D01*
X1351D01*
Y2916D01*
X1391Y2929D02*
X1364D01*
Y2909D01*
X1378D01*
X1364D01*
Y2889D01*
X1571D02*
X1584D01*
X1578D01*
Y2929D01*
X1571Y2922D01*
X1604Y2916D02*
Y2896D01*
X1611Y2889D01*
X1631D01*
Y2916D01*
X1671Y2929D02*
X1644D01*
Y2909D01*
X1658D01*
X1644D01*
Y2889D01*
X1301Y1889D02*
Y1876D01*
Y1882D01*
X1341D01*
X1334Y1889D01*
X1328Y1856D02*
X1308D01*
X1301Y1849D01*
Y1829D01*
X1328D01*
X1341Y1789D02*
Y1816D01*
X1321D01*
Y1802D01*
Y1816D01*
X1301D01*
X1961Y1689D02*
X1974D01*
X1968D01*
Y1729D01*
X1961Y1722D01*
X2021Y1689D02*
X1994D01*
X2021Y1716D01*
Y1722D01*
X2014Y1729D01*
X2001D01*
X1994Y1722D01*
X2034D02*
X2041Y1729D01*
X2054D01*
X2061Y1722D01*
Y1696D01*
X2054Y1689D01*
X2041D01*
X2034Y1696D01*
Y1722D01*
X3871Y4519D02*
Y4559D01*
X3891D01*
X3898Y4552D01*
Y4539D01*
X3891Y4532D01*
X3871D01*
X3884D02*
X3898Y4519D01*
X3938Y4559D02*
X3911D01*
Y4519D01*
X3938D01*
X3911Y4539D02*
X3924D01*
X3978Y4552D02*
X3971Y4559D01*
X3958D01*
X3951Y4552D01*
Y4546D01*
X3958Y4539D01*
X3971D01*
X3978Y4532D01*
Y4526D01*
X3971Y4519D01*
X3958D01*
X3951Y4526D01*
X4018Y4559D02*
X3991D01*
Y4519D01*
X4018D01*
X3991Y4539D02*
X4004D01*
X4031Y4559D02*
X4058D01*
X4044D01*
Y4519D01*
X3641Y4189D02*
X3601D01*
X3621Y4169D01*
Y4196D01*
X3641Y4209D02*
X3601D01*
X3628D02*
X3614Y4229D01*
X3628Y4209D02*
X3641Y4229D01*
X3601Y4249D02*
Y4276D01*
X3608D01*
X3634Y4249D01*
X3641D01*
X4221Y3524D02*
Y3584D01*
X4251D01*
X4261Y3574D01*
Y3554D01*
X4251Y3544D01*
X4221D01*
X4281Y3584D02*
Y3524D01*
X4301Y3544D01*
X4321Y3524D01*
Y3584D01*
X4341Y3524D02*
Y3584D01*
X4371D01*
X4381Y3574D01*
Y3554D01*
X4371Y3544D01*
X4341D01*
X4361D02*
X4381Y3524D01*
X3871Y3534D02*
Y3574D01*
X3891D01*
X3898Y3567D01*
Y3554D01*
X3891Y3547D01*
X3871D01*
X3911Y3574D02*
Y3534D01*
X3924Y3547D01*
X3938Y3534D01*
Y3574D01*
X3951Y3534D02*
Y3574D01*
X3971D01*
X3978Y3567D01*
Y3554D01*
X3971Y3547D01*
X3951D01*
X3964D02*
X3978Y3534D01*
X3991Y3527D02*
X4018D01*
X4058Y3567D02*
X4051Y3574D01*
X4038D01*
X4031Y3567D01*
Y3561D01*
X4038Y3554D01*
X4051D01*
X4058Y3547D01*
Y3541D01*
X4051Y3534D01*
X4038D01*
X4031Y3541D01*
X4071Y3574D02*
Y3534D01*
X4084Y3547D01*
X4098Y3534D01*
Y3574D01*
X4511Y3789D02*
Y3802D01*
Y3796D01*
X4471D01*
X4478Y3789D01*
Y3822D02*
X4471Y3829D01*
Y3842D01*
X4478Y3849D01*
X4484D01*
X4491Y3842D01*
X4498Y3849D01*
X4504D01*
X4511Y3842D01*
Y3829D01*
X4504Y3822D01*
X4498D01*
X4491Y3829D01*
X4484Y3822D01*
X4478D01*
X4491Y3829D02*
Y3842D01*
X4478Y3862D02*
X4471Y3869D01*
Y3882D01*
X4478Y3889D01*
X4504D01*
X4511Y3882D01*
Y3869D01*
X4504Y3862D01*
X4478D01*
X3811Y3749D02*
Y3789D01*
X3831D01*
X3838Y3782D01*
Y3769D01*
X3831Y3762D01*
X3811D01*
X3851Y3789D02*
Y3749D01*
X3864Y3762D01*
X3878Y3749D01*
Y3789D01*
X3891Y3749D02*
Y3789D01*
X3911D01*
X3918Y3782D01*
Y3769D01*
X3911Y3762D01*
X3891D01*
X3904D02*
X3918Y3749D01*
X3931Y3742D02*
X3958D01*
X3971Y3789D02*
Y3749D01*
X3998D01*
X4038Y3789D02*
X4011D01*
Y3749D01*
X4038D01*
X4011Y3769D02*
X4024D01*
X4051Y3789D02*
Y3749D01*
X4071D01*
X4078Y3756D01*
Y3782D01*
X4071Y3789D01*
X4051D01*
X4412Y3786D02*
Y3799D01*
Y3793D01*
X4372D01*
X4379Y3786D01*
Y3819D02*
X4372Y3826D01*
Y3839D01*
X4379Y3846D01*
X4385D01*
X4392Y3839D01*
X4399Y3846D01*
X4405D01*
X4412Y3839D01*
Y3826D01*
X4405Y3819D01*
X4399D01*
X4392Y3826D01*
X4385Y3819D01*
X4379D01*
X4392Y3826D02*
Y3839D01*
X4379Y3859D02*
X4372Y3866D01*
Y3879D01*
X4379Y3886D01*
X4405D01*
X4412Y3879D01*
Y3866D01*
X4405Y3859D01*
X4379D01*
X3851Y3889D02*
Y3929D01*
X3871D01*
X3878Y3922D01*
Y3909D01*
X3871Y3902D01*
X3851D01*
X3891Y3929D02*
Y3902D01*
X3904Y3889D01*
X3918Y3902D01*
Y3929D01*
X3931Y3882D02*
X3958D01*
X3971Y3929D02*
Y3889D01*
X3998D01*
X4038Y3929D02*
X4011D01*
Y3889D01*
X4038D01*
X4011Y3909D02*
X4024D01*
X4051Y3929D02*
Y3889D01*
X4071D01*
X4078Y3896D01*
Y3922D01*
X4071Y3929D01*
X4051D01*
X1659Y1224D02*
X1679D01*
X1669D01*
Y1164D01*
X1659D01*
X1679D01*
X1709D02*
Y1224D01*
X1729Y1204D01*
X1749Y1224D01*
Y1164D01*
X1769Y1224D02*
Y1174D01*
X1779Y1164D01*
X1799D01*
X1809Y1174D01*
Y1224D01*
X1271Y3069D02*
X1284D01*
X1278D01*
Y3029D01*
X1271D01*
X1284D01*
X1304D02*
Y3069D01*
X1318Y3056D01*
X1331Y3069D01*
Y3029D01*
X1344Y3069D02*
Y3036D01*
X1351Y3029D01*
X1364D01*
X1371Y3036D01*
Y3069D01*
X1384Y3022D02*
X1411D01*
X1444Y3069D02*
X1431D01*
X1424Y3062D01*
Y3036D01*
X1431Y3029D01*
X1444D01*
X1451Y3036D01*
Y3062D01*
X1444Y3069D01*
X1464D02*
Y3036D01*
X1471Y3029D01*
X1484D01*
X1491Y3036D01*
Y3069D01*
X1504D02*
X1531D01*
X1518D01*
Y3029D01*
X1538Y4552D02*
X1531Y4559D01*
X1518D01*
X1511Y4552D01*
Y4526D01*
X1518Y4519D01*
X1531D01*
X1538Y4526D01*
Y4539D01*
X1524D01*
X1551Y4519D02*
Y4559D01*
X1571D01*
X1578Y4552D01*
Y4539D01*
X1571Y4532D01*
X1551D01*
X1618Y4552D02*
X1611Y4559D01*
X1598D01*
X1591Y4552D01*
Y4546D01*
X1598Y4539D01*
X1611D01*
X1618Y4532D01*
Y4526D01*
X1611Y4519D01*
X1598D01*
X1591Y4526D01*
X1631Y4512D02*
X1658D01*
X1698Y4552D02*
X1691Y4559D01*
X1678D01*
X1671Y4552D01*
Y4526D01*
X1678Y4519D01*
X1691D01*
X1698Y4526D01*
X1711Y4559D02*
Y4519D01*
Y4539D01*
X1738D01*
Y4559D01*
Y4519D01*
X1778D02*
X1751D01*
X1778Y4546D01*
Y4552D01*
X1771Y4559D01*
X1758D01*
X1751Y4552D01*
X1838D02*
X1831Y4559D01*
X1818D01*
X1811Y4552D01*
Y4526D01*
X1818Y4519D01*
X1831D01*
X1838Y4526D01*
Y4539D01*
X1824D01*
X1851Y4519D02*
Y4559D01*
X1871D01*
X1878Y4552D01*
Y4539D01*
X1871Y4532D01*
X1851D01*
X1918Y4552D02*
X1911Y4559D01*
X1898D01*
X1891Y4552D01*
Y4546D01*
X1898Y4539D01*
X1911D01*
X1918Y4532D01*
Y4526D01*
X1911Y4519D01*
X1898D01*
X1891Y4526D01*
X1931Y4512D02*
X1958D01*
X1998Y4552D02*
X1991Y4559D01*
X1978D01*
X1971Y4552D01*
Y4526D01*
X1978Y4519D01*
X1991D01*
X1998Y4526D01*
X2011Y4559D02*
Y4519D01*
Y4539D01*
X2038D01*
Y4559D01*
Y4519D01*
X2051D02*
X2064D01*
X2058D01*
Y4559D01*
X2051Y4552D01*
X3531Y3219D02*
X3544D01*
X3538D01*
Y3259D01*
X3531Y3252D01*
X3564D02*
X3571Y3259D01*
X3584D01*
X3591Y3252D01*
Y3226D01*
X3584Y3219D01*
X3571D01*
X3564Y3226D01*
Y3252D01*
X3604D02*
X3611Y3259D01*
X3624D01*
X3631Y3252D01*
Y3226D01*
X3624Y3219D01*
X3611D01*
X3604Y3226D01*
Y3252D01*
X3644Y3219D02*
Y3246D01*
X3664D01*
X3671Y3239D01*
Y3219D01*
X3711Y3259D02*
X3684D01*
Y3239D01*
X3698D01*
X3684D01*
Y3219D01*
X1941Y3459D02*
X1954D01*
X1948D01*
Y3499D01*
X1941Y3492D01*
X1974D02*
X1981Y3499D01*
X1994D01*
X2001Y3492D01*
Y3466D01*
X1994Y3459D01*
X1981D01*
X1974Y3466D01*
Y3492D01*
X2014D02*
X2021Y3499D01*
X2034D01*
X2041Y3492D01*
Y3466D01*
X2034Y3459D01*
X2021D01*
X2014Y3466D01*
Y3492D01*
X2054Y3459D02*
Y3486D01*
X2074D01*
X2081Y3479D01*
Y3459D01*
X2121Y3499D02*
X2094D01*
Y3479D01*
X2108D01*
X2094D01*
Y3459D01*
X1931Y2739D02*
X1944D01*
X1938D01*
Y2779D01*
X1931Y2772D01*
X1964D02*
X1971Y2779D01*
X1984D01*
X1991Y2772D01*
Y2746D01*
X1984Y2739D01*
X1971D01*
X1964Y2746D01*
Y2772D01*
X2004D02*
X2011Y2779D01*
X2024D01*
X2031Y2772D01*
Y2746D01*
X2024Y2739D01*
X2011D01*
X2004Y2746D01*
Y2772D01*
X2044Y2739D02*
Y2766D01*
X2064D01*
X2071Y2759D01*
Y2739D01*
X2111Y2779D02*
X2084D01*
Y2759D01*
X2098D01*
X2084D01*
Y2739D01*
X2791Y4299D02*
X2781Y4309D01*
X2761D01*
X2751Y4299D01*
Y4259D01*
X2761Y4249D01*
X2781D01*
X2791Y4259D01*
Y4279D01*
X2771D01*
X2811Y4249D02*
Y4309D01*
X2841D01*
X2851Y4299D01*
Y4279D01*
X2841Y4269D01*
X2811D01*
X2911Y4299D02*
X2901Y4309D01*
X2881D01*
X2871Y4299D01*
Y4289D01*
X2881Y4279D01*
X2901D01*
X2911Y4269D01*
Y4259D01*
X2901Y4249D01*
X2881D01*
X2871Y4259D01*
X4191Y3049D02*
X4204D01*
X4198D01*
Y3089D01*
X4191Y3082D01*
X4224D02*
X4231Y3089D01*
X4244D01*
X4251Y3082D01*
Y3056D01*
X4244Y3049D01*
X4231D01*
X4224Y3056D01*
Y3082D01*
X4264Y3076D02*
Y3056D01*
X4271Y3049D01*
X4291D01*
Y3076D01*
X4331Y3089D02*
X4304D01*
Y3069D01*
X4318D01*
X4304D01*
Y3049D01*
X3071Y4489D02*
X3051D01*
Y4459D01*
X3071D01*
X3051Y4474D02*
X3061D01*
X3081Y4489D02*
Y4469D01*
X3091Y4459D01*
X3101Y4469D01*
Y4489D01*
X3131D02*
X3111D01*
Y4459D01*
X3131D01*
X3111Y4474D02*
X3121D01*
X3141Y4459D02*
Y4489D01*
X3161Y4459D01*
Y4489D01*
X3171D02*
X3191D01*
X3181D01*
Y4459D01*
X2441Y4484D02*
X2436Y4489D01*
X2426D01*
X2421Y4484D01*
Y4479D01*
X2426Y4474D01*
X2436D01*
X2441Y4469D01*
Y4464D01*
X2436Y4459D01*
X2426D01*
X2421Y4464D01*
X2451Y4489D02*
X2471D01*
X2461D01*
Y4459D01*
X2481D02*
Y4489D01*
X2496D01*
X2501Y4484D01*
Y4474D01*
X2496Y4469D01*
X2481D01*
X2491D02*
X2501Y4459D01*
X2526Y4489D02*
X2516D01*
X2511Y4484D01*
Y4464D01*
X2516Y4459D01*
X2526D01*
X2531Y4464D01*
Y4484D01*
X2526Y4489D01*
X2541D02*
Y4459D01*
X2556D01*
X2561Y4464D01*
Y4469D01*
X2556Y4474D01*
X2541D01*
X2556D01*
X2561Y4479D01*
Y4484D01*
X2556Y4489D01*
X2541D01*
X2591D02*
X2571D01*
Y4459D01*
X2591D01*
X2571Y4474D02*
X2581D01*
X2621Y4484D02*
X2616Y4489D01*
X2606D01*
X2601Y4484D01*
Y4479D01*
X2606Y4474D01*
X2616D01*
X2621Y4469D01*
Y4464D01*
X2616Y4459D01*
X2606D01*
X2601Y4464D01*
X1261Y1529D02*
Y1589D01*
X1281Y1569D01*
X1301Y1589D01*
Y1529D01*
X1321D02*
Y1569D01*
X1341Y1589D01*
X1361Y1569D01*
Y1529D01*
Y1559D01*
X1321D01*
X1381Y1589D02*
X1421Y1529D01*
Y1589D02*
X1381Y1529D01*
X1471D02*
Y1589D01*
X1441Y1559D01*
X1481D01*
X1501Y1579D02*
X1511Y1589D01*
X1531D01*
X1541Y1579D01*
Y1569D01*
X1531Y1559D01*
X1541Y1549D01*
Y1539D01*
X1531Y1529D01*
X1511D01*
X1501Y1539D01*
Y1549D01*
X1511Y1559D01*
X1501Y1569D01*
Y1579D01*
X1511Y1559D02*
X1531D01*
X1601Y1589D02*
X1561D01*
Y1559D01*
X1581Y1569D01*
X1591D01*
X1601Y1559D01*
Y1539D01*
X1591Y1529D01*
X1571D01*
X1561Y1539D01*
X1211Y3379D02*
Y3366D01*
Y3372D01*
X1251D01*
X1244Y3379D01*
Y3346D02*
X1251Y3339D01*
Y3326D01*
X1244Y3319D01*
X1218D01*
X1211Y3326D01*
Y3339D01*
X1218Y3346D01*
X1244D01*
Y3306D02*
X1251Y3299D01*
Y3286D01*
X1244Y3279D01*
X1218D01*
X1211Y3286D01*
Y3299D01*
X1218Y3306D01*
X1244D01*
X1211Y3266D02*
X1238D01*
Y3246D01*
X1231Y3239D01*
X1211D01*
X1251Y3199D02*
Y3226D01*
X1231D01*
Y3212D01*
Y3226D01*
X1211D01*
X1451Y4119D02*
X1464D01*
X1458D01*
Y4159D01*
X1451Y4152D01*
X1484D02*
X1491Y4159D01*
X1504D01*
X1511Y4152D01*
Y4126D01*
X1504Y4119D01*
X1491D01*
X1484Y4126D01*
Y4152D01*
X1524D02*
X1531Y4159D01*
X1544D01*
X1551Y4152D01*
Y4126D01*
X1544Y4119D01*
X1531D01*
X1524Y4126D01*
Y4152D01*
X1564Y4119D02*
Y4146D01*
X1584D01*
X1591Y4139D01*
Y4119D01*
X1631Y4159D02*
X1604D01*
Y4139D01*
X1618D01*
X1604D01*
Y4119D01*
X1211Y3669D02*
Y3656D01*
Y3662D01*
X1251D01*
X1244Y3669D01*
Y3636D02*
X1251Y3629D01*
Y3616D01*
X1244Y3609D01*
X1218D01*
X1211Y3616D01*
Y3629D01*
X1218Y3636D01*
X1244D01*
Y3596D02*
X1251Y3589D01*
Y3576D01*
X1244Y3569D01*
X1218D01*
X1211Y3576D01*
Y3589D01*
X1218Y3596D01*
X1244D01*
X1211Y3556D02*
X1238D01*
Y3536D01*
X1231Y3529D01*
X1211D01*
X1251Y3489D02*
Y3516D01*
X1231D01*
Y3502D01*
Y3516D01*
X1211D01*
Y3959D02*
Y3946D01*
Y3952D01*
X1251D01*
X1244Y3959D01*
Y3926D02*
X1251Y3919D01*
Y3906D01*
X1244Y3899D01*
X1218D01*
X1211Y3906D01*
Y3919D01*
X1218Y3926D01*
X1244D01*
Y3886D02*
X1251Y3879D01*
Y3866D01*
X1244Y3859D01*
X1218D01*
X1211Y3866D01*
Y3879D01*
X1218Y3886D01*
X1244D01*
X1211Y3846D02*
X1238D01*
Y3826D01*
X1231Y3819D01*
X1211D01*
X1251Y3779D02*
Y3806D01*
X1231D01*
Y3792D01*
Y3806D01*
X1211D01*
X1841Y3999D02*
Y3986D01*
Y3992D01*
X1881D01*
X1874Y3999D01*
Y3966D02*
X1881Y3959D01*
Y3946D01*
X1874Y3939D01*
X1848D01*
X1841Y3946D01*
Y3959D01*
X1848Y3966D01*
X1874D01*
Y3926D02*
X1881Y3919D01*
Y3906D01*
X1874Y3899D01*
X1848D01*
X1841Y3906D01*
Y3919D01*
X1848Y3926D01*
X1874D01*
X1841Y3886D02*
X1868D01*
Y3866D01*
X1861Y3859D01*
X1841D01*
X1881Y3819D02*
Y3846D01*
X1861D01*
Y3832D01*
Y3846D01*
X1841D01*
X1571Y3899D02*
X1581Y3909D01*
Y3929D01*
X1571Y3939D01*
X1531D01*
X1521Y3929D01*
Y3909D01*
X1531Y3899D01*
X1551D01*
Y3919D01*
X1521Y3879D02*
X1581D01*
Y3849D01*
X1571Y3839D01*
X1551D01*
X1541Y3849D01*
Y3879D01*
X1571Y3779D02*
X1581Y3789D01*
Y3809D01*
X1571Y3819D01*
X1561D01*
X1551Y3809D01*
Y3789D01*
X1541Y3779D01*
X1531D01*
X1521Y3789D01*
Y3809D01*
X1531Y3819D01*
X1511Y3759D02*
Y3719D01*
X1521Y3699D02*
X1581D01*
X1561Y3679D01*
X1581Y3659D01*
X1521D01*
Y3639D02*
X1561D01*
X1581Y3619D01*
X1561Y3599D01*
X1521D01*
X1551D01*
Y3639D01*
X1581Y3579D02*
X1521Y3539D01*
X1581D02*
X1521Y3579D01*
X1571Y3519D02*
X1581Y3509D01*
Y3489D01*
X1571Y3479D01*
X1561D01*
X1551Y3489D01*
Y3499D01*
Y3489D01*
X1541Y3479D01*
X1531D01*
X1521Y3489D01*
Y3509D01*
X1531Y3519D01*
X1521Y3419D02*
Y3459D01*
X1561Y3419D01*
X1571D01*
X1581Y3429D01*
Y3449D01*
X1571Y3459D01*
Y3399D02*
X1581Y3389D01*
Y3369D01*
X1571Y3359D01*
X1561D01*
X1551Y3369D01*
Y3379D01*
Y3369D01*
X1541Y3359D01*
X1531D01*
X1521Y3369D01*
Y3389D01*
X1531Y3399D01*
X1521Y3299D02*
Y3339D01*
X1561Y3299D01*
X1571D01*
X1581Y3309D01*
Y3329D01*
X1571Y3339D01*
X1595Y2558D02*
Y2538D01*
Y2548D01*
X1535D01*
Y2558D01*
Y2538D01*
Y2508D02*
X1595D01*
X1575Y2488D01*
X1595Y2468D01*
X1535D01*
X1595Y2448D02*
X1545D01*
X1535Y2438D01*
Y2418D01*
X1545Y2408D01*
X1595D01*
X1525Y2388D02*
Y2348D01*
X1535Y2328D02*
X1595D01*
X1575Y2308D01*
X1595Y2288D01*
X1535D01*
Y2268D02*
X1575D01*
X1595Y2248D01*
X1575Y2228D01*
X1535D01*
X1565D01*
Y2268D01*
X1595Y2208D02*
X1535Y2168D01*
X1595D02*
X1535Y2208D01*
Y2108D02*
Y2148D01*
X1575Y2108D01*
X1585D01*
X1595Y2118D01*
Y2138D01*
X1585Y2148D01*
Y2088D02*
X1595Y2078D01*
Y2058D01*
X1585Y2048D01*
X1575D01*
X1565Y2058D01*
Y2068D01*
Y2058D01*
X1555Y2048D01*
X1545D01*
X1535Y2058D01*
Y2078D01*
X1545Y2088D01*
X1535Y1988D02*
Y2028D01*
X1575Y1988D01*
X1585D01*
X1595Y1998D01*
Y2018D01*
X1585Y2028D01*
X3801Y4159D02*
Y4172D01*
Y4166D01*
X3761D01*
X3768Y4159D01*
Y4192D02*
X3761Y4199D01*
Y4212D01*
X3768Y4219D01*
X3794D01*
X3801Y4212D01*
Y4199D01*
X3794Y4192D01*
X3768D01*
Y4232D02*
X3761Y4239D01*
Y4252D01*
X3768Y4259D01*
X3794D01*
X3801Y4252D01*
Y4239D01*
X3794Y4232D01*
X3768D01*
X3801Y4272D02*
X3774D01*
Y4292D01*
X3781Y4299D01*
X3801D01*
X3761Y4339D02*
Y4312D01*
X3781D01*
Y4326D01*
Y4312D01*
X3801D01*
X3400Y4160D02*
Y4173D01*
Y4167D01*
X3360D01*
X3367Y4160D01*
Y4193D02*
X3360Y4200D01*
Y4213D01*
X3367Y4220D01*
X3393D01*
X3400Y4213D01*
Y4200D01*
X3393Y4193D01*
X3367D01*
Y4233D02*
X3360Y4240D01*
Y4253D01*
X3367Y4260D01*
X3393D01*
X3400Y4253D01*
Y4240D01*
X3393Y4233D01*
X3367D01*
X3400Y4273D02*
X3373D01*
Y4293D01*
X3380Y4300D01*
X3400D01*
X3360Y4340D02*
Y4313D01*
X3380D01*
Y4327D01*
Y4313D01*
X3400D01*
X4113Y2710D02*
X4053D01*
Y2670D01*
X4113Y2650D02*
X4053D01*
Y2620D01*
X4063Y2610D01*
X4103D01*
X4113Y2620D01*
Y2650D01*
X4103Y2590D02*
X4113Y2580D01*
Y2560D01*
X4103Y2550D01*
X4093D01*
X4083Y2560D01*
Y2570D01*
Y2560D01*
X4073Y2550D01*
X4063D01*
X4053Y2560D01*
Y2580D01*
X4063Y2590D01*
X4103Y2530D02*
X4113Y2520D01*
Y2500D01*
X4103Y2490D01*
X4093D01*
X4083Y2500D01*
Y2510D01*
Y2500D01*
X4073Y2490D01*
X4063D01*
X4053Y2500D01*
Y2520D01*
X4063Y2530D01*
X4108Y1970D02*
X4048D01*
Y1930D01*
X4108Y1910D02*
Y1870D01*
X4098D01*
X4058Y1910D01*
X4048D01*
X4098Y1850D02*
X4108Y1840D01*
Y1820D01*
X4098Y1810D01*
X4088D01*
X4078Y1820D01*
X4068Y1810D01*
X4058D01*
X4048Y1820D01*
Y1840D01*
X4058Y1850D01*
X4068D01*
X4078Y1840D01*
X4088Y1850D01*
X4098D01*
X4078Y1840D02*
Y1820D01*
X4098Y1790D02*
X4108Y1780D01*
Y1760D01*
X4098Y1750D01*
X4058D01*
X4048Y1760D01*
Y1780D01*
X4058Y1790D01*
X4098D01*
X4108Y1690D02*
Y1730D01*
X4078D01*
X4088Y1710D01*
Y1700D01*
X4078Y1690D01*
X4058D01*
X4048Y1700D01*
Y1720D01*
X4058Y1730D01*
X4090Y2895D02*
Y2908D01*
Y2902D01*
X4050D01*
X4057Y2895D01*
Y2928D02*
X4050Y2935D01*
Y2948D01*
X4057Y2955D01*
X4083D01*
X4090Y2948D01*
Y2935D01*
X4083Y2928D01*
X4057D01*
X4063Y2968D02*
X4083D01*
X4090Y2975D01*
Y2995D01*
X4063D01*
X4050Y3035D02*
Y3008D01*
X4070D01*
Y3022D01*
Y3008D01*
X4090D01*
X3845Y2089D02*
X3858D01*
X3852D01*
Y2129D01*
X3845Y2122D01*
X3878D02*
X3885Y2129D01*
X3898D01*
X3905Y2122D01*
Y2096D01*
X3898Y2089D01*
X3885D01*
X3878Y2096D01*
Y2122D01*
X3918D02*
X3925Y2129D01*
X3938D01*
X3945Y2122D01*
Y2096D01*
X3938Y2089D01*
X3925D01*
X3918Y2096D01*
Y2122D01*
X3958Y2089D02*
Y2116D01*
X3978D01*
X3985Y2109D01*
Y2089D01*
X4025Y2129D02*
X3998D01*
Y2109D01*
X4012D01*
X3998D01*
Y2089D01*
X3842Y2322D02*
X3855D01*
X3849D01*
Y2362D01*
X3842Y2355D01*
X3875D02*
X3882Y2362D01*
X3895D01*
X3902Y2355D01*
Y2329D01*
X3895Y2322D01*
X3882D01*
X3875Y2329D01*
Y2355D01*
X3915D02*
X3922Y2362D01*
X3935D01*
X3942Y2355D01*
Y2329D01*
X3935Y2322D01*
X3922D01*
X3915Y2329D01*
Y2355D01*
X3955Y2322D02*
Y2349D01*
X3975D01*
X3982Y2342D01*
Y2322D01*
X4022Y2362D02*
X3995D01*
Y2342D01*
X4009D01*
X3995D01*
Y2322D01*
X4090Y1420D02*
Y1433D01*
Y1427D01*
X4050D01*
X4057Y1420D01*
Y1453D02*
X4050Y1460D01*
Y1473D01*
X4057Y1480D01*
X4083D01*
X4090Y1473D01*
Y1460D01*
X4083Y1453D01*
X4057D01*
X4063Y1493D02*
X4083D01*
X4090Y1500D01*
Y1520D01*
X4063D01*
X4050Y1560D02*
Y1533D01*
X4070D01*
Y1547D01*
Y1533D01*
X4090D01*
X2332Y1265D02*
X2322Y1275D01*
X2302D01*
X2292Y1265D01*
Y1225D01*
X2302Y1215D01*
X2322D01*
X2332Y1225D01*
Y1245D01*
X2312D01*
X2352Y1215D02*
Y1275D01*
X2382D01*
X2392Y1265D01*
Y1245D01*
X2382Y1235D01*
X2352D01*
X2452Y1265D02*
X2442Y1275D01*
X2422D01*
X2412Y1265D01*
Y1255D01*
X2422Y1245D01*
X2442D01*
X2452Y1235D01*
Y1225D01*
X2442Y1215D01*
X2422D01*
X2412Y1225D01*
X2532Y1215D02*
Y1275D01*
X2572Y1215D01*
Y1275D01*
X2602Y1215D02*
X2622D01*
X2632Y1225D01*
Y1245D01*
X2622Y1255D01*
X2602D01*
X2592Y1245D01*
Y1225D01*
X2602Y1215D01*
X2652Y1255D02*
X2672Y1215D01*
X2692Y1255D01*
X2712Y1215D02*
Y1255D01*
X2732Y1275D01*
X2752Y1255D01*
Y1215D01*
Y1245D01*
X2712D01*
X2782Y1265D02*
Y1255D01*
X2772D01*
X2792D01*
X2782D01*
Y1225D01*
X2792Y1215D01*
X2852D02*
X2832D01*
X2822Y1225D01*
Y1245D01*
X2832Y1255D01*
X2852D01*
X2862Y1245D01*
Y1235D01*
X2822D01*
X2882Y1215D02*
X2902D01*
X2892D01*
Y1275D01*
X2882D01*
X3022D02*
X3002D01*
X2992Y1265D01*
Y1225D01*
X3002Y1215D01*
X3022D01*
X3032Y1225D01*
Y1265D01*
X3022Y1275D01*
X3092D02*
X3052D01*
Y1215D01*
X3092D01*
X3052Y1245D02*
X3072D01*
X3112Y1215D02*
Y1275D01*
X3132Y1255D01*
X3152Y1275D01*
Y1215D01*
X3172Y1275D02*
Y1235D01*
X3192Y1215D01*
X3212Y1235D01*
Y1275D01*
X3232Y1245D02*
X3272D01*
X3292Y1215D02*
X3312D01*
X3302D01*
Y1275D01*
X3292Y1265D01*
X4271Y3999D02*
X4231D01*
X4251Y3979D02*
Y4019D01*
X4271Y3669D02*
X4231D01*
X4251Y3649D02*
Y3689D01*
X2584Y2520D02*
Y2580D01*
X2624Y2520D01*
Y2580D01*
X2654Y2560D02*
X2674D01*
X2683Y2550D01*
Y2520D01*
X2654D01*
X2644Y2530D01*
X2654Y2540D01*
X2683D01*
X2703Y2520D02*
Y2560D01*
X2733D01*
X2743Y2550D01*
Y2520D01*
X2773D02*
X2793D01*
X2803Y2530D01*
Y2550D01*
X2793Y2560D01*
X2773D01*
X2763Y2550D01*
Y2530D01*
X2773Y2520D01*
X2883Y2580D02*
X2903D01*
X2893D01*
Y2520D01*
X2883D01*
X2903D01*
X2933D02*
Y2580D01*
X2953Y2560D01*
X2973Y2580D01*
Y2520D01*
X2993Y2580D02*
Y2530D01*
X3003Y2520D01*
X3023D01*
X3033Y2530D01*
Y2580D01*
X2578Y2605D02*
Y2665D01*
X2598Y2645D01*
X2618Y2665D01*
Y2605D01*
X2678Y2665D02*
X2638D01*
Y2605D01*
X2678D01*
X2638Y2635D02*
X2658D01*
X2698Y2605D02*
Y2665D01*
X2718Y2645D01*
X2738Y2665D01*
Y2605D01*
X2798Y2655D02*
X2788Y2665D01*
X2768D01*
X2758Y2655D01*
Y2645D01*
X2768Y2635D01*
X2788D01*
X2798Y2625D01*
Y2615D01*
X2788Y2605D01*
X2768D01*
X2758Y2615D01*
X2858Y2665D02*
X2818D01*
Y2605D01*
X2858D01*
X2818Y2635D02*
X2838D01*
X2878Y2605D02*
Y2665D01*
X2918Y2605D01*
Y2665D01*
X2978Y2655D02*
X2968Y2665D01*
X2948D01*
X2938Y2655D01*
Y2645D01*
X2948Y2635D01*
X2968D01*
X2978Y2625D01*
Y2615D01*
X2968Y2605D01*
X2948D01*
X2938Y2615D01*
X3038Y2665D02*
X2998D01*
Y2605D01*
X3038D01*
X2998Y2635D02*
X3018D01*
X4171Y3669D02*
X4131D01*
X4171Y3999D02*
X4131D01*
D33*
X4349Y3209D02*
G03*
X4349Y3209I-98J0D01*
G01*
X1536Y2654D02*
G03*
X1586Y2654I25J0D01*
G01*
X1526Y4007D02*
G03*
X1576Y4007I25J0D01*
G01*
X1644Y1584D02*
G03*
X1644Y1534I0J-25D01*
G01*
X1339Y1999D02*
G03*
X1339Y1999I-98J0D01*
G01*
Y2229D02*
G03*
X1339Y2229I-98J0D01*
G01*
Y2549D02*
G03*
X1339Y2549I-98J0D01*
G01*
X1549Y2799D02*
G03*
X1549Y2799I-98J0D01*
G01*
X1829D02*
G03*
X1829Y2799I-98J0D01*
G01*
X4030Y2965D02*
G03*
X4030Y2965I-98J0D01*
G01*
X4024Y1490D02*
G03*
X4024Y1490I-98J0D01*
G01*
X2411Y3649D02*
X2711D01*
X2411Y3549D02*
Y3649D01*
Y3549D02*
X2711D01*
Y3649D01*
X3201Y3549D02*
Y3649D01*
X2801Y3549D02*
X3201D01*
X2801Y3649D02*
X3201D01*
X2801Y3549D02*
Y3649D01*
X2111Y1709D02*
X2120D01*
X1902D02*
X1911D01*
X2111Y1679D02*
Y1709D01*
X1911Y1679D02*
X2111D01*
X1911D02*
Y1739D01*
X2111D01*
Y1709D02*
Y1739D01*
X4061Y4389D02*
Y4489D01*
X3861Y4389D02*
X4061D01*
X3861D02*
Y4489D01*
X4061D01*
X3621Y4329D02*
Y4338D01*
Y4120D02*
Y4129D01*
Y4329D02*
X3651D01*
Y4129D02*
Y4329D01*
X3591Y4129D02*
X3651D01*
X3591D02*
Y4329D01*
X3621D01*
X4151Y3404D02*
X4451D01*
Y3504D01*
X4151D02*
X4451D01*
X4151Y3404D02*
Y3504D01*
X4081Y3404D02*
Y3504D01*
X3881Y3404D02*
X4081D01*
X3881D02*
Y3504D01*
X4081D01*
X4491Y3939D02*
Y3948D01*
Y3730D02*
Y3739D01*
Y3939D02*
X4521D01*
Y3739D02*
Y3939D01*
X4461Y3739D02*
X4521D01*
X4461D02*
Y3939D01*
X4491D01*
X4101Y3719D02*
X4301D01*
Y3819D01*
X4101D02*
X4301D01*
X4101Y3719D02*
Y3819D01*
X4391Y3939D02*
Y3948D01*
Y3730D02*
Y3739D01*
Y3939D02*
X4421D01*
Y3739D02*
Y3939D01*
X4361Y3739D02*
X4421D01*
X4361D02*
Y3939D01*
X4391D01*
X4101Y3859D02*
X4301D01*
Y3959D01*
X4101D02*
X4301D01*
X4101Y3859D02*
Y3959D01*
X1681Y1259D02*
X1781D01*
X1681D02*
Y1659D01*
X1781Y1259D02*
Y1659D01*
X1681D02*
X1781D01*
X1851Y2999D02*
Y3099D01*
X1551Y2999D02*
X1851D01*
X1551D02*
Y3099D01*
X1851D01*
X1681Y4159D02*
X1781D01*
X1681D02*
Y4459D01*
X1781D01*
Y4159D02*
Y4459D01*
X1811Y4159D02*
X1911D01*
X1811D02*
Y4459D01*
X1911D01*
Y4159D02*
Y4459D01*
X2442Y4217D02*
X3154D01*
X2442Y4060D02*
X3133D01*
X3229D01*
Y4217D01*
X3154D02*
X3229D01*
X2442Y4060D02*
Y4217D01*
X3021Y4439D02*
X3221D01*
X3021Y4339D02*
Y4439D01*
Y4339D02*
X3221D01*
Y4439D01*
X2421Y4339D02*
X2621D01*
Y4439D01*
X2421D02*
X2621D01*
X2421Y4339D02*
Y4439D01*
X1457Y1874D02*
X1665D01*
X1586Y2654D02*
X1665D01*
X1457D02*
X1536D01*
X1665Y1874D02*
Y2654D01*
X1457Y1874D02*
Y2654D01*
X1447Y4007D02*
X1526D01*
X1576D02*
X1655D01*
X1447Y3231D02*
X1655D01*
X1447D02*
Y4007D01*
X1655Y3231D02*
Y4007D01*
X1238Y1663D02*
X1644D01*
X1238Y1455D02*
X1644D01*
Y1584D02*
Y1663D01*
Y1455D02*
Y1534D01*
X1238Y1455D02*
Y1663D01*
X3845Y2399D02*
X4030D01*
X3845Y2821D02*
X4030D01*
X3845Y2399D02*
Y2821D01*
X4030Y2399D02*
Y2821D01*
X4011Y2399D02*
Y2821D01*
X4002Y1625D02*
Y2035D01*
X3841D02*
X4022D01*
X3841Y1625D02*
Y2035D01*
Y1625D02*
X4022D01*
Y2035D01*
D34*
X1508Y2614D02*
G03*
X1508Y2614I-12J0D01*
G01*
X1616Y1624D02*
G03*
X1616Y1624I-12J0D01*
G01*
D35*
X1416Y2665D02*
G03*
X1416Y2665I-5J0D01*
G01*
X1647Y1709D02*
G03*
X1647Y1709I-5J0D01*
G01*
X3876Y2795D02*
G03*
X3876Y2795I-5J0D01*
G01*
D36*
X3845Y4349D02*
X4081D01*
X3845Y4113D02*
Y4349D01*
Y4113D02*
X4081D01*
Y4349D01*
X3825Y4132D02*
X3845D01*
X3825Y4329D02*
X3845D01*
X4081D02*
X4101D01*
X4081Y4132D02*
X4101D01*
D37*
X1581Y3144D02*
X1576Y3149D01*
X1566D01*
X1561Y3144D01*
Y3124D01*
X1566Y3119D01*
X1576D01*
X1581Y3124D01*
Y3134D01*
X1571D01*
X1591Y3119D02*
Y3149D01*
X1611Y3119D01*
Y3149D01*
X1621D02*
Y3119D01*
X1636D01*
X1641Y3124D01*
Y3144D01*
X1636Y3149D01*
X1621D01*
X1761Y3119D02*
Y3149D01*
X1781Y3119D01*
Y3149D01*
X1791Y3119D02*
X1811Y3139D01*
X1821Y3119D02*
Y3139D01*
X1831Y3149D01*
X1841Y3139D01*
Y3119D01*
Y3134D01*
X1821D01*
X1681Y3119D02*
Y3149D01*
X1696D01*
X1701Y3144D01*
Y3134D01*
X1696Y3129D01*
X1681D01*
X1691D02*
X1701Y3119D01*
X1711Y3149D02*
X1731Y3119D01*
Y3149D02*
X1711Y3119D01*
X1601Y4414D02*
X1596Y4419D01*
X1586D01*
X1581Y4414D01*
Y4394D01*
X1586Y4389D01*
X1596D01*
X1601Y4394D01*
Y4404D01*
X1591D01*
X1611Y4389D02*
Y4419D01*
X1631Y4389D01*
Y4419D01*
X1641D02*
Y4389D01*
X1656D01*
X1661Y4394D01*
Y4414D01*
X1656Y4419D01*
X1641D01*
X1611Y4229D02*
X1631D01*
X1621D01*
Y4199D01*
X1641Y4229D02*
X1661Y4199D01*
Y4229D02*
X1641Y4199D01*
X1611Y4299D02*
Y4329D01*
X1626D01*
X1631Y4324D01*
Y4314D01*
X1626Y4309D01*
X1611D01*
X1621D02*
X1631Y4299D01*
X1641Y4329D02*
X1661Y4299D01*
Y4329D02*
X1641Y4299D01*
X1951Y4414D02*
X1946Y4419D01*
X1936D01*
X1931Y4414D01*
Y4394D01*
X1936Y4389D01*
X1946D01*
X1951Y4394D01*
Y4404D01*
X1941D01*
X1961Y4389D02*
Y4419D01*
X1981Y4389D01*
Y4419D01*
X1991D02*
Y4389D01*
X2006D01*
X2011Y4394D01*
Y4414D01*
X2006Y4419D01*
X1991D01*
X1931Y4229D02*
X1951D01*
X1941D01*
Y4199D01*
X1961Y4229D02*
X1981Y4199D01*
Y4229D02*
X1961Y4199D01*
X1931Y4299D02*
Y4329D01*
X1946D01*
X1951Y4324D01*
Y4314D01*
X1946Y4309D01*
X1931D01*
X1941D02*
X1951Y4299D01*
X1961Y4329D02*
X1981Y4299D01*
Y4329D02*
X1961Y4299D01*
X2621Y3529D02*
Y3509D01*
X2631Y3499D01*
X2641Y3509D01*
Y3529D01*
X2651Y3499D02*
Y3519D01*
X2661Y3529D01*
X2671Y3519D01*
Y3499D01*
Y3514D01*
X2651D01*
X2681Y3499D02*
Y3529D01*
X2696D01*
X2701Y3524D01*
Y3514D01*
X2696Y3509D01*
X2681D01*
X2691D02*
X2701Y3499D01*
X2731Y3529D02*
X2711D01*
Y3514D01*
X2721D01*
X2711D01*
Y3499D01*
X2531D02*
Y3529D01*
X2546D01*
X2551Y3524D01*
Y3514D01*
X2546Y3509D01*
X2531D01*
X2541D02*
X2551Y3499D01*
X2561Y3529D02*
X2581Y3499D01*
Y3529D02*
X2561Y3499D01*
X2431Y3529D02*
X2451D01*
X2441D01*
Y3499D01*
X2461Y3529D02*
X2481Y3499D01*
Y3529D02*
X2461Y3499D01*
X3150Y3529D02*
X3130D01*
Y3514D01*
X3140Y3519D01*
X3145D01*
X3150Y3514D01*
Y3504D01*
X3145Y3499D01*
X3135D01*
X3130Y3504D01*
X3160Y3529D02*
Y3509D01*
X3170Y3499D01*
X3180Y3509D01*
Y3529D01*
X2828Y3524D02*
X2823Y3529D01*
X2813D01*
X2808Y3524D01*
Y3504D01*
X2813Y3499D01*
X2823D01*
X2828Y3504D01*
Y3514D01*
X2818D01*
X2838Y3499D02*
Y3529D01*
X2858Y3499D01*
Y3529D01*
X2868D02*
Y3499D01*
X2883D01*
X2888Y3504D01*
Y3524D01*
X2883Y3529D01*
X2868D01*
X2931D02*
Y3499D01*
X2946D01*
X2951Y3504D01*
Y3524D01*
X2946Y3529D01*
X2931D01*
X2961Y3514D02*
X2981D01*
X3031Y3529D02*
Y3499D01*
X3046D01*
X3051Y3504D01*
Y3524D01*
X3046Y3529D01*
X3031D01*
X3061Y3514D02*
X3081D01*
X3071Y3524D02*
Y3504D01*
X1108Y3079D02*
X1113Y3084D01*
X1123D01*
X1128Y3079D01*
Y3074D01*
X1123Y3069D01*
X1118D01*
X1123D01*
X1128Y3064D01*
Y3059D01*
X1123Y3054D01*
X1113D01*
X1108Y3059D01*
X1138Y3084D02*
Y3064D01*
X1148Y3054D01*
X1158Y3064D01*
Y3084D01*
X1168Y3079D02*
X1173Y3084D01*
X1183D01*
X1188Y3079D01*
Y3074D01*
X1183Y3069D01*
X1178D01*
X1183D01*
X1188Y3064D01*
Y3059D01*
X1183Y3054D01*
X1173D01*
X1168Y3059D01*
X1143Y2827D02*
X1123D01*
Y2812D01*
X1133Y2817D01*
X1138D01*
X1143Y2812D01*
Y2802D01*
X1138Y2797D01*
X1128D01*
X1123Y2802D01*
X1153Y2827D02*
Y2807D01*
X1163Y2797D01*
X1173Y2807D01*
Y2827D01*
X3403Y4445D02*
X3413D01*
X3408D01*
Y4475D01*
X3403Y4470D01*
X3448Y4445D02*
X3428D01*
X3448Y4465D01*
Y4470D01*
X3443Y4475D01*
X3433D01*
X3428Y4470D01*
X3458Y4475D02*
Y4455D01*
X3468Y4445D01*
X3478Y4455D01*
Y4475D01*
X4296Y3379D02*
X4291Y3384D01*
X4281D01*
X4276Y3379D01*
Y3374D01*
X4281Y3369D01*
X4291D01*
X4296Y3364D01*
Y3359D01*
X4291Y3354D01*
X4281D01*
X4276Y3359D01*
X4306Y3384D02*
Y3354D01*
X4316Y3364D01*
X4326Y3354D01*
Y3384D01*
X4161Y3354D02*
X4171D01*
X4166D01*
Y3384D01*
X4161Y3379D01*
X4206Y3354D02*
X4186D01*
X4206Y3374D01*
Y3379D01*
X4201Y3384D01*
X4191D01*
X4186Y3379D01*
X4216Y3384D02*
Y3364D01*
X4226Y3354D01*
X4236Y3364D01*
Y3384D01*
X3921Y3384D02*
X3916Y3389D01*
X3906D01*
X3901Y3384D01*
Y3379D01*
X3906Y3374D01*
X3916D01*
X3921Y3369D01*
Y3364D01*
X3916Y3359D01*
X3906D01*
X3901Y3364D01*
X3931Y3389D02*
Y3359D01*
X3941Y3369D01*
X3951Y3359D01*
Y3389D01*
X3071Y4289D02*
X3081D01*
X3076D01*
Y4319D01*
X3071Y4314D01*
X3181Y4289D02*
X3161D01*
X3181Y4309D01*
Y4314D01*
X3176Y4319D01*
X3166D01*
X3161Y4314D01*
X1821Y1629D02*
X1801D01*
Y1614D01*
X1811Y1619D01*
X1816D01*
X1821Y1614D01*
Y1604D01*
X1816Y1599D01*
X1806D01*
X1801Y1604D01*
X1831Y1629D02*
Y1609D01*
X1841Y1599D01*
X1851Y1609D01*
Y1629D01*
X1801Y1329D02*
Y1299D01*
X1816D01*
X1821Y1304D01*
Y1309D01*
X1816Y1314D01*
X1801D01*
X1816D01*
X1821Y1319D01*
Y1324D01*
X1816Y1329D01*
X1801D01*
X1821Y1521D02*
X1816Y1526D01*
X1806D01*
X1801Y1521D01*
Y1501D01*
X1806Y1496D01*
X1816D01*
X1821Y1501D01*
Y1511D01*
X1811D01*
X1831Y1496D02*
Y1526D01*
X1851Y1496D01*
Y1526D01*
X1861D02*
Y1496D01*
X1876D01*
X1881Y1501D01*
Y1521D01*
X1876Y1526D01*
X1861D01*
X1801Y1399D02*
Y1419D01*
X1811Y1429D01*
X1821Y1419D01*
Y1399D01*
Y1414D01*
X1801D01*
X3841Y4399D02*
X3811D01*
Y4414D01*
X3816Y4419D01*
X3826D01*
X3831Y4414D01*
Y4399D01*
Y4409D02*
X3841Y4419D01*
X3816Y4449D02*
X3811Y4444D01*
Y4434D01*
X3816Y4429D01*
X3821D01*
X3826Y4434D01*
Y4444D01*
X3831Y4449D01*
X3836D01*
X3841Y4444D01*
Y4434D01*
X3836Y4429D01*
X3811Y4459D02*
Y4479D01*
Y4469D01*
X3841D01*
X4086Y4419D02*
X4081Y4414D01*
Y4404D01*
X4086Y4399D01*
X4106D01*
X4111Y4404D01*
Y4414D01*
X4106Y4419D01*
X4096D01*
Y4409D01*
X4111Y4429D02*
X4081D01*
X4111Y4449D01*
X4081D01*
Y4459D02*
X4111D01*
Y4474D01*
X4106Y4479D01*
X4086D01*
X4081Y4474D01*
Y4459D01*
X4011Y3384D02*
X4006Y3389D01*
X3996D01*
X3991Y3384D01*
Y3364D01*
X3996Y3359D01*
X4006D01*
X4011Y3364D01*
Y3374D01*
X4001D01*
X4021Y3359D02*
Y3389D01*
X4041Y3359D01*
Y3389D01*
X4051D02*
Y3359D01*
X4066D01*
X4071Y3364D01*
Y3384D01*
X4066Y3389D01*
X4051D01*
X4371Y3354D02*
X4381D01*
X4376D01*
Y3384D01*
X4371Y3379D01*
X4416Y3354D02*
X4396D01*
X4416Y3374D01*
Y3379D01*
X4411Y3384D01*
X4401D01*
X4396Y3379D01*
X4426Y3384D02*
Y3364D01*
X4436Y3354D01*
X4446Y3364D01*
Y3384D01*
X2431Y4289D02*
Y4319D01*
X2446D01*
X2451Y4314D01*
Y4304D01*
X2446Y4299D01*
X2431D01*
X2461Y4289D02*
Y4319D01*
X2476D01*
X2481Y4314D01*
Y4304D01*
X2476Y4299D01*
X2461D01*
X2511Y4314D02*
X2506Y4319D01*
X2496D01*
X2491Y4314D01*
Y4309D01*
X2496Y4304D01*
X2506D01*
X2511Y4299D01*
Y4294D01*
X2506Y4289D01*
X2496D01*
X2491Y4294D01*
X2551Y4289D02*
Y4319D01*
X2566D01*
X2571Y4314D01*
Y4304D01*
X2566Y4299D01*
X2551D01*
X2581Y4319D02*
Y4299D01*
X2591Y4289D01*
X2601Y4299D01*
Y4319D01*
X3282Y4079D02*
X3249D01*
X3282Y4113D01*
Y4121D01*
X3274Y4129D01*
X3257D01*
X3249Y4121D01*
X3257Y4158D02*
X3274D01*
X3265D01*
Y4208D01*
X3257Y4200D01*
X2339Y4158D02*
X2356D01*
X2347D01*
Y4208D01*
X2339Y4200D01*
X2381Y4166D02*
X2389Y4158D01*
X2406D01*
X2414Y4166D01*
Y4200D01*
X2406Y4208D01*
X2389D01*
X2381Y4200D01*
Y4191D01*
X2389Y4183D01*
X2414D01*
X2368Y4079D02*
X2335D01*
X2368Y4113D01*
Y4121D01*
X2360Y4129D01*
X2343D01*
X2335Y4121D01*
X2385D02*
X2393Y4129D01*
X2410D01*
X2418Y4121D01*
Y4088D01*
X2410Y4079D01*
X2393D01*
X2385Y4088D01*
Y4121D01*
X4403Y1473D02*
X4398Y1478D01*
X4388D01*
X4383Y1473D01*
Y1453D01*
X4388Y1448D01*
X4398D01*
X4403Y1453D01*
Y1463D01*
X4393D01*
X4413Y1448D02*
Y1478D01*
X4433Y1448D01*
Y1478D01*
X4443D02*
Y1448D01*
X4458D01*
X4463Y1453D01*
Y1473D01*
X4458Y1478D01*
X4443D01*
X3788Y1970D02*
Y1960D01*
Y1965D01*
X3818D01*
X3813Y1970D01*
X3788Y1925D02*
Y1945D01*
X3808Y1925D01*
X3813D01*
X3818Y1930D01*
Y1940D01*
X3813Y1945D01*
X3818Y1915D02*
X3798D01*
X3788Y1905D01*
X3798Y1895D01*
X3818D01*
X3813Y1850D02*
X3818Y1855D01*
Y1865D01*
X3813Y1870D01*
X3793D01*
X3788Y1865D01*
Y1855D01*
X3793Y1850D01*
X3803D01*
Y1860D01*
X3788Y1840D02*
X3818D01*
X3788Y1820D01*
X3818D01*
Y1810D02*
X3788D01*
Y1795D01*
X3793Y1790D01*
X3813D01*
X3818Y1795D01*
Y1810D01*
Y1730D02*
Y1750D01*
X3803D01*
X3808Y1740D01*
Y1735D01*
X3803Y1730D01*
X3793D01*
X3788Y1735D01*
Y1745D01*
X3793Y1750D01*
X3818Y1720D02*
X3798D01*
X3788Y1710D01*
X3798Y1700D01*
X3818D01*
X3813Y2660D02*
X3818Y2655D01*
Y2645D01*
X3813Y2640D01*
X3808D01*
X3803Y2645D01*
Y2650D01*
Y2645D01*
X3798Y2640D01*
X3793D01*
X3788Y2645D01*
Y2655D01*
X3793Y2660D01*
X3788Y2630D02*
X3793D01*
Y2625D01*
X3788D01*
Y2630D01*
X3813Y2605D02*
X3818Y2600D01*
Y2590D01*
X3813Y2585D01*
X3808D01*
X3803Y2590D01*
Y2595D01*
Y2590D01*
X3798Y2585D01*
X3793D01*
X3788Y2590D01*
Y2600D01*
X3793Y2605D01*
X3818Y2575D02*
X3798D01*
X3788Y2565D01*
X3798Y2555D01*
X3818D01*
X3813Y2740D02*
X3818Y2745D01*
Y2755D01*
X3813Y2760D01*
X3793D01*
X3788Y2755D01*
Y2745D01*
X3793Y2740D01*
X3803D01*
Y2750D01*
X3788Y2730D02*
X3818D01*
X3788Y2710D01*
X3818D01*
Y2700D02*
X3788D01*
Y2685D01*
X3793Y2680D01*
X3813D01*
X3818Y2685D01*
Y2700D01*
Y2510D02*
Y2530D01*
X3803D01*
X3808Y2520D01*
Y2515D01*
X3803Y2510D01*
X3793D01*
X3788Y2515D01*
Y2525D01*
X3793Y2530D01*
X3818Y2500D02*
X3798D01*
X3788Y2490D01*
X3798Y2480D01*
X3818D01*
D38*
X4371Y3299D02*
X4332D01*
X4351Y3280D02*
Y3319D01*
X1241Y1843D02*
Y1882D01*
X1221Y1862D02*
X1261D01*
X1241Y2385D02*
Y2346D01*
X1261Y2366D02*
X1221D01*
X1241Y2705D02*
Y2666D01*
X1261Y2686D02*
X1221D01*
X1295Y2799D02*
X1334D01*
X1314Y2819D02*
Y2779D01*
X1575Y2799D02*
X1614D01*
X1594Y2819D02*
Y2779D01*
X3992Y2835D02*
Y2874D01*
X3973Y2855D02*
X4012D01*
X3986Y1350D02*
Y1389D01*
X3967Y1370D02*
X4006D01*
M02*
