M48
;Layer_Color=9474304
;FILE_FORMAT=2:3
INCH,LZ
;TYPE=PLATED
T1F00S00C0.020
T2F00S00C0.028
T3F00S00C0.030
T4F00S00C0.033
T5F00S00C0.035
T6F00S00C0.039
T7F00S00C0.043
T8F00S00C0.070
T9F00S00C0.100
T10F00S00C0.125
%
T01
X03825Y04132
Y04329
X04101
Y04132
T02
X02116Y02068
X01874Y03519
X02481Y04099
Y04178
X0256
Y04099
X02638
Y04178
X02717
Y04099
X02796
Y04178
X02875
Y04099
X02953
Y04178
X03032
Y04099
X03111
Y04178
X02717Y04389
X0319Y04178
Y04099
X04289Y03332
T03
X03926Y01451
Y01529
X04427Y01539
X03932Y02926
Y03004
X0177Y02799
X01692
X0149
X01412
X0115Y02898
Y02978
X01241Y02588
Y0251
Y02268
Y0219
Y02038
Y0196
X04212Y03209
X0429
X03341Y04459
T04
X03825Y02179
X03823Y02275
X04023
X04025Y02179
X02111Y01799
X02161Y01709
X01861
X01911Y01799
Y02699
X02111
X01301Y03189
Y03389
Y03479
Y03679
Y03769
Y03969
X01441Y04069
X01641
X01791Y04019
Y03819
X01911Y03409
X02111
X03501Y03399
Y03309
X03701
Y03399
X03881Y03289
X04081
X04391Y03689
X04491
Y03989
X04391
X03711Y04139
X03621Y04079
X03449Y04139
Y04339
X03621Y04379
X03711Y04339
T05
X01291Y01409
X01391
X01491
X01591
X01731
Y01509
Y01309
Y01609
X01591Y01709
X01711Y01914
Y02014
Y02114
Y02214
Y02314
Y02414
Y02514
Y02614
X01701Y03049
X01601
X01801
X01411Y02614
Y02514
Y02414
Y02314
Y02214
Y02114
Y02014
Y01914
X01391Y01709
X01491
X01291
X01401Y03269
Y03369
Y03469
Y03569
Y03669
Y03769
Y03869
Y03969
X01701
Y03869
Y03769
Y03669
Y03569
Y03469
Y03369
Y03269
X01731Y04209
Y04309
Y04409
X01861
Y04309
Y04209
X02471Y04389
X02571
X03071
X03051Y03599
X02951
X02851
X02661
X02561
X02461
X03151
X03171Y04389
X03911Y04439
X04011
X04151Y03909
X04251
Y03769
X04151
X04201Y03454
X04301
X04401
X04031
X03931
T06
X03918Y0251
Y0261
Y0271
T07
X03908Y0173
Y0183
Y0193
T08
X02582Y01478
X03032
Y03194
X02582
T09
X01176Y01174
X04426
X01176Y04424
X04426
T10
X02132Y01305
X03482
X02132Y03855
X03482
M30
