%FSLAX23Y23*%
%MOIN*%
G70*
G01*
G75*
%ADD10C,0.020*%
%ADD11C,0.060*%
%ADD12R,0.059X0.059*%
%ADD13C,0.059*%
%ADD14C,0.055*%
%ADD15C,0.250*%
%ADD16O,0.024X0.039*%
%ADD17R,0.059X0.059*%
%ADD18C,0.046*%
%ADD19R,0.046X0.046*%
%ADD20C,0.049*%
%ADD21R,0.049X0.049*%
%ADD22C,0.157*%
%ADD23R,0.059X0.059*%
%ADD24C,0.059*%
%ADD25R,0.049X0.049*%
%ADD26C,0.063*%
%ADD27R,0.063X0.063*%
%ADD28C,0.067*%
%ADD29R,0.067X0.067*%
%ADD30C,0.050*%
%ADD31C,0.015*%
%ADD32C,0.010*%
%ADD33C,0.008*%
%ADD34C,0.024*%
%ADD35C,0.010*%
%ADD36C,0.020*%
%ADD37C,0.008*%
%ADD38C,0.006*%
%ADD39C,0.068*%
%ADD40R,0.067X0.067*%
%ADD41C,0.067*%
%ADD42C,0.063*%
%ADD43C,0.258*%
%ADD44O,0.032X0.047*%
%ADD45R,0.067X0.067*%
%ADD46C,0.054*%
%ADD47R,0.054X0.054*%
%ADD48C,0.057*%
%ADD49R,0.057X0.057*%
%ADD50C,0.165*%
%ADD51R,0.067X0.067*%
%ADD52C,0.067*%
%ADD53R,0.057X0.057*%
%ADD54C,0.071*%
%ADD55R,0.071X0.071*%
%ADD56C,0.075*%
%ADD57R,0.075X0.075*%
%ADD58C,0.058*%
%ADD59C,0.001*%
%ADD60C,0.005*%
%ADD61C,0.007*%
%ADD62C,0.004*%
D60*
X3326Y4459D02*
X3356D01*
X3341Y4444D02*
Y4474D01*
X1135Y2898D02*
X1165D01*
X1150Y2883D02*
Y2913D01*
X1135Y2978D02*
X1165D01*
X1150Y2963D02*
Y2993D01*
X2643Y3599D02*
X2679D01*
X2661Y3581D02*
Y3617D01*
X2543Y3599D02*
X2579D01*
X2561Y3581D02*
Y3617D01*
X2443Y3599D02*
X2479D01*
X2461Y3581D02*
Y3617D01*
X3684Y3399D02*
X3718D01*
X3701Y3382D02*
Y3416D01*
X3484Y3399D02*
X3518D01*
X3501Y3382D02*
Y3416D01*
X3420Y3855D02*
X3545D01*
X3482Y3793D02*
Y3918D01*
X2070Y3855D02*
X2195D01*
X2132Y3793D02*
Y3918D01*
X2070Y1305D02*
X2195D01*
X2132Y1242D02*
Y1367D01*
X3420Y1305D02*
X3545D01*
X3482Y1242D02*
Y1367D01*
X2833Y3599D02*
X2869D01*
X2851Y3581D02*
Y3617D01*
X2933Y3599D02*
X2969D01*
X2951Y3581D02*
Y3617D01*
X3033Y3599D02*
X3069D01*
X3051Y3581D02*
Y3617D01*
X3133Y3599D02*
X3169D01*
X3151Y3581D02*
Y3617D01*
X4376Y4424D02*
X4476D01*
X4426Y4374D02*
Y4474D01*
X4064Y3289D02*
X4098D01*
X4081Y3272D02*
Y3306D01*
X3864Y3289D02*
X3898D01*
X3881Y3272D02*
Y3306D01*
X4091Y4132D02*
X4111D01*
X4101Y4123D02*
Y4142D01*
X3815Y4132D02*
X3835D01*
X3825Y4123D02*
Y4142D01*
X3815Y4329D02*
X3835D01*
X3825Y4319D02*
Y4339D01*
X4091Y4329D02*
X4111D01*
X4101Y4319D02*
Y4339D01*
X2094Y1799D02*
X2128D01*
X2111Y1782D02*
Y1816D01*
X1894Y1799D02*
X1928D01*
X1911Y1782D02*
Y1816D01*
X1844Y1709D02*
X1878D01*
X1861Y1692D02*
Y1726D01*
X2144Y1709D02*
X2178D01*
X2161Y1692D02*
Y1726D01*
X3893Y4439D02*
X3929D01*
X3911Y4421D02*
Y4457D01*
X3993Y4439D02*
X4029D01*
X4011Y4421D02*
Y4457D01*
X3604Y4079D02*
X3638D01*
X3621Y4062D02*
Y4096D01*
X3604Y4379D02*
X3638D01*
X3621Y4362D02*
Y4396D01*
X4183Y3454D02*
X4219D01*
X4201Y3436D02*
Y3472D01*
X4283Y3454D02*
X4319D01*
X4301Y3436D02*
Y3472D01*
X4383Y3454D02*
X4419D01*
X4401Y3436D02*
Y3472D01*
X3913Y3454D02*
X3949D01*
X3931Y3436D02*
Y3472D01*
X4013Y3454D02*
X4049D01*
X4031Y3436D02*
Y3472D01*
X4474Y3689D02*
X4508D01*
X4491Y3672D02*
Y3706D01*
X4474Y3989D02*
X4508D01*
X4491Y3972D02*
Y4006D01*
X4133Y3769D02*
X4169D01*
X4151Y3751D02*
Y3787D01*
X4233Y3769D02*
X4269D01*
X4251Y3751D02*
Y3787D01*
X4374Y3689D02*
X4408D01*
X4391Y3672D02*
Y3706D01*
X4374Y3989D02*
X4408D01*
X4391Y3972D02*
Y4006D01*
X4133Y3909D02*
X4169D01*
X4151Y3891D02*
Y3927D01*
X4233Y3909D02*
X4269D01*
X4251Y3891D02*
Y3927D01*
X1713Y1609D02*
X1749D01*
X1731Y1591D02*
Y1627D01*
X1713Y1509D02*
X1749D01*
X1731Y1491D02*
Y1527D01*
X1713Y1409D02*
X1749D01*
X1731Y1391D02*
Y1427D01*
X1713Y1309D02*
X1749D01*
X1731Y1291D02*
Y1327D01*
X1583Y3049D02*
X1619D01*
X1601Y3031D02*
Y3067D01*
X1683Y3049D02*
X1719D01*
X1701Y3031D02*
Y3067D01*
X1783Y3049D02*
X1819D01*
X1801Y3031D02*
Y3067D01*
X1713Y4409D02*
X1749D01*
X1731Y4391D02*
Y4427D01*
X1713Y4309D02*
X1749D01*
X1731Y4291D02*
Y4327D01*
X1713Y4209D02*
X1749D01*
X1731Y4191D02*
Y4227D01*
X1843Y4409D02*
X1879D01*
X1861Y4391D02*
Y4427D01*
X1843Y4309D02*
X1879D01*
X1861Y4291D02*
Y4327D01*
X1843Y4209D02*
X1879D01*
X1861Y4191D02*
Y4227D01*
X3484Y3309D02*
X3518D01*
X3501Y3292D02*
Y3326D01*
X3684Y3309D02*
X3718D01*
X3701Y3292D02*
Y3326D01*
X2094Y3409D02*
X2128D01*
X2111Y3392D02*
Y3426D01*
X1894Y3409D02*
X1928D01*
X1911Y3392D02*
Y3426D01*
X2094Y2699D02*
X2128D01*
X2111Y2682D02*
Y2716D01*
X1894Y2699D02*
X1928D01*
X1911Y2682D02*
Y2716D01*
X2467Y4099D02*
X2495D01*
X2481Y4085D02*
Y4113D01*
X2467Y4178D02*
X2495D01*
X2481Y4164D02*
Y4192D01*
X2546Y4099D02*
X2574D01*
X2560Y4085D02*
Y4113D01*
X2546Y4178D02*
X2574D01*
X2560Y4164D02*
Y4192D01*
X2625Y4099D02*
X2652D01*
X2638Y4085D02*
Y4113D01*
X2625Y4178D02*
X2652D01*
X2638Y4164D02*
Y4192D01*
X2703Y4099D02*
X2731D01*
X2717Y4085D02*
Y4113D01*
X2703Y4178D02*
X2731D01*
X2717Y4164D02*
Y4192D01*
X2782Y4099D02*
X2810D01*
X2796Y4085D02*
Y4113D01*
X2782Y4178D02*
X2810D01*
X2796Y4164D02*
Y4192D01*
X2861Y4099D02*
X2889D01*
X2875Y4085D02*
Y4113D01*
X2861Y4178D02*
X2889D01*
X2875Y4164D02*
Y4192D01*
X2939Y4099D02*
X2967D01*
X2953Y4085D02*
Y4113D01*
X2939Y4178D02*
X2967D01*
X2953Y4164D02*
Y4192D01*
X3018Y4099D02*
X3046D01*
X3032Y4085D02*
Y4113D01*
X3018Y4178D02*
X3046D01*
X3032Y4164D02*
Y4192D01*
X3097Y4099D02*
X3125D01*
X3111Y4085D02*
Y4113D01*
X3097Y4178D02*
X3125D01*
X3111Y4164D02*
Y4192D01*
X3176Y4099D02*
X3204D01*
X3190Y4085D02*
Y4113D01*
X3176Y4178D02*
X3204D01*
X3190Y4164D02*
Y4192D01*
X4197Y3209D02*
X4226D01*
X4212Y3194D02*
Y3224D01*
X4276Y3209D02*
X4305D01*
X4290Y3194D02*
Y3224D01*
X2997Y3194D02*
X3067D01*
X3032Y3159D02*
Y3229D01*
X2547Y3194D02*
X2617D01*
X2582Y3159D02*
Y3229D01*
X2547Y1478D02*
X2617D01*
X2582Y1443D02*
Y1513D01*
X2997Y1478D02*
X3067D01*
X3032Y1443D02*
Y1513D01*
X3153Y4389D02*
X3189D01*
X3171Y4371D02*
Y4407D01*
X3053Y4389D02*
X3089D01*
X3071Y4371D02*
Y4407D01*
X2453Y4389D02*
X2489D01*
X2471Y4371D02*
Y4407D01*
X2553Y4389D02*
X2589D01*
X2571Y4371D02*
Y4407D01*
X3694Y4339D02*
X3728D01*
X3711Y4322D02*
Y4356D01*
X3694Y4139D02*
X3728D01*
X3711Y4122D02*
Y4156D01*
X1126Y4424D02*
X1226D01*
X1176Y4374D02*
Y4474D01*
X1126Y1174D02*
X1226D01*
X1176Y1124D02*
Y1224D01*
X4376Y1174D02*
X4476D01*
X4426Y1124D02*
Y1224D01*
X1693Y1914D02*
X1729D01*
X1711Y1896D02*
Y1932D01*
X1693Y2014D02*
X1729D01*
X1711Y1996D02*
Y2032D01*
X1693Y2114D02*
X1729D01*
X1711Y2096D02*
Y2132D01*
X1693Y2214D02*
X1729D01*
X1711Y2196D02*
Y2232D01*
X1693Y2314D02*
X1729D01*
X1711Y2296D02*
Y2332D01*
X1693Y2414D02*
X1729D01*
X1711Y2396D02*
Y2432D01*
X1693Y2514D02*
X1729D01*
X1711Y2496D02*
Y2532D01*
X1693Y2614D02*
X1729D01*
X1711Y2596D02*
Y2632D01*
X1393Y1914D02*
X1429D01*
X1411Y1896D02*
Y1932D01*
X1393Y2014D02*
X1429D01*
X1411Y1996D02*
Y2032D01*
X1393Y2114D02*
X1429D01*
X1411Y2096D02*
Y2132D01*
X1393Y2214D02*
X1429D01*
X1411Y2196D02*
Y2232D01*
X1393Y2314D02*
X1429D01*
X1411Y2296D02*
Y2332D01*
X1393Y2414D02*
X1429D01*
X1411Y2396D02*
Y2432D01*
X1393Y2514D02*
X1429D01*
X1411Y2496D02*
Y2532D01*
X1393Y2614D02*
X1429D01*
X1411Y2596D02*
Y2632D01*
X1774Y3819D02*
X1808D01*
X1791Y3802D02*
Y3836D01*
X1774Y4019D02*
X1808D01*
X1791Y4002D02*
Y4036D01*
X1424Y4069D02*
X1458D01*
X1441Y4052D02*
Y4086D01*
X1624Y4069D02*
X1658D01*
X1641Y4052D02*
Y4086D01*
X1284Y3969D02*
X1318D01*
X1301Y3952D02*
Y3986D01*
X1284Y3769D02*
X1318D01*
X1301Y3752D02*
Y3786D01*
X1284Y3679D02*
X1318D01*
X1301Y3662D02*
Y3696D01*
X1284Y3479D02*
X1318D01*
X1301Y3462D02*
Y3496D01*
X1383Y3969D02*
X1419D01*
X1401Y3951D02*
Y3987D01*
X1383Y3869D02*
X1419D01*
X1401Y3851D02*
Y3887D01*
X1383Y3769D02*
X1419D01*
X1401Y3751D02*
Y3787D01*
X1383Y3669D02*
X1419D01*
X1401Y3651D02*
Y3687D01*
X1383Y3569D02*
X1419D01*
X1401Y3551D02*
Y3587D01*
X1383Y3469D02*
X1419D01*
X1401Y3451D02*
Y3487D01*
X1383Y3369D02*
X1419D01*
X1401Y3351D02*
Y3387D01*
X1383Y3269D02*
X1419D01*
X1401Y3251D02*
Y3287D01*
X1683Y3969D02*
X1719D01*
X1701Y3951D02*
Y3987D01*
X1683Y3869D02*
X1719D01*
X1701Y3851D02*
Y3887D01*
X1683Y3769D02*
X1719D01*
X1701Y3751D02*
Y3787D01*
X1683Y3669D02*
X1719D01*
X1701Y3651D02*
Y3687D01*
X1683Y3569D02*
X1719D01*
X1701Y3551D02*
Y3587D01*
X1683Y3469D02*
X1719D01*
X1701Y3451D02*
Y3487D01*
X1683Y3369D02*
X1719D01*
X1701Y3351D02*
Y3387D01*
X1683Y3269D02*
X1719D01*
X1701Y3251D02*
Y3287D01*
X1284Y3389D02*
X1318D01*
X1301Y3372D02*
Y3406D01*
X1284Y3189D02*
X1318D01*
X1301Y3172D02*
Y3206D01*
X1573Y1709D02*
X1609D01*
X1591Y1691D02*
Y1727D01*
X1473Y1709D02*
X1509D01*
X1491Y1691D02*
Y1727D01*
X1373Y1709D02*
X1409D01*
X1391Y1691D02*
Y1727D01*
X1273Y1709D02*
X1309D01*
X1291Y1691D02*
Y1727D01*
X1573Y1409D02*
X1609D01*
X1591Y1391D02*
Y1427D01*
X1473Y1409D02*
X1509D01*
X1491Y1391D02*
Y1427D01*
X1373Y1409D02*
X1409D01*
X1391Y1391D02*
Y1427D01*
X1273Y1409D02*
X1309D01*
X1291Y1391D02*
Y1427D01*
X1226Y1960D02*
X1256D01*
X1241Y1945D02*
Y1974D01*
X1226Y2038D02*
X1256D01*
X1241Y2024D02*
Y2053D01*
X1226Y2268D02*
X1256D01*
X1241Y2254D02*
Y2283D01*
X1226Y2190D02*
X1256D01*
X1241Y2175D02*
Y2204D01*
X1226Y2588D02*
X1256D01*
X1241Y2574D02*
Y2603D01*
X1226Y2510D02*
X1256D01*
X1241Y2495D02*
Y2524D01*
X1397Y2799D02*
X1426D01*
X1412Y2784D02*
Y2814D01*
X1476Y2799D02*
X1505D01*
X1490Y2784D02*
Y2814D01*
X1677Y2799D02*
X1706D01*
X1692Y2784D02*
Y2814D01*
X1756Y2799D02*
X1785D01*
X1770Y2784D02*
Y2814D01*
X3432Y4139D02*
X3466D01*
X3449Y4122D02*
Y4156D01*
X3432Y4339D02*
X3466D01*
X3449Y4322D02*
Y4356D01*
X4412Y1539D02*
X4442D01*
X4427Y1524D02*
Y1554D01*
X3898Y2510D02*
X3938D01*
X3918Y2490D02*
Y2530D01*
X3898Y2610D02*
X3938D01*
X3918Y2590D02*
Y2630D01*
X3898Y2710D02*
X3938D01*
X3918Y2690D02*
Y2730D01*
X3886Y1730D02*
X3930D01*
X3908Y1708D02*
Y1752D01*
X3886Y1830D02*
X3930D01*
X3908Y1808D02*
Y1852D01*
X3886Y1930D02*
X3930D01*
X3908Y1908D02*
Y1952D01*
X3917Y3004D02*
X3947D01*
X3932Y2990D02*
Y3019D01*
X3917Y2926D02*
X3947D01*
X3932Y2911D02*
Y2940D01*
X4008Y2179D02*
X4042D01*
X4025Y2162D02*
Y2196D01*
X3808Y2179D02*
X3842D01*
X3825Y2162D02*
Y2196D01*
X3806Y2275D02*
X3840D01*
X3823Y2258D02*
Y2292D01*
X4006Y2275D02*
X4040D01*
X4023Y2258D02*
Y2292D01*
X3911Y1529D02*
X3941D01*
X3926Y1515D02*
Y1544D01*
X3911Y1451D02*
X3941D01*
X3926Y1436D02*
Y1465D01*
X2703Y4389D02*
X2731D01*
X2717Y4375D02*
Y4403D01*
X1860Y3519D02*
X1888D01*
X1874Y3505D02*
Y3533D01*
X4275Y3332D02*
X4303D01*
X4289Y3318D02*
Y3346D01*
X2102Y2068D02*
X2130D01*
X2116Y2054D02*
Y2082D01*
M02*
