%FSLAX23Y23*%
%MOIN*%
G70*
G01*
G75*
G04 Layer_Color=8388736*
%ADD10C,0.020*%
%ADD11C,0.060*%
%ADD12R,0.059X0.059*%
%ADD13C,0.059*%
%ADD14C,0.055*%
%ADD15C,0.250*%
%ADD16O,0.024X0.039*%
%ADD17R,0.059X0.059*%
%ADD18C,0.046*%
%ADD19R,0.046X0.046*%
%ADD20C,0.049*%
%ADD21R,0.049X0.049*%
%ADD22C,0.157*%
%ADD23R,0.059X0.059*%
%ADD24C,0.059*%
%ADD25R,0.049X0.049*%
%ADD26C,0.063*%
%ADD27R,0.063X0.063*%
%ADD28C,0.067*%
%ADD29R,0.067X0.067*%
%ADD30C,0.050*%
%ADD31C,0.015*%
%ADD32C,0.010*%
%ADD33C,0.008*%
%ADD34C,0.024*%
%ADD35C,0.010*%
%ADD36C,0.020*%
%ADD37C,0.008*%
%ADD38C,0.006*%
%ADD39C,0.068*%
%ADD40R,0.067X0.067*%
%ADD41C,0.067*%
%ADD42C,0.063*%
%ADD43C,0.258*%
%ADD44O,0.032X0.047*%
%ADD45R,0.067X0.067*%
%ADD46C,0.054*%
%ADD47R,0.054X0.054*%
%ADD48C,0.057*%
%ADD49R,0.057X0.057*%
%ADD50C,0.165*%
%ADD51R,0.067X0.067*%
%ADD52C,0.067*%
%ADD53R,0.057X0.057*%
%ADD54C,0.071*%
%ADD55R,0.071X0.071*%
%ADD56C,0.075*%
%ADD57R,0.075X0.075*%
%ADD58C,0.058*%
D39*
X3341Y4459D02*
D03*
X1150Y2898D02*
D03*
Y2978D02*
D03*
X4427Y1539D02*
D03*
D40*
X2661Y3599D02*
D03*
X2851D02*
D03*
X3911Y4439D02*
D03*
X4201Y3454D02*
D03*
X3931D02*
D03*
X4251Y3769D02*
D03*
Y3909D02*
D03*
X1801Y3049D02*
D03*
X3071Y4389D02*
D03*
X2571D02*
D03*
X1411Y2614D02*
D03*
D41*
X2561Y3599D02*
D03*
X2461D02*
D03*
X2951D02*
D03*
X3051D02*
D03*
X3151D02*
D03*
X4011Y4439D02*
D03*
X4301Y3454D02*
D03*
X4401D02*
D03*
X4031D02*
D03*
X4151Y3769D02*
D03*
Y3909D02*
D03*
X1731Y1509D02*
D03*
Y1409D02*
D03*
Y1309D02*
D03*
X1601Y3049D02*
D03*
X1701D02*
D03*
X1731Y4409D02*
D03*
Y4309D02*
D03*
X1861Y4409D02*
D03*
Y4309D02*
D03*
X3171Y4389D02*
D03*
X2471D02*
D03*
X1711Y1914D02*
D03*
Y2014D02*
D03*
Y2114D02*
D03*
Y2214D02*
D03*
Y2314D02*
D03*
Y2414D02*
D03*
Y2514D02*
D03*
Y2614D02*
D03*
X1411Y1914D02*
D03*
Y2014D02*
D03*
Y2114D02*
D03*
Y2214D02*
D03*
Y2314D02*
D03*
Y2414D02*
D03*
Y2514D02*
D03*
X1491Y1709D02*
D03*
X1391D02*
D03*
X1291D02*
D03*
X1591Y1409D02*
D03*
X1491D02*
D03*
X1391D02*
D03*
X1291D02*
D03*
D42*
X3701Y3399D02*
D03*
X3501D02*
D03*
X4081Y3289D02*
D03*
X3881D02*
D03*
X2111Y1799D02*
D03*
X1911D02*
D03*
X1861Y1709D02*
D03*
X2161D02*
D03*
X3621Y4079D02*
D03*
Y4379D02*
D03*
X4491Y3689D02*
D03*
Y3989D02*
D03*
X4391Y3689D02*
D03*
Y3989D02*
D03*
X3501Y3309D02*
D03*
X3701D02*
D03*
X2111Y3409D02*
D03*
X1911D02*
D03*
X2111Y2699D02*
D03*
X1911D02*
D03*
X3711Y4339D02*
D03*
Y4139D02*
D03*
X1791Y3819D02*
D03*
Y4019D02*
D03*
X1441Y4069D02*
D03*
X1641D02*
D03*
X1301Y3969D02*
D03*
Y3769D02*
D03*
Y3679D02*
D03*
Y3479D02*
D03*
Y3389D02*
D03*
Y3189D02*
D03*
X3449Y4139D02*
D03*
Y4339D02*
D03*
X4025Y2179D02*
D03*
X3825D02*
D03*
X3823Y2275D02*
D03*
X4023D02*
D03*
D43*
X3482Y3855D02*
D03*
X2132D02*
D03*
Y1305D02*
D03*
X3482D02*
D03*
X4426Y4424D02*
D03*
X1176D02*
D03*
Y1174D02*
D03*
X4426D02*
D03*
D44*
X4101Y4132D02*
D03*
X3825D02*
D03*
Y4329D02*
D03*
X4101D02*
D03*
D45*
X1731Y1609D02*
D03*
Y4209D02*
D03*
X1861D02*
D03*
X1591Y1709D02*
D03*
D46*
X2481Y4099D02*
D03*
Y4178D02*
D03*
X2560Y4099D02*
D03*
Y4178D02*
D03*
X2638Y4099D02*
D03*
Y4178D02*
D03*
X2717Y4099D02*
D03*
Y4178D02*
D03*
X2796Y4099D02*
D03*
Y4178D02*
D03*
X2875Y4099D02*
D03*
Y4178D02*
D03*
X2953Y4099D02*
D03*
Y4178D02*
D03*
X3032Y4099D02*
D03*
Y4178D02*
D03*
X3111Y4099D02*
D03*
Y4178D02*
D03*
X3190Y4099D02*
D03*
D47*
Y4178D02*
D03*
D48*
X4212Y3209D02*
D03*
X1241Y2038D02*
D03*
Y2190D02*
D03*
Y2510D02*
D03*
X1490Y2799D02*
D03*
X1770D02*
D03*
X3932Y3004D02*
D03*
X3926Y1529D02*
D03*
D49*
X4290Y3209D02*
D03*
X1412Y2799D02*
D03*
X1692D02*
D03*
D50*
X3032Y3194D02*
D03*
X2582D02*
D03*
Y1478D02*
D03*
X3032D02*
D03*
D51*
X1401Y3969D02*
D03*
D52*
Y3869D02*
D03*
Y3769D02*
D03*
Y3669D02*
D03*
Y3569D02*
D03*
Y3469D02*
D03*
Y3369D02*
D03*
Y3269D02*
D03*
X1701Y3969D02*
D03*
Y3869D02*
D03*
Y3769D02*
D03*
Y3669D02*
D03*
Y3569D02*
D03*
Y3469D02*
D03*
Y3369D02*
D03*
Y3269D02*
D03*
D53*
X1241Y1960D02*
D03*
Y2268D02*
D03*
Y2588D02*
D03*
X3932Y2926D02*
D03*
X3926Y1451D02*
D03*
D54*
X3918Y2510D02*
D03*
Y2610D02*
D03*
D55*
Y2710D02*
D03*
D56*
X3908Y1730D02*
D03*
Y1830D02*
D03*
D57*
Y1930D02*
D03*
D58*
X2717Y4389D02*
D03*
X1874Y3519D02*
D03*
X4289Y3332D02*
D03*
X2116Y2068D02*
D03*
M02*
