%FSLAX23Y23*%
%MOIN*%
G70*
G01*
G75*
G04 Layer_Color=2752767*
%ADD10C,0.020*%
%ADD11C,0.060*%
%ADD12R,0.059X0.059*%
%ADD13C,0.059*%
%ADD14C,0.055*%
%ADD15C,0.250*%
%ADD16O,0.024X0.039*%
%ADD17R,0.059X0.059*%
%ADD18C,0.046*%
%ADD19R,0.046X0.046*%
%ADD20C,0.049*%
%ADD21R,0.049X0.049*%
%ADD22C,0.157*%
%ADD23R,0.059X0.059*%
%ADD24C,0.059*%
%ADD25R,0.049X0.049*%
%ADD26C,0.063*%
%ADD27R,0.063X0.063*%
%ADD28C,0.067*%
%ADD29R,0.067X0.067*%
%ADD30C,0.050*%
%ADD31C,0.015*%
%ADD32C,0.010*%
%ADD33C,0.008*%
%ADD34C,0.024*%
%ADD35C,0.010*%
%ADD36C,0.020*%
%ADD37C,0.008*%
%ADD38C,0.006*%
%ADD39C,0.068*%
%ADD40R,0.067X0.067*%
%ADD41C,0.067*%
%ADD42C,0.063*%
%ADD43C,0.258*%
%ADD44O,0.032X0.047*%
%ADD45R,0.067X0.067*%
%ADD46C,0.054*%
%ADD47R,0.054X0.054*%
%ADD48C,0.057*%
%ADD49R,0.057X0.057*%
%ADD50C,0.165*%
%ADD51R,0.067X0.067*%
%ADD52C,0.067*%
%ADD53R,0.057X0.057*%
%ADD54C,0.071*%
%ADD55R,0.071X0.071*%
%ADD56C,0.075*%
%ADD57R,0.075X0.075*%
%ADD58C,0.058*%
%ADD59C,0.001*%
%ADD60C,0.005*%
%ADD61C,0.007*%
%ADD62C,0.004*%
D60*
X3321Y4439D02*
Y4479D01*
X3361D01*
Y4439D01*
X3321D01*
X1130Y2878D02*
Y2918D01*
X1170D01*
Y2878D01*
X1130D01*
Y2958D02*
Y2998D01*
X1170D01*
Y2958D01*
X1130D01*
X3701Y3379D02*
X3681Y3419D01*
X3721D01*
X3701Y3379D01*
X3501D02*
X3481Y3419D01*
X3521D01*
X3501Y3379D01*
X3482Y3835D02*
X3492Y3845D01*
X3502D01*
X3492Y3855D01*
X3502Y3865D01*
X3492D01*
X3482Y3875D01*
X3472Y3865D01*
X3462D01*
X3472Y3855D01*
X3462Y3845D01*
X3472D01*
X3482Y3835D01*
X2132D02*
X2142Y3845D01*
X2152D01*
X2142Y3855D01*
X2152Y3865D01*
X2142D01*
X2132Y3875D01*
X2122Y3865D01*
X2112D01*
X2122Y3855D01*
X2112Y3845D01*
X2122D01*
X2132Y3835D01*
Y1285D02*
X2142Y1295D01*
X2152D01*
X2142Y1305D01*
X2152Y1315D01*
X2142D01*
X2132Y1325D01*
X2122Y1315D01*
X2112D01*
X2122Y1305D01*
X2112Y1295D01*
X2122D01*
X2132Y1285D01*
X3482D02*
X3492Y1295D01*
X3502D01*
X3492Y1305D01*
X3502Y1315D01*
X3492D01*
X3482Y1325D01*
X3472Y1315D01*
X3462D01*
X3472Y1305D01*
X3462Y1295D01*
X3472D01*
X3482Y1285D01*
X4406Y4404D02*
X4416Y4424D01*
X4406Y4444D01*
X4426Y4434D01*
X4446Y4444D01*
X4436Y4424D01*
X4446Y4404D01*
X4426Y4414D01*
X4406Y4404D01*
X4081Y3269D02*
X4061Y3309D01*
X4101D01*
X4081Y3269D01*
X3881D02*
X3861Y3309D01*
X3901D01*
X3881Y3269D01*
X4091Y4122D02*
Y4112D01*
X4111D01*
Y4122D01*
X4121D01*
Y4142D01*
X4111D01*
Y4152D01*
X4091D01*
Y4142D01*
X4081D01*
Y4122D01*
X4091D01*
X3815D02*
Y4112D01*
X3835D01*
Y4122D01*
X3845D01*
Y4142D01*
X3835D01*
Y4152D01*
X3815D01*
Y4142D01*
X3805D01*
Y4122D01*
X3815D01*
Y4319D02*
Y4309D01*
X3835D01*
Y4319D01*
X3845D01*
Y4339D01*
X3835D01*
Y4349D01*
X3815D01*
Y4339D01*
X3805D01*
Y4319D01*
X3815D01*
X4091D02*
Y4309D01*
X4111D01*
Y4319D01*
X4121D01*
Y4339D01*
X4111D01*
Y4349D01*
X4091D01*
Y4339D01*
X4081D01*
Y4319D01*
X4091D01*
X2111Y1779D02*
X2091Y1819D01*
X2131D01*
X2111Y1779D01*
X1911D02*
X1891Y1819D01*
X1931D01*
X1911Y1779D01*
X1861Y1689D02*
X1841Y1729D01*
X1881D01*
X1861Y1689D01*
X2161D02*
X2141Y1729D01*
X2181D01*
X2161Y1689D01*
X3621Y4059D02*
X3601Y4099D01*
X3641D01*
X3621Y4059D01*
Y4359D02*
X3601Y4399D01*
X3641D01*
X3621Y4359D01*
X4491Y3669D02*
X4471Y3709D01*
X4511D01*
X4491Y3669D01*
Y3969D02*
X4471Y4009D01*
X4511D01*
X4491Y3969D01*
X4391Y3669D02*
X4371Y3709D01*
X4411D01*
X4391Y3669D01*
Y3969D02*
X4371Y4009D01*
X4411D01*
X4391Y3969D01*
X3501Y3289D02*
X3481Y3329D01*
X3521D01*
X3501Y3289D01*
X3701D02*
X3681Y3329D01*
X3721D01*
X3701Y3289D01*
X2111Y3389D02*
X2091Y3429D01*
X2131D01*
X2111Y3389D01*
X1911D02*
X1891Y3429D01*
X1931D01*
X1911Y3389D01*
X2111Y2679D02*
X2091Y2719D01*
X2131D01*
X2111Y2679D01*
X1911D02*
X1891Y2719D01*
X1931D01*
X1911Y2679D01*
X2461Y4079D02*
X2471D01*
X2481Y4089D01*
X2491Y4079D01*
X2501D01*
Y4089D01*
X2491Y4099D01*
X2501Y4109D01*
Y4119D01*
X2491D01*
X2481Y4109D01*
X2471Y4119D01*
X2461D01*
Y4109D01*
X2471Y4099D01*
X2461Y4089D01*
Y4079D01*
Y4158D02*
X2471D01*
X2481Y4168D01*
X2491Y4158D01*
X2501D01*
Y4168D01*
X2491Y4178D01*
X2501Y4188D01*
Y4198D01*
X2491D01*
X2481Y4188D01*
X2471Y4198D01*
X2461D01*
Y4188D01*
X2471Y4178D01*
X2461Y4168D01*
Y4158D01*
X2540Y4079D02*
X2550D01*
X2560Y4089D01*
X2570Y4079D01*
X2580D01*
Y4089D01*
X2570Y4099D01*
X2580Y4109D01*
Y4119D01*
X2570D01*
X2560Y4109D01*
X2550Y4119D01*
X2540D01*
Y4109D01*
X2550Y4099D01*
X2540Y4089D01*
Y4079D01*
Y4158D02*
X2550D01*
X2560Y4168D01*
X2570Y4158D01*
X2580D01*
Y4168D01*
X2570Y4178D01*
X2580Y4188D01*
Y4198D01*
X2570D01*
X2560Y4188D01*
X2550Y4198D01*
X2540D01*
Y4188D01*
X2550Y4178D01*
X2540Y4168D01*
Y4158D01*
X2618Y4079D02*
X2628D01*
X2638Y4089D01*
X2648Y4079D01*
X2658D01*
Y4089D01*
X2648Y4099D01*
X2658Y4109D01*
Y4119D01*
X2648D01*
X2638Y4109D01*
X2628Y4119D01*
X2618D01*
Y4109D01*
X2628Y4099D01*
X2618Y4089D01*
Y4079D01*
Y4158D02*
X2628D01*
X2638Y4168D01*
X2648Y4158D01*
X2658D01*
Y4168D01*
X2648Y4178D01*
X2658Y4188D01*
Y4198D01*
X2648D01*
X2638Y4188D01*
X2628Y4198D01*
X2618D01*
Y4188D01*
X2628Y4178D01*
X2618Y4168D01*
Y4158D01*
X2697Y4079D02*
X2707D01*
X2717Y4089D01*
X2727Y4079D01*
X2737D01*
Y4089D01*
X2727Y4099D01*
X2737Y4109D01*
Y4119D01*
X2727D01*
X2717Y4109D01*
X2707Y4119D01*
X2697D01*
Y4109D01*
X2707Y4099D01*
X2697Y4089D01*
Y4079D01*
Y4158D02*
X2707D01*
X2717Y4168D01*
X2727Y4158D01*
X2737D01*
Y4168D01*
X2727Y4178D01*
X2737Y4188D01*
Y4198D01*
X2727D01*
X2717Y4188D01*
X2707Y4198D01*
X2697D01*
Y4188D01*
X2707Y4178D01*
X2697Y4168D01*
Y4158D01*
X2776Y4079D02*
X2786D01*
X2796Y4089D01*
X2806Y4079D01*
X2816D01*
Y4089D01*
X2806Y4099D01*
X2816Y4109D01*
Y4119D01*
X2806D01*
X2796Y4109D01*
X2786Y4119D01*
X2776D01*
Y4109D01*
X2786Y4099D01*
X2776Y4089D01*
Y4079D01*
Y4158D02*
X2786D01*
X2796Y4168D01*
X2806Y4158D01*
X2816D01*
Y4168D01*
X2806Y4178D01*
X2816Y4188D01*
Y4198D01*
X2806D01*
X2796Y4188D01*
X2786Y4198D01*
X2776D01*
Y4188D01*
X2786Y4178D01*
X2776Y4168D01*
Y4158D01*
X2855Y4079D02*
X2865D01*
X2875Y4089D01*
X2885Y4079D01*
X2895D01*
Y4089D01*
X2885Y4099D01*
X2895Y4109D01*
Y4119D01*
X2885D01*
X2875Y4109D01*
X2865Y4119D01*
X2855D01*
Y4109D01*
X2865Y4099D01*
X2855Y4089D01*
Y4079D01*
Y4158D02*
X2865D01*
X2875Y4168D01*
X2885Y4158D01*
X2895D01*
Y4168D01*
X2885Y4178D01*
X2895Y4188D01*
Y4198D01*
X2885D01*
X2875Y4188D01*
X2865Y4198D01*
X2855D01*
Y4188D01*
X2865Y4178D01*
X2855Y4168D01*
Y4158D01*
X2933Y4079D02*
X2943D01*
X2953Y4089D01*
X2963Y4079D01*
X2973D01*
Y4089D01*
X2963Y4099D01*
X2973Y4109D01*
Y4119D01*
X2963D01*
X2953Y4109D01*
X2943Y4119D01*
X2933D01*
Y4109D01*
X2943Y4099D01*
X2933Y4089D01*
Y4079D01*
Y4158D02*
X2943D01*
X2953Y4168D01*
X2963Y4158D01*
X2973D01*
Y4168D01*
X2963Y4178D01*
X2973Y4188D01*
Y4198D01*
X2963D01*
X2953Y4188D01*
X2943Y4198D01*
X2933D01*
Y4188D01*
X2943Y4178D01*
X2933Y4168D01*
Y4158D01*
X3012Y4079D02*
X3022D01*
X3032Y4089D01*
X3042Y4079D01*
X3052D01*
Y4089D01*
X3042Y4099D01*
X3052Y4109D01*
Y4119D01*
X3042D01*
X3032Y4109D01*
X3022Y4119D01*
X3012D01*
Y4109D01*
X3022Y4099D01*
X3012Y4089D01*
Y4079D01*
Y4158D02*
X3022D01*
X3032Y4168D01*
X3042Y4158D01*
X3052D01*
Y4168D01*
X3042Y4178D01*
X3052Y4188D01*
Y4198D01*
X3042D01*
X3032Y4188D01*
X3022Y4198D01*
X3012D01*
Y4188D01*
X3022Y4178D01*
X3012Y4168D01*
Y4158D01*
X3091Y4079D02*
X3101D01*
X3111Y4089D01*
X3121Y4079D01*
X3131D01*
Y4089D01*
X3121Y4099D01*
X3131Y4109D01*
Y4119D01*
X3121D01*
X3111Y4109D01*
X3101Y4119D01*
X3091D01*
Y4109D01*
X3101Y4099D01*
X3091Y4089D01*
Y4079D01*
Y4158D02*
X3101D01*
X3111Y4168D01*
X3121Y4158D01*
X3131D01*
Y4168D01*
X3121Y4178D01*
X3131Y4188D01*
Y4198D01*
X3121D01*
X3111Y4188D01*
X3101Y4198D01*
X3091D01*
Y4188D01*
X3101Y4178D01*
X3091Y4168D01*
Y4158D01*
X3170Y4079D02*
X3180D01*
X3190Y4089D01*
X3200Y4079D01*
X3210D01*
Y4089D01*
X3200Y4099D01*
X3210Y4109D01*
Y4119D01*
X3200D01*
X3190Y4109D01*
X3180Y4119D01*
X3170D01*
Y4109D01*
X3180Y4099D01*
X3170Y4089D01*
Y4079D01*
Y4158D02*
X3180D01*
X3190Y4168D01*
X3200Y4158D01*
X3210D01*
Y4168D01*
X3200Y4178D01*
X3210Y4188D01*
Y4198D01*
X3200D01*
X3190Y4188D01*
X3180Y4198D01*
X3170D01*
Y4188D01*
X3180Y4178D01*
X3170Y4168D01*
Y4158D01*
X4192Y3209D02*
X4212Y3229D01*
X4232Y3209D01*
X4212Y3189D01*
X4192Y3209D01*
X4270D02*
X4290Y3229D01*
X4310Y3209D01*
X4290Y3189D01*
X4270Y3209D01*
X3012Y3174D02*
Y3214D01*
X3052D01*
Y3174D01*
X3012D01*
X3020Y3182D02*
Y3206D01*
X3044D01*
Y3182D01*
X3020D01*
X2562Y3174D02*
Y3214D01*
X2602D01*
Y3174D01*
X2562D01*
X2570Y3182D02*
Y3206D01*
X2594D01*
Y3182D01*
X2570D01*
X2562Y1458D02*
Y1498D01*
X2602D01*
Y1458D01*
X2562D01*
X2570Y1466D02*
Y1490D01*
X2594D01*
Y1466D01*
X2570D01*
X3012Y1458D02*
Y1498D01*
X3052D01*
Y1458D01*
X3012D01*
X3020Y1466D02*
Y1490D01*
X3044D01*
Y1466D01*
X3020D01*
X3711Y4319D02*
X3691Y4359D01*
X3731D01*
X3711Y4319D01*
Y4119D02*
X3691Y4159D01*
X3731D01*
X3711Y4119D01*
X1156Y4404D02*
X1166Y4424D01*
X1156Y4444D01*
X1176Y4434D01*
X1196Y4444D01*
X1186Y4424D01*
X1196Y4404D01*
X1176Y4414D01*
X1156Y4404D01*
Y1154D02*
X1166Y1174D01*
X1156Y1194D01*
X1176Y1184D01*
X1196Y1194D01*
X1186Y1174D01*
X1196Y1154D01*
X1176Y1164D01*
X1156Y1154D01*
X4406D02*
X4416Y1174D01*
X4406Y1194D01*
X4426Y1184D01*
X4446Y1194D01*
X4436Y1174D01*
X4446Y1154D01*
X4426Y1164D01*
X4406Y1154D01*
X1791Y3799D02*
X1771Y3839D01*
X1811D01*
X1791Y3799D01*
Y3999D02*
X1771Y4039D01*
X1811D01*
X1791Y3999D01*
X1441Y4049D02*
X1421Y4089D01*
X1461D01*
X1441Y4049D01*
X1641D02*
X1621Y4089D01*
X1661D01*
X1641Y4049D01*
X1301Y3949D02*
X1281Y3989D01*
X1321D01*
X1301Y3949D01*
Y3749D02*
X1281Y3789D01*
X1321D01*
X1301Y3749D01*
Y3659D02*
X1281Y3699D01*
X1321D01*
X1301Y3659D01*
Y3459D02*
X1281Y3499D01*
X1321D01*
X1301Y3459D01*
Y3369D02*
X1281Y3409D01*
X1321D01*
X1301Y3369D01*
Y3169D02*
X1281Y3209D01*
X1321D01*
X1301Y3169D01*
X1221Y1960D02*
X1241Y1980D01*
X1261Y1960D01*
X1241Y1940D01*
X1221Y1960D01*
Y2038D02*
X1241Y2058D01*
X1261Y2038D01*
X1241Y2018D01*
X1221Y2038D01*
Y2268D02*
X1241Y2288D01*
X1261Y2268D01*
X1241Y2248D01*
X1221Y2268D01*
Y2190D02*
X1241Y2210D01*
X1261Y2190D01*
X1241Y2170D01*
X1221Y2190D01*
Y2588D02*
X1241Y2608D01*
X1261Y2588D01*
X1241Y2568D01*
X1221Y2588D01*
Y2510D02*
X1241Y2530D01*
X1261Y2510D01*
X1241Y2490D01*
X1221Y2510D01*
X1392Y2799D02*
X1412Y2819D01*
X1432Y2799D01*
X1412Y2779D01*
X1392Y2799D01*
X1470D02*
X1490Y2819D01*
X1510Y2799D01*
X1490Y2779D01*
X1470Y2799D01*
X1672D02*
X1692Y2819D01*
X1712Y2799D01*
X1692Y2779D01*
X1672Y2799D01*
X1750D02*
X1770Y2819D01*
X1790Y2799D01*
X1770Y2779D01*
X1750Y2799D01*
X3449Y4119D02*
X3429Y4159D01*
X3469D01*
X3449Y4119D01*
Y4319D02*
X3429Y4359D01*
X3469D01*
X3449Y4319D01*
X4407Y1519D02*
Y1559D01*
X4447D01*
Y1519D01*
X4407D01*
X3908Y1710D02*
X3888Y1750D01*
X3928D01*
X3908Y1710D01*
Y1718D02*
X3896Y1742D01*
X3920D01*
X3908Y1718D01*
Y1810D02*
X3888Y1850D01*
X3928D01*
X3908Y1810D01*
Y1818D02*
X3896Y1842D01*
X3920D01*
X3908Y1818D01*
Y1910D02*
X3888Y1950D01*
X3928D01*
X3908Y1910D01*
Y1918D02*
X3896Y1942D01*
X3920D01*
X3908Y1918D01*
X3912Y3004D02*
X3932Y3024D01*
X3952Y3004D01*
X3932Y2984D01*
X3912Y3004D01*
Y2926D02*
X3932Y2946D01*
X3952Y2926D01*
X3932Y2906D01*
X3912Y2926D01*
X4025Y2159D02*
X4005Y2199D01*
X4045D01*
X4025Y2159D01*
X3825D02*
X3805Y2199D01*
X3845D01*
X3825Y2159D01*
X3823Y2255D02*
X3803Y2295D01*
X3843D01*
X3823Y2255D01*
X4023D02*
X4003Y2295D01*
X4043D01*
X4023Y2255D01*
X3906Y1529D02*
X3926Y1549D01*
X3946Y1529D01*
X3926Y1509D01*
X3906Y1529D01*
Y1451D02*
X3926Y1471D01*
X3946Y1451D01*
X3926Y1431D01*
X3906Y1451D01*
X2717Y4369D02*
X2727Y4379D01*
X2737D01*
X2727Y4389D01*
X2737Y4399D01*
X2727D01*
X2717Y4409D01*
X2707Y4399D01*
X2697D01*
X2707Y4389D01*
X2697Y4379D01*
X2707D01*
X2717Y4369D01*
Y4377D02*
X2723Y4383D01*
X2729D01*
X2723Y4389D01*
X2729Y4395D01*
X2723D01*
X2717Y4401D01*
X2711Y4395D01*
X2705D01*
X2711Y4389D01*
X2705Y4383D01*
X2711D01*
X2717Y4377D01*
X1874Y3499D02*
X1884Y3509D01*
X1894D01*
X1884Y3519D01*
X1894Y3529D01*
X1884D01*
X1874Y3539D01*
X1864Y3529D01*
X1854D01*
X1864Y3519D01*
X1854Y3509D01*
X1864D01*
X1874Y3499D01*
Y3507D02*
X1880Y3513D01*
X1886D01*
X1880Y3519D01*
X1886Y3525D01*
X1880D01*
X1874Y3531D01*
X1868Y3525D01*
X1862D01*
X1868Y3519D01*
X1862Y3513D01*
X1868D01*
X1874Y3507D01*
X4289Y3312D02*
X4299Y3322D01*
X4309D01*
X4299Y3332D01*
X4309Y3342D01*
X4299D01*
X4289Y3352D01*
X4279Y3342D01*
X4269D01*
X4279Y3332D01*
X4269Y3322D01*
X4279D01*
X4289Y3312D01*
Y3320D02*
X4295Y3326D01*
X4301D01*
X4295Y3332D01*
X4301Y3338D01*
X4295D01*
X4289Y3344D01*
X4283Y3338D01*
X4277D01*
X4283Y3332D01*
X4277Y3326D01*
X4283D01*
X4289Y3320D01*
X2116Y2048D02*
X2126Y2058D01*
X2136D01*
X2126Y2068D01*
X2136Y2078D01*
X2126D01*
X2116Y2088D01*
X2106Y2078D01*
X2096D01*
X2106Y2068D01*
X2096Y2058D01*
X2106D01*
X2116Y2048D01*
Y2056D02*
X2122Y2062D01*
X2128D01*
X2122Y2068D01*
X2128Y2074D01*
X2122D01*
X2116Y2080D01*
X2110Y2074D01*
X2104D01*
X2110Y2068D01*
X2104Y2062D01*
X2110D01*
X2116Y2056D01*
D61*
X2681Y3599D02*
G03*
X2681Y3599I-20J0D01*
G01*
X2581D02*
G03*
X2581Y3599I-20J0D01*
G01*
X2481D02*
G03*
X2481Y3599I-20J0D01*
G01*
X2871D02*
G03*
X2871Y3599I-20J0D01*
G01*
X2971D02*
G03*
X2971Y3599I-20J0D01*
G01*
X3071D02*
G03*
X3071Y3599I-20J0D01*
G01*
X3171D02*
G03*
X3171Y3599I-20J0D01*
G01*
X3931Y4439D02*
G03*
X3931Y4439I-20J0D01*
G01*
X4031D02*
G03*
X4031Y4439I-20J0D01*
G01*
X4221Y3454D02*
G03*
X4221Y3454I-20J0D01*
G01*
X4321D02*
G03*
X4321Y3454I-20J0D01*
G01*
X4421D02*
G03*
X4421Y3454I-20J0D01*
G01*
X3951D02*
G03*
X3951Y3454I-20J0D01*
G01*
X4051D02*
G03*
X4051Y3454I-20J0D01*
G01*
X4171Y3769D02*
G03*
X4171Y3769I-20J0D01*
G01*
X4271D02*
G03*
X4271Y3769I-20J0D01*
G01*
X4171Y3909D02*
G03*
X4171Y3909I-20J0D01*
G01*
X4271D02*
G03*
X4271Y3909I-20J0D01*
G01*
X1751Y1609D02*
G03*
X1751Y1609I-20J0D01*
G01*
Y1509D02*
G03*
X1751Y1509I-20J0D01*
G01*
Y1409D02*
G03*
X1751Y1409I-20J0D01*
G01*
Y1309D02*
G03*
X1751Y1309I-20J0D01*
G01*
X1621Y3049D02*
G03*
X1621Y3049I-20J0D01*
G01*
X1721D02*
G03*
X1721Y3049I-20J0D01*
G01*
X1821D02*
G03*
X1821Y3049I-20J0D01*
G01*
X1751Y4409D02*
G03*
X1751Y4409I-20J0D01*
G01*
Y4309D02*
G03*
X1751Y4309I-20J0D01*
G01*
Y4209D02*
G03*
X1751Y4209I-20J0D01*
G01*
X1881Y4409D02*
G03*
X1881Y4409I-20J0D01*
G01*
Y4309D02*
G03*
X1881Y4309I-20J0D01*
G01*
Y4209D02*
G03*
X1881Y4209I-20J0D01*
G01*
X3191Y4389D02*
G03*
X3191Y4389I-20J0D01*
G01*
X3091D02*
G03*
X3091Y4389I-20J0D01*
G01*
X2491D02*
G03*
X2491Y4389I-20J0D01*
G01*
X2591D02*
G03*
X2591Y4389I-20J0D01*
G01*
X1731Y1914D02*
G03*
X1731Y1914I-20J0D01*
G01*
Y2014D02*
G03*
X1731Y2014I-20J0D01*
G01*
Y2114D02*
G03*
X1731Y2114I-20J0D01*
G01*
Y2214D02*
G03*
X1731Y2214I-20J0D01*
G01*
Y2314D02*
G03*
X1731Y2314I-20J0D01*
G01*
Y2414D02*
G03*
X1731Y2414I-20J0D01*
G01*
Y2514D02*
G03*
X1731Y2514I-20J0D01*
G01*
Y2614D02*
G03*
X1731Y2614I-20J0D01*
G01*
X1431Y1914D02*
G03*
X1431Y1914I-20J0D01*
G01*
Y2014D02*
G03*
X1431Y2014I-20J0D01*
G01*
Y2114D02*
G03*
X1431Y2114I-20J0D01*
G01*
Y2214D02*
G03*
X1431Y2214I-20J0D01*
G01*
Y2314D02*
G03*
X1431Y2314I-20J0D01*
G01*
Y2414D02*
G03*
X1431Y2414I-20J0D01*
G01*
Y2514D02*
G03*
X1431Y2514I-20J0D01*
G01*
Y2614D02*
G03*
X1431Y2614I-20J0D01*
G01*
X1421Y3969D02*
G03*
X1421Y3969I-20J0D01*
G01*
Y3869D02*
G03*
X1421Y3869I-20J0D01*
G01*
Y3769D02*
G03*
X1421Y3769I-20J0D01*
G01*
Y3669D02*
G03*
X1421Y3669I-20J0D01*
G01*
Y3569D02*
G03*
X1421Y3569I-20J0D01*
G01*
Y3469D02*
G03*
X1421Y3469I-20J0D01*
G01*
Y3369D02*
G03*
X1421Y3369I-20J0D01*
G01*
Y3269D02*
G03*
X1421Y3269I-20J0D01*
G01*
X1721Y3969D02*
G03*
X1721Y3969I-20J0D01*
G01*
Y3869D02*
G03*
X1721Y3869I-20J0D01*
G01*
Y3769D02*
G03*
X1721Y3769I-20J0D01*
G01*
Y3669D02*
G03*
X1721Y3669I-20J0D01*
G01*
Y3569D02*
G03*
X1721Y3569I-20J0D01*
G01*
Y3469D02*
G03*
X1721Y3469I-20J0D01*
G01*
Y3369D02*
G03*
X1721Y3369I-20J0D01*
G01*
Y3269D02*
G03*
X1721Y3269I-20J0D01*
G01*
X1611Y1709D02*
G03*
X1611Y1709I-20J0D01*
G01*
X1511D02*
G03*
X1511Y1709I-20J0D01*
G01*
X1411D02*
G03*
X1411Y1709I-20J0D01*
G01*
X1311D02*
G03*
X1311Y1709I-20J0D01*
G01*
X1611Y1409D02*
G03*
X1611Y1409I-20J0D01*
G01*
X1511D02*
G03*
X1511Y1409I-20J0D01*
G01*
X1411D02*
G03*
X1411Y1409I-20J0D01*
G01*
X1311D02*
G03*
X1311Y1409I-20J0D01*
G01*
X3938Y2510D02*
G03*
X3938Y2510I-20J0D01*
G01*
Y2610D02*
G03*
X3938Y2610I-20J0D01*
G01*
Y2710D02*
G03*
X3938Y2710I-20J0D01*
G01*
D62*
X3930Y2510D02*
G03*
X3930Y2510I-12J0D01*
G01*
Y2610D02*
G03*
X3930Y2610I-12J0D01*
G01*
Y2710D02*
G03*
X3930Y2710I-12J0D01*
G01*
M02*
