%FSAX24Y24*%
%MOIN*%
G70*
G01*
G75*
G04 Layer_Physical_Order=1*
G04 Layer_Color=255*
%ADD10C,0.0120*%
%ADD11C,0.0100*%
%ADD12C,0.0150*%
%ADD13C,0.0591*%
%ADD14R,0.0591X0.0591*%
%ADD15C,0.0551*%
%ADD16C,0.0492*%
%ADD17R,0.0492X0.0492*%
%ADD18R,0.0591X0.0591*%
%ADD19C,0.0591*%
%ADD20R,0.0492X0.0492*%
%ADD21C,0.0669*%
%ADD22R,0.0669X0.0669*%
%ADD23R,0.0591X0.0591*%
%ADD24C,0.2500*%
%ADD25R,0.0591X0.0591*%
%ADD26C,0.1378*%
%ADD27C,0.1575*%
%ADD28R,0.0630X0.0630*%
%ADD29C,0.0630*%
%ADD30C,0.0500*%
G36*
X066886Y085433D02*
Y085058D01*
X066805Y084995D01*
X066741Y084912D01*
X066700Y084814D01*
X066687Y084710D01*
X066700Y084606D01*
X066741Y084508D01*
X066805Y084425D01*
X066888Y084361D01*
X066986Y084320D01*
X067090Y084307D01*
X067194Y084320D01*
X067292Y084361D01*
X067375Y084425D01*
X067401Y084458D01*
X067451D01*
X067485Y084415D01*
X067568Y084351D01*
X067666Y084310D01*
X067770Y084297D01*
X067874Y084310D01*
X067972Y084351D01*
X068055Y084415D01*
X068119Y084498D01*
X068160Y084596D01*
X068173Y084700D01*
X068160Y084804D01*
X068119Y084902D01*
X068055Y084985D01*
X067974Y085048D01*
Y085196D01*
X068020Y085215D01*
X068988Y084248D01*
X069062Y084198D01*
X069150Y084181D01*
X069431D01*
X069527Y084085D01*
X069511Y084037D01*
X069484Y084034D01*
X069375Y083989D01*
X069282Y083918D01*
X069211Y083825D01*
X069166Y083716D01*
X069157Y083650D01*
X069600D01*
Y083600D01*
X069650D01*
Y083157D01*
X069716Y083166D01*
X069825Y083211D01*
X069861Y083239D01*
X069906Y083217D01*
Y082983D01*
X069861Y082961D01*
X069825Y082989D01*
X069716Y083034D01*
X069600Y083049D01*
X069484Y083034D01*
X069463Y083025D01*
X069239Y083249D01*
X069173Y083293D01*
X069095Y083309D01*
X068994D01*
X068972Y083353D01*
X068989Y083375D01*
X069034Y083484D01*
X069043Y083550D01*
X068600D01*
Y083600D01*
X068550D01*
Y084043D01*
X068484Y084034D01*
X068375Y083989D01*
X068282Y083918D01*
X068211Y083825D01*
X068166Y083716D01*
X068158Y083655D01*
X068117Y083626D01*
X068100Y083629D01*
X065385D01*
X065318Y083718D01*
X065225Y083789D01*
X065116Y083834D01*
X065000Y083849D01*
X064884Y083834D01*
X064775Y083789D01*
X064682Y083718D01*
X064611Y083625D01*
X064566Y083516D01*
X064551Y083400D01*
X064566Y083284D01*
X064611Y083175D01*
X064682Y083082D01*
X064775Y083011D01*
X064884Y082966D01*
X065000Y082951D01*
X065116Y082966D01*
X065225Y083011D01*
X065318Y083082D01*
X065385Y083171D01*
X068041D01*
X068251Y082961D01*
X068263Y082952D01*
X068271Y082903D01*
X068211Y082825D01*
X068209Y082819D01*
X067126D01*
X067075Y082885D01*
X066992Y082949D01*
X066894Y082990D01*
X066790Y083003D01*
X066686Y082990D01*
X066588Y082949D01*
X066505Y082885D01*
X066441Y082802D01*
X066400Y082704D01*
X066354Y082689D01*
X066195Y082847D01*
X066126Y082894D01*
X066044Y082910D01*
X065992Y082900D01*
X064110D01*
X064081Y082940D01*
X064089Y082963D01*
X064116Y082966D01*
X064225Y083011D01*
X064318Y083082D01*
X064389Y083175D01*
X064434Y083284D01*
X064449Y083400D01*
X064434Y083516D01*
X064425Y083537D01*
X064649Y083761D01*
X064649Y083761D01*
X064693Y083827D01*
X064709Y083905D01*
X064709Y083905D01*
Y084006D01*
X064753Y084028D01*
X064775Y084011D01*
X064884Y083966D01*
X065000Y083951D01*
X065116Y083966D01*
X065225Y084011D01*
X065318Y084082D01*
X065389Y084175D01*
X065434Y084284D01*
X065449Y084400D01*
X065434Y084516D01*
X065389Y084625D01*
X065318Y084718D01*
X065225Y084789D01*
X065116Y084834D01*
X065089Y084837D01*
X065073Y084885D01*
X065584Y085396D01*
X065924D01*
X065928Y085385D01*
X065996Y085296D01*
X066085Y085228D01*
X066189Y085185D01*
X066300Y085171D01*
X066411Y085185D01*
X066515Y085228D01*
X066604Y085296D01*
X066672Y085385D01*
X066715Y085489D01*
X066721Y085535D01*
X066768Y085551D01*
X066886Y085433D01*
D02*
G37*
G36*
X058630Y087998D02*
X058616Y087992D01*
X058523Y087921D01*
X058452Y087828D01*
X058407Y087719D01*
X058392Y087603D01*
X058407Y087487D01*
X058452Y087379D01*
X058523Y087286D01*
X058616Y087214D01*
X058725Y087169D01*
X058841Y087154D01*
X058951Y087169D01*
X059242Y086878D01*
X059316Y086828D01*
X059404Y086811D01*
X062120D01*
X062208Y086828D01*
X062282Y086878D01*
X062955Y087551D01*
X065685D01*
X065744Y087491D01*
X065725Y087445D01*
X064955D01*
Y086684D01*
X064775D01*
X064753Y086729D01*
X064789Y086775D01*
X064834Y086884D01*
X064843Y086950D01*
X063957D01*
X063966Y086884D01*
X064011Y086775D01*
X064047Y086729D01*
X064025Y086684D01*
X058380D01*
X058302Y086668D01*
X058235Y086624D01*
X058235Y086624D01*
X056361Y084749D01*
Y084749D01*
X056361D01*
X056352Y084737D01*
X056303Y084729D01*
X056225Y084789D01*
X056116Y084834D01*
X056000Y084849D01*
X055884Y084834D01*
X055775Y084789D01*
X055682Y084718D01*
X055611Y084625D01*
X055566Y084516D01*
X055551Y084400D01*
X055566Y084284D01*
X055611Y084175D01*
X055682Y084082D01*
X055775Y084011D01*
X055884Y083966D01*
X056000Y083951D01*
X056116Y083966D01*
X056225Y084011D01*
X056256Y084035D01*
X056301Y084013D01*
Y083905D01*
X056305Y083884D01*
X056273Y083845D01*
X055555D01*
Y082955D01*
X056445D01*
Y083610D01*
X056491Y083630D01*
X056578Y083544D01*
X056566Y083516D01*
X056551Y083400D01*
X056566Y083284D01*
X056611Y083175D01*
X056682Y083082D01*
X056775Y083011D01*
X056884Y082966D01*
X057000Y082951D01*
X057116Y082966D01*
X057225Y083011D01*
X057318Y083082D01*
X057389Y083175D01*
X057434Y083284D01*
X057449Y083400D01*
X057434Y083516D01*
X057389Y083625D01*
X057318Y083718D01*
X057225Y083789D01*
X057116Y083834D01*
X057000Y083849D01*
X056884Y083834D01*
X056870Y083828D01*
X056709Y083989D01*
Y084006D01*
X056753Y084028D01*
X056775Y084011D01*
X056884Y083966D01*
X057000Y083951D01*
X057116Y083966D01*
X057225Y084011D01*
X057318Y084082D01*
X057389Y084175D01*
X057434Y084284D01*
X057449Y084400D01*
X057434Y084516D01*
X057389Y084625D01*
X057326Y084707D01*
X058358Y085739D01*
X058403Y085717D01*
X058392Y085635D01*
X058407Y085518D01*
X058452Y085410D01*
X058523Y085317D01*
X058616Y085246D01*
X058725Y085201D01*
X058841Y085186D01*
X058957Y085201D01*
X059065Y085246D01*
X059159Y085317D01*
X059230Y085410D01*
X059275Y085518D01*
X059290Y085635D01*
X059275Y085751D01*
X059230Y085859D01*
X059159Y085952D01*
X059160Y085956D01*
X061226D01*
X061248Y085911D01*
X061208Y085859D01*
X061163Y085751D01*
X061154Y085685D01*
X062039D01*
X062031Y085751D01*
X061986Y085859D01*
X061914Y085952D01*
X061916Y085956D01*
X062987D01*
X063003Y085909D01*
X062996Y085904D01*
X062928Y085815D01*
X062885Y085711D01*
X062871Y085600D01*
X062885Y085489D01*
X062928Y085385D01*
X062996Y085296D01*
X063085Y085228D01*
X063098Y085223D01*
X063088Y085174D01*
X061776D01*
X061767Y085223D01*
X061821Y085246D01*
X061914Y085317D01*
X061986Y085410D01*
X062031Y085518D01*
X062039Y085585D01*
X061154D01*
X061163Y085518D01*
X061208Y085410D01*
X061279Y085317D01*
X061372Y085246D01*
X061427Y085223D01*
X061417Y085174D01*
X060870D01*
X060792Y085158D01*
X060725Y085114D01*
X060361Y084749D01*
X060352Y084737D01*
X060303Y084729D01*
X060225Y084789D01*
X060116Y084834D01*
X060050Y084843D01*
Y084400D01*
X060000D01*
Y084350D01*
X059557D01*
X059566Y084284D01*
X059611Y084175D01*
X059628Y084153D01*
X059606Y084109D01*
X059514D01*
X059514Y084109D01*
X059436Y084093D01*
X059370Y084049D01*
X059370Y084049D01*
X059144Y083822D01*
X059116Y083834D01*
X059000Y083849D01*
X058884Y083834D01*
X058775Y083789D01*
X058682Y083718D01*
X058611Y083625D01*
X058566Y083516D01*
X058551Y083400D01*
X058566Y083284D01*
X058611Y083175D01*
X058682Y083082D01*
X058775Y083011D01*
X058884Y082966D01*
X059000Y082951D01*
X059099Y082964D01*
X059121Y082919D01*
X058886Y082684D01*
X057060D01*
X057005Y082755D01*
X056922Y082819D01*
X056824Y082860D01*
X056720Y082873D01*
X056616Y082860D01*
X056518Y082819D01*
X056435Y082755D01*
X056371Y082672D01*
X056330Y082574D01*
X056317Y082470D01*
X056330Y082366D01*
X056371Y082268D01*
X056389Y082244D01*
X056367Y082199D01*
X056237D01*
X056149Y082182D01*
X056075Y082132D01*
X055711Y081768D01*
X055652Y081813D01*
X055543Y081858D01*
X055427Y081874D01*
X055311Y081858D01*
X055203Y081813D01*
X055110Y081742D01*
X055038Y081649D01*
X054993Y081541D01*
X054978Y081424D01*
X054993Y081308D01*
X055038Y081200D01*
X055110Y081107D01*
X055203Y081035D01*
X055311Y080991D01*
X055427Y080975D01*
X055543Y080991D01*
X055652Y081035D01*
X055745Y081107D01*
X055816Y081200D01*
X055837Y081251D01*
X055854Y081262D01*
X055942Y081351D01*
X055990Y081335D01*
X055993Y081308D01*
X056038Y081200D01*
X056110Y081107D01*
X056203Y081035D01*
X056311Y080991D01*
X056427Y080975D01*
X056543Y080991D01*
X056652Y081035D01*
X056745Y081107D01*
X056816Y081200D01*
X056861Y081308D01*
X056876Y081424D01*
X056861Y081541D01*
X056816Y081649D01*
X056780Y081696D01*
X056802Y081741D01*
X057052D01*
X057074Y081696D01*
X057038Y081649D01*
X056993Y081541D01*
X056978Y081424D01*
X056993Y081308D01*
X057038Y081200D01*
X057110Y081107D01*
X057203Y081035D01*
X057311Y080991D01*
X057427Y080975D01*
X057543Y080991D01*
X057652Y081035D01*
X057745Y081107D01*
X057816Y081200D01*
X057861Y081308D01*
X057876Y081424D01*
X057861Y081541D01*
X057816Y081649D01*
X057780Y081696D01*
X057802Y081741D01*
X058052D01*
X058074Y081696D01*
X058038Y081649D01*
X057993Y081541D01*
X057978Y081424D01*
X057993Y081308D01*
X058038Y081200D01*
X058110Y081107D01*
X058203Y081035D01*
X058311Y080991D01*
X058427Y080975D01*
X058543Y080991D01*
X058652Y081035D01*
X058745Y081107D01*
X058816Y081200D01*
X058861Y081308D01*
X058876Y081424D01*
X058861Y081541D01*
X058816Y081649D01*
X058780Y081696D01*
X058802Y081741D01*
X059052D01*
X059074Y081696D01*
X059038Y081649D01*
X058993Y081541D01*
X058978Y081424D01*
X058993Y081308D01*
X059038Y081200D01*
X059110Y081107D01*
X059203Y081035D01*
X059311Y080991D01*
X059427Y080975D01*
X059543Y080991D01*
X059652Y081035D01*
X059745Y081107D01*
X059816Y081200D01*
X059861Y081308D01*
X059876Y081424D01*
X059861Y081541D01*
X059816Y081649D01*
X059780Y081696D01*
X059802Y081741D01*
X059819D01*
X059907Y081758D01*
X059981Y081808D01*
X059981Y081808D01*
X059981Y081808D01*
X060566Y082393D01*
X060608Y082365D01*
X060585Y082311D01*
X060577Y082250D01*
X061423D01*
X061415Y082311D01*
X061372Y082415D01*
X061304Y082504D01*
X061318Y082546D01*
X062375D01*
X062463Y082563D01*
X062537Y082613D01*
X062537Y082613D01*
X062537Y082613D01*
X062890Y082965D01*
X063000Y082951D01*
X063116Y082966D01*
X063225Y083011D01*
X063301Y083070D01*
X063350Y083061D01*
X063351Y083060D01*
X063860Y082552D01*
X063860Y082552D01*
X063899Y082525D01*
X063926Y082507D01*
X064004Y082492D01*
X064512D01*
X064526Y082444D01*
X064408Y082372D01*
X064241Y082229D01*
X064098Y082061D01*
X063983Y081873D01*
X063898Y081670D01*
X063847Y081456D01*
X063830Y081236D01*
X063847Y081016D01*
X063898Y080802D01*
X063983Y080598D01*
X064098Y080410D01*
X064241Y080243D01*
X064408Y080100D01*
X064596Y079985D01*
X064800Y079900D01*
X065014Y079849D01*
X065234Y079831D01*
X065454Y079849D01*
X065668Y079900D01*
X065871Y079985D01*
X066059Y080100D01*
X066227Y080243D01*
X066370Y080410D01*
X066485Y080598D01*
X066569Y080802D01*
X066621Y081016D01*
X066638Y081236D01*
X066621Y081456D01*
X066569Y081670D01*
X066485Y081873D01*
X066473Y081894D01*
X066512Y081925D01*
X066988Y081449D01*
X067058Y081402D01*
X067058Y081402D01*
X067058Y081402D01*
D01*
X067058Y081402D01*
X067058Y081402D01*
X067139Y081386D01*
X068207D01*
X068211Y081375D01*
X068282Y081282D01*
X068375Y081211D01*
X068484Y081166D01*
X068600Y081151D01*
X068716Y081166D01*
X068825Y081211D01*
X068918Y081282D01*
X068989Y081375D01*
X069034Y081484D01*
X069049Y081600D01*
X069034Y081716D01*
X068989Y081825D01*
X068918Y081918D01*
X068825Y081989D01*
X068716Y082034D01*
X068600Y082049D01*
X068484Y082034D01*
X068375Y081989D01*
X068282Y081918D01*
X068211Y081825D01*
X068207Y081814D01*
X067228D01*
X066879Y082164D01*
X066894Y082210D01*
X066992Y082251D01*
X067075Y082315D01*
X067110Y082361D01*
X068222D01*
X068282Y082282D01*
X068375Y082211D01*
X068484Y082166D01*
X068600Y082151D01*
X068716Y082166D01*
X068825Y082211D01*
X068918Y082282D01*
X068989Y082375D01*
X069034Y082484D01*
X069049Y082600D01*
X069034Y082716D01*
X068989Y082825D01*
X068965Y082856D01*
X068976Y082878D01*
X069025Y082886D01*
X069175Y082737D01*
X069166Y082716D01*
X069151Y082600D01*
X069166Y082484D01*
X069211Y082375D01*
X069282Y082282D01*
X069375Y082211D01*
X069484Y082166D01*
X069600Y082151D01*
X069716Y082166D01*
X069825Y082211D01*
X069861Y082239D01*
X069906Y082217D01*
Y081983D01*
X069861Y081961D01*
X069825Y081989D01*
X069716Y082034D01*
X069600Y082049D01*
X069484Y082034D01*
X069375Y081989D01*
X069282Y081918D01*
X069211Y081825D01*
X069166Y081716D01*
X069151Y081600D01*
X069166Y081484D01*
X069211Y081375D01*
X069282Y081282D01*
X069375Y081211D01*
X069484Y081166D01*
X069600Y081151D01*
X069716Y081166D01*
X069825Y081211D01*
X069861Y081239D01*
X069906Y081217D01*
Y080983D01*
X069861Y080961D01*
X069825Y080989D01*
X069716Y081034D01*
X069650Y081043D01*
Y080600D01*
Y080157D01*
X069716Y080166D01*
X069825Y080211D01*
X069861Y080239D01*
X069873Y080233D01*
X069881Y080184D01*
X069742Y080045D01*
X069155D01*
Y079155D01*
X070045D01*
Y079742D01*
X070272Y079969D01*
X070299Y080010D01*
X070347Y079995D01*
Y054735D01*
X070298Y054726D01*
X070251Y054838D01*
X070136Y055025D01*
X069993Y055193D01*
X069825Y055336D01*
X069638Y055451D01*
X069434Y055536D01*
X069220Y055587D01*
X069000Y055604D01*
X068780Y055587D01*
X068566Y055536D01*
X068362Y055451D01*
X068175Y055336D01*
X068007Y055193D01*
X067864Y055025D01*
X067749Y054838D01*
X067664Y054634D01*
X067613Y054420D01*
X067596Y054200D01*
X067613Y053980D01*
X067664Y053766D01*
X067749Y053562D01*
X067864Y053375D01*
X068007Y053207D01*
X068132Y053100D01*
X068115Y053053D01*
X059109D01*
X059092Y053100D01*
X059096Y053104D01*
X059201Y053232D01*
X059279Y053377D01*
X059327Y053536D01*
X059343Y053700D01*
X059327Y053864D01*
X059279Y054023D01*
X059201Y054168D01*
X059096Y054296D01*
X058968Y054401D01*
X058823Y054479D01*
X058664Y054527D01*
X058500Y054543D01*
X058336Y054527D01*
X058177Y054479D01*
X058032Y054401D01*
X057904Y054296D01*
X057799Y054168D01*
X057721Y054023D01*
X057673Y053864D01*
X057657Y053700D01*
X057673Y053536D01*
X057721Y053377D01*
X057799Y053232D01*
X057904Y053104D01*
X057908Y053100D01*
X057891Y053053D01*
X055609D01*
X055592Y053100D01*
X055596Y053104D01*
X055701Y053232D01*
X055779Y053377D01*
X055827Y053536D01*
X055843Y053700D01*
X055827Y053864D01*
X055779Y054023D01*
X055701Y054168D01*
X055596Y054296D01*
X055468Y054401D01*
X055323Y054479D01*
X055164Y054527D01*
X055000Y054543D01*
X054836Y054527D01*
X054677Y054479D01*
X054532Y054401D01*
X054404Y054296D01*
X054299Y054168D01*
X054221Y054023D01*
X054173Y053864D01*
X054157Y053700D01*
X054173Y053536D01*
X054221Y053377D01*
X054299Y053232D01*
X054404Y053104D01*
X054408Y053100D01*
X054391Y053053D01*
X053527D01*
X053505Y053098D01*
X053572Y053185D01*
X053615Y053289D01*
X053623Y053350D01*
X052777D01*
X052785Y053289D01*
X052828Y053185D01*
X052895Y053098D01*
X052873Y053053D01*
X051285D01*
X051268Y053100D01*
X051393Y053207D01*
X051536Y053375D01*
X051651Y053562D01*
X051736Y053766D01*
X051787Y053980D01*
X051804Y054200D01*
X051787Y054420D01*
X051736Y054634D01*
X051651Y054838D01*
X051536Y055025D01*
X051393Y055193D01*
X051225Y055336D01*
X051038Y055451D01*
X050834Y055536D01*
X050620Y055587D01*
X050400Y055604D01*
X050180Y055587D01*
X049966Y055536D01*
X049762Y055451D01*
X049575Y055336D01*
X049407Y055193D01*
X049264Y055025D01*
X049201Y054924D01*
X049153Y054937D01*
Y063543D01*
X049153Y063543D01*
X049153Y063543D01*
Y063543D01*
Y085963D01*
X049201Y085976D01*
X049264Y085875D01*
X049407Y085707D01*
X049575Y085564D01*
X049762Y085449D01*
X049966Y085364D01*
X050180Y085313D01*
X050400Y085296D01*
X050620Y085313D01*
X050834Y085364D01*
X051038Y085449D01*
X051225Y085564D01*
X051393Y085707D01*
X051536Y085875D01*
X051651Y086062D01*
X051736Y086266D01*
X051787Y086480D01*
X051804Y086700D01*
X051787Y086920D01*
X051736Y087134D01*
X051651Y087338D01*
X051536Y087525D01*
X051393Y087693D01*
X051225Y087836D01*
X051038Y087951D01*
X050834Y088036D01*
X050835Y088047D01*
X058620D01*
X058630Y087998D01*
D02*
G37*
G36*
X062684Y084719D02*
X062682Y084718D01*
X062611Y084625D01*
X062566Y084516D01*
X062557Y084450D01*
X063000D01*
Y084400D01*
X063050D01*
Y083957D01*
X063116Y083966D01*
X063225Y084011D01*
X063247Y084028D01*
X063291Y084006D01*
Y083794D01*
X063247Y083772D01*
X063225Y083789D01*
X063116Y083834D01*
X063000Y083849D01*
X062884Y083834D01*
X062775Y083789D01*
X062682Y083718D01*
X062611Y083625D01*
X062566Y083516D01*
X062551Y083400D01*
X062565Y083290D01*
X062436Y083160D01*
X062394Y083188D01*
X062434Y083284D01*
X062443Y083350D01*
X061557D01*
X061566Y083284D01*
X061611Y083175D01*
X061682Y083082D01*
X061722Y083052D01*
X061706Y083004D01*
X061294D01*
X061278Y083052D01*
X061318Y083082D01*
X061389Y083175D01*
X061434Y083284D01*
X061449Y083400D01*
X061434Y083516D01*
X061389Y083625D01*
X061372Y083647D01*
X061394Y083691D01*
X061486D01*
X061564Y083707D01*
X061630Y083751D01*
X061856Y083977D01*
X061884Y083966D01*
X062000Y083951D01*
X062116Y083966D01*
X062225Y084011D01*
X062318Y084082D01*
X062389Y084175D01*
X062434Y084284D01*
X062449Y084400D01*
X062434Y084516D01*
X062389Y084625D01*
X062318Y084718D01*
X062316Y084719D01*
X062332Y084766D01*
X062668D01*
X062684Y084719D01*
D02*
G37*
G36*
X066003Y085909D02*
X065996Y085904D01*
X065928Y085815D01*
X065924Y085804D01*
X065500D01*
X065422Y085788D01*
X065355Y085744D01*
X064361Y084749D01*
X064352Y084737D01*
X064303Y084729D01*
X064225Y084789D01*
X064116Y084834D01*
X064050Y084843D01*
Y084400D01*
X063950D01*
Y084843D01*
X063884Y084834D01*
X063775Y084789D01*
X063697Y084729D01*
X063648Y084737D01*
X063639Y084749D01*
X063275Y085114D01*
X063255Y085128D01*
X063272Y085174D01*
X063300Y085171D01*
X063411Y085185D01*
X063515Y085228D01*
X063604Y085296D01*
X063672Y085385D01*
X063715Y085489D01*
X063729Y085600D01*
X063715Y085711D01*
X063672Y085815D01*
X063604Y085904D01*
X063597Y085909D01*
X063613Y085956D01*
X065987D01*
X066003Y085909D01*
D02*
G37*
G36*
X062797Y087997D02*
X062772Y087992D01*
X062698Y087942D01*
X062025Y087269D01*
X061959D01*
X061936Y087314D01*
X061986Y087379D01*
X062031Y087487D01*
X062039Y087553D01*
X061154D01*
X061163Y087487D01*
X061208Y087379D01*
X061257Y087314D01*
X061235Y087269D01*
X059499D01*
X059276Y087493D01*
X059290Y087603D01*
X059275Y087719D01*
X059230Y087828D01*
X059159Y087921D01*
X059065Y087992D01*
X058957Y088037D01*
Y088037D01*
X058958Y088047D01*
X061376D01*
X061386Y087998D01*
X061372Y087992D01*
X061279Y087921D01*
X061208Y087828D01*
X061163Y087719D01*
X061154Y087653D01*
X062039D01*
X062031Y087719D01*
X061986Y087828D01*
X061914Y087921D01*
X061821Y087992D01*
X061713Y088037D01*
Y088037D01*
X061714Y088047D01*
X062792D01*
X062797Y087997D01*
D02*
G37*
%LPC*%
G36*
X050650Y064043D02*
Y063650D01*
X051043D01*
X051034Y063716D01*
X050989Y063825D01*
X050918Y063918D01*
X050825Y063989D01*
X050716Y064034D01*
X050650Y064043D01*
D02*
G37*
G36*
X068600Y065093D02*
X068497Y065080D01*
X068400Y065040D01*
X068318Y064976D01*
X068254Y064893D01*
X068214Y064797D01*
X068201Y064694D01*
X068214Y064590D01*
X068254Y064494D01*
X068318Y064411D01*
X068398Y064350D01*
X068382Y064304D01*
X068381Y064302D01*
X068204D01*
Y063956D01*
X068996D01*
Y064302D01*
X068819D01*
X068818Y064304D01*
X068802Y064350D01*
X068882Y064411D01*
X068946Y064494D01*
X068986Y064590D01*
X069000Y064694D01*
X068986Y064797D01*
X068946Y064893D01*
X068882Y064976D01*
X068800Y065040D01*
X068703Y065080D01*
X068600Y065093D01*
D02*
G37*
G36*
X050550Y064043D02*
X050484Y064034D01*
X050375Y063989D01*
X050282Y063918D01*
X050211Y063825D01*
X050166Y063716D01*
X050157Y063650D01*
X050550D01*
Y064043D01*
D02*
G37*
G36*
X068550Y063856D02*
X068204D01*
Y063510D01*
X068550D01*
Y063856D01*
D02*
G37*
G36*
X068996D02*
X068650D01*
Y063510D01*
X068996D01*
Y063856D01*
D02*
G37*
G36*
X053023Y064950D02*
X052650D01*
Y064577D01*
X052711Y064585D01*
X052815Y064628D01*
X052904Y064696D01*
X052972Y064785D01*
X053015Y064889D01*
X053023Y064950D01*
D02*
G37*
G36*
X052550Y065423D02*
X052489Y065415D01*
X052385Y065372D01*
X052296Y065304D01*
X052228Y065215D01*
X052185Y065111D01*
X052177Y065050D01*
X052550D01*
Y065423D01*
D02*
G37*
G36*
Y064950D02*
X052177D01*
X052185Y064889D01*
X052228Y064785D01*
X052296Y064696D01*
X052385Y064628D01*
X052489Y064585D01*
X052550Y064577D01*
Y064950D01*
D02*
G37*
G36*
X064097Y065081D02*
X063981Y065065D01*
X063872Y065020D01*
X063779Y064949D01*
X063708Y064856D01*
X063663Y064748D01*
X063648Y064632D01*
X063663Y064515D01*
X063708Y064407D01*
X063779Y064314D01*
X063872Y064243D01*
X063981Y064198D01*
X064097Y064182D01*
X064213Y064198D01*
X064321Y064243D01*
X064414Y064314D01*
X064486Y064407D01*
X064531Y064515D01*
X064546Y064632D01*
X064531Y064748D01*
X064486Y064856D01*
X064414Y064949D01*
X064321Y065020D01*
X064213Y065065D01*
X064097Y065081D01*
D02*
G37*
G36*
X067097D02*
X066981Y065065D01*
X066872Y065020D01*
X066779Y064949D01*
X066708Y064856D01*
X066663Y064748D01*
X066648Y064632D01*
X066663Y064515D01*
X066708Y064407D01*
X066779Y064314D01*
X066872Y064243D01*
X066981Y064198D01*
X067097Y064182D01*
X067213Y064198D01*
X067321Y064243D01*
X067414Y064314D01*
X067486Y064407D01*
X067531Y064515D01*
X067546Y064632D01*
X067531Y064748D01*
X067486Y064856D01*
X067414Y064949D01*
X067321Y065020D01*
X067213Y065065D01*
X067097Y065081D01*
D02*
G37*
G36*
X067150Y063043D02*
X067084Y063034D01*
X066975Y062989D01*
X066882Y062918D01*
X066811Y062825D01*
X066766Y062716D01*
X066757Y062650D01*
X067150D01*
Y063043D01*
D02*
G37*
G36*
X069150D02*
X069084Y063034D01*
X068975Y062989D01*
X068882Y062918D01*
X068811Y062825D01*
X068766Y062716D01*
X068757Y062650D01*
X069150D01*
Y063043D01*
D02*
G37*
G36*
X068250D02*
Y062650D01*
X068643D01*
X068634Y062716D01*
X068589Y062825D01*
X068518Y062918D01*
X068425Y062989D01*
X068316Y063034D01*
X068250Y063043D01*
D02*
G37*
G36*
X067250D02*
Y062650D01*
X067643D01*
X067634Y062716D01*
X067589Y062825D01*
X067518Y062918D01*
X067425Y062989D01*
X067316Y063034D01*
X067250Y063043D01*
D02*
G37*
G36*
X068150D02*
X068084Y063034D01*
X067975Y062989D01*
X067882Y062918D01*
X067811Y062825D01*
X067766Y062716D01*
X067757Y062650D01*
X068150D01*
Y063043D01*
D02*
G37*
G36*
X069250D02*
Y062650D01*
X069643D01*
X069634Y062716D01*
X069589Y062825D01*
X069518Y062918D01*
X069425Y062989D01*
X069316Y063034D01*
X069250Y063043D01*
D02*
G37*
G36*
X050550Y063550D02*
X050157D01*
X050166Y063484D01*
X050211Y063375D01*
X050282Y063282D01*
X050375Y063211D01*
X050484Y063166D01*
X050550Y063157D01*
Y063550D01*
D02*
G37*
G36*
X051043D02*
X050650D01*
Y063157D01*
X050716Y063166D01*
X050825Y063211D01*
X050918Y063282D01*
X050989Y063375D01*
X051034Y063484D01*
X051043Y063550D01*
D02*
G37*
G36*
X069643Y062550D02*
X069250D01*
Y062157D01*
X069316Y062166D01*
X069425Y062211D01*
X069518Y062282D01*
X069589Y062375D01*
X069634Y062484D01*
X069643Y062550D01*
D02*
G37*
G36*
X052045Y064045D02*
X051155D01*
Y063155D01*
X052045D01*
Y064045D01*
D02*
G37*
G36*
X052600Y063429D02*
X052489Y063415D01*
X052385Y063372D01*
X052296Y063304D01*
X052228Y063215D01*
X052185Y063111D01*
X052171Y063000D01*
X052185Y062889D01*
X052228Y062785D01*
X052296Y062696D01*
X052385Y062628D01*
X052489Y062585D01*
X052600Y062571D01*
X052711Y062585D01*
X052815Y062628D01*
X052904Y062696D01*
X052972Y062785D01*
X053015Y062889D01*
X053029Y063000D01*
X053015Y063111D01*
X052972Y063215D01*
X052904Y063304D01*
X052815Y063372D01*
X052711Y063415D01*
X052600Y063429D01*
D02*
G37*
G36*
X069044Y069293D02*
Y068950D01*
X069387D01*
X069380Y069003D01*
X069340Y069100D01*
X069276Y069182D01*
X069193Y069246D01*
X069097Y069286D01*
X069044Y069293D01*
D02*
G37*
G36*
X064097Y070081D02*
X063981Y070065D01*
X063872Y070020D01*
X063779Y069949D01*
X063708Y069856D01*
X063663Y069748D01*
X063648Y069632D01*
X063663Y069515D01*
X063708Y069407D01*
X063779Y069314D01*
X063872Y069243D01*
X063981Y069198D01*
X064097Y069182D01*
X064213Y069198D01*
X064321Y069243D01*
X064414Y069314D01*
X064486Y069407D01*
X064531Y069515D01*
X064546Y069632D01*
X064531Y069748D01*
X064486Y069856D01*
X064414Y069949D01*
X064321Y070020D01*
X064213Y070065D01*
X064097Y070081D01*
D02*
G37*
G36*
X069387Y068850D02*
X069044D01*
Y068507D01*
X069097Y068514D01*
X069193Y068554D01*
X069276Y068618D01*
X069340Y068700D01*
X069380Y068797D01*
X069387Y068850D01*
D02*
G37*
G36*
X067097Y069081D02*
X066981Y069065D01*
X066872Y069020D01*
X066779Y068949D01*
X066708Y068856D01*
X066663Y068748D01*
X066648Y068632D01*
X066663Y068515D01*
X066708Y068407D01*
X066779Y068314D01*
X066872Y068243D01*
X066981Y068198D01*
X067097Y068182D01*
X067213Y068198D01*
X067321Y068243D01*
X067414Y068314D01*
X067486Y068407D01*
X067531Y068515D01*
X067546Y068632D01*
X067531Y068748D01*
X067486Y068856D01*
X067414Y068949D01*
X067321Y069020D01*
X067213Y069065D01*
X067097Y069081D01*
D02*
G37*
G36*
X068602Y069296D02*
X067810D01*
Y068504D01*
X068602D01*
Y068681D01*
X068604Y068682D01*
X068650Y068698D01*
X068711Y068618D01*
X068794Y068554D01*
X068890Y068514D01*
X068944Y068507D01*
Y068900D01*
Y069293D01*
X068890Y069286D01*
X068794Y069246D01*
X068711Y069182D01*
X068650Y069102D01*
X068604Y069118D01*
X068602Y069119D01*
Y069296D01*
D02*
G37*
G36*
X050956Y070593D02*
X050903Y070586D01*
X050807Y070546D01*
X050724Y070482D01*
X050660Y070400D01*
X050620Y070303D01*
X050613Y070250D01*
X050956D01*
Y070593D01*
D02*
G37*
G36*
X068996Y071890D02*
X068204D01*
Y071098D01*
X068381D01*
X068382Y071096D01*
X068398Y071050D01*
X068318Y070989D01*
X068277Y070936D01*
X068172D01*
X068084Y070918D01*
X068009Y070869D01*
X067533Y070392D01*
X067491Y070419D01*
X067531Y070515D01*
X067546Y070631D01*
X067531Y070748D01*
X067486Y070856D01*
X067414Y070949D01*
X067321Y071020D01*
X067213Y071065D01*
X067097Y071081D01*
X066981Y071065D01*
X066872Y071020D01*
X066779Y070949D01*
X066708Y070856D01*
X066663Y070748D01*
X066648Y070631D01*
X066663Y070515D01*
X066708Y070407D01*
X066779Y070314D01*
X066872Y070243D01*
X066981Y070198D01*
X067097Y070182D01*
X067213Y070198D01*
X067309Y070237D01*
X067337Y070196D01*
X067207Y070066D01*
X067097Y070081D01*
X066981Y070065D01*
X066872Y070020D01*
X066779Y069949D01*
X066708Y069856D01*
X066663Y069748D01*
X066648Y069632D01*
X066663Y069515D01*
X066708Y069407D01*
X066779Y069314D01*
X066872Y069243D01*
X066981Y069198D01*
X067097Y069182D01*
X067213Y069198D01*
X067321Y069243D01*
X067414Y069314D01*
X067486Y069407D01*
X067531Y069515D01*
X067546Y069632D01*
X067531Y069742D01*
X068246Y070456D01*
X068295Y070453D01*
X068318Y070424D01*
X068400Y070360D01*
X068497Y070320D01*
X068600Y070307D01*
X068703Y070320D01*
X068800Y070360D01*
X068882Y070424D01*
X068946Y070507D01*
X068986Y070603D01*
X069000Y070706D01*
X068986Y070810D01*
X068946Y070906D01*
X068882Y070989D01*
X068800Y071052D01*
X068714Y071088D01*
Y071088D01*
X068714D01*
X068703Y071092D01*
Y071092D01*
X068704Y071098D01*
X068996D01*
Y071890D01*
D02*
G37*
G36*
X064539Y070581D02*
X064147D01*
Y070189D01*
X064213Y070198D01*
X064321Y070243D01*
X064414Y070314D01*
X064486Y070407D01*
X064531Y070515D01*
X064539Y070581D01*
D02*
G37*
G36*
X050956Y070150D02*
X050613D01*
X050620Y070097D01*
X050660Y070000D01*
X050724Y069918D01*
X050807Y069854D01*
X050903Y069814D01*
X050956Y069807D01*
Y070150D01*
D02*
G37*
G36*
X064047Y070581D02*
X063654D01*
X063663Y070515D01*
X063708Y070407D01*
X063779Y070314D01*
X063872Y070243D01*
X063981Y070198D01*
X064047Y070189D01*
Y070581D01*
D02*
G37*
G36*
X064097Y069081D02*
X063981Y069065D01*
X063872Y069020D01*
X063779Y068949D01*
X063708Y068856D01*
X063663Y068748D01*
X063648Y068632D01*
X063663Y068515D01*
X063708Y068407D01*
X063779Y068314D01*
X063872Y068243D01*
X063981Y068198D01*
X064097Y068182D01*
X064213Y068198D01*
X064321Y068243D01*
X064414Y068314D01*
X064486Y068407D01*
X064531Y068515D01*
X064546Y068632D01*
X064531Y068748D01*
X064486Y068856D01*
X064414Y068949D01*
X064321Y069020D01*
X064213Y069065D01*
X064097Y069081D01*
D02*
G37*
G36*
X051982Y066725D02*
X051018D01*
X051028Y066648D01*
X051077Y066530D01*
X051154Y066429D01*
X051256Y066351D01*
X051359Y066308D01*
X051350Y066259D01*
X051015D01*
Y065290D01*
X051985D01*
Y066259D01*
X051650D01*
X051641Y066308D01*
X051744Y066351D01*
X051846Y066429D01*
X051923Y066530D01*
X051972Y066648D01*
X051982Y066725D01*
D02*
G37*
G36*
X068996Y067290D02*
X068204D01*
Y066498D01*
X068381D01*
X068382Y066496D01*
X068398Y066450D01*
X068318Y066389D01*
X068254Y066306D01*
X068214Y066210D01*
X068201Y066106D01*
X068214Y066003D01*
X068254Y065907D01*
X068318Y065824D01*
X068400Y065760D01*
X068497Y065720D01*
X068600Y065707D01*
X068703Y065720D01*
X068800Y065760D01*
X068882Y065824D01*
X068946Y065907D01*
X068986Y066003D01*
X069000Y066106D01*
X068986Y066210D01*
X068946Y066306D01*
X068882Y066389D01*
X068800Y066452D01*
X068714Y066488D01*
Y066488D01*
X068714D01*
X068703Y066492D01*
Y066492D01*
X068704Y066498D01*
X068996D01*
Y067290D01*
D02*
G37*
G36*
X067097Y066081D02*
X066981Y066065D01*
X066872Y066020D01*
X066779Y065949D01*
X066708Y065856D01*
X066663Y065748D01*
X066648Y065631D01*
X066663Y065515D01*
X066708Y065407D01*
X066779Y065314D01*
X066872Y065243D01*
X066981Y065198D01*
X067097Y065182D01*
X067213Y065198D01*
X067321Y065243D01*
X067414Y065314D01*
X067486Y065407D01*
X067531Y065515D01*
X067546Y065631D01*
X067531Y065748D01*
X067486Y065856D01*
X067414Y065949D01*
X067321Y066020D01*
X067213Y066065D01*
X067097Y066081D01*
D02*
G37*
G36*
X052650Y065423D02*
Y065050D01*
X053023D01*
X053015Y065111D01*
X052972Y065215D01*
X052904Y065304D01*
X052815Y065372D01*
X052711Y065415D01*
X052650Y065423D01*
D02*
G37*
G36*
X064097Y066081D02*
X063981Y066065D01*
X063872Y066020D01*
X063779Y065949D01*
X063708Y065856D01*
X063663Y065748D01*
X063648Y065631D01*
X063663Y065515D01*
X063708Y065407D01*
X063779Y065314D01*
X063872Y065243D01*
X063981Y065198D01*
X064097Y065182D01*
X064213Y065198D01*
X064321Y065243D01*
X064414Y065314D01*
X064486Y065407D01*
X064531Y065515D01*
X064546Y065631D01*
X064531Y065748D01*
X064486Y065856D01*
X064414Y065949D01*
X064321Y066020D01*
X064213Y066065D01*
X064097Y066081D01*
D02*
G37*
G36*
Y068081D02*
X063981Y068065D01*
X063872Y068020D01*
X063779Y067949D01*
X063708Y067856D01*
X063663Y067748D01*
X063648Y067632D01*
X063663Y067515D01*
X063708Y067407D01*
X063779Y067314D01*
X063872Y067243D01*
X063981Y067198D01*
X064097Y067182D01*
X064213Y067198D01*
X064321Y067243D01*
X064414Y067314D01*
X064486Y067407D01*
X064531Y067515D01*
X064546Y067632D01*
X064531Y067748D01*
X064486Y067856D01*
X064414Y067949D01*
X064321Y068020D01*
X064213Y068065D01*
X064097Y068081D01*
D02*
G37*
G36*
X067097D02*
X066981Y068065D01*
X066872Y068020D01*
X066779Y067949D01*
X066708Y067856D01*
X066663Y067748D01*
X066648Y067632D01*
X066663Y067515D01*
X066708Y067407D01*
X066779Y067314D01*
X066872Y067243D01*
X066981Y067198D01*
X067097Y067182D01*
X067213Y067198D01*
X067321Y067243D01*
X067414Y067314D01*
X067486Y067407D01*
X067531Y067515D01*
X067546Y067632D01*
X067531Y067748D01*
X067486Y067856D01*
X067414Y067949D01*
X067321Y068020D01*
X067213Y068065D01*
X067097Y068081D01*
D02*
G37*
G36*
X051500Y068264D02*
X051373Y068247D01*
X051256Y068198D01*
X051154Y068120D01*
X051077Y068019D01*
X051028Y067901D01*
X051011Y067775D01*
X051028Y067648D01*
X051077Y067530D01*
X051154Y067429D01*
X051256Y067351D01*
X051373Y067303D01*
X051395Y067300D01*
Y067250D01*
X051373Y067247D01*
X051256Y067198D01*
X051154Y067120D01*
X051077Y067019D01*
X051028Y066901D01*
X051018Y066825D01*
X051982D01*
X051972Y066901D01*
X051923Y067019D01*
X051846Y067120D01*
X051744Y067198D01*
X051627Y067247D01*
X051605Y067250D01*
Y067300D01*
X051627Y067303D01*
X051744Y067351D01*
X051846Y067429D01*
X051923Y067530D01*
X051972Y067648D01*
X051989Y067775D01*
X051972Y067901D01*
X051923Y068019D01*
X051846Y068120D01*
X051744Y068198D01*
X051627Y068247D01*
X051500Y068264D01*
D02*
G37*
G36*
X064097Y067081D02*
X063981Y067065D01*
X063872Y067020D01*
X063779Y066949D01*
X063708Y066856D01*
X063663Y066748D01*
X063648Y066631D01*
X063663Y066515D01*
X063708Y066407D01*
X063779Y066314D01*
X063872Y066243D01*
X063981Y066198D01*
X064097Y066182D01*
X064213Y066198D01*
X064321Y066243D01*
X064414Y066314D01*
X064486Y066407D01*
X064531Y066515D01*
X064546Y066631D01*
X064531Y066748D01*
X064486Y066856D01*
X064414Y066949D01*
X064321Y067020D01*
X064213Y067065D01*
X064097Y067081D01*
D02*
G37*
G36*
X067097D02*
X066981Y067065D01*
X066872Y067020D01*
X066779Y066949D01*
X066708Y066856D01*
X066663Y066748D01*
X066648Y066631D01*
X066663Y066515D01*
X066708Y066407D01*
X066779Y066314D01*
X066872Y066243D01*
X066981Y066198D01*
X067097Y066182D01*
X067213Y066198D01*
X067321Y066243D01*
X067414Y066314D01*
X067486Y066407D01*
X067531Y066515D01*
X067546Y066631D01*
X067531Y066748D01*
X067486Y066856D01*
X067414Y066949D01*
X067321Y067020D01*
X067213Y067065D01*
X067097Y067081D01*
D02*
G37*
G36*
X064250Y055443D02*
Y055050D01*
X064643D01*
X064634Y055116D01*
X064589Y055225D01*
X064518Y055318D01*
X064425Y055389D01*
X064316Y055434D01*
X064250Y055443D01*
D02*
G37*
G36*
X056350Y058042D02*
X056166Y058024D01*
X055990Y057970D01*
X055827Y057883D01*
X055684Y057766D01*
X055567Y057623D01*
X055480Y057460D01*
X055426Y057284D01*
X055408Y057100D01*
X055426Y056916D01*
X055480Y056740D01*
X055567Y056577D01*
X055684Y056434D01*
X055827Y056317D01*
X055990Y056230D01*
X056166Y056176D01*
X056350Y056158D01*
X056534Y056176D01*
X056710Y056230D01*
X056873Y056317D01*
X057016Y056434D01*
X057133Y056577D01*
X057220Y056740D01*
X057274Y056916D01*
X057292Y057100D01*
X057274Y057284D01*
X057220Y057460D01*
X057133Y057623D01*
X057016Y057766D01*
X056873Y057883D01*
X056710Y057970D01*
X056534Y058024D01*
X056350Y058042D01*
D02*
G37*
G36*
X064150Y055443D02*
X064084Y055434D01*
X063975Y055389D01*
X063882Y055318D01*
X063811Y055225D01*
X063766Y055116D01*
X063757Y055050D01*
X064150D01*
Y055443D01*
D02*
G37*
G36*
X064643Y054950D02*
X064250D01*
Y054557D01*
X064316Y054566D01*
X064425Y054611D01*
X064518Y054682D01*
X064589Y054775D01*
X064634Y054884D01*
X064643Y054950D01*
D02*
G37*
G36*
X053200Y055829D02*
X053089Y055815D01*
X052985Y055772D01*
X052896Y055704D01*
X052828Y055615D01*
X052785Y055511D01*
X052771Y055400D01*
X052785Y055289D01*
X052828Y055185D01*
X052896Y055096D01*
X052985Y055028D01*
X053089Y054985D01*
X053200Y054971D01*
X053311Y054985D01*
X053415Y055028D01*
X053504Y055096D01*
X053572Y055185D01*
X053615Y055289D01*
X053629Y055400D01*
X053615Y055511D01*
X053572Y055615D01*
X053504Y055704D01*
X053415Y055772D01*
X053311Y055815D01*
X053200Y055829D01*
D02*
G37*
G36*
X069200Y057229D02*
X069089Y057215D01*
X068985Y057172D01*
X068896Y057104D01*
X068828Y057015D01*
X068785Y056911D01*
X068771Y056800D01*
X068785Y056689D01*
X068828Y056585D01*
X068896Y056496D01*
X068985Y056428D01*
X069089Y056385D01*
X069200Y056371D01*
X069311Y056385D01*
X069415Y056428D01*
X069504Y056496D01*
X069572Y056585D01*
X069615Y056689D01*
X069629Y056800D01*
X069615Y056911D01*
X069572Y057015D01*
X069504Y057104D01*
X069415Y057172D01*
X069311Y057215D01*
X069200Y057229D01*
D02*
G37*
G36*
X069150Y058750D02*
X068777D01*
X068785Y058689D01*
X068828Y058585D01*
X068896Y058496D01*
X068985Y058428D01*
X069089Y058385D01*
X069150Y058377D01*
Y058750D01*
D02*
G37*
G36*
X065234Y059140D02*
X065014Y059123D01*
X064800Y059071D01*
X064596Y058987D01*
X064408Y058872D01*
X064241Y058729D01*
X064098Y058561D01*
X063983Y058373D01*
X063898Y058170D01*
X063847Y057956D01*
X063830Y057736D01*
X063847Y057516D01*
X063898Y057302D01*
X063983Y057098D01*
X064098Y056910D01*
X064241Y056743D01*
X064408Y056600D01*
X064596Y056485D01*
X064800Y056400D01*
X065014Y056349D01*
X065234Y056331D01*
X065454Y056349D01*
X065668Y056400D01*
X065871Y056485D01*
X066059Y056600D01*
X066227Y056743D01*
X066370Y056910D01*
X066485Y057098D01*
X066569Y057302D01*
X066621Y057516D01*
X066638Y057736D01*
X066621Y057956D01*
X066569Y058170D01*
X066485Y058373D01*
X066370Y058561D01*
X066227Y058729D01*
X066059Y058872D01*
X065871Y058987D01*
X065668Y059071D01*
X065454Y059123D01*
X065234Y059140D01*
D02*
G37*
G36*
X060850Y058042D02*
X060666Y058024D01*
X060490Y057970D01*
X060327Y057883D01*
X060184Y057766D01*
X060067Y057623D01*
X059980Y057460D01*
X059926Y057284D01*
X059908Y057100D01*
X059926Y056916D01*
X059980Y056740D01*
X060067Y056577D01*
X060184Y056434D01*
X060327Y056317D01*
X060490Y056230D01*
X060666Y056176D01*
X060850Y056158D01*
X061034Y056176D01*
X061210Y056230D01*
X061373Y056317D01*
X061516Y056434D01*
X061633Y056577D01*
X061720Y056740D01*
X061774Y056916D01*
X061792Y057100D01*
X061774Y057284D01*
X061720Y057460D01*
X061633Y057623D01*
X061516Y057766D01*
X061373Y057883D01*
X061210Y057970D01*
X061034Y058024D01*
X060850Y058042D01*
D02*
G37*
G36*
X051734Y059140D02*
X051514Y059123D01*
X051300Y059071D01*
X051096Y058987D01*
X050908Y058872D01*
X050741Y058729D01*
X050598Y058561D01*
X050483Y058373D01*
X050398Y058170D01*
X050347Y057956D01*
X050330Y057736D01*
X050347Y057516D01*
X050398Y057302D01*
X050483Y057098D01*
X050598Y056910D01*
X050741Y056743D01*
X050908Y056600D01*
X051096Y056485D01*
X051300Y056400D01*
X051514Y056349D01*
X051734Y056331D01*
X051954Y056349D01*
X052168Y056400D01*
X052371Y056485D01*
X052559Y056600D01*
X052727Y056743D01*
X052870Y056910D01*
X052985Y057098D01*
X053069Y057302D01*
X053121Y057516D01*
X053138Y057736D01*
X053121Y057956D01*
X053069Y058170D01*
X052985Y058373D01*
X052870Y058561D01*
X052727Y058729D01*
X052559Y058872D01*
X052371Y058987D01*
X052168Y059071D01*
X051954Y059123D01*
X051734Y059140D01*
D02*
G37*
G36*
X064150Y054950D02*
X063757D01*
X063766Y054884D01*
X063811Y054775D01*
X063882Y054682D01*
X063975Y054611D01*
X064084Y054566D01*
X064150Y054557D01*
Y054950D01*
D02*
G37*
G36*
X063550Y053950D02*
X063177D01*
X063185Y053889D01*
X063228Y053785D01*
X063296Y053696D01*
X063385Y053628D01*
X063489Y053585D01*
X063550Y053577D01*
Y053950D01*
D02*
G37*
G36*
X064023D02*
X063650D01*
Y053577D01*
X063711Y053585D01*
X063815Y053628D01*
X063904Y053696D01*
X063972Y053785D01*
X064015Y053889D01*
X064023Y053950D01*
D02*
G37*
G36*
X065600Y054429D02*
X065489Y054415D01*
X065385Y054372D01*
X065296Y054304D01*
X065228Y054215D01*
X065185Y054111D01*
X065171Y054000D01*
X065185Y053889D01*
X065228Y053785D01*
X065296Y053696D01*
X065385Y053628D01*
X065489Y053585D01*
X065600Y053571D01*
X065711Y053585D01*
X065815Y053628D01*
X065904Y053696D01*
X065972Y053785D01*
X066015Y053889D01*
X066029Y054000D01*
X066015Y054111D01*
X065972Y054215D01*
X065904Y054304D01*
X065815Y054372D01*
X065711Y054415D01*
X065600Y054429D01*
D02*
G37*
G36*
X053150Y053823D02*
X053089Y053815D01*
X052985Y053772D01*
X052896Y053704D01*
X052828Y053615D01*
X052785Y053511D01*
X052777Y053450D01*
X053150D01*
Y053823D01*
D02*
G37*
G36*
X053250D02*
Y053450D01*
X053623D01*
X053615Y053511D01*
X053572Y053615D01*
X053504Y053704D01*
X053415Y053772D01*
X053311Y053815D01*
X053250Y053823D01*
D02*
G37*
G36*
X063200Y055449D02*
X063084Y055434D01*
X062975Y055389D01*
X062882Y055318D01*
X062811Y055225D01*
X062766Y055116D01*
X062751Y055000D01*
X062766Y054884D01*
X062811Y054775D01*
X062882Y054682D01*
X062975Y054611D01*
X063084Y054566D01*
X063200Y054551D01*
X063316Y054566D01*
X063425Y054611D01*
X063518Y054682D01*
X063589Y054775D01*
X063634Y054884D01*
X063649Y055000D01*
X063634Y055116D01*
X063589Y055225D01*
X063518Y055318D01*
X063425Y055389D01*
X063316Y055434D01*
X063200Y055449D01*
D02*
G37*
G36*
X065645Y055445D02*
X064755D01*
Y054555D01*
X065645D01*
Y055445D01*
D02*
G37*
G36*
X062200Y055449D02*
X062084Y055434D01*
X061975Y055389D01*
X061882Y055318D01*
X061811Y055225D01*
X061766Y055116D01*
X061751Y055000D01*
X061766Y054884D01*
X061811Y054775D01*
X061882Y054682D01*
X061975Y054611D01*
X062084Y054566D01*
X062200Y054551D01*
X062316Y054566D01*
X062425Y054611D01*
X062518Y054682D01*
X062589Y054775D01*
X062634Y054884D01*
X062649Y055000D01*
X062634Y055116D01*
X062589Y055225D01*
X062518Y055318D01*
X062425Y055389D01*
X062316Y055434D01*
X062200Y055449D01*
D02*
G37*
G36*
X063550Y054423D02*
X063489Y054415D01*
X063385Y054372D01*
X063296Y054304D01*
X063228Y054215D01*
X063185Y054111D01*
X063177Y054050D01*
X063550D01*
Y054423D01*
D02*
G37*
G36*
X063650D02*
Y054050D01*
X064023D01*
X064015Y054111D01*
X063972Y054215D01*
X063904Y054304D01*
X063815Y054372D01*
X063711Y054415D01*
X063650Y054423D01*
D02*
G37*
G36*
X065050Y062523D02*
Y062150D01*
X065423D01*
X065415Y062211D01*
X065372Y062315D01*
X065304Y062404D01*
X065215Y062472D01*
X065111Y062515D01*
X065050Y062523D01*
D02*
G37*
G36*
X066645Y063045D02*
X065755D01*
Y062155D01*
X066645D01*
Y063045D01*
D02*
G37*
G36*
X064950Y062523D02*
X064889Y062515D01*
X064785Y062472D01*
X064696Y062404D01*
X064628Y062315D01*
X064585Y062211D01*
X064577Y062150D01*
X064950D01*
Y062523D01*
D02*
G37*
G36*
Y062050D02*
X064577D01*
X064585Y061989D01*
X064628Y061885D01*
X064696Y061796D01*
X064785Y061728D01*
X064889Y061685D01*
X064950Y061677D01*
Y062050D01*
D02*
G37*
G36*
X065423D02*
X065050D01*
Y061677D01*
X065111Y061685D01*
X065215Y061728D01*
X065304Y061796D01*
X065372Y061885D01*
X065415Y061989D01*
X065423Y062050D01*
D02*
G37*
G36*
X068643Y062550D02*
X068250D01*
Y062157D01*
X068316Y062166D01*
X068425Y062211D01*
X068518Y062282D01*
X068589Y062375D01*
X068634Y062484D01*
X068643Y062550D01*
D02*
G37*
G36*
X069150D02*
X068757D01*
X068766Y062484D01*
X068811Y062375D01*
X068882Y062282D01*
X068975Y062211D01*
X069084Y062166D01*
X069150Y062157D01*
Y062550D01*
D02*
G37*
G36*
X068150D02*
X067757D01*
X067766Y062484D01*
X067811Y062375D01*
X067882Y062282D01*
X067975Y062211D01*
X068084Y062166D01*
X068150Y062157D01*
Y062550D01*
D02*
G37*
G36*
X067150D02*
X066757D01*
X066766Y062484D01*
X066811Y062375D01*
X066882Y062282D01*
X066975Y062211D01*
X067084Y062166D01*
X067150Y062157D01*
Y062550D01*
D02*
G37*
G36*
X067643D02*
X067250D01*
Y062157D01*
X067316Y062166D01*
X067425Y062211D01*
X067518Y062282D01*
X067589Y062375D01*
X067634Y062484D01*
X067643Y062550D01*
D02*
G37*
G36*
X051990Y061196D02*
X051198D01*
Y061019D01*
X051196Y061018D01*
X051150Y061002D01*
X051089Y061082D01*
X051006Y061146D01*
X050910Y061186D01*
X050856Y061193D01*
Y060800D01*
Y060407D01*
X050910Y060414D01*
X051006Y060454D01*
X051089Y060518D01*
X051150Y060598D01*
X051196Y060582D01*
X051198Y060581D01*
Y060404D01*
X051990D01*
Y061196D01*
D02*
G37*
G36*
X067200Y060049D02*
X067084Y060034D01*
X066975Y059989D01*
X066882Y059918D01*
X066811Y059825D01*
X066766Y059716D01*
X066751Y059600D01*
X066766Y059484D01*
X066811Y059375D01*
X066882Y059282D01*
X066975Y059211D01*
X067084Y059166D01*
X067200Y059151D01*
X067316Y059166D01*
X067425Y059211D01*
X067518Y059282D01*
X067589Y059375D01*
X067634Y059484D01*
X067649Y059600D01*
X067634Y059716D01*
X067589Y059825D01*
X067518Y059918D01*
X067425Y059989D01*
X067316Y060034D01*
X067200Y060049D01*
D02*
G37*
G36*
X068200D02*
X068084Y060034D01*
X067975Y059989D01*
X067882Y059918D01*
X067811Y059825D01*
X067766Y059716D01*
X067751Y059600D01*
X067766Y059484D01*
X067811Y059375D01*
X067882Y059282D01*
X067975Y059211D01*
X068084Y059166D01*
X068200Y059151D01*
X068316Y059166D01*
X068425Y059211D01*
X068518Y059282D01*
X068589Y059375D01*
X068634Y059484D01*
X068649Y059600D01*
X068634Y059716D01*
X068589Y059825D01*
X068518Y059918D01*
X068425Y059989D01*
X068316Y060034D01*
X068200Y060049D01*
D02*
G37*
G36*
X066200D02*
X066084Y060034D01*
X065975Y059989D01*
X065882Y059918D01*
X065811Y059825D01*
X065766Y059716D01*
X065751Y059600D01*
X065766Y059484D01*
X065811Y059375D01*
X065882Y059282D01*
X065975Y059211D01*
X066084Y059166D01*
X066200Y059151D01*
X066316Y059166D01*
X066425Y059211D01*
X066518Y059282D01*
X066589Y059375D01*
X066634Y059484D01*
X066649Y059600D01*
X066634Y059716D01*
X066589Y059825D01*
X066518Y059918D01*
X066425Y059989D01*
X066316Y060034D01*
X066200Y060049D01*
D02*
G37*
G36*
X069623Y058750D02*
X069250D01*
Y058377D01*
X069311Y058385D01*
X069415Y058428D01*
X069504Y058496D01*
X069572Y058585D01*
X069615Y058689D01*
X069623Y058750D01*
D02*
G37*
G36*
X069643Y059550D02*
X068757D01*
X068766Y059484D01*
X068811Y059375D01*
X068882Y059282D01*
X068973Y059213D01*
Y059206D01*
X068947Y059142D01*
X068896Y059104D01*
X068828Y059015D01*
X068785Y058911D01*
X068777Y058850D01*
X069623D01*
X069615Y058911D01*
X069572Y059015D01*
X069504Y059104D01*
X069415Y059172D01*
X069415Y059207D01*
X069425Y059211D01*
X069518Y059282D01*
X069589Y059375D01*
X069634Y059484D01*
X069643Y059550D01*
D02*
G37*
G36*
X050756Y060750D02*
X050413D01*
X050420Y060697D01*
X050460Y060600D01*
X050524Y060518D01*
X050607Y060454D01*
X050703Y060414D01*
X050756Y060407D01*
Y060750D01*
D02*
G37*
G36*
Y061193D02*
X050703Y061186D01*
X050607Y061146D01*
X050524Y061082D01*
X050460Y061000D01*
X050420Y060903D01*
X050413Y060850D01*
X050756D01*
Y061193D01*
D02*
G37*
G36*
X065000Y060529D02*
X064889Y060515D01*
X064785Y060472D01*
X064696Y060404D01*
X064628Y060315D01*
X064585Y060211D01*
X064571Y060100D01*
X064585Y059989D01*
X064628Y059885D01*
X064696Y059796D01*
X064785Y059728D01*
X064889Y059685D01*
X065000Y059671D01*
X065111Y059685D01*
X065215Y059728D01*
X065304Y059796D01*
X065372Y059885D01*
X065415Y059989D01*
X065429Y060100D01*
X065415Y060211D01*
X065372Y060315D01*
X065304Y060404D01*
X065215Y060472D01*
X065111Y060515D01*
X065000Y060529D01*
D02*
G37*
G36*
X069150Y060043D02*
X069084Y060034D01*
X068975Y059989D01*
X068882Y059918D01*
X068811Y059825D01*
X068766Y059716D01*
X068757Y059650D01*
X069150D01*
Y060043D01*
D02*
G37*
G36*
X069250D02*
Y059650D01*
X069643D01*
X069634Y059716D01*
X069589Y059825D01*
X069518Y059918D01*
X069425Y059989D01*
X069316Y060034D01*
X069250Y060043D01*
D02*
G37*
G36*
X058000Y083849D02*
X057884Y083834D01*
X057775Y083789D01*
X057682Y083718D01*
X057611Y083625D01*
X057566Y083516D01*
X057551Y083400D01*
X057566Y083284D01*
X057611Y083175D01*
X057682Y083082D01*
X057775Y083011D01*
X057884Y082966D01*
X058000Y082951D01*
X058116Y082966D01*
X058225Y083011D01*
X058318Y083082D01*
X058389Y083175D01*
X058434Y083284D01*
X058449Y083400D01*
X058434Y083516D01*
X058389Y083625D01*
X058318Y083718D01*
X058225Y083789D01*
X058116Y083834D01*
X058000Y083849D01*
D02*
G37*
G36*
X069550Y083550D02*
X069157D01*
X069166Y083484D01*
X069211Y083375D01*
X069282Y083282D01*
X069375Y083211D01*
X069484Y083166D01*
X069550Y083157D01*
Y083550D01*
D02*
G37*
G36*
X053400Y083029D02*
X053289Y083015D01*
X053185Y082972D01*
X053096Y082904D01*
X053028Y082815D01*
X052985Y082711D01*
X052971Y082600D01*
X052985Y082489D01*
X053028Y082385D01*
X053096Y082296D01*
X053185Y082228D01*
X053289Y082185D01*
X053400Y082171D01*
X053511Y082185D01*
X053615Y082228D01*
X053704Y082296D01*
X053772Y082385D01*
X053815Y082489D01*
X053829Y082600D01*
X053815Y082711D01*
X053772Y082815D01*
X053704Y082904D01*
X053615Y082972D01*
X053511Y083015D01*
X053400Y083029D01*
D02*
G37*
G36*
X060950Y082150D02*
X060577D01*
X060585Y082089D01*
X060628Y081985D01*
X060696Y081896D01*
X060785Y081828D01*
X060889Y081785D01*
X060950Y081777D01*
Y082150D01*
D02*
G37*
G36*
X050200Y083029D02*
X050089Y083015D01*
X049985Y082972D01*
X049896Y082904D01*
X049828Y082815D01*
X049785Y082711D01*
X049771Y082600D01*
X049775Y082569D01*
X049458Y082252D01*
X049408Y082178D01*
X049391Y082090D01*
Y080370D01*
X049408Y080282D01*
X049458Y080208D01*
X049458Y080208D01*
X049458Y080208D01*
X050477Y079189D01*
Y078471D01*
X050310D01*
Y078003D01*
X050178Y077871D01*
X050128Y077796D01*
X050111Y077709D01*
Y075260D01*
X050128Y075172D01*
X050178Y075098D01*
X050178Y075098D01*
X050178Y075098D01*
X050549Y074726D01*
X050547Y074721D01*
X050531Y074600D01*
X050547Y074479D01*
X050594Y074366D01*
X050668Y074268D01*
X050766Y074194D01*
X050879Y074147D01*
X051000Y074131D01*
X051121Y074147D01*
X051234Y074194D01*
X051332Y074268D01*
X051406Y074366D01*
X051453Y074479D01*
X051469Y074600D01*
X051453Y074721D01*
X051406Y074834D01*
X051332Y074932D01*
X051234Y075006D01*
X051121Y075053D01*
X051000Y075069D01*
X050879Y075053D01*
X050874Y075051D01*
X050796Y075128D01*
X050824Y075170D01*
X050879Y075147D01*
X051000Y075131D01*
X051121Y075147D01*
X051234Y075194D01*
X051332Y075268D01*
X051406Y075366D01*
X051453Y075479D01*
X051469Y075600D01*
X051453Y075721D01*
X051406Y075834D01*
X051332Y075932D01*
X051234Y076006D01*
X051121Y076053D01*
X051000Y076069D01*
X050879Y076053D01*
X050766Y076006D01*
X050668Y075932D01*
X050617Y075864D01*
X050569Y075880D01*
Y077613D01*
X050635Y077679D01*
X051102D01*
Y077856D01*
X051104Y077857D01*
X051150Y077872D01*
X051211Y077792D01*
X051294Y077729D01*
X051390Y077689D01*
X051444Y077682D01*
Y078075D01*
Y078468D01*
X051390Y078461D01*
X051294Y078421D01*
X051211Y078357D01*
X051150Y078277D01*
X051104Y078292D01*
X051102Y078293D01*
Y078471D01*
X050936D01*
Y079284D01*
X050918Y079371D01*
X050869Y079446D01*
X049849Y080465D01*
Y081995D01*
X050054Y082200D01*
X050089Y082185D01*
X050200Y082171D01*
X050311Y082185D01*
X050415Y082228D01*
X050504Y082296D01*
X050572Y082385D01*
X050615Y082489D01*
X050629Y082600D01*
X050615Y082711D01*
X050572Y082815D01*
X050504Y082904D01*
X050415Y082972D01*
X050311Y083015D01*
X050200Y083029D01*
D02*
G37*
G36*
X058000Y084849D02*
X057884Y084834D01*
X057775Y084789D01*
X057682Y084718D01*
X057611Y084625D01*
X057566Y084516D01*
X057551Y084400D01*
X057566Y084284D01*
X057611Y084175D01*
X057682Y084082D01*
X057775Y084011D01*
X057884Y083966D01*
X058000Y083951D01*
X058116Y083966D01*
X058225Y084011D01*
X058318Y084082D01*
X058389Y084175D01*
X058434Y084284D01*
X058449Y084400D01*
X058434Y084516D01*
X058389Y084625D01*
X058318Y084718D01*
X058225Y084789D01*
X058116Y084834D01*
X058000Y084849D01*
D02*
G37*
G36*
X059000D02*
X058884Y084834D01*
X058775Y084789D01*
X058682Y084718D01*
X058611Y084625D01*
X058566Y084516D01*
X058551Y084400D01*
X058566Y084284D01*
X058611Y084175D01*
X058682Y084082D01*
X058775Y084011D01*
X058884Y083966D01*
X059000Y083951D01*
X059116Y083966D01*
X059225Y084011D01*
X059318Y084082D01*
X059389Y084175D01*
X059434Y084284D01*
X059449Y084400D01*
X059434Y084516D01*
X059389Y084625D01*
X059318Y084718D01*
X059225Y084789D01*
X059116Y084834D01*
X059000Y084849D01*
D02*
G37*
G36*
X068650Y084043D02*
Y083650D01*
X069043D01*
X069034Y083716D01*
X068989Y083825D01*
X068918Y083918D01*
X068825Y083989D01*
X068716Y084034D01*
X068650Y084043D01*
D02*
G37*
G36*
X061950Y083843D02*
X061884Y083834D01*
X061775Y083789D01*
X061682Y083718D01*
X061611Y083625D01*
X061566Y083516D01*
X061557Y083450D01*
X061950D01*
Y083843D01*
D02*
G37*
G36*
X062050D02*
Y083450D01*
X062443D01*
X062434Y083516D01*
X062389Y083625D01*
X062318Y083718D01*
X062225Y083789D01*
X062116Y083834D01*
X062050Y083843D01*
D02*
G37*
G36*
X063000Y082629D02*
X062889Y082615D01*
X062785Y082572D01*
X062696Y082504D01*
X062628Y082415D01*
X062585Y082311D01*
X062571Y082200D01*
X062585Y082089D01*
X062628Y081985D01*
X062696Y081896D01*
X062785Y081828D01*
X062889Y081785D01*
X063000Y081771D01*
X063111Y081785D01*
X063215Y081828D01*
X063304Y081896D01*
X063372Y081985D01*
X063415Y082089D01*
X063429Y082200D01*
X063415Y082311D01*
X063372Y082415D01*
X063304Y082504D01*
X063215Y082572D01*
X063111Y082615D01*
X063000Y082629D01*
D02*
G37*
G36*
X069550Y080550D02*
X069157D01*
X069166Y080484D01*
X069211Y080375D01*
X069282Y080282D01*
X069375Y080211D01*
X069484Y080166D01*
X069550Y080157D01*
Y080550D01*
D02*
G37*
G36*
Y081043D02*
X069484Y081034D01*
X069375Y080989D01*
X069282Y080918D01*
X069211Y080825D01*
X069166Y080716D01*
X069157Y080650D01*
X069550D01*
Y081043D01*
D02*
G37*
G36*
X068600Y081049D02*
X068484Y081034D01*
X068375Y080989D01*
X068282Y080918D01*
X068211Y080825D01*
X068166Y080716D01*
X068151Y080600D01*
X068166Y080484D01*
X068211Y080375D01*
X068282Y080282D01*
X068375Y080211D01*
X068484Y080166D01*
X068600Y080151D01*
X068716Y080166D01*
X068825Y080211D01*
X068918Y080282D01*
X068989Y080375D01*
X069034Y080484D01*
X069049Y080600D01*
X069034Y080716D01*
X068989Y080825D01*
X068918Y080918D01*
X068825Y080989D01*
X068716Y081034D01*
X068600Y081049D01*
D02*
G37*
G36*
Y080049D02*
X068484Y080034D01*
X068375Y079989D01*
X068282Y079918D01*
X068211Y079825D01*
X068166Y079716D01*
X068151Y079600D01*
X068166Y079484D01*
X068211Y079375D01*
X068282Y079282D01*
X068375Y079211D01*
X068484Y079166D01*
X068600Y079151D01*
X068716Y079166D01*
X068825Y079211D01*
X068918Y079282D01*
X068989Y079375D01*
X069034Y079484D01*
X069049Y079600D01*
X069034Y079716D01*
X068989Y079825D01*
X068918Y079918D01*
X068825Y079989D01*
X068716Y080034D01*
X068600Y080049D01*
D02*
G37*
G36*
X051734Y082640D02*
X051514Y082623D01*
X051300Y082571D01*
X051096Y082487D01*
X050908Y082372D01*
X050741Y082229D01*
X050598Y082061D01*
X050483Y081873D01*
X050398Y081670D01*
X050347Y081456D01*
X050330Y081236D01*
X050347Y081016D01*
X050398Y080802D01*
X050483Y080598D01*
X050598Y080410D01*
X050741Y080243D01*
X050908Y080100D01*
X051096Y079985D01*
X051300Y079900D01*
X051514Y079849D01*
X051734Y079831D01*
X051954Y079849D01*
X052168Y079900D01*
X052371Y079985D01*
X052559Y080100D01*
X052727Y080243D01*
X052870Y080410D01*
X052985Y080598D01*
X053069Y080802D01*
X053121Y081016D01*
X053138Y081236D01*
X053121Y081456D01*
X053069Y081670D01*
X052985Y081873D01*
X052870Y082061D01*
X052727Y082229D01*
X052559Y082372D01*
X052371Y082487D01*
X052168Y082571D01*
X051954Y082623D01*
X051734Y082640D01*
D02*
G37*
G36*
X061423Y082150D02*
X061050D01*
Y081777D01*
X061080Y081781D01*
X061089Y081769D01*
X061107Y081738D01*
X061038Y081649D01*
X060993Y081541D01*
X060985Y081474D01*
X061377D01*
Y081867D01*
X061335Y081861D01*
X061310Y081905D01*
X061372Y081985D01*
X061415Y082089D01*
X061423Y082150D01*
D02*
G37*
G36*
X061477Y081867D02*
Y081474D01*
X061870D01*
X061861Y081541D01*
X061816Y081649D01*
X061745Y081742D01*
X061652Y081813D01*
X061543Y081858D01*
X061477Y081867D01*
D02*
G37*
G36*
X062427Y081874D02*
X062311Y081858D01*
X062203Y081813D01*
X062110Y081742D01*
X062038Y081649D01*
X061993Y081541D01*
X061978Y081424D01*
X061993Y081314D01*
X061863Y081185D01*
X061821Y081212D01*
X061861Y081308D01*
X061870Y081374D01*
X061477D01*
Y080982D01*
X061543Y080991D01*
X061639Y081030D01*
X061667Y080989D01*
X060808Y080129D01*
X054820D01*
X054732Y080112D01*
X054658Y080062D01*
X054028Y079432D01*
X053978Y079358D01*
X053961Y079270D01*
Y076485D01*
X053493Y076017D01*
X053400Y076029D01*
X053289Y076015D01*
X053185Y075972D01*
X053096Y075904D01*
X053028Y075815D01*
X052985Y075711D01*
X052971Y075600D01*
X052985Y075489D01*
X053028Y075385D01*
X053096Y075296D01*
X053185Y075228D01*
X053289Y075185D01*
X053400Y075171D01*
X053511Y075185D01*
X053615Y075228D01*
X053704Y075296D01*
X053772Y075385D01*
X053815Y075489D01*
X053829Y075600D01*
X053817Y075693D01*
X054352Y076228D01*
X054402Y076302D01*
X054419Y076390D01*
X054419Y076390D01*
X054419Y076390D01*
Y076390D01*
Y079175D01*
X054915Y079671D01*
X060903D01*
X060991Y079688D01*
X061065Y079738D01*
X061065Y079738D01*
X061065Y079738D01*
X062317Y080990D01*
X062427Y080975D01*
X062543Y080991D01*
X062652Y081035D01*
X062745Y081107D01*
X062816Y081200D01*
X062861Y081308D01*
X062876Y081424D01*
X062861Y081541D01*
X062816Y081649D01*
X062745Y081742D01*
X062652Y081813D01*
X062543Y081858D01*
X062427Y081874D01*
D02*
G37*
G36*
X060427D02*
X060311Y081858D01*
X060203Y081813D01*
X060110Y081742D01*
X060038Y081649D01*
X059993Y081541D01*
X059978Y081424D01*
X059993Y081308D01*
X060038Y081200D01*
X060110Y081107D01*
X060203Y081035D01*
X060311Y080991D01*
X060427Y080975D01*
X060543Y080991D01*
X060652Y081035D01*
X060745Y081107D01*
X060816Y081200D01*
X060861Y081308D01*
X060876Y081424D01*
X060861Y081541D01*
X060816Y081649D01*
X060745Y081742D01*
X060652Y081813D01*
X060543Y081858D01*
X060427Y081874D01*
D02*
G37*
G36*
X061377Y081374D02*
X060985D01*
X060993Y081308D01*
X061038Y081200D01*
X061110Y081107D01*
X061203Y081035D01*
X061311Y080991D01*
X061377Y080982D01*
Y081374D01*
D02*
G37*
G36*
X054043Y086950D02*
X053650D01*
Y086557D01*
X053716Y086566D01*
X053825Y086611D01*
X053918Y086682D01*
X053989Y086775D01*
X054034Y086884D01*
X054043Y086950D01*
D02*
G37*
G36*
X054900Y087629D02*
X054789Y087615D01*
X054685Y087572D01*
X054596Y087504D01*
X054528Y087415D01*
X054485Y087311D01*
X054471Y087200D01*
X054485Y087089D01*
X054528Y086985D01*
X054596Y086896D01*
X054685Y086828D01*
X054789Y086785D01*
X054900Y086771D01*
X055011Y086785D01*
X055115Y086828D01*
X055204Y086896D01*
X055272Y086985D01*
X055315Y087089D01*
X055329Y087200D01*
X055315Y087311D01*
X055272Y087415D01*
X055204Y087504D01*
X055115Y087572D01*
X055011Y087615D01*
X054900Y087629D01*
D02*
G37*
G36*
X053550Y086950D02*
X053157D01*
X053166Y086884D01*
X053211Y086775D01*
X053282Y086682D01*
X053375Y086611D01*
X053484Y086566D01*
X053550Y086557D01*
Y086950D01*
D02*
G37*
G36*
X055100Y086029D02*
X054989Y086015D01*
X054885Y085972D01*
X054796Y085904D01*
X054728Y085815D01*
X054685Y085711D01*
X054671Y085600D01*
X054685Y085489D01*
X054728Y085385D01*
X054796Y085296D01*
X054885Y085228D01*
X054989Y085185D01*
X055100Y085171D01*
X055211Y085185D01*
X055315Y085228D01*
X055404Y085296D01*
X055472Y085385D01*
X055515Y085489D01*
X055529Y085600D01*
X055515Y085711D01*
X055472Y085815D01*
X055404Y085904D01*
X055315Y085972D01*
X055211Y086015D01*
X055100Y086029D01*
D02*
G37*
G36*
X053045Y087445D02*
X052155D01*
Y086555D01*
X053045D01*
Y087445D01*
D02*
G37*
G36*
X064350Y087443D02*
X064284Y087434D01*
X064175Y087389D01*
X064082Y087318D01*
X064011Y087225D01*
X063966Y087116D01*
X063957Y087050D01*
X064350D01*
Y087443D01*
D02*
G37*
G36*
X064450D02*
Y087050D01*
X064843D01*
X064834Y087116D01*
X064789Y087225D01*
X064718Y087318D01*
X064625Y087389D01*
X064516Y087434D01*
X064450Y087443D01*
D02*
G37*
G36*
X053650D02*
Y087050D01*
X054043D01*
X054034Y087116D01*
X053989Y087225D01*
X053918Y087318D01*
X053825Y087389D01*
X053716Y087434D01*
X053650Y087443D01*
D02*
G37*
G36*
X057900Y087629D02*
X057789Y087615D01*
X057685Y087572D01*
X057596Y087504D01*
X057528Y087415D01*
X057485Y087311D01*
X057471Y087200D01*
X057485Y087089D01*
X057528Y086985D01*
X057596Y086896D01*
X057685Y086828D01*
X057789Y086785D01*
X057900Y086771D01*
X058011Y086785D01*
X058115Y086828D01*
X058204Y086896D01*
X058272Y086985D01*
X058315Y087089D01*
X058329Y087200D01*
X058315Y087311D01*
X058272Y087415D01*
X058204Y087504D01*
X058115Y087572D01*
X058011Y087615D01*
X057900Y087629D01*
D02*
G37*
G36*
X053550Y087443D02*
X053484Y087434D01*
X053375Y087389D01*
X053282Y087318D01*
X053211Y087225D01*
X053166Y087116D01*
X053157Y087050D01*
X053550D01*
Y087443D01*
D02*
G37*
G36*
X052100Y086029D02*
X051989Y086015D01*
X051885Y085972D01*
X051796Y085904D01*
X051728Y085815D01*
X051685Y085711D01*
X051671Y085600D01*
X051685Y085489D01*
X051728Y085385D01*
X051796Y085296D01*
X051885Y085228D01*
X051989Y085185D01*
X052100Y085171D01*
X052211Y085185D01*
X052315Y085228D01*
X052404Y085296D01*
X052472Y085385D01*
X052515Y085489D01*
X052529Y085600D01*
X052515Y085711D01*
X052472Y085815D01*
X052404Y085904D01*
X052315Y085972D01*
X052211Y086015D01*
X052100Y086029D01*
D02*
G37*
G36*
X053350Y084550D02*
X052977D01*
X052985Y084489D01*
X053028Y084385D01*
X053096Y084296D01*
X053185Y084228D01*
X053289Y084185D01*
X053350Y084177D01*
Y084550D01*
D02*
G37*
G36*
X053823D02*
X053450D01*
Y084177D01*
X053511Y084185D01*
X053615Y084228D01*
X053704Y084296D01*
X053772Y084385D01*
X053815Y084489D01*
X053823Y084550D01*
D02*
G37*
G36*
X050623D02*
X050250D01*
Y084177D01*
X050311Y084185D01*
X050415Y084228D01*
X050504Y084296D01*
X050572Y084385D01*
X050615Y084489D01*
X050623Y084550D01*
D02*
G37*
G36*
X062950Y084350D02*
X062557D01*
X062566Y084284D01*
X062611Y084175D01*
X062682Y084082D01*
X062775Y084011D01*
X062884Y083966D01*
X062950Y083957D01*
Y084350D01*
D02*
G37*
G36*
X050150Y084550D02*
X049777D01*
X049785Y084489D01*
X049828Y084385D01*
X049896Y084296D01*
X049985Y084228D01*
X050089Y084185D01*
X050150Y084177D01*
Y084550D01*
D02*
G37*
G36*
X053350Y085023D02*
X053289Y085015D01*
X053185Y084972D01*
X053096Y084904D01*
X053028Y084815D01*
X052985Y084711D01*
X052977Y084650D01*
X053350D01*
Y085023D01*
D02*
G37*
G36*
X053450D02*
Y084650D01*
X053823D01*
X053815Y084711D01*
X053772Y084815D01*
X053704Y084904D01*
X053615Y084972D01*
X053511Y085015D01*
X053450Y085023D01*
D02*
G37*
G36*
X050250D02*
Y084650D01*
X050623D01*
X050615Y084711D01*
X050572Y084815D01*
X050504Y084904D01*
X050415Y084972D01*
X050311Y085015D01*
X050250Y085023D01*
D02*
G37*
G36*
X059950Y084843D02*
X059884Y084834D01*
X059775Y084789D01*
X059682Y084718D01*
X059611Y084625D01*
X059566Y084516D01*
X059557Y084450D01*
X059950D01*
Y084843D01*
D02*
G37*
G36*
X050150Y085023D02*
X050089Y085015D01*
X049985Y084972D01*
X049896Y084904D01*
X049828Y084815D01*
X049785Y084711D01*
X049777Y084650D01*
X050150D01*
Y085023D01*
D02*
G37*
G36*
X053823Y073550D02*
X053450D01*
Y073177D01*
X053511Y073185D01*
X053615Y073228D01*
X053704Y073296D01*
X053772Y073385D01*
X053815Y073489D01*
X053823Y073550D01*
D02*
G37*
G36*
X056350Y075242D02*
X056166Y075224D01*
X055990Y075170D01*
X055827Y075083D01*
X055684Y074966D01*
X055567Y074823D01*
X055480Y074660D01*
X055426Y074484D01*
X055408Y074300D01*
X055426Y074116D01*
X055480Y073940D01*
X055567Y073777D01*
X055684Y073634D01*
X055827Y073517D01*
X055990Y073430D01*
X056166Y073376D01*
X056350Y073358D01*
X056534Y073376D01*
X056710Y073430D01*
X056873Y073517D01*
X057016Y073634D01*
X057133Y073777D01*
X057220Y073940D01*
X057274Y074116D01*
X057292Y074300D01*
X057274Y074484D01*
X057220Y074660D01*
X057133Y074823D01*
X057016Y074966D01*
X056873Y075083D01*
X056710Y075170D01*
X056534Y075224D01*
X056350Y075242D01*
D02*
G37*
G36*
X053350Y073550D02*
X052977D01*
X052985Y073489D01*
X053028Y073385D01*
X053096Y073296D01*
X053185Y073228D01*
X053289Y073185D01*
X053350Y073177D01*
Y073550D01*
D02*
G37*
G36*
X050950D02*
X050535D01*
Y073135D01*
X050950D01*
Y073550D01*
D02*
G37*
G36*
X051465D02*
X051050D01*
Y073135D01*
X051465D01*
Y073550D01*
D02*
G37*
G36*
Y074065D02*
X051050D01*
Y073650D01*
X051465D01*
Y074065D01*
D02*
G37*
G36*
X053350Y074023D02*
X053289Y074015D01*
X053185Y073972D01*
X053096Y073904D01*
X053028Y073815D01*
X052985Y073711D01*
X052977Y073650D01*
X053350D01*
Y074023D01*
D02*
G37*
G36*
X050950Y074065D02*
X050535D01*
Y073650D01*
X050950D01*
Y074065D01*
D02*
G37*
G36*
X060800Y075242D02*
X060616Y075224D01*
X060440Y075170D01*
X060277Y075083D01*
X060134Y074966D01*
X060017Y074823D01*
X059930Y074660D01*
X059876Y074484D01*
X059858Y074300D01*
X059876Y074116D01*
X059930Y073940D01*
X060017Y073777D01*
X060134Y073634D01*
X060277Y073517D01*
X060440Y073430D01*
X060616Y073376D01*
X060800Y073358D01*
X060984Y073376D01*
X061160Y073430D01*
X061323Y073517D01*
X061466Y073634D01*
X061583Y073777D01*
X061670Y073940D01*
X061724Y074116D01*
X061742Y074300D01*
X061724Y074484D01*
X061670Y074660D01*
X061583Y074823D01*
X061466Y074966D01*
X061323Y075083D01*
X061160Y075170D01*
X060984Y075224D01*
X060800Y075242D01*
D02*
G37*
G36*
X069044Y073793D02*
Y073450D01*
X069387D01*
X069380Y073503D01*
X069340Y073600D01*
X069276Y073682D01*
X069193Y073746D01*
X069097Y073786D01*
X069044Y073793D01*
D02*
G37*
G36*
X069387Y073350D02*
X069044D01*
Y073007D01*
X069097Y073014D01*
X069193Y073054D01*
X069276Y073118D01*
X069340Y073200D01*
X069380Y073297D01*
X069387Y073350D01*
D02*
G37*
G36*
X067542Y072077D02*
X066652D01*
Y071186D01*
X067542D01*
Y072077D01*
D02*
G37*
G36*
X049800Y072429D02*
X049689Y072415D01*
X049585Y072372D01*
X049496Y072304D01*
X049428Y072215D01*
X049385Y072111D01*
X049371Y072000D01*
X049385Y071889D01*
X049428Y071785D01*
X049496Y071696D01*
X049585Y071628D01*
X049689Y071585D01*
X049800Y071571D01*
X049911Y071585D01*
X050015Y071628D01*
X050104Y071696D01*
X050172Y071785D01*
X050215Y071889D01*
X050229Y072000D01*
X050215Y072111D01*
X050172Y072215D01*
X050104Y072304D01*
X050015Y072372D01*
X049911Y072415D01*
X049800Y072429D01*
D02*
G37*
G36*
X064147Y071074D02*
Y070682D01*
X064539D01*
X064531Y070748D01*
X064486Y070856D01*
X064414Y070949D01*
X064321Y071020D01*
X064213Y071065D01*
X064147Y071074D01*
D02*
G37*
G36*
X052190Y070596D02*
X051398D01*
Y070419D01*
X051396Y070418D01*
X051350Y070402D01*
X051289Y070482D01*
X051206Y070546D01*
X051110Y070586D01*
X051056Y070593D01*
Y070200D01*
Y069807D01*
X051110Y069814D01*
X051206Y069854D01*
X051289Y069918D01*
X051350Y069998D01*
X051396Y069982D01*
X051398Y069981D01*
Y069804D01*
X052190D01*
Y070596D01*
D02*
G37*
G36*
X064047Y071074D02*
X063981Y071065D01*
X063872Y071020D01*
X063779Y070949D01*
X063708Y070856D01*
X063663Y070748D01*
X063654Y070682D01*
X064047D01*
Y071074D01*
D02*
G37*
G36*
X051850Y072423D02*
Y072050D01*
X052223D01*
X052215Y072111D01*
X052172Y072215D01*
X052104Y072304D01*
X052015Y072372D01*
X051911Y072415D01*
X051850Y072423D01*
D02*
G37*
G36*
X068602Y073796D02*
X067810D01*
Y073328D01*
X067561Y073079D01*
X065350D01*
X065262Y073062D01*
X065188Y073012D01*
X064233Y072057D01*
X064213Y072065D01*
X064097Y072081D01*
X063981Y072065D01*
X063872Y072020D01*
X063779Y071949D01*
X063708Y071856D01*
X063663Y071748D01*
X063648Y071631D01*
X063663Y071515D01*
X063708Y071407D01*
X063779Y071314D01*
X063872Y071243D01*
X063981Y071198D01*
X064097Y071182D01*
X064213Y071198D01*
X064321Y071243D01*
X064414Y071314D01*
X064486Y071407D01*
X064531Y071515D01*
X064546Y071631D01*
X064535Y071711D01*
X065445Y072621D01*
X067656D01*
X067744Y072638D01*
X067819Y072688D01*
X067819Y072688D01*
X067819Y072688D01*
X068135Y073004D01*
X068602D01*
Y073181D01*
X068604Y073182D01*
X068650Y073198D01*
X068711Y073118D01*
X068794Y073054D01*
X068890Y073014D01*
X068944Y073007D01*
Y073400D01*
Y073793D01*
X068890Y073786D01*
X068794Y073746D01*
X068711Y073682D01*
X068650Y073602D01*
X068604Y073618D01*
X068602Y073619D01*
Y073796D01*
D02*
G37*
G36*
X051750Y072423D02*
X051689Y072415D01*
X051585Y072372D01*
X051496Y072304D01*
X051428Y072215D01*
X051385Y072111D01*
X051377Y072050D01*
X051750D01*
Y072423D01*
D02*
G37*
G36*
Y071950D02*
X051377D01*
X051385Y071889D01*
X051428Y071785D01*
X051496Y071696D01*
X051585Y071628D01*
X051689Y071585D01*
X051750Y071577D01*
Y071950D01*
D02*
G37*
G36*
X052223D02*
X051850D01*
Y071577D01*
X051911Y071585D01*
X052015Y071628D01*
X052104Y071696D01*
X052172Y071785D01*
X052215Y071889D01*
X052223Y071950D01*
D02*
G37*
G36*
X051544Y078468D02*
Y078125D01*
X051887D01*
X051880Y078178D01*
X051840Y078275D01*
X051776Y078357D01*
X051693Y078421D01*
X051597Y078461D01*
X051544Y078468D01*
D02*
G37*
G36*
X065500Y079149D02*
X065384Y079134D01*
X065275Y079089D01*
X065182Y079018D01*
X065111Y078925D01*
X065066Y078816D01*
X065051Y078700D01*
X065066Y078584D01*
X065111Y078475D01*
X065182Y078382D01*
X065275Y078311D01*
X065384Y078266D01*
X065500Y078251D01*
X065616Y078266D01*
X065725Y078311D01*
X065818Y078382D01*
X065889Y078475D01*
X065934Y078584D01*
X065949Y078700D01*
X065934Y078816D01*
X065889Y078925D01*
X065818Y079018D01*
X065725Y079089D01*
X065616Y079134D01*
X065500Y079149D01*
D02*
G37*
G36*
X051887Y078025D02*
X051544D01*
Y077682D01*
X051597Y077689D01*
X051693Y077729D01*
X051776Y077792D01*
X051840Y077875D01*
X051880Y077971D01*
X051887Y078025D01*
D02*
G37*
G36*
X066450Y077243D02*
X066384Y077234D01*
X066275Y077189D01*
X066182Y077118D01*
X066111Y077025D01*
X066066Y076916D01*
X066057Y076850D01*
X066450D01*
Y077243D01*
D02*
G37*
G36*
X066550D02*
Y076850D01*
X066943D01*
X066934Y076916D01*
X066889Y077025D01*
X066818Y077118D01*
X066725Y077189D01*
X066616Y077234D01*
X066550Y077243D01*
D02*
G37*
G36*
Y079143D02*
Y078750D01*
X066943D01*
X066934Y078816D01*
X066889Y078925D01*
X066818Y079018D01*
X066725Y079089D01*
X066616Y079134D01*
X066550Y079143D01*
D02*
G37*
G36*
X063050Y079389D02*
X057163D01*
X057075Y079372D01*
X057001Y079322D01*
X056537Y078859D01*
X056427Y078874D01*
X056311Y078858D01*
X056203Y078813D01*
X056110Y078742D01*
X056038Y078649D01*
X055993Y078541D01*
X055978Y078424D01*
X055993Y078308D01*
X056034Y078210D01*
X055993Y078182D01*
X055862Y078313D01*
X055876Y078424D01*
X055861Y078541D01*
X055816Y078649D01*
X055745Y078742D01*
X055652Y078813D01*
X055543Y078858D01*
X055427Y078874D01*
X055311Y078858D01*
X055203Y078813D01*
X055110Y078742D01*
X055038Y078649D01*
X054993Y078541D01*
X054978Y078424D01*
X054993Y078308D01*
X055038Y078200D01*
X055110Y078107D01*
X055203Y078035D01*
X055311Y077991D01*
X055427Y077975D01*
X055536Y077990D01*
X057078Y076448D01*
X057082Y076445D01*
X057090Y076396D01*
X057028Y076315D01*
X056985Y076211D01*
X056971Y076100D01*
X056985Y075989D01*
X057028Y075885D01*
X057096Y075796D01*
X057185Y075728D01*
X057289Y075685D01*
X057400Y075671D01*
X057511Y075685D01*
X057615Y075728D01*
X057704Y075796D01*
X057772Y075885D01*
X057815Y075989D01*
X057829Y076100D01*
X057815Y076211D01*
X057772Y076315D01*
X057756Y076336D01*
X057778Y076381D01*
X059022D01*
X059044Y076336D01*
X059028Y076315D01*
X058985Y076211D01*
X058977Y076150D01*
X059400D01*
Y076100D01*
X059450D01*
Y075677D01*
X059511Y075685D01*
X059615Y075728D01*
X059704Y075796D01*
X059772Y075885D01*
X059775Y075893D01*
X059825D01*
X059828Y075885D01*
X059896Y075796D01*
X059985Y075728D01*
X060089Y075685D01*
X060150Y075677D01*
Y076100D01*
X060200D01*
Y076150D01*
X060623D01*
X060615Y076211D01*
X060572Y076315D01*
X060556Y076336D01*
X060578Y076381D01*
X061822D01*
X061844Y076336D01*
X061828Y076315D01*
X061785Y076211D01*
X061771Y076100D01*
X061785Y075989D01*
X061828Y075885D01*
X061896Y075796D01*
X061985Y075728D01*
X062089Y075685D01*
X062200Y075671D01*
X062311Y075685D01*
X062415Y075728D01*
X062504Y075796D01*
X062572Y075885D01*
X062615Y075989D01*
X062629Y076100D01*
X062615Y076211D01*
X062572Y076315D01*
X062556Y076336D01*
X062578Y076381D01*
X064055D01*
Y076355D01*
X064945D01*
Y076875D01*
X064991Y076894D01*
X065055Y076831D01*
X065051Y076800D01*
X065066Y076684D01*
X065111Y076575D01*
X065182Y076482D01*
X065275Y076411D01*
X065384Y076366D01*
X065500Y076351D01*
X065616Y076366D01*
X065725Y076411D01*
X065818Y076482D01*
X065889Y076575D01*
X065934Y076684D01*
X065949Y076800D01*
X065934Y076916D01*
X065889Y077025D01*
X065818Y077118D01*
X065725Y077189D01*
X065616Y077234D01*
X065500Y077249D01*
X065384Y077234D01*
X065325Y077209D01*
X064326Y078209D01*
X064345Y078255D01*
X064945D01*
Y079145D01*
X064055D01*
Y078545D01*
X064009Y078526D01*
X063212Y079322D01*
X063138Y079372D01*
X063050Y079389D01*
D02*
G37*
G36*
X066450Y079143D02*
X066384Y079134D01*
X066275Y079089D01*
X066182Y079018D01*
X066111Y078925D01*
X066066Y078816D01*
X066057Y078750D01*
X066450D01*
Y079143D01*
D02*
G37*
G36*
Y078650D02*
X066057D01*
X066066Y078584D01*
X066111Y078475D01*
X066182Y078382D01*
X066275Y078311D01*
X066384Y078266D01*
X066450Y078257D01*
Y078650D01*
D02*
G37*
G36*
X066943D02*
X066550D01*
Y078257D01*
X066616Y078266D01*
X066725Y078311D01*
X066818Y078382D01*
X066889Y078475D01*
X066934Y078584D01*
X066943Y078650D01*
D02*
G37*
G36*
Y076750D02*
X066550D01*
Y076357D01*
X066616Y076366D01*
X066725Y076411D01*
X066818Y076482D01*
X066889Y076575D01*
X066934Y076684D01*
X066943Y076750D01*
D02*
G37*
G36*
X066450Y074950D02*
X066057D01*
X066066Y074884D01*
X066111Y074775D01*
X066182Y074682D01*
X066275Y074611D01*
X066384Y074566D01*
X066450Y074557D01*
Y074950D01*
D02*
G37*
G36*
X066943D02*
X066550D01*
Y074557D01*
X066616Y074566D01*
X066725Y074611D01*
X066818Y074682D01*
X066889Y074775D01*
X066934Y074884D01*
X066943Y074950D01*
D02*
G37*
G36*
X064945Y075445D02*
X064055D01*
Y074555D01*
X064945D01*
Y075445D01*
D02*
G37*
G36*
X053450Y074023D02*
Y073650D01*
X053823D01*
X053815Y073711D01*
X053772Y073815D01*
X053704Y073904D01*
X053615Y073972D01*
X053511Y074015D01*
X053450Y074023D01*
D02*
G37*
G36*
X065500Y075449D02*
X065384Y075434D01*
X065275Y075389D01*
X065182Y075318D01*
X065111Y075225D01*
X065066Y075116D01*
X065051Y075000D01*
X065066Y074884D01*
X065111Y074775D01*
X065182Y074682D01*
X065275Y074611D01*
X065384Y074566D01*
X065500Y074551D01*
X065616Y074566D01*
X065725Y074611D01*
X065818Y074682D01*
X065889Y074775D01*
X065934Y074884D01*
X065949Y075000D01*
X065934Y075116D01*
X065889Y075225D01*
X065818Y075318D01*
X065725Y075389D01*
X065616Y075434D01*
X065500Y075449D01*
D02*
G37*
G36*
X060623Y076050D02*
X060250D01*
Y075677D01*
X060311Y075685D01*
X060415Y075728D01*
X060504Y075796D01*
X060572Y075885D01*
X060615Y075989D01*
X060623Y076050D01*
D02*
G37*
G36*
X066450Y076750D02*
X066057D01*
X066066Y076684D01*
X066111Y076575D01*
X066182Y076482D01*
X066275Y076411D01*
X066384Y076366D01*
X066450Y076357D01*
Y076750D01*
D02*
G37*
G36*
X059350Y076050D02*
X058977D01*
X058985Y075989D01*
X059028Y075885D01*
X059096Y075796D01*
X059185Y075728D01*
X059289Y075685D01*
X059350Y075677D01*
Y076050D01*
D02*
G37*
G36*
X066450Y075443D02*
X066384Y075434D01*
X066275Y075389D01*
X066182Y075318D01*
X066111Y075225D01*
X066066Y075116D01*
X066057Y075050D01*
X066450D01*
Y075443D01*
D02*
G37*
G36*
X066550D02*
Y075050D01*
X066943D01*
X066934Y075116D01*
X066889Y075225D01*
X066818Y075318D01*
X066725Y075389D01*
X066616Y075434D01*
X066550Y075443D01*
D02*
G37*
%LPD*%
D10*
X067139Y081600D02*
X068600D01*
X066044Y082696D02*
X067139Y081600D01*
X069600Y079600D02*
X070120Y080120D01*
Y083815D01*
D11*
X064004Y082696D02*
X066044D01*
X063495Y083204D02*
X064004Y082696D01*
X063495Y083204D02*
Y084605D01*
X063130Y084970D02*
X063495Y084605D01*
X060870Y084970D02*
X063130D01*
X060505Y084605D02*
X060870Y084970D01*
X060505Y084204D02*
Y084605D01*
X060205Y083905D02*
X060505Y084204D01*
X059514Y083905D02*
X060205D01*
X059009Y083400D02*
X059514Y083905D01*
X059000Y083400D02*
X059009D01*
X060705Y083895D02*
X061486D01*
X060500Y083690D02*
X060705Y083895D01*
X060500Y083200D02*
Y083690D01*
X059395Y082905D02*
X060205D01*
X058970Y082480D02*
X059395Y082905D01*
X056730Y082480D02*
X058970D01*
X060205Y082905D02*
X060500Y083200D01*
X065500Y085600D02*
X066300D01*
X064505Y084605D02*
X065500Y085600D01*
X064505Y083905D02*
Y084605D01*
X064000Y083400D02*
X064505Y083905D01*
X068395Y083105D02*
X069095D01*
X068100Y083400D02*
X068395Y083105D01*
X069095D02*
X069600Y082600D01*
X056720Y082470D02*
X056730Y082480D01*
X061486Y083895D02*
X061991Y084400D01*
X062000D01*
X058490Y086160D02*
X066448D01*
X058380Y086480D02*
X066552D01*
X067770Y085262D01*
X057000Y084670D02*
X058490Y086160D01*
X056505Y084605D02*
X058380Y086480D01*
X067770Y084700D02*
Y085262D01*
X056505Y083905D02*
X057000Y083409D01*
X056505Y083905D02*
Y084605D01*
X067090Y084710D02*
Y085518D01*
X066448Y086160D02*
X067090Y085518D01*
D12*
X060624Y082775D02*
X062375D01*
X059819Y081970D02*
X060624Y082775D01*
X056237Y081970D02*
X059819D01*
X065000Y083400D02*
X068100D01*
X062375Y082775D02*
X063000Y083400D01*
X069526Y084410D02*
X070120Y083815D01*
X069150Y084410D02*
X069526D01*
X065780Y087780D02*
X069150Y084410D01*
X062860Y087780D02*
X065780D01*
X062120Y087040D02*
X062860Y087780D01*
X059404Y087040D02*
X062120D01*
X058841Y087603D02*
X059404Y087040D01*
X055427Y081424D02*
X055691D01*
X057000Y084400D02*
Y084670D01*
X055691Y081424D02*
X056237Y081970D01*
X065410Y076800D02*
X065500D01*
X063050Y079160D02*
X065410Y076800D01*
X057163Y079160D02*
X063050D01*
X056427Y078424D02*
X057163Y079160D01*
X064310Y076610D02*
X064500Y076800D01*
X057240Y076610D02*
X064310D01*
X055427Y078423D02*
X057240Y076610D01*
X055427Y078423D02*
Y078424D01*
X057000Y083400D02*
Y083409D01*
X050340Y077709D02*
X050706Y078075D01*
X050340Y075260D02*
Y077709D01*
Y075260D02*
X051000Y074600D01*
X067656Y072850D02*
X068206Y073400D01*
X065350Y072850D02*
X067656D01*
X064131Y071631D02*
X065350Y072850D01*
X064097Y071631D02*
X064131D01*
X067097Y069632D02*
X068172Y070706D01*
X068600D01*
X060903Y079900D02*
X062427Y081424D01*
X054820Y079900D02*
X060903D01*
X054190Y079270D02*
X054820Y079900D01*
X054190Y076390D02*
Y079270D01*
X053400Y075600D02*
X054190Y076390D01*
X049620Y082090D02*
X050130Y082600D01*
X049620Y080370D02*
Y082090D01*
Y080370D02*
X050706Y079284D01*
Y078075D02*
Y079284D01*
X067090Y084680D02*
Y084710D01*
X066790Y082600D02*
X066800Y082590D01*
X068590D01*
D13*
X068600Y083600D02*
D03*
X069600D02*
D03*
X068600Y082600D02*
D03*
X069600D02*
D03*
X068600Y081600D02*
D03*
X069600D02*
D03*
X068600Y080600D02*
D03*
X069600D02*
D03*
X068600Y079600D02*
D03*
X061597Y085635D02*
D03*
X058841D02*
D03*
Y087603D02*
D03*
X061597D02*
D03*
X050600Y063600D02*
D03*
X065500Y078700D02*
D03*
X066500D02*
D03*
X065500Y076800D02*
D03*
X066500D02*
D03*
X062200Y055000D02*
D03*
X063200D02*
D03*
X064200D02*
D03*
X065500Y075000D02*
D03*
X066500D02*
D03*
X056000Y084400D02*
D03*
X057000Y083400D02*
D03*
Y084400D02*
D03*
X058000Y083400D02*
D03*
Y084400D02*
D03*
X059000Y083400D02*
D03*
Y084400D02*
D03*
X060000Y083400D02*
D03*
Y084400D02*
D03*
X061000Y083400D02*
D03*
Y084400D02*
D03*
X062000Y083400D02*
D03*
Y084400D02*
D03*
X063000Y083400D02*
D03*
Y084400D02*
D03*
X064000Y083400D02*
D03*
Y084400D02*
D03*
X065000Y083400D02*
D03*
Y084400D02*
D03*
X053600Y087000D02*
D03*
X064400D02*
D03*
D14*
X069600Y079600D02*
D03*
D15*
X053400Y084600D02*
D03*
Y082600D02*
D03*
X051800Y072000D02*
D03*
X049800D02*
D03*
X062177Y077624D02*
D03*
X060177D02*
D03*
X059377D02*
D03*
X057377D02*
D03*
X062200Y076100D02*
D03*
X060200D02*
D03*
X057400D02*
D03*
X059400D02*
D03*
X065600Y054000D02*
D03*
X063600D02*
D03*
X063300Y085600D02*
D03*
X066300D02*
D03*
X052100D02*
D03*
X055100D02*
D03*
X063000Y082200D02*
D03*
X061000D02*
D03*
X065000Y062100D02*
D03*
Y060100D02*
D03*
X050200Y082600D02*
D03*
Y084600D02*
D03*
X057900Y087200D02*
D03*
X054900D02*
D03*
X069200Y056800D02*
D03*
Y058800D02*
D03*
X052600Y063000D02*
D03*
Y065000D02*
D03*
X053400Y073600D02*
D03*
Y075600D02*
D03*
X053200Y055400D02*
D03*
Y053400D02*
D03*
D16*
X051006Y070200D02*
D03*
X068600Y070706D02*
D03*
Y066106D02*
D03*
X068994Y068900D02*
D03*
Y073400D02*
D03*
X068600Y064694D02*
D03*
X051494Y078075D02*
D03*
X050806Y060800D02*
D03*
D17*
X051794Y070200D02*
D03*
X068206Y068900D02*
D03*
Y073400D02*
D03*
X050706Y078075D02*
D03*
X051594Y060800D02*
D03*
D18*
X067097Y071631D02*
D03*
D19*
Y070631D02*
D03*
Y069632D02*
D03*
Y068632D02*
D03*
Y067632D02*
D03*
Y066631D02*
D03*
Y065631D02*
D03*
Y064632D02*
D03*
X064097Y071631D02*
D03*
Y070631D02*
D03*
Y069632D02*
D03*
Y068632D02*
D03*
Y067632D02*
D03*
Y066631D02*
D03*
Y065631D02*
D03*
Y064632D02*
D03*
X061427Y078424D02*
D03*
X060427D02*
D03*
X059427D02*
D03*
X058427D02*
D03*
X057427D02*
D03*
X056427D02*
D03*
X055427D02*
D03*
X062427Y081424D02*
D03*
X061427D02*
D03*
X060427D02*
D03*
X059427D02*
D03*
X058427D02*
D03*
X057427D02*
D03*
X056427D02*
D03*
X055427D02*
D03*
X067200Y062600D02*
D03*
X068200D02*
D03*
X069200D02*
D03*
X066200Y059600D02*
D03*
X067200D02*
D03*
X068200D02*
D03*
X069200D02*
D03*
D20*
X068600Y071494D02*
D03*
Y066894D02*
D03*
Y063906D02*
D03*
D21*
X051500Y067775D02*
D03*
Y066775D02*
D03*
D22*
Y065775D02*
D03*
D23*
X051600Y063600D02*
D03*
X064500Y078700D02*
D03*
Y076800D02*
D03*
X065200Y055000D02*
D03*
X064500Y075000D02*
D03*
X056000Y083400D02*
D03*
X052600Y087000D02*
D03*
X065400D02*
D03*
D24*
X051734Y057736D02*
D03*
X065234D02*
D03*
Y081236D02*
D03*
X051734D02*
D03*
X050400Y086700D02*
D03*
X069000D02*
D03*
Y054200D02*
D03*
X050400D02*
D03*
D25*
X062427Y078424D02*
D03*
X066200Y062600D02*
D03*
D26*
X058500Y053700D02*
D03*
X055000D02*
D03*
D27*
X060850Y057100D02*
D03*
X056350D02*
D03*
Y074300D02*
D03*
X060800D02*
D03*
D28*
X051000Y073600D02*
D03*
D29*
Y074600D02*
D03*
Y075600D02*
D03*
D30*
X066790Y082600D02*
D03*
X056720Y082470D02*
D03*
X067090Y084710D02*
D03*
X067770Y084700D02*
D03*
M02*
