%FSAX24Y24*%
%MOIN*%
G70*
G01*
G75*
G04 Layer_Color=65535*
%ADD10C,0.0120*%
%ADD11C,0.0100*%
%ADD12C,0.0150*%
%ADD13C,0.0591*%
%ADD14R,0.0591X0.0591*%
%ADD15C,0.0551*%
%ADD16C,0.0492*%
%ADD17R,0.0492X0.0492*%
%ADD18R,0.0591X0.0591*%
%ADD19C,0.0591*%
%ADD20R,0.0492X0.0492*%
%ADD21C,0.0669*%
%ADD22R,0.0669X0.0669*%
%ADD23R,0.0591X0.0591*%
%ADD24C,0.2500*%
%ADD25R,0.0591X0.0591*%
%ADD26C,0.1378*%
%ADD27C,0.1575*%
%ADD28R,0.0630X0.0630*%
%ADD29C,0.0630*%
%ADD30C,0.0500*%
%ADD31C,0.0079*%
%ADD32C,0.0400*%
%ADD33C,0.0098*%
%ADD34C,0.0197*%
%ADD35C,0.0080*%
%ADD36C,0.0050*%
%ADD37C,0.0059*%
G36*
X058008Y073101D02*
X058152Y072900D01*
X058090D01*
X057992Y073037D01*
X057992Y073037D01*
X057991Y073039D01*
X057990Y073041D01*
X057987Y073044D01*
X057983Y073052D01*
X057977Y073060D01*
X057976Y073060D01*
X057974Y073057D01*
X057973Y073054D01*
X057970Y073049D01*
X057963Y073040D01*
X057960Y073036D01*
X057958Y073033D01*
X057861Y072900D01*
X057800D01*
X057949Y073099D01*
X057818Y073284D01*
X057878D01*
X057948Y073185D01*
Y073185D01*
X057949Y073184D01*
X057952Y073180D01*
X057956Y073175D01*
X057960Y073169D01*
X057965Y073161D01*
X057970Y073153D01*
X057974Y073146D01*
X057978Y073139D01*
X057979Y073140D01*
X057981Y073142D01*
X057984Y073146D01*
X057987Y073152D01*
X057991Y073158D01*
X057997Y073166D01*
X058002Y073173D01*
X058009Y073181D01*
X058086Y073284D01*
X058142D01*
X058008Y073101D01*
D02*
G37*
G36*
X058648Y071697D02*
X058736Y071580D01*
X058672D01*
X058617Y071655D01*
X058562Y071580D01*
X058500D01*
X058586Y071696D01*
X058507Y071805D01*
X058567D01*
X058618Y071738D01*
X058668Y071805D01*
X058728D01*
X058648Y071697D01*
D02*
G37*
G36*
X058247Y071389D02*
X058031Y071123D01*
X058008Y071095D01*
X058254D01*
Y071050D01*
X057950D01*
Y071097D01*
X058146Y071343D01*
Y071344D01*
X058147Y071344D01*
X058149Y071348D01*
X058154Y071352D01*
X058159Y071359D01*
X058165Y071366D01*
X058172Y071374D01*
X058179Y071382D01*
X058186Y071389D01*
X057972D01*
Y071434D01*
X058247D01*
Y071389D01*
D02*
G37*
G36*
X060448Y071663D02*
Y071500D01*
X060397D01*
Y071663D01*
X060249Y071884D01*
X060311D01*
X060387Y071768D01*
Y071767D01*
X060388Y071767D01*
X060389Y071765D01*
X060390Y071763D01*
X060394Y071756D01*
X060400Y071748D01*
X060406Y071738D01*
X060412Y071727D01*
X060419Y071715D01*
X060426Y071703D01*
Y071704D01*
X060427Y071704D01*
X060428Y071706D01*
X060429Y071708D01*
X060433Y071715D01*
X060438Y071723D01*
X060444Y071733D01*
X060451Y071745D01*
X060459Y071757D01*
X060468Y071771D01*
X060542Y071884D01*
X060602D01*
X060448Y071663D01*
D02*
G37*
D11*
X060809Y086619D02*
G03*
X060809Y086619I-000591J000000D01*
G01*
X058916Y071700D02*
G03*
X058916Y071700I-000316J000000D01*
G01*
X068200Y078120D02*
X068150Y078170D01*
X068050D01*
X068000Y078120D01*
Y077920D01*
X068050Y077870D01*
X068150D01*
X068200Y077920D01*
Y078020D01*
X068100D01*
X068300Y077870D02*
Y078170D01*
X068450D01*
X068500Y078120D01*
Y078020D01*
X068450Y077970D01*
X068300D01*
X068800Y078120D02*
X068750Y078170D01*
X068650D01*
X068600Y078120D01*
Y078070D01*
X068650Y078020D01*
X068750D01*
X068800Y077970D01*
Y077920D01*
X068750Y077870D01*
X068650D01*
X068600Y077920D01*
X068900Y077820D02*
X069100D01*
X069200Y077870D02*
Y078170D01*
X069350D01*
X069400Y078120D01*
Y078020D01*
X069350Y077970D01*
X069200D01*
X069500Y078170D02*
X069599D01*
X069549D01*
Y077870D01*
X069500D01*
X069599D01*
X069749D02*
Y078170D01*
X069949Y077870D01*
Y078170D01*
X070249Y078120D02*
X070199Y078170D01*
X070099D01*
X070049Y078120D01*
Y078070D01*
X070099Y078020D01*
X070199D01*
X070249Y077970D01*
Y077920D01*
X070199Y077870D01*
X070099D01*
X070049Y077920D01*
X050100Y069300D02*
Y069500D01*
Y069400D01*
X049500D01*
X049600Y069300D01*
Y069800D02*
X049500Y069900D01*
Y070100D01*
X049600Y070200D01*
X050000D01*
X050100Y070100D01*
Y069900D01*
X050000Y069800D01*
X049600D01*
X049700Y070400D02*
X050000D01*
X050100Y070500D01*
Y070800D01*
X049700D01*
X049500Y071399D02*
Y070999D01*
X049800D01*
Y071199D01*
Y070999D01*
X050100D01*
X070300Y063500D02*
Y063700D01*
Y063600D01*
X069700D01*
X069800Y063500D01*
X069900Y064000D02*
X070200D01*
X070300Y064100D01*
Y064400D01*
X069900D01*
X069700Y065000D02*
Y064600D01*
X070000D01*
Y064800D01*
Y064600D01*
X070300D01*
X067900Y074600D02*
X068100D01*
X068000D01*
Y075200D01*
X067900Y075100D01*
X068400Y075000D02*
Y074700D01*
X068500Y074600D01*
X068800D01*
Y075000D01*
X069400Y075200D02*
X069000D01*
Y074900D01*
X069200D01*
X069000D01*
Y074600D01*
X070300Y068100D02*
Y068300D01*
Y068200D01*
X069700D01*
X069800Y068100D01*
X069900Y068600D02*
X070200D01*
X070300Y068700D01*
Y069000D01*
X069900D01*
X069700Y069600D02*
Y069200D01*
X070000D01*
Y069400D01*
Y069200D01*
X070300D01*
Y065800D02*
Y066000D01*
Y065900D01*
X069700D01*
X069800Y065800D01*
X069900Y066300D02*
X070200D01*
X070300Y066400D01*
Y066700D01*
X069900D01*
X069700Y067300D02*
Y066900D01*
X070000D01*
Y067100D01*
Y066900D01*
X070300D01*
Y070400D02*
Y070600D01*
Y070500D01*
X069700D01*
X069800Y070400D01*
X069900Y070900D02*
X070200D01*
X070300Y071000D01*
Y071300D01*
X069900D01*
X069700Y071900D02*
Y071500D01*
X070000D01*
Y071700D01*
Y071500D01*
X070300D01*
X049100Y073700D02*
X049700D01*
Y074100D01*
X049100Y074300D02*
X049700D01*
Y074600D01*
X049600Y074700D01*
X049200D01*
X049100Y074600D01*
Y074300D01*
X049200Y074900D02*
X049100Y075000D01*
Y075200D01*
X049200Y075299D01*
X049300D01*
X049400Y075200D01*
Y075100D01*
Y075200D01*
X049500Y075299D01*
X049600D01*
X049700Y075200D01*
Y075000D01*
X049600Y074900D01*
X049200Y075499D02*
X049100Y075599D01*
Y075799D01*
X049200Y075899D01*
X049300D01*
X049400Y075799D01*
Y075699D01*
Y075799D01*
X049500Y075899D01*
X049600D01*
X049700Y075799D01*
Y075599D01*
X049600Y075499D01*
X049500Y065500D02*
X050100D01*
Y065900D01*
X049500Y066100D02*
Y066500D01*
X049600D01*
X050000Y066100D01*
X050100D01*
X049600Y066700D02*
X049500Y066800D01*
Y067000D01*
X049600Y067099D01*
X049700D01*
X049800Y067000D01*
X049900Y067099D01*
X050000D01*
X050100Y067000D01*
Y066800D01*
X050000Y066700D01*
X049900D01*
X049800Y066800D01*
X049700Y066700D01*
X049600D01*
X049800Y066800D02*
Y067000D01*
X049600Y067299D02*
X049500Y067399D01*
Y067599D01*
X049600Y067699D01*
X050000D01*
X050100Y067599D01*
Y067399D01*
X050000Y067299D01*
X049600D01*
X049500Y068299D02*
Y067899D01*
X049800D01*
X049700Y068099D01*
Y068199D01*
X049800Y068299D01*
X050000D01*
X050100Y068199D01*
Y067999D01*
X050000Y067899D01*
X059900Y055300D02*
X060100D01*
X060000D01*
Y054700D01*
X059900D01*
X060100D01*
X060400D02*
Y055300D01*
X060600Y055100D01*
X060800Y055300D01*
Y054700D01*
X061000Y055300D02*
Y054800D01*
X061100Y054700D01*
X061300D01*
X061400Y054800D01*
Y055300D01*
X054100Y083500D02*
X054000Y083400D01*
Y083200D01*
X054100Y083100D01*
X054500D01*
X054600Y083200D01*
Y083400D01*
X054500Y083500D01*
X054300D01*
Y083300D01*
X054600Y083700D02*
X054000D01*
Y084000D01*
X054100Y084100D01*
X054300D01*
X054400Y084000D01*
Y083700D01*
X054100Y084699D02*
X054000Y084600D01*
Y084400D01*
X054100Y084300D01*
X054200D01*
X054300Y084400D01*
Y084600D01*
X054400Y084699D01*
X054500D01*
X054600Y084600D01*
Y084400D01*
X054500Y084300D01*
X064250Y074290D02*
X064383D01*
X064317D01*
Y073890D01*
X064250D01*
X064383D01*
X064583D02*
Y074290D01*
X064717Y074157D01*
X064850Y074290D01*
Y073890D01*
X064983Y074290D02*
Y073957D01*
X065050Y073890D01*
X065183D01*
X065250Y073957D01*
Y074290D01*
X065383Y073823D02*
X065650D01*
X065983Y074290D02*
X065849D01*
X065783Y074223D01*
Y073957D01*
X065849Y073890D01*
X065983D01*
X066049Y073957D01*
Y074223D01*
X065983Y074290D01*
X066183D02*
Y073957D01*
X066249Y073890D01*
X066383D01*
X066449Y073957D01*
Y074290D01*
X066583D02*
X066849D01*
X066716D01*
Y073890D01*
X064517Y076043D02*
X064450Y076110D01*
X064317D01*
X064250Y076043D01*
Y075777D01*
X064317Y075710D01*
X064450D01*
X064517Y075777D01*
Y075910D01*
X064383D01*
X064650Y075710D02*
Y076110D01*
X064850D01*
X064916Y076043D01*
Y075910D01*
X064850Y075843D01*
X064650D01*
X065316Y076043D02*
X065250Y076110D01*
X065116D01*
X065050Y076043D01*
Y075977D01*
X065116Y075910D01*
X065250D01*
X065316Y075843D01*
Y075777D01*
X065250Y075710D01*
X065116D01*
X065050Y075777D01*
X065450Y075643D02*
X065716D01*
X066116Y076043D02*
X066049Y076110D01*
X065916D01*
X065849Y076043D01*
Y075777D01*
X065916Y075710D01*
X066049D01*
X066116Y075777D01*
X066249Y076110D02*
Y075710D01*
Y075910D01*
X066516D01*
Y076110D01*
Y075710D01*
X066916D02*
X066649D01*
X066916Y075977D01*
Y076043D01*
X066849Y076110D01*
X066716D01*
X066649Y076043D01*
X064517Y077933D02*
X064450Y078000D01*
X064317D01*
X064250Y077933D01*
Y077667D01*
X064317Y077600D01*
X064450D01*
X064517Y077667D01*
Y077800D01*
X064383D01*
X064650Y077600D02*
Y078000D01*
X064850D01*
X064916Y077933D01*
Y077800D01*
X064850Y077733D01*
X064650D01*
X065316Y077933D02*
X065250Y078000D01*
X065116D01*
X065050Y077933D01*
Y077867D01*
X065116Y077800D01*
X065250D01*
X065316Y077733D01*
Y077667D01*
X065250Y077600D01*
X065116D01*
X065050Y077667D01*
X065450Y077533D02*
X065716D01*
X066116Y077933D02*
X066049Y078000D01*
X065916D01*
X065849Y077933D01*
Y077667D01*
X065916Y077600D01*
X066049D01*
X066116Y077667D01*
X066249Y078000D02*
Y077600D01*
Y077800D01*
X066516D01*
Y078000D01*
Y077600D01*
X066649D02*
X066783D01*
X066716D01*
Y078000D01*
X066649Y077933D01*
X050400Y062325D02*
Y062925D01*
X050700D01*
X050800Y062825D01*
Y062625D01*
X050700Y062525D01*
X050400D01*
X051000Y062925D02*
Y062325D01*
X051200Y062525D01*
X051400Y062325D01*
Y062925D01*
X051600Y062325D02*
Y062925D01*
X051900D01*
X051999Y062825D01*
Y062625D01*
X051900Y062525D01*
X051600D01*
X051800D02*
X051999Y062325D01*
X049900Y077100D02*
Y077300D01*
Y077200D01*
X049300D01*
X049400Y077100D01*
Y077600D02*
X049300Y077700D01*
Y077900D01*
X049400Y078000D01*
X049800D01*
X049900Y077900D01*
Y077700D01*
X049800Y077600D01*
X049400D01*
X049500Y078200D02*
X049800D01*
X049900Y078300D01*
Y078600D01*
X049500D01*
X049300Y079199D02*
Y078799D01*
X049600D01*
Y078999D01*
Y078799D01*
X049900D01*
Y060100D02*
Y060300D01*
Y060200D01*
X049300D01*
X049400Y060100D01*
Y060600D02*
X049300Y060700D01*
Y060900D01*
X049400Y061000D01*
X049800D01*
X049900Y060900D01*
Y060700D01*
X049800Y060600D01*
X049400D01*
X049500Y061200D02*
X049800D01*
X049900Y061300D01*
Y061600D01*
X049500D01*
X049300Y062199D02*
Y061799D01*
X049600D01*
Y061999D01*
Y061799D01*
X049900D01*
X056400Y069400D02*
Y070000D01*
X056600Y069800D01*
X056800Y070000D01*
Y069400D01*
X057400Y070000D02*
X057000D01*
Y069400D01*
X057400D01*
X057000Y069700D02*
X057200D01*
X057600Y069400D02*
Y070000D01*
X057800Y069800D01*
X057999Y070000D01*
Y069400D01*
X058599Y069900D02*
X058499Y070000D01*
X058299D01*
X058199Y069900D01*
Y069800D01*
X058299Y069700D01*
X058499D01*
X058599Y069600D01*
Y069500D01*
X058499Y069400D01*
X058299D01*
X058199Y069500D01*
X059199Y070000D02*
X058799D01*
Y069400D01*
X059199D01*
X058799Y069700D02*
X058999D01*
X059399Y069400D02*
Y070000D01*
X059799Y069400D01*
Y070000D01*
X060399Y069900D02*
X060299Y070000D01*
X060099D01*
X059999Y069900D01*
Y069800D01*
X060099Y069700D01*
X060299D01*
X060399Y069600D01*
Y069500D01*
X060299Y069400D01*
X060099D01*
X059999Y069500D01*
X060999Y070000D02*
X060599D01*
Y069400D01*
X060999D01*
X060599Y069700D02*
X060799D01*
X056451Y068550D02*
Y069150D01*
X056851Y068550D01*
Y069150D01*
X057151Y068950D02*
X057350D01*
X057450Y068850D01*
Y068550D01*
X057151D01*
X057051Y068650D01*
X057151Y068750D01*
X057450D01*
X057650Y068550D02*
Y068950D01*
X057950D01*
X058050Y068850D01*
Y068550D01*
X058350D02*
X058550D01*
X058650Y068650D01*
Y068850D01*
X058550Y068950D01*
X058350D01*
X058250Y068850D01*
Y068650D01*
X058350Y068550D01*
X059450Y069150D02*
X059650D01*
X059550D01*
Y068550D01*
X059450D01*
X059650D01*
X059950D02*
Y069150D01*
X060150Y068950D01*
X060349Y069150D01*
Y068550D01*
X060549Y069150D02*
Y068650D01*
X060649Y068550D01*
X060849D01*
X060949Y068650D01*
Y069150D01*
D12*
X059850Y071450D02*
X060100Y071700D01*
X059850Y071950D02*
X060100Y071700D01*
X058600Y073200D02*
X058850Y072950D01*
X058350D02*
X058600Y073200D01*
Y072050D02*
Y073200D01*
X058950Y071700D02*
X060100D01*
D31*
X052384Y070200D02*
G03*
X052384Y070200I-000984J000000D01*
G01*
X069584Y071100D02*
G03*
X069584Y071100I-000984J000000D01*
G01*
Y066500D02*
G03*
X069584Y066500I-000984J000000D01*
G01*
Y068900D02*
G03*
X069584Y068900I-000984J000000D01*
G01*
Y073400D02*
G03*
X069584Y073400I-000984J000000D01*
G01*
Y064300D02*
G03*
X069584Y064300I-000984J000000D01*
G01*
X052084Y078075D02*
G03*
X052084Y078075I-000984J000000D01*
G01*
X052184Y060800D02*
G03*
X052184Y060800I-000984J000000D01*
G01*
X070100Y079100D02*
Y084100D01*
X068100Y079100D02*
Y084100D01*
Y079100D02*
X070100D01*
X068100Y084100D02*
X070100D01*
X050555Y064728D02*
Y068822D01*
X050358Y064728D02*
X052169D01*
Y068822D01*
X050358D02*
X052169D01*
X050358Y064728D02*
Y068822D01*
X050100Y063100D02*
Y064100D01*
X052100D01*
Y063100D02*
Y064100D01*
X050100Y063100D02*
X052100D01*
X064000Y078200D02*
X067000D01*
Y079200D01*
X064000D02*
X067000D01*
X064000Y078200D02*
Y079200D01*
Y076300D02*
X067000D01*
Y077300D01*
X064000D02*
X067000D01*
X064000Y076300D02*
Y077300D01*
X065700Y054500D02*
Y055500D01*
X061700Y054500D02*
X065700D01*
X061700Y055500D02*
X065700D01*
X061700Y054500D02*
Y055500D01*
X064000Y074500D02*
X067000D01*
Y075500D01*
X064000D02*
X067000D01*
X064000Y074500D02*
Y075500D01*
X065500Y082900D02*
Y084900D01*
X055500Y082900D02*
X056250D01*
X055500D02*
Y084900D01*
X056250D01*
X065500D01*
X056250Y082900D02*
X065500D01*
X054100Y086500D02*
Y087500D01*
X052100Y086500D02*
X054100D01*
X052100D02*
Y087500D01*
X054100D01*
X063900Y086500D02*
Y087500D01*
X065900D01*
Y086500D02*
Y087500D01*
X063900Y086500D02*
X065900D01*
X050075Y072494D02*
Y076706D01*
X049878Y072494D02*
Y076706D01*
X051728Y072494D02*
Y076706D01*
X049878Y072494D02*
X051728D01*
X049878Y076706D02*
X051728D01*
D32*
X054200Y057200D02*
G03*
X055450Y055950I001250J000000D01*
G01*
X061950D02*
G03*
X063200Y057200I000000J001250D01*
G01*
X055450Y075450D02*
G03*
X054200Y074200I000000J-001250D01*
G01*
X063200D02*
G03*
X061950Y075450I-001250J000000D01*
G01*
X055450Y055950D02*
X061950D01*
X054200Y057200D02*
Y074200D01*
X063200Y057200D02*
Y074200D01*
X055450Y075450D02*
X061950D01*
D33*
X051522Y072750D02*
G03*
X051522Y072750I-000049J000000D01*
G01*
D34*
X059038Y087800D02*
X061400D01*
X059038Y085438D02*
Y087800D01*
Y085438D02*
X061400D01*
Y087800D01*
X058841Y085635D02*
X059038D01*
X058841Y087603D02*
X059038D01*
X061400D02*
X061597D01*
X061400Y085635D02*
X061597D01*
D35*
X068800Y084200D02*
Y084367D01*
Y084283D01*
X068300D01*
X068383Y084200D01*
Y084617D02*
X068300Y084700D01*
Y084866D01*
X068383Y084950D01*
X068717D01*
X068800Y084866D01*
Y084700D01*
X068717Y084617D01*
X068383D01*
X069717Y084200D02*
X069800Y084283D01*
Y084450D01*
X069717Y084533D01*
X069383D01*
X069300Y084450D01*
Y084283D01*
X069383Y084200D01*
X069467D01*
X069550Y084283D01*
Y084533D01*
X069800Y078800D02*
Y078967D01*
Y078883D01*
X069300D01*
X069383Y078800D01*
X068800Y078933D02*
Y078600D01*
X068467Y078933D01*
X068383D01*
X068300Y078850D01*
Y078683D01*
X068383Y078600D01*
X062500Y085730D02*
X062100D01*
Y085930D01*
X062167Y085997D01*
X062300D01*
X062367Y085930D01*
Y085730D01*
Y085863D02*
X062500Y085997D01*
X062100Y086396D02*
Y086130D01*
X062500D01*
Y086396D01*
X062300Y086130D02*
Y086263D01*
X062167Y086796D02*
X062100Y086730D01*
Y086596D01*
X062167Y086530D01*
X062233D01*
X062300Y086596D01*
Y086730D01*
X062367Y086796D01*
X062433D01*
X062500Y086730D01*
Y086596D01*
X062433Y086530D01*
X062100Y087196D02*
Y086930D01*
X062500D01*
Y087196D01*
X062300Y086930D02*
Y087063D01*
X062100Y087329D02*
Y087596D01*
Y087463D01*
X062500D01*
X063840Y087720D02*
Y088120D01*
X064040D01*
X064107Y088053D01*
Y087920D01*
X064040Y087853D01*
X063840D01*
X064240Y088120D02*
Y087853D01*
X064373Y087720D01*
X064506Y087853D01*
Y088120D01*
X064640Y087653D02*
X064906D01*
X065040Y088120D02*
Y087720D01*
X065306D01*
X065706Y088120D02*
X065439D01*
Y087720D01*
X065706D01*
X065439Y087920D02*
X065573D01*
X065839Y088120D02*
Y087720D01*
X066039D01*
X066106Y087787D01*
Y088053D01*
X066039Y088120D01*
X065839D01*
X051790Y087690D02*
Y088090D01*
X051990D01*
X052057Y088023D01*
Y087890D01*
X051990Y087823D01*
X051790D01*
X052190Y088090D02*
Y087690D01*
X052323Y087823D01*
X052456Y087690D01*
Y088090D01*
X052590Y087690D02*
Y088090D01*
X052790D01*
X052856Y088023D01*
Y087890D01*
X052790Y087823D01*
X052590D01*
X052723D02*
X052856Y087690D01*
X052990Y087623D02*
X053256D01*
X053389Y088090D02*
Y087690D01*
X053656D01*
X054056Y088090D02*
X053789D01*
Y087690D01*
X054056D01*
X053789Y087890D02*
X053923D01*
X054189Y088090D02*
Y087690D01*
X054389D01*
X054456Y087757D01*
Y088023D01*
X054389Y088090D01*
X054189D01*
X065933Y084200D02*
X065600D01*
X065933Y084533D01*
Y084617D01*
X065850Y084700D01*
X065683D01*
X065600Y084617D01*
X066100D02*
X066183Y084700D01*
X066350D01*
X066433Y084617D01*
Y084283D01*
X066350Y084200D01*
X066183D01*
X066100Y084283D01*
Y084617D01*
X065600Y083200D02*
X065767D01*
X065683D01*
Y083700D01*
X065600Y083617D01*
X066017Y083283D02*
X066100Y083200D01*
X066266D01*
X066350Y083283D01*
Y083617D01*
X066266Y083700D01*
X066100D01*
X066017Y083617D01*
Y083533D01*
X066100Y083450D01*
X066350D01*
X055000Y083200D02*
X055167D01*
X055083D01*
Y083700D01*
X055000Y083617D01*
X055333Y084200D02*
X055000D01*
X055333Y084533D01*
Y084617D01*
X055250Y084700D01*
X055083D01*
X055000Y084617D01*
D36*
X070430Y082340D02*
X070230D01*
Y082440D01*
X070263Y082473D01*
X070330D01*
X070363Y082440D01*
Y082340D01*
X070430Y082540D02*
X070230D01*
Y082640D01*
X070263Y082673D01*
X070330D01*
X070363Y082640D01*
Y082540D01*
X070263Y082873D02*
X070230Y082840D01*
Y082773D01*
X070263Y082740D01*
X070297D01*
X070330Y082773D01*
Y082840D01*
X070363Y082873D01*
X070397D01*
X070430Y082840D01*
Y082773D01*
X070397Y082740D01*
X067750Y080260D02*
X067917D01*
X067950Y080293D01*
Y080360D01*
X067917Y080393D01*
X067750D01*
X067783Y080593D02*
X067750Y080560D01*
Y080493D01*
X067783Y080460D01*
X067817D01*
X067850Y080493D01*
Y080560D01*
X067883Y080593D01*
X067917D01*
X067950Y080560D01*
Y080493D01*
X067917Y080460D01*
X067750Y080660D02*
X067950D01*
Y080760D01*
X067917Y080793D01*
X067883D01*
X067850Y080760D01*
Y080660D01*
Y080760D01*
X067817Y080793D01*
X067783D01*
X067750Y080760D01*
Y080660D01*
X067850Y080860D02*
Y080993D01*
X067760Y082483D02*
Y082350D01*
X067960D01*
Y082483D01*
X067860Y082350D02*
Y082417D01*
X067760Y082550D02*
X067893D01*
X067960Y082617D01*
X067893Y082683D01*
X067760D01*
X067960Y082750D02*
Y082817D01*
Y082783D01*
X067760D01*
X067793Y082750D01*
X070243Y083443D02*
X070210Y083410D01*
Y083343D01*
X070243Y083310D01*
X070377D01*
X070410Y083343D01*
Y083410D01*
X070377Y083443D01*
X070310D01*
Y083377D01*
X070410Y083510D02*
X070210D01*
X070410Y083643D01*
X070210D01*
Y083710D02*
X070410D01*
Y083810D01*
X070377Y083843D01*
X070243D01*
X070210Y083810D01*
Y083710D01*
X070253Y080473D02*
X070220Y080440D01*
Y080373D01*
X070253Y080340D01*
X070387D01*
X070420Y080373D01*
Y080440D01*
X070387Y080473D01*
X070320D01*
Y080407D01*
X070420Y080540D02*
X070220D01*
X070420Y080673D01*
X070220D01*
Y080740D02*
X070420D01*
Y080840D01*
X070387Y080873D01*
X070253D01*
X070220Y080840D01*
Y080740D01*
X070420Y079350D02*
X070220D01*
Y079450D01*
X070253Y079483D01*
X070320D01*
X070353Y079450D01*
Y079350D01*
Y079417D02*
X070420Y079483D01*
X070253Y079683D02*
X070220Y079650D01*
Y079583D01*
X070253Y079550D01*
X070287D01*
X070320Y079583D01*
Y079650D01*
X070353Y079683D01*
X070387D01*
X070420Y079650D01*
Y079583D01*
X070387Y079550D01*
X070220Y079750D02*
Y079883D01*
Y079817D01*
X070420D01*
X067783Y083443D02*
X067750Y083410D01*
Y083343D01*
X067783Y083310D01*
X067917D01*
X067950Y083343D01*
Y083410D01*
X067917Y083443D01*
X067850D01*
Y083377D01*
X067950Y083510D02*
X067750D01*
X067950Y083643D01*
X067750D01*
Y083710D02*
X067950D01*
Y083810D01*
X067917Y083843D01*
X067783D01*
X067750Y083810D01*
Y083710D01*
X067760Y079200D02*
X067927D01*
X067960Y079233D01*
Y079300D01*
X067927Y079333D01*
X067760D01*
X067793Y079533D02*
X067760Y079500D01*
Y079433D01*
X067793Y079400D01*
X067827D01*
X067860Y079433D01*
Y079500D01*
X067893Y079533D01*
X067927D01*
X067960Y079500D01*
Y079433D01*
X067927Y079400D01*
X067760Y079600D02*
X067960D01*
Y079700D01*
X067927Y079733D01*
X067893D01*
X067860Y079700D01*
Y079600D01*
Y079700D01*
X067827Y079733D01*
X067793D01*
X067760Y079700D01*
Y079600D01*
X067860Y079800D02*
Y079933D01*
X067793Y079866D02*
X067927D01*
X070430Y081460D02*
X070230D01*
Y081560D01*
X070263Y081593D01*
X070330D01*
X070363Y081560D01*
Y081460D01*
X070230Y081660D02*
X070363D01*
X070430Y081727D01*
X070363Y081793D01*
X070230D01*
X067740Y081473D02*
Y081340D01*
X067940D01*
Y081473D01*
X067840Y081340D02*
Y081407D01*
X067740Y081540D02*
X067873D01*
X067940Y081607D01*
X067873Y081673D01*
X067740D01*
X067940Y081873D02*
Y081740D01*
X067807Y081873D01*
X067773D01*
X067740Y081840D01*
Y081773D01*
X067773Y081740D01*
X052380Y065650D02*
X052480D01*
X052430D01*
Y065950D01*
X052380Y065900D01*
X052830Y065650D02*
X052630D01*
X052830Y065850D01*
Y065900D01*
X052780Y065950D01*
X052680D01*
X052630Y065900D01*
X052930Y065950D02*
Y065750D01*
X053030Y065650D01*
X053130Y065750D01*
Y065950D01*
X052570Y067920D02*
X052370D01*
Y067770D01*
X052470Y067820D01*
X052520D01*
X052570Y067770D01*
Y067670D01*
X052520Y067620D01*
X052420D01*
X052370Y067670D01*
X052670Y067920D02*
Y067720D01*
X052770Y067620D01*
X052870Y067720D01*
Y067920D01*
X052570Y066860D02*
X052520Y066910D01*
X052420D01*
X052370Y066860D01*
Y066660D01*
X052420Y066610D01*
X052520D01*
X052570Y066660D01*
Y066760D01*
X052470D01*
X052670Y066610D02*
Y066910D01*
X052870Y066610D01*
Y066910D01*
X052970D02*
Y066610D01*
X053120D01*
X053170Y066660D01*
Y066860D01*
X053120Y066910D01*
X052970D01*
X062100Y054400D02*
Y054200D01*
X062200D01*
X062233Y054233D01*
Y054267D01*
X062200Y054300D01*
X062100D01*
X062200D01*
X062233Y054333D01*
Y054367D01*
X062200Y054400D01*
X062100D01*
X063100Y054200D02*
Y054333D01*
X063167Y054400D01*
X063233Y054333D01*
Y054200D01*
Y054300D01*
X063100D01*
X064033Y054367D02*
X064000Y054400D01*
X063933D01*
X063900Y054367D01*
Y054233D01*
X063933Y054200D01*
X064000D01*
X064033Y054233D01*
Y054300D01*
X063967D01*
X064100Y054200D02*
Y054400D01*
X064233Y054200D01*
Y054400D01*
X064300D02*
Y054200D01*
X064400D01*
X064433Y054233D01*
Y054367D01*
X064400Y054400D01*
X064300D01*
X065133D02*
X065000D01*
Y054300D01*
X065067Y054333D01*
X065100D01*
X065133Y054300D01*
Y054233D01*
X065100Y054200D01*
X065033D01*
X065000Y054233D01*
X065200Y054400D02*
Y054267D01*
X065267Y054200D01*
X065333Y054267D01*
Y054400D01*
X053670Y086320D02*
X053470D01*
X052690Y086290D02*
X052490D01*
X052590Y086190D02*
Y086390D01*
X064460Y086240D02*
X064260D01*
X065570D02*
X065370D01*
X065470Y086140D02*
Y086340D01*
X051520Y064370D02*
X051720D01*
X051620Y064470D02*
Y064270D01*
X050540Y064350D02*
X050740D01*
X052130Y075760D02*
X051930D01*
Y075610D01*
X052030Y075660D01*
X052080D01*
X052130Y075610D01*
Y075510D01*
X052080Y075460D01*
X051980D01*
X051930Y075510D01*
X052230Y075760D02*
Y075560D01*
X052330Y075460D01*
X052430Y075560D01*
Y075760D01*
X051960Y074790D02*
X052010Y074840D01*
X052110D01*
X052160Y074790D01*
Y074740D01*
X052110Y074690D01*
X052060D01*
X052110D01*
X052160Y074640D01*
Y074590D01*
X052110Y074540D01*
X052010D01*
X051960Y074590D01*
X052260Y074540D02*
Y074590D01*
X052310D01*
Y074540D01*
X052260D01*
X052510Y074790D02*
X052560Y074840D01*
X052660D01*
X052710Y074790D01*
Y074740D01*
X052660Y074690D01*
X052610D01*
X052660D01*
X052710Y074640D01*
Y074590D01*
X052660Y074540D01*
X052560D01*
X052510Y074590D01*
X052810Y074840D02*
Y074640D01*
X052910Y074540D01*
X053010Y074640D01*
Y074840D01*
X052130Y073700D02*
X052080Y073750D01*
X051980D01*
X051930Y073700D01*
Y073500D01*
X051980Y073450D01*
X052080D01*
X052130Y073500D01*
Y073600D01*
X052030D01*
X052230Y073450D02*
Y073750D01*
X052430Y073450D01*
Y073750D01*
X052530D02*
Y073450D01*
X052680D01*
X052730Y073500D01*
Y073700D01*
X052680Y073750D01*
X052530D01*
X054740Y054940D02*
X054840D01*
X054790D01*
Y054640D01*
X054740D01*
X054840D01*
X054990D02*
Y054940D01*
X055090Y054840D01*
X055190Y054940D01*
Y054640D01*
X055290Y054940D02*
Y054690D01*
X055340Y054640D01*
X055440D01*
X055490Y054690D01*
Y054940D01*
X055890D02*
Y054640D01*
X055990Y054740D01*
X056090Y054640D01*
Y054940D01*
X056190Y054640D02*
X056290D01*
X056240D01*
Y054840D01*
X056190D01*
X056439D02*
Y054640D01*
Y054740D01*
X056489Y054790D01*
X056539Y054840D01*
X056589D01*
X056889Y054640D02*
X056789D01*
X056739Y054690D01*
Y054790D01*
X056789Y054840D01*
X056889D01*
X056939Y054790D01*
Y054740D01*
X056739D01*
X057339Y054940D02*
Y054640D01*
Y054790D01*
X057539D01*
Y054940D01*
Y054640D01*
X057689D02*
X057789D01*
X057839Y054690D01*
Y054790D01*
X057789Y054840D01*
X057689D01*
X057639Y054790D01*
Y054690D01*
X057689Y054640D01*
X057939D02*
X058039D01*
X057989D01*
Y054940D01*
X057939D01*
X058339Y054640D02*
X058239D01*
X058189Y054690D01*
Y054790D01*
X058239Y054840D01*
X058339D01*
X058389Y054790D01*
Y054740D01*
X058189D01*
X058489Y054640D02*
X058639D01*
X058689Y054690D01*
X058639Y054740D01*
X058539D01*
X058489Y054790D01*
X058539Y054840D01*
X058689D01*
X056780Y054160D02*
Y053660D01*
Y053657D02*
X057113D01*
X057280D02*
X057613D01*
X055950D02*
X056283D01*
X056450D02*
X056783D01*
X057360Y053400D02*
X057610Y053650D01*
X057360Y053900D01*
X056190Y053410D02*
X055940Y053660D01*
X056190Y053910D01*
D37*
X052900Y070205D02*
X052506D01*
X052703Y070008D02*
Y070402D01*
X067695Y072200D02*
Y071806D01*
X067892Y072003D02*
X067498D01*
X067695Y067600D02*
Y067206D01*
X067892Y067403D02*
X067498D01*
X067500Y067995D02*
X067894D01*
X067697Y068192D02*
Y067798D01*
X067000Y073395D02*
X067394D01*
X067197Y073592D02*
Y073198D01*
X067605Y063300D02*
Y063694D01*
X067408Y063497D02*
X067802D01*
X050100Y079095D02*
X050494D01*
X050297Y079292D02*
Y078898D01*
X052765Y060800D02*
X052371D01*
X052568Y060603D02*
Y060997D01*
M02*
