M48
;Layer_Color=9474304
;FILE_FORMAT=2:4
INCH
;TYPE=PLATED
T1F00S00C0.0280
T2F00S00C0.0295
T3F00S00C0.0335
T4F00S00C0.0354
T5F00S00C0.0394
T6F00S00C0.0433
T7F00S00C0.0700
T8F00S00C0.1181
T9F00S00C0.1250
%
T01
X066790Y082600
X067090Y084710
X067770Y084700
X056720Y082470
T02
X050806Y060800
X051594
X051794Y070200
X051006
X050706Y078075
X051494
X068206Y073400
X068994
X068600Y071494
Y070706
X068206Y068900
X068994
X068600Y066894
Y066106
Y064694
Y063906
T03
X063600Y054000
X065600
X069200Y056800
Y058800
X065000Y060100
Y062100
X053200Y055400
Y053400
X052600Y063000
Y065000
X051800Y072000
X049800
X053400Y073600
Y075600
X057400Y076100
X057377Y077624
X059377
X060177
X060200Y076100
X059400
X062200
X062177Y077624
X063000Y082200
X063300Y085600
X066300
X061000Y082200
X053400Y082600
Y084600
X052100Y085600
X050200Y084600
Y082600
X055100Y085600
X054900Y087200
X057900
T04
X063200Y055000
X064200
X065200
X066200Y059600
X067200
X068200
X069200
X062200Y055000
X051600Y063600
X050600
X064097Y064632
Y065631
Y066631
Y067632
Y068632
Y069632
Y070631
Y071631
X067097
Y070631
Y069632
Y068632
Y067632
Y066631
Y065631
Y064632
X067200Y062600
X066200
X068200
X069200
X066500Y075000
X065500
X064500
Y076800
X065500
X066500
Y078700
X065500
X064500
X068600Y079600
Y080600
Y081600
Y082600
Y083600
X069600
Y082600
Y081600
Y080600
Y079600
X065000Y083400
X064000
X063000
Y084400
X064000
X065000
X065400Y087000
X064400
X062000Y084400
X061000
X060000
X059000
X058000
X057000
X056000
Y083400
X057000
X058000
X059000
X060000
X061000
X062000
X062427Y081424
X061427
X060427
X059427
X058427
X057427
X056427
X055427
Y078424
X056427
X057427
X058427
X059427
X060427
X061427
X062427
X053600Y087000
X052600
T05
X051000Y073600
Y074600
Y075600
X058841Y085635
Y087603
X061597
Y085635
T06
X051500Y065775
Y066775
Y067775
T07
X056350Y057100
X060850
X060800Y074300
X056350
T08
X055000Y053700
X058500
T09
X065234Y057736
X069000Y054200
X050400
X051734Y057736
X065234Y081236
X069000Y086700
X050400
X051734Y081236
M30
