%FSAX24Y24*%
%MOIN*%
G70*
G01*
G75*
%ADD10C,0.0120*%
%ADD11C,0.0100*%
%ADD12C,0.0150*%
%ADD13C,0.0591*%
%ADD14R,0.0591X0.0591*%
%ADD15C,0.0551*%
%ADD16C,0.0492*%
%ADD17R,0.0492X0.0492*%
%ADD18R,0.0591X0.0591*%
%ADD19C,0.0591*%
%ADD20R,0.0492X0.0492*%
%ADD21C,0.0669*%
%ADD22R,0.0669X0.0669*%
%ADD23R,0.0591X0.0591*%
%ADD24C,0.2500*%
%ADD25R,0.0591X0.0591*%
%ADD26C,0.1378*%
%ADD27C,0.1575*%
%ADD28R,0.0630X0.0630*%
%ADD29C,0.0630*%
%ADD30C,0.0500*%
%ADD31C,0.0079*%
%ADD32C,0.0400*%
%ADD33C,0.0098*%
%ADD34C,0.0197*%
%ADD35C,0.0080*%
%ADD36C,0.0050*%
%ADD37C,0.0059*%
%ADD38C,0.0010*%
%ADD39C,0.0671*%
%ADD40R,0.0671X0.0671*%
%ADD41C,0.0631*%
%ADD42C,0.0572*%
%ADD43R,0.0572X0.0572*%
%ADD44R,0.0671X0.0671*%
%ADD45C,0.0671*%
%ADD46R,0.0572X0.0572*%
%ADD47C,0.0749*%
%ADD48R,0.0749X0.0749*%
%ADD49R,0.0671X0.0671*%
%ADD50C,0.2580*%
%ADD51R,0.0671X0.0671*%
%ADD52C,0.1458*%
%ADD53C,0.1655*%
%ADD54R,0.0710X0.0710*%
%ADD55C,0.0710*%
%ADD56C,0.0580*%
%ADD57C,0.0039*%
%ADD58C,0.0067*%
D38*
X068400Y083400D02*
Y083800D01*
X068800D01*
Y083400D01*
X068400D01*
X069400D02*
Y083800D01*
X069800D01*
Y083400D01*
X069400D01*
X068400Y082400D02*
Y082800D01*
X068800D01*
Y082400D01*
X068400D01*
X069400D02*
Y082800D01*
X069800D01*
Y082400D01*
X069400D01*
X068400Y081400D02*
Y081800D01*
X068800D01*
Y081400D01*
X068400D01*
X069400D02*
Y081800D01*
X069800D01*
Y081400D01*
X069400D01*
X068400Y080400D02*
Y080800D01*
X068800D01*
Y080400D01*
X068400D01*
X069400D02*
Y080800D01*
X069800D01*
Y080400D01*
X069400D01*
X068400Y079400D02*
Y079800D01*
X068800D01*
Y079400D01*
X068400D01*
X069400D02*
Y079800D01*
X069800D01*
Y079400D01*
X069400D01*
X053400Y084400D02*
X053200Y084800D01*
X053600D01*
X053400Y084400D01*
Y082400D02*
X053200Y082800D01*
X053600D01*
X053400Y082400D01*
X051800Y071800D02*
X051600Y072200D01*
X052000D01*
X051800Y071800D01*
X049800D02*
X049600Y072200D01*
X050000D01*
X049800Y071800D01*
X051006Y070000D02*
X051106Y070100D01*
X051206D01*
X051106Y070200D01*
X051206Y070300D01*
X051106D01*
X051006Y070400D01*
X050906Y070300D01*
X050806D01*
X050906Y070200D01*
X050806Y070100D01*
X050906D01*
X051006Y070000D01*
X051794D02*
X051894Y070100D01*
X051994D01*
X051894Y070200D01*
X051994Y070300D01*
X051894D01*
X051794Y070400D01*
X051694Y070300D01*
X051594D01*
X051694Y070200D01*
X051594Y070100D01*
X051694D01*
X051794Y070000D01*
X066897Y071431D02*
Y071831D01*
X067297D01*
Y071431D01*
X066897D01*
Y070431D02*
Y070831D01*
X067297D01*
Y070431D01*
X066897D01*
Y069432D02*
Y069832D01*
X067297D01*
Y069432D01*
X066897D01*
Y068432D02*
Y068832D01*
X067297D01*
Y068432D01*
X066897D01*
Y067432D02*
Y067832D01*
X067297D01*
Y067432D01*
X066897D01*
Y066431D02*
Y066831D01*
X067297D01*
Y066431D01*
X066897D01*
Y065431D02*
Y065831D01*
X067297D01*
Y065431D01*
X066897D01*
Y064432D02*
Y064832D01*
X067297D01*
Y064432D01*
X066897D01*
X063897Y071431D02*
Y071831D01*
X064297D01*
Y071431D01*
X063897D01*
Y070431D02*
Y070831D01*
X064297D01*
Y070431D01*
X063897D01*
Y069432D02*
Y069832D01*
X064297D01*
Y069432D01*
X063897D01*
Y068432D02*
Y068832D01*
X064297D01*
Y068432D01*
X063897D01*
Y067432D02*
Y067832D01*
X064297D01*
Y067432D01*
X063897D01*
Y066431D02*
Y066831D01*
X064297D01*
Y066431D01*
X063897D01*
Y065431D02*
Y065831D01*
X064297D01*
Y065431D01*
X063897D01*
Y064432D02*
Y064832D01*
X064297D01*
Y064432D01*
X063897D01*
X068600Y071294D02*
X068700Y071394D01*
X068800D01*
X068700Y071494D01*
X068800Y071594D01*
X068700D01*
X068600Y071694D01*
X068500Y071594D01*
X068400D01*
X068500Y071494D01*
X068400Y071394D01*
X068500D01*
X068600Y071294D01*
Y070506D02*
X068700Y070606D01*
X068800D01*
X068700Y070706D01*
X068800Y070806D01*
X068700D01*
X068600Y070906D01*
X068500Y070806D01*
X068400D01*
X068500Y070706D01*
X068400Y070606D01*
X068500D01*
X068600Y070506D01*
Y066694D02*
X068700Y066794D01*
X068800D01*
X068700Y066894D01*
X068800Y066994D01*
X068700D01*
X068600Y067094D01*
X068500Y066994D01*
X068400D01*
X068500Y066894D01*
X068400Y066794D01*
X068500D01*
X068600Y066694D01*
Y065906D02*
X068700Y066006D01*
X068800D01*
X068700Y066106D01*
X068800Y066206D01*
X068700D01*
X068600Y066306D01*
X068500Y066206D01*
X068400D01*
X068500Y066106D01*
X068400Y066006D01*
X068500D01*
X068600Y065906D01*
X068206Y068700D02*
X068306Y068800D01*
X068406D01*
X068306Y068900D01*
X068406Y069000D01*
X068306D01*
X068206Y069100D01*
X068106Y069000D01*
X068006D01*
X068106Y068900D01*
X068006Y068800D01*
X068106D01*
X068206Y068700D01*
X068994D02*
X069094Y068800D01*
X069194D01*
X069094Y068900D01*
X069194Y069000D01*
X069094D01*
X068994Y069100D01*
X068894Y069000D01*
X068794D01*
X068894Y068900D01*
X068794Y068800D01*
X068894D01*
X068994Y068700D01*
X068206Y073200D02*
X068306Y073300D01*
X068406D01*
X068306Y073400D01*
X068406Y073500D01*
X068306D01*
X068206Y073600D01*
X068106Y073500D01*
X068006D01*
X068106Y073400D01*
X068006Y073300D01*
X068106D01*
X068206Y073200D01*
X068994D02*
X069094Y073300D01*
X069194D01*
X069094Y073400D01*
X069194Y073500D01*
X069094D01*
X068994Y073600D01*
X068894Y073500D01*
X068794D01*
X068894Y073400D01*
X068794Y073300D01*
X068894D01*
X068994Y073200D01*
X068600Y063706D02*
X068700Y063806D01*
X068800D01*
X068700Y063906D01*
X068800Y064006D01*
X068700D01*
X068600Y064106D01*
X068500Y064006D01*
X068400D01*
X068500Y063906D01*
X068400Y063806D01*
X068500D01*
X068600Y063706D01*
Y064494D02*
X068700Y064594D01*
X068800D01*
X068700Y064694D01*
X068800Y064794D01*
X068700D01*
X068600Y064894D01*
X068500Y064794D01*
X068400D01*
X068500Y064694D01*
X068400Y064594D01*
X068500D01*
X068600Y064494D01*
X051300Y067575D02*
X051400Y067775D01*
X051300Y067975D01*
X051500Y067875D01*
X051700Y067975D01*
X051600Y067775D01*
X051700Y067575D01*
X051500Y067675D01*
X051300Y067575D01*
Y066575D02*
X051400Y066775D01*
X051300Y066975D01*
X051500Y066875D01*
X051700Y066975D01*
X051600Y066775D01*
X051700Y066575D01*
X051500Y066675D01*
X051300Y066575D01*
Y065575D02*
X051400Y065775D01*
X051300Y065975D01*
X051500Y065875D01*
X051700Y065975D01*
X051600Y065775D01*
X051700Y065575D01*
X051500Y065675D01*
X051300Y065575D01*
X051400Y063400D02*
Y063800D01*
X051800D01*
Y063400D01*
X051400D01*
X050400D02*
Y063800D01*
X050800D01*
Y063400D01*
X050400D01*
X050706Y077875D02*
X050806Y077975D01*
X050906D01*
X050806Y078075D01*
X050906Y078175D01*
X050806D01*
X050706Y078275D01*
X050606Y078175D01*
X050506D01*
X050606Y078075D01*
X050506Y077975D01*
X050606D01*
X050706Y077875D01*
X051494D02*
X051594Y077975D01*
X051694D01*
X051594Y078075D01*
X051694Y078175D01*
X051594D01*
X051494Y078275D01*
X051394Y078175D01*
X051294D01*
X051394Y078075D01*
X051294Y077975D01*
X051394D01*
X051494Y077875D01*
X064300Y078500D02*
Y078900D01*
X064700D01*
Y078500D01*
X064300D01*
X065300D02*
Y078900D01*
X065700D01*
Y078500D01*
X065300D01*
X066300D02*
Y078900D01*
X066700D01*
Y078500D01*
X066300D01*
X064300Y076600D02*
Y077000D01*
X064700D01*
Y076600D01*
X064300D01*
X065300D02*
Y077000D01*
X065700D01*
Y076600D01*
X065300D01*
X066300D02*
Y077000D01*
X066700D01*
Y076600D01*
X066300D01*
X062000Y054800D02*
Y055200D01*
X062400D01*
Y054800D01*
X062000D01*
X063000D02*
Y055200D01*
X063400D01*
Y054800D01*
X063000D01*
X064000D02*
Y055200D01*
X064400D01*
Y054800D01*
X064000D01*
X065000D02*
Y055200D01*
X065400D01*
Y054800D01*
X065000D01*
X064300Y074800D02*
Y075200D01*
X064700D01*
Y074800D01*
X064300D01*
X065300D02*
Y075200D01*
X065700D01*
Y074800D01*
X065300D01*
X066300D02*
Y075200D01*
X066700D01*
Y074800D01*
X066300D01*
X051634Y057636D02*
Y057536D01*
X051834D01*
Y057636D01*
X051934D01*
Y057836D01*
X051834D01*
Y057936D01*
X051634D01*
Y057836D01*
X051534D01*
Y057636D01*
X051634D01*
X065134D02*
Y057536D01*
X065334D01*
Y057636D01*
X065434D01*
Y057836D01*
X065334D01*
Y057936D01*
X065134D01*
Y057836D01*
X065034D01*
Y057636D01*
X065134D01*
Y081136D02*
Y081036D01*
X065334D01*
Y081136D01*
X065434D01*
Y081336D01*
X065334D01*
Y081436D01*
X065134D01*
Y081336D01*
X065034D01*
Y081136D01*
X065134D01*
X051634D02*
Y081036D01*
X051834D01*
Y081136D01*
X051934D01*
Y081336D01*
X051834D01*
Y081436D01*
X051634D01*
Y081336D01*
X051534D01*
Y081136D01*
X051634D01*
X062227Y078224D02*
Y078624D01*
X062627D01*
Y078224D01*
X062227D01*
X061227D02*
Y078624D01*
X061627D01*
Y078224D01*
X061227D01*
X060227D02*
Y078624D01*
X060627D01*
Y078224D01*
X060227D01*
X059227D02*
Y078624D01*
X059627D01*
Y078224D01*
X059227D01*
X058227D02*
Y078624D01*
X058627D01*
Y078224D01*
X058227D01*
X057227D02*
Y078624D01*
X057627D01*
Y078224D01*
X057227D01*
X056227D02*
Y078624D01*
X056627D01*
Y078224D01*
X056227D01*
X055227D02*
Y078624D01*
X055627D01*
Y078224D01*
X055227D01*
X062227Y081224D02*
Y081624D01*
X062627D01*
Y081224D01*
X062227D01*
X061227D02*
Y081624D01*
X061627D01*
Y081224D01*
X061227D01*
X060227D02*
Y081624D01*
X060627D01*
Y081224D01*
X060227D01*
X059227D02*
Y081624D01*
X059627D01*
Y081224D01*
X059227D01*
X058227D02*
Y081624D01*
X058627D01*
Y081224D01*
X058227D01*
X057227D02*
Y081624D01*
X057627D01*
Y081224D01*
X057227D01*
X056227D02*
Y081624D01*
X056627D01*
Y081224D01*
X056227D01*
X055227D02*
Y081624D01*
X055627D01*
Y081224D01*
X055227D01*
X062177Y077424D02*
X061977Y077824D01*
X062377D01*
X062177Y077424D01*
X060177D02*
X059977Y077824D01*
X060377D01*
X060177Y077424D01*
X059377D02*
X059177Y077824D01*
X059577D01*
X059377Y077424D01*
X057377D02*
X057177Y077824D01*
X057577D01*
X057377Y077424D01*
X062200Y075900D02*
X062000Y076300D01*
X062400D01*
X062200Y075900D01*
X060200D02*
X060000Y076300D01*
X060400D01*
X060200Y075900D01*
X057400D02*
X057200Y076300D01*
X057600D01*
X057400Y075900D01*
X059400D02*
X059200Y076300D01*
X059600D01*
X059400Y075900D01*
X065600Y053800D02*
X065400Y054200D01*
X065800D01*
X065600Y053800D01*
X063600D02*
X063400Y054200D01*
X063800D01*
X063600Y053800D01*
X066000Y062400D02*
Y062800D01*
X066400D01*
Y062400D01*
X066000D01*
X067000D02*
Y062800D01*
X067400D01*
Y062400D01*
X067000D01*
X068000D02*
Y062800D01*
X068400D01*
Y062400D01*
X068000D01*
X069000D02*
Y062800D01*
X069400D01*
Y062400D01*
X069000D01*
X066000Y059400D02*
Y059800D01*
X066400D01*
Y059400D01*
X066000D01*
X067000D02*
Y059800D01*
X067400D01*
Y059400D01*
X067000D01*
X068000D02*
Y059800D01*
X068400D01*
Y059400D01*
X068000D01*
X069000D02*
Y059800D01*
X069400D01*
Y059400D01*
X069000D01*
X063300Y085400D02*
X063100Y085800D01*
X063500D01*
X063300Y085400D01*
X066300D02*
X066100Y085800D01*
X066500D01*
X066300Y085400D01*
X052100D02*
X051900Y085800D01*
X052300D01*
X052100Y085400D01*
X055100D02*
X054900Y085800D01*
X055300D01*
X055100Y085400D01*
X055800Y083200D02*
Y083600D01*
X056200D01*
Y083200D01*
X055800D01*
Y084200D02*
Y084600D01*
X056200D01*
Y084200D01*
X055800D01*
X056800Y083200D02*
Y083600D01*
X057200D01*
Y083200D01*
X056800D01*
Y084200D02*
Y084600D01*
X057200D01*
Y084200D01*
X056800D01*
X057800Y083200D02*
Y083600D01*
X058200D01*
Y083200D01*
X057800D01*
Y084200D02*
Y084600D01*
X058200D01*
Y084200D01*
X057800D01*
X058800Y083200D02*
Y083600D01*
X059200D01*
Y083200D01*
X058800D01*
Y084200D02*
Y084600D01*
X059200D01*
Y084200D01*
X058800D01*
X059800Y083200D02*
Y083600D01*
X060200D01*
Y083200D01*
X059800D01*
Y084200D02*
Y084600D01*
X060200D01*
Y084200D01*
X059800D01*
X060800Y083200D02*
Y083600D01*
X061200D01*
Y083200D01*
X060800D01*
Y084200D02*
Y084600D01*
X061200D01*
Y084200D01*
X060800D01*
X061800Y083200D02*
Y083600D01*
X062200D01*
Y083200D01*
X061800D01*
Y084200D02*
Y084600D01*
X062200D01*
Y084200D01*
X061800D01*
X062800Y083200D02*
Y083600D01*
X063200D01*
Y083200D01*
X062800D01*
Y084200D02*
Y084600D01*
X063200D01*
Y084200D01*
X062800D01*
X063800Y083200D02*
Y083600D01*
X064200D01*
Y083200D01*
X063800D01*
Y084200D02*
Y084600D01*
X064200D01*
Y084200D01*
X063800D01*
X064800Y083200D02*
Y083600D01*
X065200D01*
Y083200D01*
X064800D01*
Y084200D02*
Y084600D01*
X065200D01*
Y084200D01*
X064800D01*
X050806Y060600D02*
X050906Y060700D01*
X051006D01*
X050906Y060800D01*
X051006Y060900D01*
X050906D01*
X050806Y061000D01*
X050706Y060900D01*
X050606D01*
X050706Y060800D01*
X050606Y060700D01*
X050706D01*
X050806Y060600D01*
X051594D02*
X051694Y060700D01*
X051794D01*
X051694Y060800D01*
X051794Y060900D01*
X051694D01*
X051594Y061000D01*
X051494Y060900D01*
X051394D01*
X051494Y060800D01*
X051394Y060700D01*
X051494D01*
X051594Y060600D01*
X050300Y086600D02*
Y086500D01*
X050500D01*
Y086600D01*
X050600D01*
Y086800D01*
X050500D01*
Y086900D01*
X050300D01*
Y086800D01*
X050200D01*
Y086600D01*
X050300D01*
X068900D02*
Y086500D01*
X069100D01*
Y086600D01*
X069200D01*
Y086800D01*
X069100D01*
Y086900D01*
X068900D01*
Y086800D01*
X068800D01*
Y086600D01*
X068900D01*
Y054100D02*
Y054000D01*
X069100D01*
Y054100D01*
X069200D01*
Y054300D01*
X069100D01*
Y054400D01*
X068900D01*
Y054300D01*
X068800D01*
Y054100D01*
X068900D01*
X050300D02*
Y054000D01*
X050500D01*
Y054100D01*
X050600D01*
Y054300D01*
X050500D01*
Y054400D01*
X050300D01*
Y054300D01*
X050200D01*
Y054100D01*
X050300D01*
X063000Y082000D02*
X062800Y082400D01*
X063200D01*
X063000Y082000D01*
X061000D02*
X060800Y082400D01*
X061200D01*
X061000Y082000D01*
X058300Y053500D02*
X058400D01*
X058500Y053600D01*
X058600Y053500D01*
X058700D01*
Y053600D01*
X058600Y053700D01*
X058700Y053800D01*
Y053900D01*
X058600D01*
X058500Y053800D01*
X058400Y053900D01*
X058300D01*
Y053800D01*
X058400Y053700D01*
X058300Y053600D01*
Y053500D01*
X054800D02*
X054900D01*
X055000Y053600D01*
X055100Y053500D01*
X055200D01*
Y053600D01*
X055100Y053700D01*
X055200Y053800D01*
Y053900D01*
X055100D01*
X055000Y053800D01*
X054900Y053900D01*
X054800D01*
Y053800D01*
X054900Y053700D01*
X054800Y053600D01*
Y053500D01*
X065000Y061900D02*
X064800Y062300D01*
X065200D01*
X065000Y061900D01*
Y059900D02*
X064800Y060300D01*
X065200D01*
X065000Y059900D01*
X050200Y082400D02*
X050000Y082800D01*
X050400D01*
X050200Y082400D01*
Y084400D02*
X050000Y084800D01*
X050400D01*
X050200Y084400D01*
X060650Y057100D02*
X060850Y057300D01*
X061050Y057100D01*
X060850Y056900D01*
X060650Y057100D01*
X056150D02*
X056350Y057300D01*
X056550Y057100D01*
X056350Y056900D01*
X056150Y057100D01*
Y074300D02*
X056350Y074500D01*
X056550Y074300D01*
X056350Y074100D01*
X056150Y074300D01*
X060600D02*
X060800Y074500D01*
X061000Y074300D01*
X060800Y074100D01*
X060600Y074300D01*
X057900Y087000D02*
X057700Y087400D01*
X058100D01*
X057900Y087000D01*
X054900D02*
X054700Y087400D01*
X055100D01*
X054900Y087000D01*
X069200Y056600D02*
X069000Y057000D01*
X069400D01*
X069200Y056600D01*
Y058600D02*
X069000Y059000D01*
X069400D01*
X069200Y058600D01*
X052600Y062800D02*
X052400Y063200D01*
X052800D01*
X052600Y062800D01*
Y064800D02*
X052400Y065200D01*
X052800D01*
X052600Y064800D01*
X053400Y073400D02*
X053200Y073800D01*
X053600D01*
X053400Y073400D01*
Y075400D02*
X053200Y075800D01*
X053600D01*
X053400Y075400D01*
X053200Y055200D02*
X053000Y055600D01*
X053400D01*
X053200Y055200D01*
Y053200D02*
X053000Y053600D01*
X053400D01*
X053200Y053200D01*
X052400Y086800D02*
Y087200D01*
X052800D01*
Y086800D01*
X052400D01*
X053400D02*
Y087200D01*
X053800D01*
Y086800D01*
X053400D01*
X065200D02*
Y087200D01*
X065600D01*
Y086800D01*
X065200D01*
X064200D02*
Y087200D01*
X064600D01*
Y086800D01*
X064200D01*
X066590Y082400D02*
Y082800D01*
X066990D01*
Y082400D01*
X066590D01*
X066670Y082480D02*
Y082720D01*
X066910D01*
Y082480D01*
X066670D01*
X056520Y082270D02*
Y082670D01*
X056920D01*
Y082270D01*
X056520D01*
X056600Y082350D02*
Y082590D01*
X056840D01*
Y082350D01*
X056600D01*
X066890Y084510D02*
Y084910D01*
X067290D01*
Y084510D01*
X066890D01*
X066970Y084590D02*
Y084830D01*
X067210D01*
Y084590D01*
X066970D01*
X067570Y084500D02*
Y084900D01*
X067970D01*
Y084500D01*
X067570D01*
X067650Y084580D02*
Y084820D01*
X067890D01*
Y084580D01*
X067650D01*
D58*
X061797Y085635D02*
G03*
X061797Y085635I-000200J000000D01*
G01*
X059041D02*
G03*
X059041Y085635I-000200J000000D01*
G01*
Y087603D02*
G03*
X059041Y087603I-000200J000000D01*
G01*
X061797D02*
G03*
X061797Y087603I-000200J000000D01*
G01*
X051200Y073600D02*
G03*
X051200Y073600I-000200J000000D01*
G01*
Y074600D02*
G03*
X051200Y074600I-000200J000000D01*
G01*
Y075600D02*
G03*
X051200Y075600I-000200J000000D01*
G01*
M02*
