%FSAX24Y24*%
%MOIN*%
G70*
G01*
G75*
G04 Layer_Physical_Order=2*
G04 Layer_Color=16711680*
%ADD10C,0.0120*%
%ADD11C,0.0100*%
%ADD12C,0.0150*%
%ADD13C,0.0591*%
%ADD14R,0.0591X0.0591*%
%ADD15C,0.0551*%
%ADD16C,0.0492*%
%ADD17R,0.0492X0.0492*%
%ADD18R,0.0591X0.0591*%
%ADD19C,0.0591*%
%ADD20R,0.0492X0.0492*%
%ADD21C,0.0669*%
%ADD22R,0.0669X0.0669*%
%ADD23R,0.0591X0.0591*%
%ADD24C,0.2500*%
%ADD25R,0.0591X0.0591*%
%ADD26C,0.1378*%
%ADD27C,0.1575*%
%ADD28R,0.0630X0.0630*%
%ADD29C,0.0630*%
%ADD30C,0.0500*%
G36*
X060782Y084792D02*
X060775Y084789D01*
X060682Y084718D01*
X060611Y084625D01*
X060566Y084516D01*
X060551Y084400D01*
X060566Y084284D01*
X060611Y084175D01*
X060682Y084082D01*
X060775Y084011D01*
X060884Y083966D01*
X061000Y083951D01*
X061110Y083965D01*
X061240Y083836D01*
X061212Y083794D01*
X061116Y083834D01*
X061000Y083849D01*
X060884Y083834D01*
X060775Y083789D01*
X060682Y083718D01*
X060611Y083625D01*
X060583Y083558D01*
X060486Y083461D01*
X060439Y083477D01*
X060434Y083516D01*
X060389Y083625D01*
X060318Y083718D01*
X060225Y083789D01*
X060116Y083834D01*
X060000Y083849D01*
X059884Y083834D01*
X059870Y083828D01*
X059709Y083989D01*
Y084006D01*
X059753Y084028D01*
X059775Y084011D01*
X059884Y083966D01*
X059950Y083957D01*
Y084400D01*
X060000D01*
Y084450D01*
X060443D01*
X060434Y084516D01*
X060389Y084625D01*
X060318Y084718D01*
X060225Y084789D01*
X060123Y084831D01*
X060123Y084831D01*
X060123D01*
X060116Y084834D01*
Y084834D01*
X060117Y084841D01*
X060772D01*
X060782Y084792D01*
D02*
G37*
G36*
X058630Y087998D02*
X058616Y087992D01*
X058523Y087921D01*
X058456Y087833D01*
X058303D01*
X058215Y087815D01*
X058141Y087765D01*
X057993Y087617D01*
X057900Y087629D01*
X057789Y087615D01*
X057685Y087572D01*
X057596Y087504D01*
X057528Y087415D01*
X057485Y087311D01*
X057471Y087200D01*
X057485Y087089D01*
X057528Y086985D01*
X057596Y086896D01*
X057685Y086828D01*
X057789Y086785D01*
X057900Y086771D01*
X058011Y086785D01*
X058115Y086828D01*
X058204Y086896D01*
X058272Y086985D01*
X058315Y087089D01*
X058329Y087200D01*
X058317Y087293D01*
X058398Y087374D01*
X058456D01*
X058523Y087286D01*
X058612Y087218D01*
Y086020D01*
X058523Y085952D01*
X058452Y085859D01*
X058407Y085751D01*
X058392Y085635D01*
X058407Y085518D01*
X058416Y085498D01*
X058351Y085433D01*
X058307Y085367D01*
X058291Y085289D01*
Y084794D01*
X058247Y084772D01*
X058225Y084789D01*
X058116Y084834D01*
X058000Y084849D01*
X057884Y084834D01*
X057775Y084789D01*
X057682Y084718D01*
X057611Y084625D01*
X057566Y084516D01*
X057551Y084400D01*
X057566Y084284D01*
X057611Y084175D01*
X057682Y084082D01*
X057775Y084011D01*
X057884Y083966D01*
X058000Y083951D01*
X058116Y083966D01*
X058225Y084011D01*
X058247Y084028D01*
X058264Y084019D01*
X058272Y083970D01*
X058130Y083828D01*
X058116Y083834D01*
X058000Y083849D01*
X057884Y083834D01*
X057775Y083789D01*
X057682Y083718D01*
X057611Y083625D01*
X057566Y083516D01*
X057551Y083400D01*
X057566Y083284D01*
X057611Y083175D01*
X057682Y083082D01*
X057775Y083011D01*
X057884Y082966D01*
X058000Y082951D01*
X058116Y082966D01*
X058225Y083011D01*
X058318Y083082D01*
X058389Y083175D01*
X058434Y083284D01*
X058449Y083400D01*
X058434Y083516D01*
X058422Y083544D01*
X058639Y083761D01*
X058684Y083827D01*
X058699Y083905D01*
Y084013D01*
X058744Y084035D01*
X058775Y084011D01*
X058884Y083966D01*
X059000Y083951D01*
X059116Y083966D01*
X059225Y084011D01*
X059256Y084035D01*
X059301Y084013D01*
Y083905D01*
X059316Y083827D01*
X059361Y083761D01*
X059577Y083544D01*
X059566Y083516D01*
X059551Y083400D01*
X059566Y083284D01*
X059611Y083175D01*
X059682Y083082D01*
X059775Y083011D01*
X059884Y082966D01*
X059923Y082961D01*
X059939Y082914D01*
X059655Y082629D01*
X058412D01*
X058324Y082612D01*
X058250Y082562D01*
X057545Y081857D01*
X057543Y081858D01*
X057427Y081874D01*
X057311Y081858D01*
X057203Y081813D01*
X057110Y081742D01*
X057038Y081649D01*
X056993Y081541D01*
X056978Y081424D01*
X056993Y081308D01*
X057038Y081200D01*
X057110Y081107D01*
X057203Y081035D01*
X057311Y080991D01*
X057427Y080975D01*
X057543Y080991D01*
X057652Y081035D01*
X057745Y081107D01*
X057816Y081200D01*
X057861Y081308D01*
X057876Y081424D01*
X057863Y081526D01*
X057985Y081648D01*
X058026Y081620D01*
X057993Y081541D01*
X057978Y081424D01*
X057993Y081308D01*
X058038Y081200D01*
X058110Y081107D01*
X058203Y081035D01*
X058311Y080991D01*
X058427Y080975D01*
X058543Y080991D01*
X058652Y081035D01*
X058745Y081107D01*
X058816Y081200D01*
X058861Y081308D01*
X058876Y081424D01*
X058861Y081541D01*
X058852Y081561D01*
X058994Y081703D01*
X059043Y081695D01*
X059055Y081671D01*
X059038Y081649D01*
X058993Y081541D01*
X058978Y081424D01*
X058993Y081308D01*
X059038Y081200D01*
X059110Y081107D01*
X059203Y081035D01*
X059311Y080991D01*
X059427Y080975D01*
X059543Y080991D01*
X059652Y081035D01*
X059673Y081052D01*
X060438Y080288D01*
X060512Y080238D01*
X060600Y080221D01*
X062515D01*
X064055Y078681D01*
Y078255D01*
X064945D01*
Y078865D01*
X064991Y078884D01*
X065065Y078810D01*
X065051Y078700D01*
X065066Y078584D01*
X065111Y078475D01*
X065182Y078382D01*
X065275Y078311D01*
X065384Y078266D01*
X065500Y078251D01*
X065616Y078266D01*
X065725Y078311D01*
X065818Y078382D01*
X065889Y078475D01*
X065934Y078584D01*
X065949Y078700D01*
X065934Y078816D01*
X065889Y078925D01*
X065818Y079018D01*
X065725Y079089D01*
X065616Y079134D01*
X065500Y079149D01*
X065390Y079135D01*
X064792Y079732D01*
X064718Y079782D01*
X064630Y079799D01*
X064479D01*
X063306Y080972D01*
X063232Y081022D01*
X063144Y081039D01*
X062735D01*
X062719Y081087D01*
X062745Y081107D01*
X062816Y081200D01*
X062861Y081308D01*
X062876Y081424D01*
X062861Y081541D01*
X062816Y081649D01*
X062798Y081673D01*
X062907Y081783D01*
X063000Y081771D01*
X063111Y081785D01*
X063215Y081828D01*
X063304Y081896D01*
X063372Y081985D01*
X063415Y082089D01*
X063429Y082200D01*
X063415Y082311D01*
X063372Y082415D01*
X063304Y082504D01*
X063215Y082572D01*
X063111Y082615D01*
X063000Y082629D01*
X062889Y082615D01*
X062785Y082572D01*
X062696Y082504D01*
X062628Y082415D01*
X062585Y082311D01*
X062571Y082200D01*
X062583Y082107D01*
X062337Y081862D01*
X062311Y081858D01*
X062203Y081813D01*
X062110Y081742D01*
X062038Y081649D01*
X061993Y081541D01*
X061978Y081424D01*
X061993Y081308D01*
X062038Y081200D01*
X062110Y081107D01*
X062136Y081087D01*
X062120Y081039D01*
X061735D01*
X061719Y081087D01*
X061745Y081107D01*
X061816Y081200D01*
X061861Y081308D01*
X061870Y081374D01*
X060985D01*
X060993Y081308D01*
X061026Y081228D01*
X060985Y081201D01*
X060863Y081323D01*
X060876Y081424D01*
X060861Y081541D01*
X060816Y081649D01*
X060745Y081742D01*
X060652Y081813D01*
X060543Y081858D01*
X060427Y081874D01*
X060311Y081858D01*
X060203Y081813D01*
X060110Y081742D01*
X060038Y081649D01*
X059993Y081541D01*
X059982Y081456D01*
X059935Y081440D01*
X059865Y081509D01*
X059861Y081541D01*
X059816Y081649D01*
X059767Y081713D01*
X059768Y081716D01*
X059847Y081731D01*
X059913Y081775D01*
X060610Y082473D01*
X060648Y082440D01*
X060628Y082415D01*
X060585Y082311D01*
X060577Y082250D01*
X061423D01*
X061415Y082311D01*
X061372Y082415D01*
X061304Y082504D01*
X061215Y082572D01*
X061214Y082576D01*
X061274Y082616D01*
X061639Y082981D01*
X061678Y083039D01*
X061728Y083048D01*
X061775Y083011D01*
X061884Y082966D01*
X061950Y082957D01*
Y083400D01*
Y083843D01*
X061884Y083834D01*
X061775Y083789D01*
X061744Y083765D01*
X061699Y083787D01*
Y083805D01*
X061707Y083817D01*
X061725Y083905D01*
X061707Y083993D01*
X061695Y084010D01*
X061732Y084045D01*
X061775Y084011D01*
X061884Y083966D01*
X062000Y083951D01*
X062116Y083966D01*
X062225Y084011D01*
X062318Y084082D01*
X062389Y084175D01*
X062434Y084284D01*
X062449Y084400D01*
X062434Y084516D01*
X062389Y084625D01*
X062318Y084718D01*
X062225Y084789D01*
X062123Y084831D01*
X062123Y084831D01*
X062123D01*
X062116Y084834D01*
Y084834D01*
X062117Y084841D01*
X062772D01*
X062782Y084792D01*
X062775Y084789D01*
X062682Y084718D01*
X062611Y084625D01*
X062566Y084516D01*
X062557Y084450D01*
X063443D01*
X063434Y084516D01*
X063389Y084625D01*
X063318Y084718D01*
X063225Y084789D01*
X063123Y084831D01*
X063123Y084831D01*
X063123D01*
X063116Y084834D01*
Y084834D01*
X063117Y084841D01*
X063772D01*
X063782Y084792D01*
X063775Y084789D01*
X063682Y084718D01*
X063611Y084625D01*
X063566Y084516D01*
X063557Y084450D01*
X064443D01*
X064434Y084516D01*
X064389Y084625D01*
X064318Y084718D01*
X064225Y084789D01*
X064123Y084831D01*
X064123Y084831D01*
X064123D01*
X064116Y084834D01*
Y084834D01*
X064117Y084841D01*
X064772D01*
X064782Y084792D01*
X064775Y084789D01*
X064682Y084718D01*
X064611Y084625D01*
X064566Y084516D01*
X064551Y084400D01*
X064566Y084284D01*
X064611Y084175D01*
X064682Y084082D01*
X064775Y084011D01*
X064884Y083966D01*
X065000Y083951D01*
X065116Y083966D01*
X065225Y084011D01*
X065318Y084082D01*
X065389Y084175D01*
X065434Y084284D01*
X065449Y084400D01*
X065434Y084516D01*
X065415Y084561D01*
X065457Y084589D01*
X066561Y083485D01*
Y082928D01*
X066505Y082885D01*
X066441Y082802D01*
X066400Y082704D01*
X066387Y082600D01*
X066400Y082496D01*
X066441Y082398D01*
X066505Y082315D01*
X066588Y082251D01*
X066686Y082210D01*
X066790Y082197D01*
X066894Y082210D01*
X066992Y082251D01*
X067056Y082300D01*
X067101Y082278D01*
Y080870D01*
X067118Y080782D01*
X067168Y080708D01*
X067168Y080708D01*
X067168Y080708D01*
X068165Y079710D01*
X068151Y079600D01*
X068166Y079484D01*
X068211Y079375D01*
X068282Y079282D01*
X068375Y079211D01*
X068484Y079166D01*
X068600Y079151D01*
X068716Y079166D01*
X068825Y079211D01*
X068918Y079282D01*
X068989Y079375D01*
X069034Y079484D01*
X069049Y079600D01*
X069034Y079716D01*
X068989Y079825D01*
X068918Y079918D01*
X068825Y079989D01*
X068716Y080034D01*
X068600Y080049D01*
X068490Y080035D01*
X068360Y080164D01*
X068388Y080206D01*
X068484Y080166D01*
X068600Y080151D01*
X068716Y080166D01*
X068825Y080211D01*
X068918Y080282D01*
X068989Y080375D01*
X069034Y080484D01*
X069049Y080600D01*
X069034Y080716D01*
X068989Y080825D01*
X068918Y080918D01*
X068825Y080989D01*
X068716Y081034D01*
X068600Y081049D01*
X068490Y081035D01*
X068360Y081164D01*
X068388Y081206D01*
X068484Y081166D01*
X068600Y081151D01*
X068716Y081166D01*
X068825Y081211D01*
X068918Y081282D01*
X068989Y081375D01*
X069034Y081484D01*
X069049Y081600D01*
X069034Y081716D01*
X068989Y081825D01*
X068918Y081918D01*
X068825Y081989D01*
X068716Y082034D01*
X068600Y082049D01*
X068484Y082034D01*
X068375Y081989D01*
X068282Y081918D01*
X068211Y081825D01*
X068166Y081716D01*
X068151Y081600D01*
X068166Y081484D01*
X068206Y081388D01*
X068164Y081360D01*
X067999Y081525D01*
Y084372D01*
X068055Y084415D01*
X068119Y084498D01*
X068160Y084596D01*
X068173Y084700D01*
X068168Y084740D01*
X068213Y084762D01*
X068427Y084548D01*
X068427D01*
X068427Y084548D01*
X068427Y084548D01*
Y084548D01*
X068502Y084498D01*
X068589Y084481D01*
X069131D01*
X069527Y084085D01*
X069511Y084037D01*
X069484Y084034D01*
X069375Y083989D01*
X069282Y083918D01*
X069211Y083825D01*
X069166Y083716D01*
X069157Y083650D01*
X069600D01*
Y083600D01*
X069650D01*
Y083157D01*
X069716Y083166D01*
X069825Y083211D01*
X069846Y083228D01*
X069891Y083205D01*
Y082995D01*
X069846Y082972D01*
X069825Y082989D01*
X069716Y083034D01*
X069600Y083049D01*
X069484Y083034D01*
X069375Y082989D01*
X069282Y082918D01*
X069211Y082825D01*
X069166Y082716D01*
X069151Y082600D01*
X069166Y082484D01*
X069211Y082375D01*
X069282Y082282D01*
X069375Y082211D01*
X069484Y082166D01*
X069600Y082151D01*
X069716Y082166D01*
X069812Y082206D01*
X069840Y082164D01*
X069710Y082035D01*
X069600Y082049D01*
X069484Y082034D01*
X069375Y081989D01*
X069282Y081918D01*
X069211Y081825D01*
X069166Y081716D01*
X069151Y081600D01*
X069166Y081484D01*
X069211Y081375D01*
X069282Y081282D01*
X069375Y081211D01*
X069484Y081166D01*
X069600Y081151D01*
X069716Y081166D01*
X069825Y081211D01*
X069918Y081282D01*
X069989Y081375D01*
X070034Y081484D01*
X070049Y081600D01*
X070035Y081710D01*
X070282Y081958D01*
X070299Y081983D01*
X070347Y081968D01*
Y054735D01*
X070298Y054726D01*
X070251Y054838D01*
X070136Y055025D01*
X069993Y055193D01*
X069825Y055336D01*
X069638Y055451D01*
X069434Y055536D01*
X069220Y055587D01*
X069000Y055604D01*
X068780Y055587D01*
X068566Y055536D01*
X068362Y055451D01*
X068175Y055336D01*
X068007Y055193D01*
X067864Y055025D01*
X067749Y054838D01*
X067664Y054634D01*
X067613Y054420D01*
X067596Y054200D01*
X067613Y053980D01*
X067664Y053766D01*
X067749Y053562D01*
X067864Y053375D01*
X068007Y053207D01*
X068132Y053100D01*
X068115Y053053D01*
X059109D01*
X059092Y053100D01*
X059096Y053104D01*
X059201Y053232D01*
X059279Y053377D01*
X059327Y053536D01*
X059343Y053700D01*
X059327Y053864D01*
X059279Y054023D01*
X059201Y054168D01*
X059096Y054296D01*
X058968Y054401D01*
X058823Y054479D01*
X058664Y054527D01*
X058500Y054543D01*
X058336Y054527D01*
X058177Y054479D01*
X058032Y054401D01*
X057904Y054296D01*
X057799Y054168D01*
X057721Y054023D01*
X057673Y053864D01*
X057657Y053700D01*
X057673Y053536D01*
X057721Y053377D01*
X057799Y053232D01*
X057904Y053104D01*
X057908Y053100D01*
X057891Y053053D01*
X055609D01*
X055592Y053100D01*
X055596Y053104D01*
X055701Y053232D01*
X055779Y053377D01*
X055827Y053536D01*
X055843Y053700D01*
X055827Y053864D01*
X055779Y054023D01*
X055701Y054168D01*
X055596Y054296D01*
X055468Y054401D01*
X055323Y054479D01*
X055164Y054527D01*
X055000Y054543D01*
X054836Y054527D01*
X054677Y054479D01*
X054532Y054401D01*
X054404Y054296D01*
X054299Y054168D01*
X054221Y054023D01*
X054173Y053864D01*
X054157Y053700D01*
X054173Y053536D01*
X054221Y053377D01*
X054299Y053232D01*
X054404Y053104D01*
X054408Y053100D01*
X054391Y053053D01*
X053527D01*
X053505Y053098D01*
X053572Y053185D01*
X053615Y053289D01*
X053623Y053350D01*
X052777D01*
X052785Y053289D01*
X052828Y053185D01*
X052895Y053098D01*
X052873Y053053D01*
X051285D01*
X051268Y053100D01*
X051393Y053207D01*
X051536Y053375D01*
X051651Y053562D01*
X051736Y053766D01*
X051787Y053980D01*
X051804Y054200D01*
X051787Y054420D01*
X051736Y054634D01*
X051651Y054838D01*
X051536Y055025D01*
X051393Y055193D01*
X051225Y055336D01*
X051038Y055451D01*
X050834Y055536D01*
X050620Y055587D01*
X050400Y055604D01*
X050180Y055587D01*
X049966Y055536D01*
X049762Y055451D01*
X049575Y055336D01*
X049407Y055193D01*
X049264Y055025D01*
X049201Y054924D01*
X049153Y054937D01*
Y063543D01*
X049153Y063543D01*
X049153Y063543D01*
Y063543D01*
Y085963D01*
X049201Y085976D01*
X049264Y085875D01*
X049407Y085707D01*
X049575Y085564D01*
X049762Y085449D01*
X049966Y085364D01*
X050180Y085313D01*
X050400Y085296D01*
X050620Y085313D01*
X050834Y085364D01*
X051038Y085449D01*
X051225Y085564D01*
X051393Y085707D01*
X051536Y085875D01*
X051651Y086062D01*
X051736Y086266D01*
X051787Y086480D01*
X051804Y086700D01*
X051787Y086920D01*
X051736Y087134D01*
X051651Y087338D01*
X051536Y087525D01*
X051393Y087693D01*
X051225Y087836D01*
X051038Y087951D01*
X050834Y088036D01*
X050835Y088047D01*
X058620D01*
X058630Y087998D01*
D02*
G37*
G36*
X068474D02*
X068362Y087951D01*
X068175Y087836D01*
X068007Y087693D01*
X067864Y087525D01*
X067749Y087338D01*
X067664Y087134D01*
X067613Y086920D01*
X067596Y086700D01*
X067613Y086480D01*
X067664Y086266D01*
X067749Y086062D01*
X067864Y085875D01*
X068007Y085707D01*
X068175Y085564D01*
X068362Y085449D01*
X068566Y085364D01*
X068780Y085313D01*
X069000Y085296D01*
X069220Y085313D01*
X069434Y085364D01*
X069638Y085449D01*
X069825Y085564D01*
X069993Y085707D01*
X070136Y085875D01*
X070251Y086062D01*
X070298Y086174D01*
X070347Y086165D01*
Y083968D01*
X070299Y083953D01*
X070282Y083978D01*
X069388Y084872D01*
X069314Y084922D01*
X069226Y084939D01*
X068684D01*
X068212Y085412D01*
X067862Y085762D01*
X067787Y085812D01*
X067699Y085829D01*
X066660D01*
X066604Y085904D01*
X066515Y085972D01*
X066411Y086015D01*
X066300Y086029D01*
X066189Y086015D01*
X066085Y085972D01*
X065996Y085904D01*
X065928Y085815D01*
X065885Y085711D01*
X065871Y085600D01*
X065885Y085489D01*
X065928Y085385D01*
X065996Y085296D01*
X066085Y085228D01*
X066189Y085185D01*
X066300Y085171D01*
X066411Y085185D01*
X066515Y085228D01*
X066604Y085296D01*
X066660Y085371D01*
X067604D01*
X067832Y085143D01*
X067810Y085098D01*
X067770Y085103D01*
X067666Y085090D01*
X067568Y085049D01*
X067485Y084985D01*
X067459Y084952D01*
X067409D01*
X067375Y084995D01*
X067292Y085059D01*
X067194Y085100D01*
X067090Y085113D01*
X066986Y085100D01*
X066888Y085059D01*
X066805Y084995D01*
X066741Y084912D01*
X066700Y084814D01*
X066687Y084710D01*
X066700Y084606D01*
X066741Y084508D01*
X066805Y084425D01*
X066888Y084361D01*
X066986Y084320D01*
X067090Y084307D01*
X067101Y084297D01*
Y082922D01*
X067062Y082903D01*
X067019Y082930D01*
Y083580D01*
X067002Y083668D01*
X066952Y083742D01*
X065462Y085232D01*
X065388Y085282D01*
X065300Y085299D01*
X063662D01*
X063640Y085344D01*
X063660Y085371D01*
X064000D01*
X064088Y085388D01*
X064162Y085438D01*
X065279Y086555D01*
X065845D01*
Y087445D01*
X064955D01*
Y086879D01*
X064836Y086760D01*
X064794Y086788D01*
X064834Y086884D01*
X064843Y086950D01*
X064450D01*
Y086557D01*
X064516Y086566D01*
X064612Y086606D01*
X064640Y086564D01*
X063905Y085829D01*
X063660D01*
X063604Y085904D01*
X063515Y085972D01*
X063411Y086015D01*
X063300Y086029D01*
X063189Y086015D01*
X063085Y085972D01*
X062996Y085904D01*
X062928Y085815D01*
X062885Y085711D01*
X062871Y085600D01*
X062885Y085489D01*
X062928Y085385D01*
X062960Y085344D01*
X062938Y085299D01*
X061957D01*
X061935Y085344D01*
X061986Y085410D01*
X062031Y085518D01*
X062039Y085585D01*
X061154D01*
X061163Y085518D01*
X061208Y085410D01*
X061258Y085344D01*
X061236Y085299D01*
X059910D01*
X059822Y085282D01*
X059748Y085232D01*
X059698Y085158D01*
X059693Y085131D01*
X059361Y084799D01*
X059330Y084754D01*
X059281Y084746D01*
X059225Y084789D01*
X059116Y084834D01*
X059000Y084849D01*
X058884Y084834D01*
X058775Y084789D01*
X058744Y084765D01*
X058699Y084787D01*
Y085139D01*
X058717Y085182D01*
X058737Y085199D01*
X058841Y085186D01*
X058957Y085201D01*
X059065Y085246D01*
X059159Y085317D01*
X059230Y085410D01*
X059275Y085518D01*
X059290Y085635D01*
X059275Y085751D01*
X059230Y085859D01*
X059159Y085952D01*
X059070Y086020D01*
Y087218D01*
X059159Y087286D01*
X059230Y087379D01*
X059275Y087487D01*
X059290Y087603D01*
X059275Y087719D01*
X059230Y087828D01*
X059159Y087921D01*
X059065Y087992D01*
X058957Y088037D01*
Y088037D01*
X058958Y088047D01*
X061376D01*
X061386Y087998D01*
X061372Y087992D01*
X061279Y087921D01*
X061208Y087828D01*
X061163Y087719D01*
X061154Y087653D01*
X062039D01*
X062031Y087719D01*
X061986Y087828D01*
X061914Y087921D01*
X061821Y087992D01*
X061713Y088037D01*
Y088037D01*
X061714Y088047D01*
X068465D01*
X068474Y087998D01*
D02*
G37*
%LPC*%
G36*
X050956Y070593D02*
X050903Y070586D01*
X050807Y070546D01*
X050724Y070482D01*
X050660Y070400D01*
X050620Y070303D01*
X050613Y070250D01*
X050956D01*
Y070593D01*
D02*
G37*
G36*
X067097Y071081D02*
X066981Y071065D01*
X066872Y071020D01*
X066779Y070949D01*
X066708Y070856D01*
X066663Y070748D01*
X066648Y070631D01*
X066663Y070515D01*
X066708Y070407D01*
X066779Y070314D01*
X066872Y070243D01*
X066981Y070198D01*
X067097Y070182D01*
X067207Y070197D01*
X067337Y070067D01*
X067309Y070026D01*
X067213Y070065D01*
X067097Y070081D01*
X066981Y070065D01*
X066872Y070020D01*
X066779Y069949D01*
X066708Y069856D01*
X066663Y069748D01*
X066648Y069632D01*
X066663Y069515D01*
X066708Y069407D01*
X066779Y069314D01*
X066872Y069243D01*
X066981Y069198D01*
X067097Y069182D01*
X067213Y069198D01*
X067321Y069243D01*
X067414Y069314D01*
X067486Y069407D01*
X067531Y069515D01*
X067546Y069632D01*
X067531Y069748D01*
X067491Y069844D01*
X067533Y069871D01*
X067977Y069427D01*
Y069296D01*
X067810D01*
Y068504D01*
X068602D01*
Y068681D01*
X068604Y068682D01*
X068650Y068698D01*
X068711Y068618D01*
X068794Y068554D01*
X068890Y068514D01*
X068944Y068507D01*
Y068900D01*
Y069293D01*
X068890Y069286D01*
X068794Y069246D01*
X068711Y069182D01*
X068650Y069102D01*
X068604Y069118D01*
X068602Y069119D01*
Y069296D01*
X068436D01*
Y069522D01*
X068418Y069610D01*
X068369Y069684D01*
X067531Y070521D01*
X067546Y070631D01*
X067531Y070748D01*
X067486Y070856D01*
X067414Y070949D01*
X067321Y071020D01*
X067213Y071065D01*
X067097Y071081D01*
D02*
G37*
G36*
X064047Y070581D02*
X063654D01*
X063663Y070515D01*
X063708Y070407D01*
X063779Y070314D01*
X063872Y070243D01*
X063981Y070198D01*
X064047Y070189D01*
Y070581D01*
D02*
G37*
G36*
X067542Y072077D02*
X066652D01*
Y071186D01*
X067542D01*
Y071402D01*
X068204D01*
Y071098D01*
X068381D01*
X068382Y071096D01*
X068398Y071050D01*
X068318Y070989D01*
X068254Y070906D01*
X068214Y070810D01*
X068201Y070706D01*
X068214Y070603D01*
X068254Y070507D01*
X068318Y070424D01*
X068400Y070360D01*
X068497Y070320D01*
X068600Y070307D01*
X068703Y070320D01*
X068800Y070360D01*
X068882Y070424D01*
X068946Y070507D01*
X068986Y070603D01*
X069000Y070706D01*
X068986Y070810D01*
X068946Y070906D01*
X068882Y070989D01*
X068800Y071052D01*
X068714Y071088D01*
Y071088D01*
X068714D01*
X068703Y071092D01*
Y071092D01*
X068704Y071098D01*
X068996D01*
Y071890D01*
X068204D01*
Y071861D01*
X067542D01*
Y072077D01*
D02*
G37*
G36*
X065500Y075449D02*
X065384Y075434D01*
X065275Y075389D01*
X065182Y075318D01*
X065111Y075225D01*
X065066Y075116D01*
X065051Y075000D01*
X065066Y074884D01*
X065111Y074775D01*
X065182Y074682D01*
X065275Y074611D01*
X065331Y074588D01*
Y071199D01*
X064539Y070408D01*
X064498Y070436D01*
X064531Y070515D01*
X064539Y070581D01*
X064147D01*
Y070189D01*
X064213Y070198D01*
X064293Y070231D01*
X064321Y070189D01*
X064199Y070067D01*
X064097Y070081D01*
X063981Y070065D01*
X063872Y070020D01*
X063779Y069949D01*
X063708Y069856D01*
X063663Y069748D01*
X063648Y069632D01*
X063663Y069515D01*
X063708Y069407D01*
X063779Y069314D01*
X063872Y069243D01*
X063981Y069198D01*
X064097Y069182D01*
X064213Y069198D01*
X064321Y069243D01*
X064414Y069314D01*
X064486Y069407D01*
X064531Y069515D01*
X064546Y069632D01*
X064531Y069748D01*
X064530Y069750D01*
X065722Y070942D01*
X065722Y070942D01*
X065722Y070942D01*
X065772Y071016D01*
X065789Y071104D01*
Y074661D01*
X065818Y074682D01*
X065889Y074775D01*
X065934Y074884D01*
X065949Y075000D01*
X065934Y075116D01*
X065889Y075225D01*
X065818Y075318D01*
X065725Y075389D01*
X065616Y075434D01*
X065500Y075449D01*
D02*
G37*
G36*
X051750Y071950D02*
X051377D01*
X051385Y071889D01*
X051428Y071785D01*
X051496Y071696D01*
X051585Y071628D01*
X051689Y071585D01*
X051750Y071577D01*
Y071950D01*
D02*
G37*
G36*
X064047Y071074D02*
X063981Y071065D01*
X063872Y071020D01*
X063779Y070949D01*
X063708Y070856D01*
X063663Y070748D01*
X063654Y070682D01*
X064047D01*
Y071074D01*
D02*
G37*
G36*
X064147D02*
Y070682D01*
X064539D01*
X064531Y070748D01*
X064486Y070856D01*
X064414Y070949D01*
X064321Y071020D01*
X064213Y071065D01*
X064147Y071074D01*
D02*
G37*
G36*
X050956Y070150D02*
X050613D01*
X050620Y070097D01*
X050660Y070000D01*
X050724Y069918D01*
X050807Y069854D01*
X050903Y069814D01*
X050956Y069807D01*
Y070150D01*
D02*
G37*
G36*
X052550Y065423D02*
X052489Y065415D01*
X052385Y065372D01*
X052296Y065304D01*
X052228Y065215D01*
X052185Y065111D01*
X052177Y065050D01*
X052550D01*
Y065423D01*
D02*
G37*
G36*
X064097Y067081D02*
X063981Y067065D01*
X063872Y067020D01*
X063779Y066949D01*
X063708Y066856D01*
X063663Y066748D01*
X063648Y066631D01*
X063663Y066515D01*
X063708Y066407D01*
X063779Y066314D01*
X063872Y066243D01*
X063981Y066198D01*
X064097Y066182D01*
X064207Y066197D01*
X064337Y066067D01*
X064309Y066026D01*
X064213Y066065D01*
X064097Y066081D01*
X063981Y066065D01*
X063872Y066020D01*
X063779Y065949D01*
X063708Y065856D01*
X063663Y065748D01*
X063648Y065631D01*
X063663Y065515D01*
X063708Y065407D01*
X063779Y065314D01*
X063872Y065243D01*
X063981Y065198D01*
X064097Y065182D01*
X064213Y065198D01*
X064321Y065243D01*
X064414Y065314D01*
X064486Y065407D01*
X064531Y065515D01*
X064546Y065631D01*
X064531Y065748D01*
X064491Y065844D01*
X064533Y065871D01*
X065971Y064433D01*
Y063045D01*
X065755D01*
Y062155D01*
X066645D01*
Y063045D01*
X066429D01*
Y064528D01*
X066412Y064616D01*
X066362Y064691D01*
X064531Y066521D01*
X064546Y066631D01*
X064531Y066748D01*
X064486Y066856D01*
X064414Y066949D01*
X064321Y067020D01*
X064213Y067065D01*
X064097Y067081D01*
D02*
G37*
G36*
X052550Y064950D02*
X052177D01*
X052185Y064889D01*
X052228Y064785D01*
X052296Y064696D01*
X052385Y064628D01*
X052489Y064585D01*
X052550Y064577D01*
Y064950D01*
D02*
G37*
G36*
X053023D02*
X052650D01*
Y064577D01*
X052711Y064585D01*
X052815Y064628D01*
X052904Y064696D01*
X052972Y064785D01*
X053015Y064889D01*
X053023Y064950D01*
D02*
G37*
G36*
X064097Y068081D02*
X063981Y068065D01*
X063872Y068020D01*
X063779Y067949D01*
X063708Y067856D01*
X063663Y067748D01*
X063648Y067632D01*
X063663Y067515D01*
X063708Y067407D01*
X063779Y067314D01*
X063872Y067243D01*
X063981Y067198D01*
X064097Y067182D01*
X064213Y067198D01*
X064321Y067243D01*
X064414Y067314D01*
X064486Y067407D01*
X064531Y067515D01*
X064546Y067632D01*
X064531Y067748D01*
X064486Y067856D01*
X064414Y067949D01*
X064321Y068020D01*
X064213Y068065D01*
X064097Y068081D01*
D02*
G37*
G36*
X069387Y068850D02*
X069044D01*
Y068507D01*
X069097Y068514D01*
X069193Y068554D01*
X069276Y068618D01*
X069340Y068700D01*
X069380Y068797D01*
X069387Y068850D01*
D02*
G37*
G36*
X069044Y069293D02*
Y068950D01*
X069387D01*
X069380Y069003D01*
X069340Y069100D01*
X069276Y069182D01*
X069193Y069246D01*
X069097Y069286D01*
X069044Y069293D01*
D02*
G37*
G36*
X067097Y069081D02*
X066981Y069065D01*
X066872Y069020D01*
X066779Y068949D01*
X066708Y068856D01*
X066663Y068748D01*
X066648Y068632D01*
X066663Y068515D01*
X066708Y068407D01*
X066779Y068314D01*
X066872Y068243D01*
X066981Y068198D01*
X067097Y068182D01*
X067207Y068197D01*
X067337Y068067D01*
X067309Y068026D01*
X067213Y068065D01*
X067097Y068081D01*
X066981Y068065D01*
X066872Y068020D01*
X066779Y067949D01*
X066708Y067856D01*
X066663Y067748D01*
X066648Y067632D01*
X066663Y067515D01*
X066708Y067407D01*
X066779Y067314D01*
X066872Y067243D01*
X066981Y067198D01*
X067097Y067182D01*
X067207Y067197D01*
X067337Y067067D01*
X067309Y067026D01*
X067213Y067065D01*
X067097Y067081D01*
X066981Y067065D01*
X066872Y067020D01*
X066779Y066949D01*
X066708Y066856D01*
X066663Y066748D01*
X066648Y066631D01*
X066663Y066515D01*
X066708Y066407D01*
X066779Y066314D01*
X066872Y066243D01*
X066981Y066198D01*
X067097Y066182D01*
X067207Y066197D01*
X067337Y066067D01*
X067309Y066026D01*
X067213Y066065D01*
X067097Y066081D01*
X066981Y066065D01*
X066872Y066020D01*
X066779Y065949D01*
X066708Y065856D01*
X066663Y065748D01*
X066648Y065631D01*
X066663Y065515D01*
X066708Y065407D01*
X066779Y065314D01*
X066872Y065243D01*
X066981Y065198D01*
X067097Y065182D01*
X067213Y065198D01*
X067321Y065243D01*
X067414Y065314D01*
X067486Y065407D01*
X067531Y065515D01*
X067546Y065631D01*
X067531Y065748D01*
X067491Y065844D01*
X067533Y065871D01*
X068353Y065051D01*
X068350Y065001D01*
X068318Y064976D01*
X068254Y064893D01*
X068214Y064797D01*
X068201Y064694D01*
X068214Y064590D01*
X068254Y064494D01*
X068318Y064411D01*
X068398Y064350D01*
X068382Y064304D01*
X068381Y064302D01*
X068204D01*
Y063956D01*
X068996D01*
Y064302D01*
X068819D01*
X068818Y064304D01*
X068802Y064350D01*
X068882Y064411D01*
X068946Y064494D01*
X068986Y064590D01*
X069000Y064694D01*
X068986Y064797D01*
X068946Y064893D01*
X068882Y064976D01*
X068829Y065017D01*
Y065128D01*
X068812Y065216D01*
X068762Y065291D01*
X068220Y065833D01*
X068235Y065862D01*
X068285Y065866D01*
X068318Y065824D01*
X068400Y065760D01*
X068497Y065720D01*
X068600Y065707D01*
X068703Y065720D01*
X068800Y065760D01*
X068882Y065824D01*
X068946Y065907D01*
X068986Y066003D01*
X069000Y066106D01*
X068986Y066210D01*
X068946Y066306D01*
X068882Y066389D01*
X068800Y066452D01*
X068714Y066488D01*
Y066488D01*
X068714D01*
X068703Y066492D01*
Y066492D01*
X068704Y066498D01*
X068996D01*
Y067290D01*
X068763D01*
X068762Y067291D01*
X067531Y068521D01*
X067546Y068632D01*
X067531Y068748D01*
X067486Y068856D01*
X067414Y068949D01*
X067321Y069020D01*
X067213Y069065D01*
X067097Y069081D01*
D02*
G37*
G36*
X064097D02*
X063981Y069065D01*
X063872Y069020D01*
X063779Y068949D01*
X063708Y068856D01*
X063663Y068748D01*
X063648Y068632D01*
X063663Y068515D01*
X063708Y068407D01*
X063779Y068314D01*
X063872Y068243D01*
X063981Y068198D01*
X064097Y068182D01*
X064213Y068198D01*
X064321Y068243D01*
X064414Y068314D01*
X064486Y068407D01*
X064531Y068515D01*
X064546Y068632D01*
X064531Y068748D01*
X064486Y068856D01*
X064414Y068949D01*
X064321Y069020D01*
X064213Y069065D01*
X064097Y069081D01*
D02*
G37*
G36*
X052223Y071950D02*
X051850D01*
Y071577D01*
X051911Y071585D01*
X052015Y071628D01*
X052104Y071696D01*
X052172Y071785D01*
X052215Y071889D01*
X052223Y071950D01*
D02*
G37*
G36*
X051465Y074065D02*
X051050D01*
Y073650D01*
X051465D01*
Y074065D01*
D02*
G37*
G36*
X053350Y074023D02*
X053289Y074015D01*
X053185Y073972D01*
X053096Y073904D01*
X053028Y073815D01*
X052985Y073711D01*
X052977Y073650D01*
X053350D01*
Y074023D01*
D02*
G37*
G36*
X069044Y073793D02*
Y073450D01*
X069387D01*
X069380Y073503D01*
X069340Y073600D01*
X069276Y073682D01*
X069193Y073746D01*
X069097Y073786D01*
X069044Y073793D01*
D02*
G37*
G36*
X050950Y074065D02*
X050535D01*
Y073650D01*
X050950D01*
Y074065D01*
D02*
G37*
G36*
X053450Y074023D02*
Y073650D01*
X053823D01*
X053815Y073711D01*
X053772Y073815D01*
X053704Y073904D01*
X053615Y073972D01*
X053511Y074015D01*
X053450Y074023D01*
D02*
G37*
G36*
X066450Y074950D02*
X066057D01*
X066066Y074884D01*
X066111Y074775D01*
X066182Y074682D01*
X066275Y074611D01*
X066384Y074566D01*
X066450Y074557D01*
Y074950D01*
D02*
G37*
G36*
X066943D02*
X066550D01*
Y074557D01*
X066616Y074566D01*
X066725Y074611D01*
X066818Y074682D01*
X066889Y074775D01*
X066934Y074884D01*
X066943Y074950D01*
D02*
G37*
G36*
X051000Y075069D02*
X050879Y075053D01*
X050766Y075006D01*
X050668Y074932D01*
X050594Y074834D01*
X050547Y074721D01*
X050531Y074600D01*
X050547Y074479D01*
X050594Y074366D01*
X050668Y074268D01*
X050766Y074194D01*
X050879Y074147D01*
X051000Y074131D01*
X051121Y074147D01*
X051234Y074194D01*
X051332Y074268D01*
X051406Y074366D01*
X051453Y074479D01*
X051469Y074600D01*
X051453Y074721D01*
X051406Y074834D01*
X051332Y074932D01*
X051234Y075006D01*
X051121Y075053D01*
X051000Y075069D01*
D02*
G37*
G36*
X064945Y075445D02*
X064055D01*
Y074555D01*
X064945D01*
Y075445D01*
D02*
G37*
G36*
X060800Y075242D02*
X060616Y075224D01*
X060440Y075170D01*
X060277Y075083D01*
X060134Y074966D01*
X060017Y074823D01*
X059930Y074660D01*
X059876Y074484D01*
X059858Y074300D01*
X059876Y074116D01*
X059930Y073940D01*
X060017Y073777D01*
X060134Y073634D01*
X060277Y073517D01*
X060440Y073430D01*
X060616Y073376D01*
X060800Y073358D01*
X060984Y073376D01*
X061160Y073430D01*
X061323Y073517D01*
X061466Y073634D01*
X061583Y073777D01*
X061670Y073940D01*
X061724Y074116D01*
X061742Y074300D01*
X061724Y074484D01*
X061670Y074660D01*
X061583Y074823D01*
X061466Y074966D01*
X061323Y075083D01*
X061160Y075170D01*
X060984Y075224D01*
X060800Y075242D01*
D02*
G37*
G36*
X068602Y073796D02*
X067810D01*
Y073004D01*
X068602D01*
Y073181D01*
X068604Y073182D01*
X068650Y073198D01*
X068711Y073118D01*
X068794Y073054D01*
X068890Y073014D01*
X068944Y073007D01*
Y073400D01*
Y073793D01*
X068890Y073786D01*
X068794Y073746D01*
X068711Y073682D01*
X068650Y073602D01*
X068604Y073618D01*
X068602Y073619D01*
Y073796D01*
D02*
G37*
G36*
X069387Y073350D02*
X069044D01*
Y073007D01*
X069097Y073014D01*
X069193Y073054D01*
X069276Y073118D01*
X069340Y073200D01*
X069380Y073297D01*
X069387Y073350D01*
D02*
G37*
G36*
X051750Y072423D02*
X051689Y072415D01*
X051585Y072372D01*
X051496Y072304D01*
X051428Y072215D01*
X051385Y072111D01*
X051377Y072050D01*
X051750D01*
Y072423D01*
D02*
G37*
G36*
X051850D02*
Y072050D01*
X052223D01*
X052215Y072111D01*
X052172Y072215D01*
X052104Y072304D01*
X052015Y072372D01*
X051911Y072415D01*
X051850Y072423D01*
D02*
G37*
G36*
X050950Y073550D02*
X050535D01*
Y073135D01*
X050950D01*
Y073550D01*
D02*
G37*
G36*
X053823D02*
X053450D01*
Y073177D01*
X053511Y073185D01*
X053615Y073228D01*
X053704Y073296D01*
X053772Y073385D01*
X053815Y073489D01*
X053823Y073550D01*
D02*
G37*
G36*
X056350Y075242D02*
X056166Y075224D01*
X055990Y075170D01*
X055827Y075083D01*
X055684Y074966D01*
X055567Y074823D01*
X055480Y074660D01*
X055426Y074484D01*
X055408Y074300D01*
X055426Y074116D01*
X055480Y073940D01*
X055567Y073777D01*
X055684Y073634D01*
X055827Y073517D01*
X055990Y073430D01*
X056166Y073376D01*
X056350Y073358D01*
X056534Y073376D01*
X056710Y073430D01*
X056873Y073517D01*
X057016Y073634D01*
X057133Y073777D01*
X057220Y073940D01*
X057274Y074116D01*
X057292Y074300D01*
X057274Y074484D01*
X057220Y074660D01*
X057133Y074823D01*
X057016Y074966D01*
X056873Y075083D01*
X056710Y075170D01*
X056534Y075224D01*
X056350Y075242D01*
D02*
G37*
G36*
X051465Y073550D02*
X051050D01*
Y073135D01*
X051465D01*
Y073550D01*
D02*
G37*
G36*
X053350D02*
X052977D01*
X052985Y073489D01*
X053028Y073385D01*
X053096Y073296D01*
X053185Y073228D01*
X053289Y073185D01*
X053350Y073177D01*
Y073550D01*
D02*
G37*
G36*
X067097Y065081D02*
X066981Y065065D01*
X066872Y065020D01*
X066779Y064949D01*
X066708Y064856D01*
X066663Y064748D01*
X066648Y064632D01*
X066663Y064515D01*
X066708Y064407D01*
X066779Y064314D01*
X066872Y064243D01*
X066981Y064198D01*
X067097Y064182D01*
X067213Y064198D01*
X067321Y064243D01*
X067414Y064314D01*
X067486Y064407D01*
X067531Y064515D01*
X067546Y064632D01*
X067531Y064748D01*
X067486Y064856D01*
X067414Y064949D01*
X067321Y065020D01*
X067213Y065065D01*
X067097Y065081D01*
D02*
G37*
G36*
X069250Y060043D02*
Y059650D01*
X069643D01*
X069634Y059716D01*
X069589Y059825D01*
X069518Y059918D01*
X069425Y059989D01*
X069316Y060034D01*
X069250Y060043D01*
D02*
G37*
G36*
X050756Y060750D02*
X050413D01*
X050420Y060697D01*
X050460Y060600D01*
X050524Y060518D01*
X050607Y060454D01*
X050703Y060414D01*
X050756Y060407D01*
Y060750D01*
D02*
G37*
G36*
X069643Y059550D02*
X068757D01*
X068766Y059484D01*
X068811Y059375D01*
X068882Y059282D01*
X068973Y059213D01*
Y059206D01*
X068947Y059142D01*
X068896Y059104D01*
X068828Y059015D01*
X068785Y058911D01*
X068777Y058850D01*
X069623D01*
X069615Y058911D01*
X069572Y059015D01*
X069504Y059104D01*
X069415Y059172D01*
X069415Y059207D01*
X069425Y059211D01*
X069518Y059282D01*
X069589Y059375D01*
X069634Y059484D01*
X069643Y059550D01*
D02*
G37*
G36*
X069150Y060043D02*
X069084Y060034D01*
X068975Y059989D01*
X068882Y059918D01*
X068811Y059825D01*
X068766Y059716D01*
X068757Y059650D01*
X069150D01*
Y060043D01*
D02*
G37*
G36*
X050756Y061193D02*
X050703Y061186D01*
X050607Y061146D01*
X050524Y061082D01*
X050460Y061000D01*
X050420Y060903D01*
X050413Y060850D01*
X050756D01*
Y061193D01*
D02*
G37*
G36*
X064950Y062523D02*
X064889Y062515D01*
X064785Y062472D01*
X064696Y062404D01*
X064628Y062315D01*
X064585Y062211D01*
X064577Y062150D01*
X064950D01*
Y062523D01*
D02*
G37*
G36*
X065050D02*
Y062150D01*
X065423D01*
X065415Y062211D01*
X065372Y062315D01*
X065304Y062404D01*
X065215Y062472D01*
X065111Y062515D01*
X065050Y062523D01*
D02*
G37*
G36*
X064950Y062050D02*
X064577D01*
X064585Y061989D01*
X064628Y061885D01*
X064696Y061796D01*
X064785Y061728D01*
X064889Y061685D01*
X064950Y061677D01*
Y062050D01*
D02*
G37*
G36*
X065423D02*
X065050D01*
Y061677D01*
X065111Y061685D01*
X065215Y061728D01*
X065304Y061796D01*
X065372Y061885D01*
X065415Y061989D01*
X065423Y062050D01*
D02*
G37*
G36*
X069623Y058750D02*
X069250D01*
Y058377D01*
X069311Y058385D01*
X069415Y058428D01*
X069504Y058496D01*
X069572Y058585D01*
X069615Y058689D01*
X069623Y058750D01*
D02*
G37*
G36*
X063550Y054423D02*
X063489Y054415D01*
X063385Y054372D01*
X063296Y054304D01*
X063228Y054215D01*
X063185Y054111D01*
X063177Y054050D01*
X063550D01*
Y054423D01*
D02*
G37*
G36*
X063650D02*
Y054050D01*
X064023D01*
X064015Y054111D01*
X063972Y054215D01*
X063904Y054304D01*
X063815Y054372D01*
X063711Y054415D01*
X063650Y054423D01*
D02*
G37*
G36*
X053150Y053823D02*
X053089Y053815D01*
X052985Y053772D01*
X052896Y053704D01*
X052828Y053615D01*
X052785Y053511D01*
X052777Y053450D01*
X053150D01*
Y053823D01*
D02*
G37*
G36*
X053250D02*
Y053450D01*
X053623D01*
X053615Y053511D01*
X053572Y053615D01*
X053504Y053704D01*
X053415Y053772D01*
X053311Y053815D01*
X053250Y053823D01*
D02*
G37*
G36*
X064150Y054950D02*
X063757D01*
X063766Y054884D01*
X063811Y054775D01*
X063882Y054682D01*
X063975Y054611D01*
X064084Y054566D01*
X064150Y054557D01*
Y054950D01*
D02*
G37*
G36*
X065234Y059140D02*
X065014Y059123D01*
X064800Y059071D01*
X064596Y058987D01*
X064408Y058872D01*
X064241Y058729D01*
X064098Y058561D01*
X063983Y058373D01*
X063898Y058170D01*
X063847Y057956D01*
X063830Y057736D01*
X063847Y057516D01*
X063898Y057302D01*
X063983Y057098D01*
X064098Y056910D01*
X064241Y056743D01*
X064408Y056600D01*
X064596Y056485D01*
X064800Y056400D01*
X065014Y056349D01*
X065234Y056331D01*
X065454Y056349D01*
X065668Y056400D01*
X065871Y056485D01*
X066059Y056600D01*
X066227Y056743D01*
X066370Y056910D01*
X066485Y057098D01*
X066569Y057302D01*
X066621Y057516D01*
X066638Y057736D01*
X066621Y057956D01*
X066569Y058170D01*
X066485Y058373D01*
X066370Y058561D01*
X066227Y058729D01*
X066059Y058872D01*
X065871Y058987D01*
X065668Y059071D01*
X065454Y059123D01*
X065234Y059140D01*
D02*
G37*
G36*
X069150Y058750D02*
X068777D01*
X068785Y058689D01*
X068828Y058585D01*
X068896Y058496D01*
X068985Y058428D01*
X069089Y058385D01*
X069150Y058377D01*
Y058750D01*
D02*
G37*
G36*
X064643Y054950D02*
X064250D01*
Y054557D01*
X064316Y054566D01*
X064425Y054611D01*
X064518Y054682D01*
X064589Y054775D01*
X064634Y054884D01*
X064643Y054950D01*
D02*
G37*
G36*
X051734Y059140D02*
X051514Y059123D01*
X051300Y059071D01*
X051096Y058987D01*
X050908Y058872D01*
X050741Y058729D01*
X050598Y058561D01*
X050483Y058373D01*
X050398Y058170D01*
X050347Y057956D01*
X050330Y057736D01*
X050347Y057516D01*
X050398Y057302D01*
X050483Y057098D01*
X050598Y056910D01*
X050741Y056743D01*
X050908Y056600D01*
X051096Y056485D01*
X051300Y056400D01*
X051514Y056349D01*
X051734Y056331D01*
X051954Y056349D01*
X052168Y056400D01*
X052371Y056485D01*
X052559Y056600D01*
X052727Y056743D01*
X052870Y056910D01*
X052985Y057098D01*
X053069Y057302D01*
X053121Y057516D01*
X053138Y057736D01*
X053121Y057956D01*
X053069Y058170D01*
X052985Y058373D01*
X052870Y058561D01*
X052727Y058729D01*
X052559Y058872D01*
X052371Y058987D01*
X052168Y059071D01*
X051954Y059123D01*
X051734Y059140D01*
D02*
G37*
G36*
X050550Y063550D02*
X050157D01*
X050166Y063484D01*
X050211Y063375D01*
X050282Y063282D01*
X050375Y063211D01*
X050484Y063166D01*
X050550Y063157D01*
Y063550D01*
D02*
G37*
G36*
X051043D02*
X050650D01*
Y063157D01*
X050716Y063166D01*
X050825Y063211D01*
X050918Y063282D01*
X050989Y063375D01*
X051034Y063484D01*
X051043Y063550D01*
D02*
G37*
G36*
X069150Y063043D02*
X069084Y063034D01*
X068975Y062989D01*
X068882Y062918D01*
X068811Y062825D01*
X068766Y062716D01*
X068757Y062650D01*
X069150D01*
Y063043D01*
D02*
G37*
G36*
X069250D02*
Y062650D01*
X069643D01*
X069634Y062716D01*
X069589Y062825D01*
X069518Y062918D01*
X069425Y062989D01*
X069316Y063034D01*
X069250Y063043D01*
D02*
G37*
G36*
X068550Y063856D02*
X068204D01*
Y063510D01*
X068550D01*
Y063856D01*
D02*
G37*
G36*
X050650Y064043D02*
Y063650D01*
X051043D01*
X051034Y063716D01*
X050989Y063825D01*
X050918Y063918D01*
X050825Y063989D01*
X050716Y064034D01*
X050650Y064043D01*
D02*
G37*
G36*
X064097Y065081D02*
X063981Y065065D01*
X063872Y065020D01*
X063779Y064949D01*
X063708Y064856D01*
X063663Y064748D01*
X063648Y064632D01*
X063663Y064515D01*
X063708Y064407D01*
X063779Y064314D01*
X063872Y064243D01*
X063981Y064198D01*
X064097Y064182D01*
X064213Y064198D01*
X064321Y064243D01*
X064414Y064314D01*
X064486Y064407D01*
X064531Y064515D01*
X064546Y064632D01*
X064531Y064748D01*
X064486Y064856D01*
X064414Y064949D01*
X064321Y065020D01*
X064213Y065065D01*
X064097Y065081D01*
D02*
G37*
G36*
X068996Y063856D02*
X068650D01*
Y063510D01*
X068996D01*
Y063856D01*
D02*
G37*
G36*
X050550Y064043D02*
X050484Y064034D01*
X050375Y063989D01*
X050282Y063918D01*
X050211Y063825D01*
X050166Y063716D01*
X050157Y063650D01*
X050550D01*
Y064043D01*
D02*
G37*
G36*
X068250Y063043D02*
Y062650D01*
X068643D01*
X068634Y062716D01*
X068589Y062825D01*
X068518Y062918D01*
X068425Y062989D01*
X068316Y063034D01*
X068250Y063043D01*
D02*
G37*
G36*
X068150Y062550D02*
X067757D01*
X067766Y062484D01*
X067811Y062375D01*
X067882Y062282D01*
X067975Y062211D01*
X068084Y062166D01*
X068150Y062157D01*
Y062550D01*
D02*
G37*
G36*
X068643D02*
X068250D01*
Y062157D01*
X068316Y062166D01*
X068425Y062211D01*
X068518Y062282D01*
X068589Y062375D01*
X068634Y062484D01*
X068643Y062550D01*
D02*
G37*
G36*
X067150D02*
X066757D01*
X066766Y062484D01*
X066811Y062375D01*
X066882Y062282D01*
X066975Y062211D01*
X067084Y062166D01*
X067150Y062157D01*
Y062550D01*
D02*
G37*
G36*
X067643D02*
X067250D01*
Y062157D01*
X067316Y062166D01*
X067425Y062211D01*
X067518Y062282D01*
X067589Y062375D01*
X067634Y062484D01*
X067643Y062550D01*
D02*
G37*
G36*
X069150D02*
X068757D01*
X068766Y062484D01*
X068811Y062375D01*
X068882Y062282D01*
X068975Y062211D01*
X069084Y062166D01*
X069150Y062157D01*
Y062550D01*
D02*
G37*
G36*
X067250Y063043D02*
Y062650D01*
X067643D01*
X067634Y062716D01*
X067589Y062825D01*
X067518Y062918D01*
X067425Y062989D01*
X067316Y063034D01*
X067250Y063043D01*
D02*
G37*
G36*
X068150D02*
X068084Y063034D01*
X067975Y062989D01*
X067882Y062918D01*
X067811Y062825D01*
X067766Y062716D01*
X067757Y062650D01*
X068150D01*
Y063043D01*
D02*
G37*
G36*
X069643Y062550D02*
X069250D01*
Y062157D01*
X069316Y062166D01*
X069425Y062211D01*
X069518Y062282D01*
X069589Y062375D01*
X069634Y062484D01*
X069643Y062550D01*
D02*
G37*
G36*
X067150Y063043D02*
X067084Y063034D01*
X066975Y062989D01*
X066882Y062918D01*
X066811Y062825D01*
X066766Y062716D01*
X066757Y062650D01*
X067150D01*
Y063043D01*
D02*
G37*
G36*
X060443Y084350D02*
X060050D01*
Y083957D01*
X060116Y083966D01*
X060225Y084011D01*
X060318Y084082D01*
X060389Y084175D01*
X060434Y084284D01*
X060443Y084350D01*
D02*
G37*
G36*
X062950D02*
X062557D01*
X062566Y084284D01*
X062611Y084175D01*
X062682Y084082D01*
X062775Y084011D01*
X062884Y083966D01*
X062950Y083957D01*
Y084350D01*
D02*
G37*
G36*
X068650Y084043D02*
Y083650D01*
X069043D01*
X069034Y083716D01*
X068989Y083825D01*
X068918Y083918D01*
X068825Y083989D01*
X068716Y084034D01*
X068650Y084043D01*
D02*
G37*
G36*
X057000Y084849D02*
X056884Y084834D01*
X056775Y084789D01*
X056682Y084718D01*
X056611Y084625D01*
X056566Y084516D01*
X056551Y084400D01*
X056566Y084284D01*
X056611Y084175D01*
X056682Y084082D01*
X056775Y084011D01*
X056884Y083966D01*
X057000Y083951D01*
X057116Y083966D01*
X057225Y084011D01*
X057318Y084082D01*
X057389Y084175D01*
X057434Y084284D01*
X057449Y084400D01*
X057434Y084516D01*
X057389Y084625D01*
X057318Y084718D01*
X057225Y084789D01*
X057116Y084834D01*
X057000Y084849D01*
D02*
G37*
G36*
X063443Y084350D02*
X063050D01*
Y083957D01*
X063116Y083966D01*
X063225Y084011D01*
X063318Y084082D01*
X063389Y084175D01*
X063434Y084284D01*
X063443Y084350D01*
D02*
G37*
G36*
X050150Y084550D02*
X049777D01*
X049785Y084489D01*
X049828Y084385D01*
X049896Y084296D01*
X049985Y084228D01*
X050089Y084185D01*
X050150Y084177D01*
Y084550D01*
D02*
G37*
G36*
X050623D02*
X050250D01*
Y084177D01*
X050311Y084185D01*
X050415Y084228D01*
X050504Y084296D01*
X050572Y084385D01*
X050615Y084489D01*
X050623Y084550D01*
D02*
G37*
G36*
X063950Y084350D02*
X063557D01*
X063566Y084284D01*
X063611Y084175D01*
X063682Y084082D01*
X063775Y084011D01*
X063884Y083966D01*
X063950Y083957D01*
Y084350D01*
D02*
G37*
G36*
X064443D02*
X064050D01*
Y083957D01*
X064116Y083966D01*
X064225Y084011D01*
X064318Y084082D01*
X064389Y084175D01*
X064434Y084284D01*
X064443Y084350D01*
D02*
G37*
G36*
X068550Y084043D02*
X068484Y084034D01*
X068375Y083989D01*
X068282Y083918D01*
X068211Y083825D01*
X068166Y083716D01*
X068157Y083650D01*
X068550D01*
Y084043D01*
D02*
G37*
G36*
X064000Y083849D02*
X063884Y083834D01*
X063775Y083789D01*
X063682Y083718D01*
X063611Y083625D01*
X063566Y083516D01*
X063551Y083400D01*
X063566Y083284D01*
X063611Y083175D01*
X063682Y083082D01*
X063775Y083011D01*
X063884Y082966D01*
X064000Y082951D01*
X064116Y082966D01*
X064225Y083011D01*
X064318Y083082D01*
X064389Y083175D01*
X064434Y083284D01*
X064449Y083400D01*
X064434Y083516D01*
X064389Y083625D01*
X064318Y083718D01*
X064225Y083789D01*
X064116Y083834D01*
X064000Y083849D01*
D02*
G37*
G36*
X065000D02*
X064884Y083834D01*
X064775Y083789D01*
X064682Y083718D01*
X064611Y083625D01*
X064566Y083516D01*
X064551Y083400D01*
X064566Y083284D01*
X064611Y083175D01*
X064682Y083082D01*
X064775Y083011D01*
X064884Y082966D01*
X065000Y082951D01*
X065116Y082966D01*
X065225Y083011D01*
X065318Y083082D01*
X065389Y083175D01*
X065434Y083284D01*
X065449Y083400D01*
X065434Y083516D01*
X065389Y083625D01*
X065318Y083718D01*
X065225Y083789D01*
X065116Y083834D01*
X065000Y083849D01*
D02*
G37*
G36*
X059000D02*
X058884Y083834D01*
X058775Y083789D01*
X058682Y083718D01*
X058611Y083625D01*
X058566Y083516D01*
X058551Y083400D01*
X058566Y083284D01*
X058611Y083175D01*
X058682Y083082D01*
X058775Y083011D01*
X058884Y082966D01*
X059000Y082951D01*
X059116Y082966D01*
X059225Y083011D01*
X059318Y083082D01*
X059389Y083175D01*
X059434Y083284D01*
X059449Y083400D01*
X059434Y083516D01*
X059389Y083625D01*
X059318Y083718D01*
X059225Y083789D01*
X059116Y083834D01*
X059000Y083849D01*
D02*
G37*
G36*
X063000D02*
X062884Y083834D01*
X062775Y083789D01*
X062682Y083718D01*
X062611Y083625D01*
X062566Y083516D01*
X062551Y083400D01*
X062566Y083284D01*
X062611Y083175D01*
X062682Y083082D01*
X062775Y083011D01*
X062884Y082966D01*
X063000Y082951D01*
X063116Y082966D01*
X063225Y083011D01*
X063318Y083082D01*
X063389Y083175D01*
X063434Y083284D01*
X063449Y083400D01*
X063434Y083516D01*
X063389Y083625D01*
X063318Y083718D01*
X063225Y083789D01*
X063116Y083834D01*
X063000Y083849D01*
D02*
G37*
G36*
X062443Y083350D02*
X062050D01*
Y082957D01*
X062116Y082966D01*
X062225Y083011D01*
X062318Y083082D01*
X062389Y083175D01*
X062434Y083284D01*
X062443Y083350D01*
D02*
G37*
G36*
X069550Y083550D02*
X069157D01*
X069166Y083484D01*
X069211Y083375D01*
X069282Y083282D01*
X069375Y083211D01*
X069484Y083166D01*
X069550Y083157D01*
Y083550D01*
D02*
G37*
G36*
X062050Y083843D02*
Y083450D01*
X062443D01*
X062434Y083516D01*
X062389Y083625D01*
X062318Y083718D01*
X062225Y083789D01*
X062116Y083834D01*
X062050Y083843D01*
D02*
G37*
G36*
X068550Y083550D02*
X068157D01*
X068166Y083484D01*
X068211Y083375D01*
X068282Y083282D01*
X068375Y083211D01*
X068484Y083166D01*
X068550Y083157D01*
Y083550D01*
D02*
G37*
G36*
X069043D02*
X068650D01*
Y083157D01*
X068716Y083166D01*
X068825Y083211D01*
X068918Y083282D01*
X068989Y083375D01*
X069034Y083484D01*
X069043Y083550D01*
D02*
G37*
G36*
X064350Y086950D02*
X063957D01*
X063966Y086884D01*
X064011Y086775D01*
X064082Y086682D01*
X064175Y086611D01*
X064284Y086566D01*
X064350Y086557D01*
Y086950D01*
D02*
G37*
G36*
X053550Y087443D02*
X053484Y087434D01*
X053375Y087389D01*
X053282Y087318D01*
X053211Y087225D01*
X053166Y087116D01*
X053157Y087050D01*
X053550D01*
Y087443D01*
D02*
G37*
G36*
Y086950D02*
X053157D01*
X053166Y086884D01*
X053211Y086775D01*
X053282Y086682D01*
X053375Y086611D01*
X053484Y086566D01*
X053550Y086557D01*
Y086950D01*
D02*
G37*
G36*
X054043D02*
X053650D01*
Y086557D01*
X053716Y086566D01*
X053825Y086611D01*
X053918Y086682D01*
X053989Y086775D01*
X054034Y086884D01*
X054043Y086950D01*
D02*
G37*
G36*
X053650Y087443D02*
Y087050D01*
X054043D01*
X054034Y087116D01*
X053989Y087225D01*
X053918Y087318D01*
X053825Y087389D01*
X053716Y087434D01*
X053650Y087443D01*
D02*
G37*
G36*
X061547Y087553D02*
X061154D01*
X061163Y087487D01*
X061208Y087379D01*
X061279Y087286D01*
X061372Y087214D01*
X061481Y087169D01*
X061547Y087161D01*
Y087553D01*
D02*
G37*
G36*
X062039D02*
X061647D01*
Y087161D01*
X061713Y087169D01*
X061821Y087214D01*
X061914Y087286D01*
X061986Y087379D01*
X062031Y087487D01*
X062039Y087553D01*
D02*
G37*
G36*
X064350Y087443D02*
X064284Y087434D01*
X064175Y087389D01*
X064082Y087318D01*
X064011Y087225D01*
X063966Y087116D01*
X063957Y087050D01*
X064350D01*
Y087443D01*
D02*
G37*
G36*
X064450D02*
Y087050D01*
X064843D01*
X064834Y087116D01*
X064789Y087225D01*
X064718Y087318D01*
X064625Y087389D01*
X064516Y087434D01*
X064450Y087443D01*
D02*
G37*
G36*
X061647Y086077D02*
Y085685D01*
X062039D01*
X062031Y085751D01*
X061986Y085859D01*
X061914Y085952D01*
X061821Y086024D01*
X061713Y086068D01*
X061647Y086077D01*
D02*
G37*
G36*
X050150Y085023D02*
X050089Y085015D01*
X049985Y084972D01*
X049896Y084904D01*
X049828Y084815D01*
X049785Y084711D01*
X049777Y084650D01*
X050150D01*
Y085023D01*
D02*
G37*
G36*
X050250D02*
Y084650D01*
X050623D01*
X050615Y084711D01*
X050572Y084815D01*
X050504Y084904D01*
X050415Y084972D01*
X050311Y085015D01*
X050250Y085023D01*
D02*
G37*
G36*
X053350Y084550D02*
X052977D01*
X052985Y084489D01*
X053028Y084385D01*
X053096Y084296D01*
X053185Y084228D01*
X053289Y084185D01*
X053350Y084177D01*
Y084550D01*
D02*
G37*
G36*
X053823D02*
X053450D01*
Y084177D01*
X053511Y084185D01*
X053615Y084228D01*
X053704Y084296D01*
X053772Y084385D01*
X053815Y084489D01*
X053823Y084550D01*
D02*
G37*
G36*
X053350Y085023D02*
X053289Y085015D01*
X053185Y084972D01*
X053096Y084904D01*
X053028Y084815D01*
X052985Y084711D01*
X052977Y084650D01*
X053350D01*
Y085023D01*
D02*
G37*
G36*
X054900Y087629D02*
X054789Y087615D01*
X054685Y087572D01*
X054596Y087504D01*
X054528Y087415D01*
X054485Y087311D01*
X054471Y087200D01*
X054485Y087089D01*
X054528Y086985D01*
X054596Y086896D01*
X054685Y086828D01*
X054789Y086785D01*
X054871Y086775D01*
Y085960D01*
X054796Y085904D01*
X054728Y085815D01*
X054685Y085711D01*
X054671Y085600D01*
X054683Y085507D01*
X054258Y085082D01*
X054208Y085008D01*
X054191Y084920D01*
Y084495D01*
X052915Y083219D01*
X050590D01*
X050502Y083202D01*
X050427Y083152D01*
X050293Y083017D01*
X050200Y083029D01*
X050089Y083015D01*
X049985Y082972D01*
X049896Y082904D01*
X049828Y082815D01*
X049785Y082711D01*
X049771Y082600D01*
X049785Y082489D01*
X049828Y082385D01*
X049896Y082296D01*
X049985Y082228D01*
X050089Y082185D01*
X050200Y082171D01*
X050311Y082185D01*
X050415Y082228D01*
X050504Y082296D01*
X050572Y082385D01*
X050615Y082489D01*
X050629Y082600D01*
X050617Y082693D01*
X050685Y082760D01*
X052961D01*
X052989Y082719D01*
X052985Y082711D01*
X052971Y082600D01*
X052985Y082489D01*
X053028Y082385D01*
X053096Y082296D01*
X053185Y082228D01*
X053211Y082218D01*
Y080515D01*
X052465Y079769D01*
X050600D01*
X050512Y079752D01*
X050438Y079702D01*
X049638Y078902D01*
X049588Y078828D01*
X049571Y078740D01*
Y072360D01*
X049496Y072304D01*
X049428Y072215D01*
X049385Y072111D01*
X049371Y072000D01*
X049385Y071889D01*
X049428Y071785D01*
X049496Y071696D01*
X049561Y071647D01*
Y067485D01*
X049578Y067397D01*
X049628Y067323D01*
X049628Y067323D01*
X049628Y067323D01*
X051015Y065935D01*
Y065290D01*
X051985D01*
Y065545D01*
X052720D01*
X052885Y065381D01*
X052852Y065343D01*
X052815Y065372D01*
X052711Y065415D01*
X052650Y065423D01*
Y065050D01*
X053023D01*
X053015Y065111D01*
X052972Y065215D01*
X052943Y065252D01*
X052981Y065285D01*
X053131Y065135D01*
Y063455D01*
X052963Y063288D01*
X052913Y063291D01*
X052904Y063304D01*
X052815Y063372D01*
X052711Y063415D01*
X052600Y063429D01*
X052507Y063417D01*
X052162Y063762D01*
X052088Y063812D01*
X052045Y063820D01*
Y064045D01*
X051155D01*
Y063155D01*
X052045D01*
Y063165D01*
X052091Y063184D01*
X052183Y063093D01*
X052171Y063000D01*
X052183Y062907D01*
X051431Y062156D01*
X051382Y062081D01*
X051364Y061994D01*
Y061196D01*
X051198D01*
Y061019D01*
X051196Y061018D01*
X051150Y061002D01*
X051089Y061082D01*
X051006Y061146D01*
X050910Y061186D01*
X050856Y061193D01*
Y060800D01*
Y060407D01*
X050910Y060414D01*
X051006Y060454D01*
X051089Y060518D01*
X051150Y060598D01*
X051196Y060582D01*
X051198Y060581D01*
Y060404D01*
X051990D01*
Y061196D01*
X051823D01*
Y061899D01*
X052507Y062583D01*
X052600Y062571D01*
X052711Y062585D01*
X052815Y062628D01*
X052904Y062696D01*
X052960Y062771D01*
X053000D01*
X053088Y062788D01*
X053162Y062838D01*
X053522Y063198D01*
X053522Y063198D01*
X053522Y063198D01*
X053572Y063272D01*
X053589Y063360D01*
Y065230D01*
X053574Y065309D01*
X053618Y065333D01*
X053941Y065010D01*
Y058200D01*
Y056465D01*
X053293Y055817D01*
X053200Y055829D01*
X053089Y055815D01*
X052985Y055772D01*
X052896Y055704D01*
X052828Y055615D01*
X052785Y055511D01*
X052771Y055400D01*
X052785Y055289D01*
X052828Y055185D01*
X052896Y055096D01*
X052985Y055028D01*
X053089Y054985D01*
X053200Y054971D01*
X053311Y054985D01*
X053415Y055028D01*
X053504Y055096D01*
X053560Y055171D01*
X059725D01*
X061688Y053208D01*
X061762Y053158D01*
X061850Y053141D01*
X064970D01*
X065058Y053158D01*
X065132Y053208D01*
X065132Y053208D01*
X065132Y053208D01*
X065507Y053583D01*
X065600Y053571D01*
X065711Y053585D01*
X065815Y053628D01*
X065904Y053696D01*
X065960Y053771D01*
X066400D01*
X066488Y053788D01*
X066562Y053838D01*
X069107Y056383D01*
X069200Y056371D01*
X069311Y056385D01*
X069415Y056428D01*
X069504Y056496D01*
X069572Y056585D01*
X069615Y056689D01*
X069629Y056800D01*
X069615Y056911D01*
X069572Y057015D01*
X069504Y057104D01*
X069415Y057172D01*
X069311Y057215D01*
X069200Y057229D01*
X069089Y057215D01*
X068985Y057172D01*
X068896Y057104D01*
X068828Y057015D01*
X068785Y056911D01*
X068771Y056800D01*
X068783Y056707D01*
X066305Y054229D01*
X065960D01*
X065904Y054304D01*
X065829Y054360D01*
Y054600D01*
X065812Y054688D01*
X065762Y054762D01*
X065645Y054879D01*
Y055381D01*
X066960D01*
X067048Y055398D01*
X067122Y055448D01*
X068362Y056688D01*
X068412Y056762D01*
X068429Y056850D01*
Y059215D01*
X068518Y059282D01*
X068589Y059375D01*
X068634Y059484D01*
X068649Y059600D01*
X068634Y059716D01*
X068589Y059825D01*
X068518Y059918D01*
X068425Y059989D01*
X068316Y060034D01*
X068200Y060049D01*
X068084Y060034D01*
X067975Y059989D01*
X067882Y059918D01*
X067811Y059825D01*
X067766Y059716D01*
X067751Y059600D01*
X067766Y059484D01*
X067811Y059375D01*
X067882Y059282D01*
X067971Y059215D01*
Y056945D01*
X066865Y055839D01*
X066809D01*
X066790Y055886D01*
X067362Y056458D01*
X067362Y056458D01*
X067362Y056458D01*
X067412Y056532D01*
X067429Y056620D01*
Y059215D01*
X067518Y059282D01*
X067589Y059375D01*
X067634Y059484D01*
X067649Y059600D01*
X067634Y059716D01*
X067589Y059825D01*
X067518Y059918D01*
X067425Y059989D01*
X067316Y060034D01*
X067200Y060049D01*
X067084Y060034D01*
X066975Y059989D01*
X066882Y059918D01*
X066811Y059825D01*
X066766Y059716D01*
X066751Y059600D01*
X066766Y059484D01*
X066811Y059375D01*
X066882Y059282D01*
X066971Y059215D01*
Y056715D01*
X066445Y056189D01*
X063169D01*
X063082Y056172D01*
X063007Y056122D01*
X062318Y055433D01*
X062316Y055434D01*
X062200Y055449D01*
X062084Y055434D01*
X061975Y055389D01*
X061882Y055318D01*
X061811Y055225D01*
X061766Y055116D01*
X061751Y055000D01*
X061766Y054884D01*
X061811Y054775D01*
X061882Y054682D01*
X061975Y054611D01*
X062084Y054566D01*
X062200Y054551D01*
X062316Y054566D01*
X062425Y054611D01*
X062518Y054682D01*
X062589Y054775D01*
X062634Y054884D01*
X062649Y055000D01*
X062636Y055102D01*
X062758Y055224D01*
X062799Y055196D01*
X062766Y055116D01*
X062751Y055000D01*
X062766Y054884D01*
X062811Y054775D01*
X062882Y054682D01*
X062975Y054611D01*
X063084Y054566D01*
X063200Y054551D01*
X063316Y054566D01*
X063425Y054611D01*
X063518Y054682D01*
X063589Y054775D01*
X063634Y054884D01*
X063649Y055000D01*
X063636Y055102D01*
X063758Y055224D01*
X063799Y055196D01*
X063766Y055116D01*
X063757Y055050D01*
X064643D01*
X064634Y055116D01*
X064589Y055225D01*
X064518Y055318D01*
X064497Y055333D01*
X064513Y055381D01*
X064755D01*
Y054555D01*
X065321D01*
X065371Y054505D01*
Y054360D01*
X065296Y054304D01*
X065228Y054215D01*
X065185Y054111D01*
X065171Y054000D01*
X065183Y053907D01*
X064875Y053599D01*
X063855D01*
X063839Y053647D01*
X063904Y053696D01*
X063972Y053785D01*
X064015Y053889D01*
X064023Y053950D01*
X063177D01*
X063185Y053889D01*
X063228Y053785D01*
X063296Y053696D01*
X063361Y053647D01*
X063345Y053599D01*
X061945D01*
X059982Y055562D01*
X059908Y055612D01*
X059820Y055629D01*
X053819D01*
X053800Y055676D01*
X054332Y056208D01*
X054332Y056208D01*
X054332Y056208D01*
X054382Y056282D01*
X054399Y056370D01*
Y057971D01*
X055887D01*
X055899Y057922D01*
X055827Y057883D01*
X055684Y057766D01*
X055567Y057623D01*
X055480Y057460D01*
X055426Y057284D01*
X055408Y057100D01*
X055426Y056916D01*
X055480Y056740D01*
X055567Y056577D01*
X055684Y056434D01*
X055827Y056317D01*
X055990Y056230D01*
X056166Y056176D01*
X056350Y056158D01*
X056534Y056176D01*
X056710Y056230D01*
X056873Y056317D01*
X057016Y056434D01*
X057133Y056577D01*
X057220Y056740D01*
X057274Y056916D01*
X057292Y057100D01*
X057274Y057284D01*
X057220Y057460D01*
X057133Y057623D01*
X057016Y057766D01*
X056873Y057883D01*
X056710Y057970D01*
D01*
X056710D01*
X056711Y057970D01*
X056711Y057971D01*
X060387D01*
X060399Y057922D01*
X060327Y057883D01*
X060184Y057766D01*
X060067Y057623D01*
X059980Y057460D01*
X059926Y057284D01*
X059908Y057100D01*
X059926Y056916D01*
X059980Y056740D01*
X060067Y056577D01*
X060184Y056434D01*
X060327Y056317D01*
X060490Y056230D01*
X060666Y056176D01*
X060850Y056158D01*
X061034Y056176D01*
X061210Y056230D01*
X061373Y056317D01*
X061516Y056434D01*
X061633Y056577D01*
X061720Y056740D01*
X061774Y056916D01*
X061792Y057100D01*
X061774Y057284D01*
X061720Y057460D01*
X061633Y057623D01*
X061516Y057766D01*
X061373Y057883D01*
X061210Y057970D01*
D01*
X061210D01*
X061210Y057970D01*
X061211Y057971D01*
X063100D01*
X063188Y057988D01*
X063262Y058038D01*
X063262Y058038D01*
X063262Y058038D01*
X064907Y059683D01*
X065000Y059671D01*
X065111Y059685D01*
X065215Y059728D01*
X065304Y059796D01*
X065360Y059871D01*
X065605D01*
X065765Y059710D01*
X065751Y059600D01*
X065766Y059484D01*
X065811Y059375D01*
X065882Y059282D01*
X065975Y059211D01*
X066084Y059166D01*
X066200Y059151D01*
X066316Y059166D01*
X066425Y059211D01*
X066518Y059282D01*
X066589Y059375D01*
X066634Y059484D01*
X066649Y059600D01*
X066634Y059716D01*
X066589Y059825D01*
X066518Y059918D01*
X066425Y059989D01*
X066316Y060034D01*
X066200Y060049D01*
X066090Y060035D01*
X065862Y060262D01*
X065788Y060312D01*
X065700Y060329D01*
X065360D01*
X065304Y060404D01*
X065215Y060472D01*
X065111Y060515D01*
X065000Y060529D01*
X064889Y060515D01*
X064785Y060472D01*
X064696Y060404D01*
X064628Y060315D01*
X064585Y060211D01*
X064571Y060100D01*
X064583Y060007D01*
X063005Y058429D01*
X054399D01*
Y065105D01*
X054382Y065193D01*
X054332Y065267D01*
X051966Y067633D01*
X051972Y067648D01*
X051989Y067775D01*
X051972Y067901D01*
X051923Y068019D01*
X051846Y068120D01*
X051744Y068198D01*
X051729Y068204D01*
Y069804D01*
X052190D01*
Y070272D01*
X054615Y072697D01*
X063459D01*
X063867Y072288D01*
Y072017D01*
X063779Y071949D01*
X063708Y071856D01*
X063663Y071748D01*
X063648Y071631D01*
X063663Y071515D01*
X063708Y071407D01*
X063779Y071314D01*
X063872Y071243D01*
X063981Y071198D01*
X064097Y071182D01*
X064213Y071198D01*
X064321Y071243D01*
X064414Y071314D01*
X064486Y071407D01*
X064531Y071515D01*
X064546Y071631D01*
X064531Y071748D01*
X064486Y071856D01*
X064414Y071949D01*
X064326Y072017D01*
Y072383D01*
X064309Y072471D01*
X064259Y072545D01*
X063716Y073089D01*
X063641Y073138D01*
X063554Y073156D01*
X054749D01*
Y075270D01*
X054732Y075358D01*
X054682Y075432D01*
X054352Y075762D01*
X054278Y075812D01*
X054190Y075829D01*
X053760D01*
X053704Y075904D01*
X053615Y075972D01*
X053511Y076015D01*
X053400Y076029D01*
X053289Y076015D01*
X053185Y075972D01*
X053096Y075904D01*
X053040Y075829D01*
X051408D01*
X051406Y075834D01*
X051332Y075932D01*
X051234Y076006D01*
X051121Y076053D01*
X051000Y076069D01*
X050879Y076053D01*
X050766Y076006D01*
X050668Y075932D01*
X050594Y075834D01*
X050547Y075721D01*
X050531Y075600D01*
X050547Y075479D01*
X050594Y075366D01*
X050668Y075268D01*
X050766Y075194D01*
X050879Y075147D01*
X051000Y075131D01*
X051121Y075147D01*
X051234Y075194D01*
X051332Y075268D01*
X051406Y075366D01*
X051408Y075371D01*
X053040D01*
X053096Y075296D01*
X053185Y075228D01*
X053289Y075185D01*
X053400Y075171D01*
X053511Y075185D01*
X053615Y075228D01*
X053704Y075296D01*
X053760Y075371D01*
X054095D01*
X054291Y075175D01*
Y073021D01*
X051865Y070596D01*
X051398D01*
Y070419D01*
X051396Y070418D01*
X051350Y070402D01*
X051289Y070482D01*
X051206Y070546D01*
X051110Y070586D01*
X051056Y070593D01*
Y070200D01*
Y069807D01*
X051110Y069814D01*
X051206Y069854D01*
X051226Y069869D01*
X051271Y069847D01*
Y068204D01*
X051256Y068198D01*
X051154Y068120D01*
X051077Y068019D01*
X051028Y067901D01*
X051011Y067775D01*
X051028Y067648D01*
X051077Y067530D01*
X051154Y067429D01*
X051256Y067351D01*
X051373Y067303D01*
X051395Y067300D01*
Y067250D01*
X051373Y067247D01*
X051256Y067198D01*
X051154Y067120D01*
X051077Y067019D01*
X051028Y066901D01*
X051018Y066825D01*
X051982D01*
X051972Y066901D01*
X051967Y066914D01*
X052008Y066942D01*
X052918Y066033D01*
X052894Y065988D01*
X052815Y066004D01*
X051985D01*
Y066259D01*
X051650D01*
X051641Y066308D01*
X051744Y066351D01*
X051846Y066429D01*
X051923Y066530D01*
X051972Y066648D01*
X051982Y066725D01*
X051018D01*
X051028Y066648D01*
X051033Y066635D01*
X050992Y066608D01*
X050019Y067580D01*
Y071632D01*
X050104Y071696D01*
X050172Y071785D01*
X050215Y071889D01*
X050229Y072000D01*
X050215Y072111D01*
X050172Y072215D01*
X050104Y072304D01*
X050029Y072360D01*
Y078645D01*
X050695Y079311D01*
X052560D01*
X052648Y079328D01*
X052722Y079378D01*
X052722Y079378D01*
X052722Y079378D01*
X053602Y080258D01*
X053602Y080258D01*
X053602Y080258D01*
X053652Y080332D01*
X053669Y080420D01*
Y082270D01*
X053704Y082296D01*
X053772Y082385D01*
X053815Y082489D01*
X053829Y082600D01*
X053825Y082631D01*
X054365Y083171D01*
X055555D01*
Y082955D01*
X056445D01*
Y083845D01*
X055555D01*
Y083629D01*
X054270D01*
X054182Y083612D01*
X054108Y083562D01*
X053546Y083000D01*
X053511Y083015D01*
X053400Y083029D01*
X053391Y083047D01*
X054515Y084171D01*
X055615D01*
X055682Y084082D01*
X055775Y084011D01*
X055884Y083966D01*
X056000Y083951D01*
X056116Y083966D01*
X056225Y084011D01*
X056318Y084082D01*
X056389Y084175D01*
X056434Y084284D01*
X056449Y084400D01*
X056434Y084516D01*
X056389Y084625D01*
X056318Y084718D01*
X056225Y084789D01*
X056116Y084834D01*
X056000Y084849D01*
X055884Y084834D01*
X055775Y084789D01*
X055682Y084718D01*
X055615Y084629D01*
X054649D01*
Y084825D01*
X055007Y085183D01*
X055100Y085171D01*
X055211Y085185D01*
X055315Y085228D01*
X055404Y085296D01*
X055472Y085385D01*
X055515Y085489D01*
X055529Y085600D01*
X055515Y085711D01*
X055472Y085815D01*
X055404Y085904D01*
X055329Y085960D01*
Y087000D01*
X055313Y087084D01*
X055315Y087089D01*
X055329Y087200D01*
X055315Y087311D01*
X055272Y087415D01*
X055204Y087504D01*
X055115Y087572D01*
X055011Y087615D01*
X054900Y087629D01*
D02*
G37*
G36*
X061547Y086077D02*
X061481Y086068D01*
X061372Y086024D01*
X061279Y085952D01*
X061208Y085859D01*
X061163Y085751D01*
X061154Y085685D01*
X061547D01*
Y086077D01*
D02*
G37*
G36*
X053450Y085023D02*
Y084650D01*
X053823D01*
X053815Y084711D01*
X053772Y084815D01*
X053704Y084904D01*
X053615Y084972D01*
X053511Y085015D01*
X053450Y085023D01*
D02*
G37*
G36*
X053045Y087445D02*
X052155D01*
Y086879D01*
X051938Y086662D01*
X051888Y086588D01*
X051871Y086500D01*
Y085960D01*
X051796Y085904D01*
X051728Y085815D01*
X051685Y085711D01*
X051671Y085600D01*
X051685Y085489D01*
X051728Y085385D01*
X051796Y085296D01*
X051885Y085228D01*
X051989Y085185D01*
X052100Y085171D01*
X052211Y085185D01*
X052315Y085228D01*
X052404Y085296D01*
X052472Y085385D01*
X052515Y085489D01*
X052529Y085600D01*
X052515Y085711D01*
X052472Y085815D01*
X052404Y085904D01*
X052329Y085960D01*
Y086405D01*
X052479Y086555D01*
X053045D01*
Y087445D01*
D02*
G37*
G36*
X057000Y083849D02*
X056884Y083834D01*
X056775Y083789D01*
X056682Y083718D01*
X056611Y083625D01*
X056566Y083516D01*
X056551Y083400D01*
X056566Y083284D01*
X056611Y083175D01*
X056682Y083082D01*
X056775Y083011D01*
X056884Y082966D01*
X057000Y082951D01*
X057116Y082966D01*
X057225Y083011D01*
X057318Y083082D01*
X057389Y083175D01*
X057434Y083284D01*
X057449Y083400D01*
X057434Y083516D01*
X057389Y083625D01*
X057318Y083718D01*
X057225Y083789D01*
X057116Y083834D01*
X057000Y083849D01*
D02*
G37*
G36*
X066450Y077243D02*
X066384Y077234D01*
X066275Y077189D01*
X066182Y077118D01*
X066111Y077025D01*
X066066Y076916D01*
X066057Y076850D01*
X066450D01*
Y077243D01*
D02*
G37*
G36*
X066550D02*
Y076850D01*
X066943D01*
X066934Y076916D01*
X066889Y077025D01*
X066818Y077118D01*
X066725Y077189D01*
X066616Y077234D01*
X066550Y077243D01*
D02*
G37*
G36*
X066450Y076750D02*
X066057D01*
X066066Y076684D01*
X066111Y076575D01*
X066182Y076482D01*
X066275Y076411D01*
X066384Y076366D01*
X066450Y076357D01*
Y076750D01*
D02*
G37*
G36*
X066943D02*
X066550D01*
Y076357D01*
X066616Y076366D01*
X066725Y076411D01*
X066818Y076482D01*
X066889Y076575D01*
X066934Y076684D01*
X066943Y076750D01*
D02*
G37*
G36*
X062872Y078870D02*
X061982D01*
Y078287D01*
X061965Y078262D01*
X061948Y078174D01*
Y077985D01*
X061874Y077928D01*
X061805Y077839D01*
X061763Y077736D01*
X061748Y077624D01*
X061763Y077513D01*
X061805Y077410D01*
X061874Y077321D01*
X061963Y077253D01*
X062066Y077210D01*
X062177Y077195D01*
X062288Y077210D01*
X062392Y077253D01*
X062481Y077321D01*
X062549Y077410D01*
X062592Y077513D01*
X062606Y077624D01*
X062592Y077736D01*
X062549Y077839D01*
X062481Y077928D01*
X062476Y077932D01*
X062492Y077979D01*
X062872D01*
Y078870D01*
D02*
G37*
G36*
X060427Y078874D02*
X060311Y078858D01*
X060203Y078813D01*
X060110Y078742D01*
X060038Y078649D01*
X059993Y078541D01*
X059978Y078424D01*
X059993Y078308D01*
X059994Y078306D01*
X059965Y078262D01*
X059948Y078174D01*
Y077985D01*
X059874Y077928D01*
X059805Y077839D01*
X059802Y077831D01*
X059752D01*
X059749Y077839D01*
X059681Y077928D01*
X059607Y077985D01*
Y078017D01*
X059652Y078035D01*
X059745Y078107D01*
X059816Y078200D01*
X059861Y078308D01*
X059876Y078424D01*
X059861Y078541D01*
X059816Y078649D01*
X059745Y078742D01*
X059652Y078813D01*
X059543Y078858D01*
X059427Y078874D01*
X059311Y078858D01*
X059203Y078813D01*
X059110Y078742D01*
X059038Y078649D01*
X058993Y078541D01*
X058978Y078424D01*
X058993Y078308D01*
X059038Y078200D01*
X059110Y078107D01*
X059148Y078078D01*
Y077985D01*
X059074Y077928D01*
X059005Y077839D01*
X058963Y077736D01*
X058948Y077624D01*
X058963Y077513D01*
X059005Y077410D01*
X059074Y077321D01*
X059163Y077253D01*
X059266Y077210D01*
X059377Y077195D01*
X059488Y077210D01*
X059592Y077253D01*
X059681Y077321D01*
X059749Y077410D01*
X059752Y077418D01*
X059802D01*
X059805Y077410D01*
X059874Y077321D01*
X059963Y077253D01*
X060066Y077210D01*
X060177Y077195D01*
X060288Y077210D01*
X060392Y077253D01*
X060481Y077321D01*
X060549Y077410D01*
X060592Y077513D01*
X060606Y077624D01*
X060592Y077736D01*
X060549Y077839D01*
X060481Y077928D01*
X060425Y077971D01*
X060427Y077975D01*
X060543Y077991D01*
X060652Y078035D01*
X060745Y078107D01*
X060816Y078200D01*
X060861Y078308D01*
X060876Y078424D01*
X060861Y078541D01*
X060816Y078649D01*
X060745Y078742D01*
X060652Y078813D01*
X060543Y078858D01*
X060427Y078874D01*
D02*
G37*
G36*
X055427D02*
X055311Y078858D01*
X055203Y078813D01*
X055110Y078742D01*
X055038Y078649D01*
X054993Y078541D01*
X054978Y078424D01*
X054993Y078308D01*
X055038Y078200D01*
X055110Y078107D01*
X055203Y078035D01*
X055311Y077991D01*
X055427Y077975D01*
X055543Y077991D01*
X055652Y078035D01*
X055745Y078107D01*
X055816Y078200D01*
X055861Y078308D01*
X055876Y078424D01*
X055861Y078541D01*
X055816Y078649D01*
X055745Y078742D01*
X055652Y078813D01*
X055543Y078858D01*
X055427Y078874D01*
D02*
G37*
G36*
X051102Y078471D02*
X050310D01*
Y077679D01*
X051102D01*
Y077856D01*
X051104Y077857D01*
X051150Y077872D01*
X051211Y077792D01*
X051294Y077729D01*
X051390Y077689D01*
X051444Y077682D01*
Y078075D01*
Y078468D01*
X051390Y078461D01*
X051294Y078421D01*
X051211Y078357D01*
X051150Y078277D01*
X051104Y078292D01*
X051102Y078293D01*
Y078471D01*
D02*
G37*
G36*
X051887Y078025D02*
X051544D01*
Y077682D01*
X051597Y077689D01*
X051693Y077729D01*
X051776Y077792D01*
X051840Y077875D01*
X051880Y077971D01*
X051887Y078025D01*
D02*
G37*
G36*
X064945Y077245D02*
X064055D01*
Y076355D01*
X064945D01*
Y077245D01*
D02*
G37*
G36*
X061427Y078874D02*
X061311Y078858D01*
X061203Y078813D01*
X061110Y078742D01*
X061038Y078649D01*
X060993Y078541D01*
X060978Y078424D01*
X060993Y078308D01*
X061038Y078200D01*
X061110Y078107D01*
X061198Y078039D01*
Y076873D01*
X061215Y076785D01*
X061265Y076711D01*
X061265Y076711D01*
X061265Y076711D01*
X061783Y076193D01*
X061771Y076100D01*
X061785Y075989D01*
X061828Y075885D01*
X061896Y075796D01*
X061985Y075728D01*
X062089Y075685D01*
X062200Y075671D01*
X062311Y075685D01*
X062415Y075728D01*
X062504Y075796D01*
X062572Y075885D01*
X062615Y075989D01*
X062629Y076100D01*
X062615Y076211D01*
X062572Y076315D01*
X062504Y076404D01*
X062415Y076472D01*
X062311Y076515D01*
X062200Y076529D01*
X062107Y076517D01*
X061657Y076968D01*
Y078039D01*
X061745Y078107D01*
X061816Y078200D01*
X061861Y078308D01*
X061876Y078424D01*
X061861Y078541D01*
X061816Y078649D01*
X061745Y078742D01*
X061652Y078813D01*
X061543Y078858D01*
X061427Y078874D01*
D02*
G37*
G36*
X059350Y076050D02*
X058977D01*
X058985Y075989D01*
X059028Y075885D01*
X059096Y075796D01*
X059185Y075728D01*
X059289Y075685D01*
X059350Y075677D01*
Y076050D01*
D02*
G37*
G36*
X066450Y075443D02*
X066384Y075434D01*
X066275Y075389D01*
X066182Y075318D01*
X066111Y075225D01*
X066066Y075116D01*
X066057Y075050D01*
X066450D01*
Y075443D01*
D02*
G37*
G36*
X066550D02*
Y075050D01*
X066943D01*
X066934Y075116D01*
X066889Y075225D01*
X066818Y075318D01*
X066725Y075389D01*
X066616Y075434D01*
X066550Y075443D01*
D02*
G37*
G36*
X060623Y076050D02*
X060250D01*
Y075677D01*
X060311Y075685D01*
X060415Y075728D01*
X060504Y075796D01*
X060572Y075885D01*
X060615Y075989D01*
X060623Y076050D01*
D02*
G37*
G36*
X060150Y076523D02*
X060089Y076515D01*
X059985Y076472D01*
X059896Y076404D01*
X059828Y076315D01*
X059825Y076307D01*
X059775D01*
X059772Y076315D01*
X059704Y076404D01*
X059615Y076472D01*
X059511Y076515D01*
X059450Y076523D01*
Y076100D01*
Y075677D01*
X059511Y075685D01*
X059615Y075728D01*
X059704Y075796D01*
X059772Y075885D01*
X059775Y075893D01*
X059825D01*
X059828Y075885D01*
X059896Y075796D01*
X059985Y075728D01*
X060089Y075685D01*
X060150Y075677D01*
Y076100D01*
Y076523D01*
D02*
G37*
G36*
X065500Y077249D02*
X065384Y077234D01*
X065275Y077189D01*
X065182Y077118D01*
X065111Y077025D01*
X065066Y076916D01*
X065051Y076800D01*
X065066Y076684D01*
X065111Y076575D01*
X065182Y076482D01*
X065275Y076411D01*
X065384Y076366D01*
X065500Y076351D01*
X065616Y076366D01*
X065725Y076411D01*
X065818Y076482D01*
X065889Y076575D01*
X065934Y076684D01*
X065949Y076800D01*
X065934Y076916D01*
X065889Y077025D01*
X065818Y077118D01*
X065725Y077189D01*
X065616Y077234D01*
X065500Y077249D01*
D02*
G37*
G36*
X059350Y076523D02*
X059289Y076515D01*
X059185Y076472D01*
X059096Y076404D01*
X059028Y076315D01*
X058985Y076211D01*
X058977Y076150D01*
X059350D01*
Y076523D01*
D02*
G37*
G36*
X060250D02*
Y076150D01*
X060623D01*
X060615Y076211D01*
X060572Y076315D01*
X060504Y076404D01*
X060415Y076472D01*
X060311Y076515D01*
X060250Y076523D01*
D02*
G37*
G36*
X069650Y081043D02*
Y080650D01*
X070043D01*
X070034Y080716D01*
X069989Y080825D01*
X069918Y080918D01*
X069825Y080989D01*
X069716Y081034D01*
X069650Y081043D01*
D02*
G37*
G36*
X055427Y081874D02*
X055311Y081858D01*
X055203Y081813D01*
X055110Y081742D01*
X055038Y081649D01*
X054993Y081541D01*
X054978Y081424D01*
X054993Y081308D01*
X055038Y081200D01*
X055110Y081107D01*
X055203Y081035D01*
X055311Y080991D01*
X055427Y080975D01*
X055543Y080991D01*
X055652Y081035D01*
X055745Y081107D01*
X055816Y081200D01*
X055861Y081308D01*
X055876Y081424D01*
X055861Y081541D01*
X055816Y081649D01*
X055745Y081742D01*
X055652Y081813D01*
X055543Y081858D01*
X055427Y081874D01*
D02*
G37*
G36*
X070043Y080550D02*
X069650D01*
Y080157D01*
X069716Y080166D01*
X069825Y080211D01*
X069918Y080282D01*
X069989Y080375D01*
X070034Y080484D01*
X070043Y080550D01*
D02*
G37*
G36*
X069550Y081043D02*
X069484Y081034D01*
X069375Y080989D01*
X069282Y080918D01*
X069211Y080825D01*
X069166Y080716D01*
X069157Y080650D01*
X069550D01*
Y081043D01*
D02*
G37*
G36*
X061423Y082150D02*
X061050D01*
Y081777D01*
X061080Y081781D01*
X061089Y081769D01*
X061107Y081738D01*
X061038Y081649D01*
X060993Y081541D01*
X060985Y081474D01*
X061377D01*
Y081867D01*
X061335Y081861D01*
X061310Y081905D01*
X061372Y081985D01*
X061415Y082089D01*
X061423Y082150D01*
D02*
G37*
G36*
X056720Y082873D02*
X056616Y082860D01*
X056518Y082819D01*
X056435Y082755D01*
X056371Y082672D01*
X056330Y082574D01*
X056317Y082470D01*
X056325Y082409D01*
X056265Y082349D01*
X056215Y082275D01*
X056198Y082187D01*
Y081810D01*
X056110Y081742D01*
X056038Y081649D01*
X055993Y081541D01*
X055978Y081424D01*
X055993Y081308D01*
X056038Y081200D01*
X056110Y081107D01*
X056203Y081035D01*
X056311Y080991D01*
X056427Y080975D01*
X056543Y080991D01*
X056652Y081035D01*
X056745Y081107D01*
X056816Y081200D01*
X056861Y081308D01*
X056876Y081424D01*
X056861Y081541D01*
X056816Y081649D01*
X056745Y081742D01*
X056657Y081810D01*
Y082037D01*
X056694Y082070D01*
X056720Y082067D01*
X056824Y082080D01*
X056922Y082121D01*
X057005Y082185D01*
X057069Y082268D01*
X057110Y082366D01*
X057123Y082470D01*
X057110Y082574D01*
X057069Y082672D01*
X057005Y082755D01*
X056922Y082819D01*
X056824Y082860D01*
X056720Y082873D01*
D02*
G37*
G36*
X068600Y083049D02*
X068484Y083034D01*
X068375Y082989D01*
X068282Y082918D01*
X068211Y082825D01*
X068166Y082716D01*
X068151Y082600D01*
X068166Y082484D01*
X068211Y082375D01*
X068282Y082282D01*
X068375Y082211D01*
X068484Y082166D01*
X068600Y082151D01*
X068716Y082166D01*
X068825Y082211D01*
X068918Y082282D01*
X068989Y082375D01*
X069034Y082484D01*
X069049Y082600D01*
X069034Y082716D01*
X068989Y082825D01*
X068918Y082918D01*
X068825Y082989D01*
X068716Y083034D01*
X068600Y083049D01*
D02*
G37*
G36*
X061477Y081867D02*
Y081474D01*
X061870D01*
X061861Y081541D01*
X061816Y081649D01*
X061745Y081742D01*
X061652Y081813D01*
X061543Y081858D01*
X061477Y081867D01*
D02*
G37*
G36*
X060950Y082150D02*
X060577D01*
X060585Y082089D01*
X060628Y081985D01*
X060696Y081896D01*
X060785Y081828D01*
X060889Y081785D01*
X060950Y081777D01*
Y082150D01*
D02*
G37*
G36*
X069550Y080550D02*
X069157D01*
X069166Y080484D01*
X069211Y080375D01*
X069282Y080282D01*
X069375Y080211D01*
X069484Y080166D01*
X069550Y080157D01*
Y080550D01*
D02*
G37*
G36*
X066450Y078650D02*
X066057D01*
X066066Y078584D01*
X066111Y078475D01*
X066182Y078382D01*
X066275Y078311D01*
X066384Y078266D01*
X066450Y078257D01*
Y078650D01*
D02*
G37*
G36*
X066943D02*
X066550D01*
Y078257D01*
X066616Y078266D01*
X066725Y078311D01*
X066818Y078382D01*
X066889Y078475D01*
X066934Y078584D01*
X066943Y078650D01*
D02*
G37*
G36*
X051544Y078468D02*
Y078125D01*
X051887D01*
X051880Y078178D01*
X051840Y078275D01*
X051776Y078357D01*
X051693Y078421D01*
X051597Y078461D01*
X051544Y078468D01*
D02*
G37*
G36*
X058427Y078874D02*
X058311Y078858D01*
X058203Y078813D01*
X058110Y078742D01*
X058038Y078649D01*
X057993Y078541D01*
X057978Y078424D01*
X057993Y078314D01*
X057863Y078185D01*
X057821Y078212D01*
X057861Y078308D01*
X057876Y078424D01*
X057861Y078541D01*
X057816Y078649D01*
X057745Y078742D01*
X057652Y078813D01*
X057543Y078858D01*
X057427Y078874D01*
X057311Y078858D01*
X057203Y078813D01*
X057110Y078742D01*
X057038Y078649D01*
X056993Y078541D01*
X056978Y078424D01*
X056993Y078314D01*
X056863Y078185D01*
X056821Y078212D01*
X056861Y078308D01*
X056876Y078424D01*
X056861Y078541D01*
X056816Y078649D01*
X056745Y078742D01*
X056652Y078813D01*
X056543Y078858D01*
X056427Y078874D01*
X056311Y078858D01*
X056203Y078813D01*
X056110Y078742D01*
X056038Y078649D01*
X055993Y078541D01*
X055978Y078424D01*
X055993Y078308D01*
X056038Y078200D01*
X056110Y078107D01*
X056203Y078035D01*
X056311Y077991D01*
X056427Y077975D01*
X056543Y077991D01*
X056639Y078030D01*
X056667Y077989D01*
X056648Y077969D01*
X056598Y077895D01*
X056581Y077807D01*
Y076820D01*
X056598Y076732D01*
X056648Y076658D01*
X056648Y076658D01*
X056648Y076658D01*
X057017Y076288D01*
X056985Y076211D01*
X056971Y076100D01*
X056985Y075989D01*
X057028Y075885D01*
X057096Y075796D01*
X057185Y075728D01*
X057289Y075685D01*
X057400Y075671D01*
X057511Y075685D01*
X057615Y075728D01*
X057704Y075796D01*
X057772Y075885D01*
X057815Y075989D01*
X057829Y076100D01*
X057815Y076211D01*
X057772Y076315D01*
X057704Y076404D01*
X057615Y076472D01*
X057511Y076515D01*
X057429Y076525D01*
X057039Y076915D01*
Y077291D01*
X057084Y077313D01*
X057163Y077253D01*
X057266Y077210D01*
X057377Y077195D01*
X057488Y077210D01*
X057592Y077253D01*
X057681Y077321D01*
X057749Y077410D01*
X057763Y077445D01*
X057789Y077462D01*
X058317Y077990D01*
X058427Y077975D01*
X058543Y077991D01*
X058652Y078035D01*
X058745Y078107D01*
X058816Y078200D01*
X058861Y078308D01*
X058876Y078424D01*
X058861Y078541D01*
X058816Y078649D01*
X058745Y078742D01*
X058652Y078813D01*
X058543Y078858D01*
X058427Y078874D01*
D02*
G37*
G36*
X066450Y079143D02*
X066384Y079134D01*
X066275Y079089D01*
X066182Y079018D01*
X066111Y078925D01*
X066066Y078816D01*
X066057Y078750D01*
X066450D01*
Y079143D01*
D02*
G37*
G36*
X051734Y082640D02*
X051514Y082623D01*
X051300Y082571D01*
X051096Y082487D01*
X050908Y082372D01*
X050741Y082229D01*
X050598Y082061D01*
X050483Y081873D01*
X050398Y081670D01*
X050347Y081456D01*
X050330Y081236D01*
X050347Y081016D01*
X050398Y080802D01*
X050483Y080598D01*
X050598Y080410D01*
X050741Y080243D01*
X050908Y080100D01*
X051096Y079985D01*
X051300Y079900D01*
X051514Y079849D01*
X051734Y079831D01*
X051954Y079849D01*
X052168Y079900D01*
X052371Y079985D01*
X052559Y080100D01*
X052727Y080243D01*
X052870Y080410D01*
X052985Y080598D01*
X053069Y080802D01*
X053121Y081016D01*
X053138Y081236D01*
X053121Y081456D01*
X053069Y081670D01*
X052985Y081873D01*
X052870Y082061D01*
X052727Y082229D01*
X052559Y082372D01*
X052371Y082487D01*
X052168Y082571D01*
X051954Y082623D01*
X051734Y082640D01*
D02*
G37*
G36*
X065234D02*
X065014Y082623D01*
X064800Y082571D01*
X064596Y082487D01*
X064408Y082372D01*
X064241Y082229D01*
X064098Y082061D01*
X063983Y081873D01*
X063898Y081670D01*
X063847Y081456D01*
X063830Y081236D01*
X063847Y081016D01*
X063898Y080802D01*
X063983Y080598D01*
X064098Y080410D01*
X064241Y080243D01*
X064408Y080100D01*
X064596Y079985D01*
X064800Y079900D01*
X065014Y079849D01*
X065234Y079831D01*
X065454Y079849D01*
X065668Y079900D01*
X065871Y079985D01*
X066059Y080100D01*
X066227Y080243D01*
X066370Y080410D01*
X066485Y080598D01*
X066569Y080802D01*
X066621Y081016D01*
X066638Y081236D01*
X066621Y081456D01*
X066569Y081670D01*
X066485Y081873D01*
X066370Y082061D01*
X066227Y082229D01*
X066059Y082372D01*
X065871Y082487D01*
X065668Y082571D01*
X065454Y082623D01*
X065234Y082640D01*
D02*
G37*
G36*
X066550Y079143D02*
Y078750D01*
X066943D01*
X066934Y078816D01*
X066889Y078925D01*
X066818Y079018D01*
X066725Y079089D01*
X066616Y079134D01*
X066550Y079143D01*
D02*
G37*
G36*
X070045Y080045D02*
X069155D01*
Y079155D01*
X070045D01*
Y080045D01*
D02*
G37*
%LPD*%
D11*
X061495Y083125D02*
Y083905D01*
X061130Y082760D02*
X061495Y083125D01*
X060609Y082760D02*
X061130D01*
X059768Y081920D02*
X060609Y082760D01*
X058922Y081920D02*
X059768D01*
X058427Y081424D02*
X058922Y081920D01*
X059505Y084655D02*
X059920Y085070D01*
X059505Y083905D02*
X060000Y083409D01*
X059505Y083905D02*
Y084655D01*
X060000Y083400D02*
Y083409D01*
X058495Y083905D02*
Y085289D01*
X058000Y083409D02*
X058495Y083905D01*
Y085289D02*
X058841Y085635D01*
D12*
X053390Y082620D02*
X053405Y082605D01*
X053410Y082600D01*
X054520Y072926D02*
X063554D01*
X064097Y072383D01*
X065560Y071104D02*
Y074940D01*
X064097Y069641D02*
X065560Y071104D01*
X065500Y075000D02*
X065560Y074940D01*
X051794Y070200D02*
X054520Y072926D01*
Y075270D01*
X054190Y075600D02*
X054520Y075270D01*
X053400Y075600D02*
X054190D01*
X056427Y082187D02*
X056715Y082475D01*
X068244Y066106D02*
X068600D01*
X067840Y066510D02*
X068244Y066106D01*
X067840Y066510D02*
Y066888D01*
X067097Y067632D02*
X067840Y066888D01*
X064970Y053370D02*
X065600Y054000D01*
X061850Y053370D02*
X064970D01*
X059820Y055400D02*
X061850Y053370D01*
X053200Y055400D02*
X059820D01*
X068200Y056850D02*
Y059600D01*
X066960Y055610D02*
X068200Y056850D01*
X063819Y055610D02*
X066960D01*
X063209Y055000D02*
X063819Y055610D01*
X063200Y055000D02*
X063209D01*
X052600Y063000D02*
X053000D01*
X053360Y063360D01*
Y065230D01*
X052815Y065775D02*
X053360Y065230D01*
X051500Y065775D02*
X052815D01*
X059750Y082400D02*
X060750Y083400D01*
X061000D01*
X058412Y082400D02*
X059750D01*
X057437Y081424D02*
X058412Y082400D01*
X061000Y084400D02*
X061495Y083905D01*
X064630Y079570D02*
X065500Y078700D01*
X064384Y079570D02*
X064630D01*
X063144Y080810D02*
X064384Y079570D01*
X061051Y080810D02*
X063144D01*
X060437Y081424D02*
X061051Y080810D01*
X068049Y085250D02*
X068589Y084710D01*
X069226D01*
X067330Y080870D02*
Y084470D01*
X067090Y084710D02*
X067330Y084470D01*
X069226Y084710D02*
X070120Y083815D01*
Y082120D02*
Y083815D01*
X069600Y081600D02*
X070120Y082120D01*
X066300Y085600D02*
X067699D01*
X068049Y085250D01*
X066790Y082600D02*
Y083580D01*
X065300Y085070D02*
X066790Y083580D01*
X059920Y085070D02*
X065300D01*
X059910D02*
X059920D01*
X067330Y080870D02*
X068600Y079600D01*
X060000Y083409D02*
Y083454D01*
Y083400D02*
Y083409D01*
X058303Y087603D02*
X058841D01*
X057900Y087200D02*
X058303Y087603D01*
X055100Y085600D02*
Y087000D01*
X054900Y087200D02*
X055100Y087000D01*
X065200Y055000D02*
X065600Y054600D01*
Y054000D02*
Y054600D01*
X062427Y081627D02*
X063000Y082200D01*
X062427Y081424D02*
Y081627D01*
X052100Y086500D02*
X052600Y087000D01*
X052100Y085600D02*
Y086500D01*
X054420Y084920D02*
X055100Y085600D01*
X054420Y084400D02*
Y084920D01*
Y084400D02*
X056000D01*
X053010Y082990D02*
X054420Y084400D01*
X050590Y082990D02*
X053010D01*
X050200Y082600D02*
X050590Y082990D01*
X054270Y083400D02*
X056000D01*
X053440Y082570D02*
X054270Y083400D01*
X053400Y082600D02*
X053410D01*
X053440Y080420D02*
Y082570D01*
X052560Y079540D02*
X053440Y080420D01*
X050600Y079540D02*
X052560D01*
X049800Y078740D02*
X050600Y079540D01*
X049800Y072000D02*
Y078740D01*
X064097Y071631D02*
Y072383D01*
X054170Y058200D02*
X063100D01*
X054170D02*
Y065105D01*
Y056370D02*
Y058200D01*
X063100D02*
X065000Y060100D01*
X064097Y069632D02*
Y069641D01*
X067097Y071631D02*
X068462D01*
X068600Y071494D01*
X067097Y070631D02*
X068206Y069522D01*
Y068900D02*
Y069522D01*
X067097Y068632D02*
X068600Y067128D01*
Y066894D02*
Y067128D01*
X067097Y067609D02*
Y067632D01*
Y066631D02*
X068600Y065128D01*
Y064694D02*
Y065128D01*
X064097Y066631D02*
X066200Y064528D01*
Y062600D02*
Y064528D01*
X066400Y054000D02*
X069200Y056800D01*
X065600Y054000D02*
X066400D01*
X062209Y055000D02*
X063169Y055960D01*
X062200Y055000D02*
X062209D01*
X063169Y055960D02*
X066540D01*
X053200Y055400D02*
X054170Y056370D01*
X051500Y067775D02*
X054170Y065105D01*
X065700Y060100D02*
X066200Y059600D01*
X065000Y060100D02*
X065700D01*
X067200Y056620D02*
Y059600D01*
X066540Y055960D02*
X067200Y056620D01*
X064360Y078700D02*
X064500D01*
X062610Y080450D02*
X064360Y078700D01*
X060600Y080450D02*
X062610D01*
X059626Y081424D02*
X060600Y080450D01*
X059427Y081424D02*
X059626D01*
X065373Y078700D02*
X065500D01*
X060427Y081424D02*
X060437D01*
X062177Y078174D02*
X062427Y078424D01*
X062177Y077624D02*
Y078174D01*
X061427Y076873D02*
Y078424D01*
Y076873D02*
X062200Y076100D01*
X060177Y078174D02*
X060427Y078424D01*
X060177Y077624D02*
Y078174D01*
X059377Y077624D02*
Y078374D01*
X056810Y077807D02*
X057427Y078424D01*
X056810Y076820D02*
Y077807D01*
Y076820D02*
X057400Y076230D01*
Y076100D02*
Y076230D01*
X057627Y077624D02*
X058427Y078424D01*
X057377Y077624D02*
X057627D01*
X051000Y075600D02*
X053400D01*
X049790Y067485D02*
Y071990D01*
X049800Y072000D01*
X049790Y067485D02*
X051500Y065775D01*
Y069906D02*
X051794Y070200D01*
X051500Y067775D02*
Y069906D01*
X051594Y061994D02*
X052600Y063000D01*
X051594Y060800D02*
Y061994D01*
X052000Y063600D02*
X052600Y063000D01*
X051600Y063600D02*
X052000D01*
X067770Y081430D02*
X068600Y080600D01*
X067770Y081430D02*
Y084700D01*
X056427Y081424D02*
Y082187D01*
X057427Y081424D02*
X057437D01*
X058427D02*
X058437D01*
X058000Y083400D02*
Y083409D01*
X064000Y083400D02*
Y083409D01*
Y085600D02*
X065400Y087000D01*
X063300Y085600D02*
X064000D01*
X058841Y085635D02*
Y087603D01*
D13*
X068600Y083600D02*
D03*
X069600D02*
D03*
X068600Y082600D02*
D03*
X069600D02*
D03*
X068600Y081600D02*
D03*
X069600D02*
D03*
X068600Y080600D02*
D03*
X069600D02*
D03*
X068600Y079600D02*
D03*
X061597Y085635D02*
D03*
X058841D02*
D03*
Y087603D02*
D03*
X061597D02*
D03*
X050600Y063600D02*
D03*
X065500Y078700D02*
D03*
X066500D02*
D03*
X065500Y076800D02*
D03*
X066500D02*
D03*
X062200Y055000D02*
D03*
X063200D02*
D03*
X064200D02*
D03*
X065500Y075000D02*
D03*
X066500D02*
D03*
X056000Y084400D02*
D03*
X057000Y083400D02*
D03*
Y084400D02*
D03*
X058000Y083400D02*
D03*
Y084400D02*
D03*
X059000Y083400D02*
D03*
Y084400D02*
D03*
X060000Y083400D02*
D03*
Y084400D02*
D03*
X061000Y083400D02*
D03*
Y084400D02*
D03*
X062000Y083400D02*
D03*
Y084400D02*
D03*
X063000Y083400D02*
D03*
Y084400D02*
D03*
X064000Y083400D02*
D03*
Y084400D02*
D03*
X065000Y083400D02*
D03*
Y084400D02*
D03*
X053600Y087000D02*
D03*
X064400D02*
D03*
D14*
X069600Y079600D02*
D03*
D15*
X053400Y084600D02*
D03*
Y082600D02*
D03*
X051800Y072000D02*
D03*
X049800D02*
D03*
X062177Y077624D02*
D03*
X060177D02*
D03*
X059377D02*
D03*
X057377D02*
D03*
X062200Y076100D02*
D03*
X060200D02*
D03*
X057400D02*
D03*
X059400D02*
D03*
X065600Y054000D02*
D03*
X063600D02*
D03*
X063300Y085600D02*
D03*
X066300D02*
D03*
X052100D02*
D03*
X055100D02*
D03*
X063000Y082200D02*
D03*
X061000D02*
D03*
X065000Y062100D02*
D03*
Y060100D02*
D03*
X050200Y082600D02*
D03*
Y084600D02*
D03*
X057900Y087200D02*
D03*
X054900D02*
D03*
X069200Y056800D02*
D03*
Y058800D02*
D03*
X052600Y063000D02*
D03*
Y065000D02*
D03*
X053400Y073600D02*
D03*
Y075600D02*
D03*
X053200Y055400D02*
D03*
Y053400D02*
D03*
D16*
X051006Y070200D02*
D03*
X068600Y070706D02*
D03*
Y066106D02*
D03*
X068994Y068900D02*
D03*
Y073400D02*
D03*
X068600Y064694D02*
D03*
X051494Y078075D02*
D03*
X050806Y060800D02*
D03*
D17*
X051794Y070200D02*
D03*
X068206Y068900D02*
D03*
Y073400D02*
D03*
X050706Y078075D02*
D03*
X051594Y060800D02*
D03*
D18*
X067097Y071631D02*
D03*
D19*
Y070631D02*
D03*
Y069632D02*
D03*
Y068632D02*
D03*
Y067632D02*
D03*
Y066631D02*
D03*
Y065631D02*
D03*
Y064632D02*
D03*
X064097Y071631D02*
D03*
Y070631D02*
D03*
Y069632D02*
D03*
Y068632D02*
D03*
Y067632D02*
D03*
Y066631D02*
D03*
Y065631D02*
D03*
Y064632D02*
D03*
X061427Y078424D02*
D03*
X060427D02*
D03*
X059427D02*
D03*
X058427D02*
D03*
X057427D02*
D03*
X056427D02*
D03*
X055427D02*
D03*
X062427Y081424D02*
D03*
X061427D02*
D03*
X060427D02*
D03*
X059427D02*
D03*
X058427D02*
D03*
X057427D02*
D03*
X056427D02*
D03*
X055427D02*
D03*
X067200Y062600D02*
D03*
X068200D02*
D03*
X069200D02*
D03*
X066200Y059600D02*
D03*
X067200D02*
D03*
X068200D02*
D03*
X069200D02*
D03*
D20*
X068600Y071494D02*
D03*
Y066894D02*
D03*
Y063906D02*
D03*
D21*
X051500Y067775D02*
D03*
Y066775D02*
D03*
D22*
Y065775D02*
D03*
D23*
X051600Y063600D02*
D03*
X064500Y078700D02*
D03*
Y076800D02*
D03*
X065200Y055000D02*
D03*
X064500Y075000D02*
D03*
X056000Y083400D02*
D03*
X052600Y087000D02*
D03*
X065400D02*
D03*
D24*
X051734Y057736D02*
D03*
X065234D02*
D03*
Y081236D02*
D03*
X051734D02*
D03*
X050400Y086700D02*
D03*
X069000D02*
D03*
Y054200D02*
D03*
X050400D02*
D03*
D25*
X062427Y078424D02*
D03*
X066200Y062600D02*
D03*
D26*
X058500Y053700D02*
D03*
X055000D02*
D03*
D27*
X060850Y057100D02*
D03*
X056350D02*
D03*
Y074300D02*
D03*
X060800D02*
D03*
D28*
X051000Y073600D02*
D03*
D29*
Y074600D02*
D03*
Y075600D02*
D03*
D30*
X066790Y082600D02*
D03*
X056720Y082470D02*
D03*
X067090Y084710D02*
D03*
X067770Y084700D02*
D03*
M02*
