%FSAX24Y24*%
%MOIN*%
G70*
G01*
G75*
G04 Layer_Color=0*
%ADD10C,0.0120*%
%ADD11C,0.0100*%
%ADD12C,0.0150*%
%ADD13C,0.0591*%
%ADD14R,0.0591X0.0591*%
%ADD15C,0.0551*%
%ADD16C,0.0492*%
%ADD17R,0.0492X0.0492*%
%ADD18R,0.0591X0.0591*%
%ADD19C,0.0591*%
%ADD20R,0.0492X0.0492*%
%ADD21C,0.0669*%
%ADD22R,0.0669X0.0669*%
%ADD23R,0.0591X0.0591*%
%ADD24C,0.2500*%
%ADD25R,0.0591X0.0591*%
%ADD26C,0.1378*%
%ADD27C,0.1575*%
%ADD28R,0.0630X0.0630*%
%ADD29C,0.0630*%
%ADD30C,0.0500*%
%ADD31C,0.0079*%
%ADD32C,0.0400*%
%ADD33C,0.0098*%
%ADD34C,0.0197*%
%ADD35C,0.0080*%
%ADD36C,0.0050*%
%ADD37C,0.0059*%
%ADD38C,0.0010*%
%ADD39C,0.0671*%
%ADD40R,0.0671X0.0671*%
%ADD41C,0.0631*%
%ADD42C,0.0572*%
%ADD43R,0.0572X0.0572*%
%ADD44R,0.0671X0.0671*%
%ADD45C,0.0671*%
%ADD46R,0.0572X0.0572*%
%ADD47C,0.0749*%
%ADD48R,0.0749X0.0749*%
%ADD49R,0.0671X0.0671*%
%ADD50C,0.2580*%
%ADD51R,0.0671X0.0671*%
%ADD52C,0.1458*%
%ADD53C,0.1655*%
%ADD54R,0.0710X0.0710*%
%ADD55C,0.0710*%
%ADD56C,0.0580*%
%ADD57C,0.0039*%
D13*
X068600Y083600D02*
D03*
X069600D02*
D03*
X068600Y082600D02*
D03*
X069600D02*
D03*
X068600Y081600D02*
D03*
X069600D02*
D03*
X068600Y080600D02*
D03*
X069600D02*
D03*
X068600Y079600D02*
D03*
X061597Y085635D02*
D03*
X058841D02*
D03*
Y087603D02*
D03*
X061597D02*
D03*
X050600Y063600D02*
D03*
X065500Y078700D02*
D03*
X066500D02*
D03*
X065500Y076800D02*
D03*
X066500D02*
D03*
X062200Y055000D02*
D03*
X063200D02*
D03*
X064200D02*
D03*
X065500Y075000D02*
D03*
X066500D02*
D03*
X056000Y084400D02*
D03*
X057000Y083400D02*
D03*
Y084400D02*
D03*
X058000Y083400D02*
D03*
Y084400D02*
D03*
X059000Y083400D02*
D03*
Y084400D02*
D03*
X060000Y083400D02*
D03*
Y084400D02*
D03*
X061000Y083400D02*
D03*
Y084400D02*
D03*
X062000Y083400D02*
D03*
Y084400D02*
D03*
X063000Y083400D02*
D03*
Y084400D02*
D03*
X064000Y083400D02*
D03*
Y084400D02*
D03*
X065000Y083400D02*
D03*
Y084400D02*
D03*
X053600Y087000D02*
D03*
X064400D02*
D03*
D14*
X069600Y079600D02*
D03*
D15*
X053400Y084600D02*
D03*
Y082600D02*
D03*
X051800Y072000D02*
D03*
X049800D02*
D03*
X062177Y077624D02*
D03*
X060177D02*
D03*
X059377D02*
D03*
X057377D02*
D03*
X062200Y076100D02*
D03*
X060200D02*
D03*
X057400D02*
D03*
X059400D02*
D03*
X065600Y054000D02*
D03*
X063600D02*
D03*
X063300Y085600D02*
D03*
X066300D02*
D03*
X052100D02*
D03*
X055100D02*
D03*
X063000Y082200D02*
D03*
X061000D02*
D03*
X065000Y062100D02*
D03*
Y060100D02*
D03*
X050200Y082600D02*
D03*
Y084600D02*
D03*
X057900Y087200D02*
D03*
X054900D02*
D03*
X069200Y056800D02*
D03*
Y058800D02*
D03*
X052600Y063000D02*
D03*
Y065000D02*
D03*
X053400Y073600D02*
D03*
Y075600D02*
D03*
X053200Y055400D02*
D03*
Y053400D02*
D03*
D16*
X051006Y070200D02*
D03*
X068600Y070706D02*
D03*
Y066106D02*
D03*
X068994Y068900D02*
D03*
Y073400D02*
D03*
X068600Y064694D02*
D03*
X051494Y078075D02*
D03*
X050806Y060800D02*
D03*
D17*
X051794Y070200D02*
D03*
X068206Y068900D02*
D03*
Y073400D02*
D03*
X050706Y078075D02*
D03*
X051594Y060800D02*
D03*
D18*
X067097Y071631D02*
D03*
D19*
Y070631D02*
D03*
Y069632D02*
D03*
Y068632D02*
D03*
Y067632D02*
D03*
Y066631D02*
D03*
Y065631D02*
D03*
Y064632D02*
D03*
X064097Y071631D02*
D03*
Y070631D02*
D03*
Y069632D02*
D03*
Y068632D02*
D03*
Y067632D02*
D03*
Y066631D02*
D03*
Y065631D02*
D03*
Y064632D02*
D03*
X061427Y078424D02*
D03*
X060427D02*
D03*
X059427D02*
D03*
X058427D02*
D03*
X057427D02*
D03*
X056427D02*
D03*
X055427D02*
D03*
X062427Y081424D02*
D03*
X061427D02*
D03*
X060427D02*
D03*
X059427D02*
D03*
X058427D02*
D03*
X057427D02*
D03*
X056427D02*
D03*
X055427D02*
D03*
X067200Y062600D02*
D03*
X068200D02*
D03*
X069200D02*
D03*
X066200Y059600D02*
D03*
X067200D02*
D03*
X068200D02*
D03*
X069200D02*
D03*
D20*
X068600Y071494D02*
D03*
Y066894D02*
D03*
Y063906D02*
D03*
D21*
X051500Y067775D02*
D03*
Y066775D02*
D03*
D22*
Y065775D02*
D03*
D23*
X051600Y063600D02*
D03*
X064500Y078700D02*
D03*
Y076800D02*
D03*
X065200Y055000D02*
D03*
X064500Y075000D02*
D03*
X056000Y083400D02*
D03*
X052600Y087000D02*
D03*
X065400D02*
D03*
D24*
X051734Y057736D02*
D03*
X065234D02*
D03*
Y081236D02*
D03*
X051734D02*
D03*
X050400Y086700D02*
D03*
X069000D02*
D03*
Y054200D02*
D03*
X050400D02*
D03*
D25*
X062427Y078424D02*
D03*
X066200Y062600D02*
D03*
D26*
X058500Y053700D02*
D03*
X055000D02*
D03*
D27*
X060850Y057100D02*
D03*
X056350D02*
D03*
Y074300D02*
D03*
X060800D02*
D03*
D28*
X051000Y073600D02*
D03*
D29*
Y074600D02*
D03*
Y075600D02*
D03*
M02*
