%FSLAX23Y23*%
%MOIN*%
G70*
G01*
G75*
G04 Layer_Physical_Order=1*
G04 Layer_Color=255*
%ADD10C,0.020*%
%ADD11C,0.060*%
%ADD12R,0.049X0.049*%
%ADD13C,0.049*%
%ADD14C,0.055*%
%ADD15R,0.067X0.067*%
%ADD16C,0.067*%
%ADD17R,0.063X0.063*%
%ADD18C,0.063*%
%ADD19R,0.049X0.049*%
%ADD20C,0.059*%
%ADD21R,0.059X0.059*%
%ADD22C,0.059*%
%ADD23R,0.059X0.059*%
%ADD24R,0.059X0.059*%
%ADD25C,0.250*%
%ADD26C,0.157*%
%ADD27R,0.046X0.046*%
%ADD28C,0.046*%
%ADD29O,0.024X0.039*%
%ADD30C,0.050*%
G36*
X4601Y999D02*
X1001D01*
Y4599D01*
X4601D01*
Y999D01*
D02*
G37*
%LPC*%
G36*
X4018Y2270D02*
X3986D01*
X3986Y2265D01*
X3990Y2256D01*
X3996Y2248D01*
X4004Y2242D01*
X4013Y2238D01*
X4018Y2238D01*
Y2270D01*
D02*
G37*
G36*
X4060D02*
X4028D01*
Y2238D01*
X4033Y2238D01*
X4042Y2242D01*
X4050Y2248D01*
X4056Y2256D01*
X4060Y2265D01*
X4060Y2270D01*
D02*
G37*
G36*
X1411Y2354D02*
X1401Y2353D01*
X1391Y2349D01*
X1383Y2342D01*
X1376Y2334D01*
X1372Y2324D01*
X1371Y2314D01*
X1372Y2304D01*
X1376Y2294D01*
X1383Y2286D01*
X1391Y2279D01*
X1401Y2275D01*
X1411Y2274D01*
X1421Y2275D01*
X1431Y2279D01*
X1439Y2286D01*
X1446Y2294D01*
X1450Y2304D01*
X1451Y2314D01*
X1450Y2324D01*
X1446Y2334D01*
X1439Y2342D01*
X1431Y2349D01*
X1421Y2353D01*
X1411Y2354D01*
D02*
G37*
G36*
X3823Y2313D02*
X3813Y2312D01*
X3804Y2308D01*
X3796Y2302D01*
X3790Y2294D01*
X3786Y2285D01*
X3785Y2275D01*
X3786Y2265D01*
X3790Y2256D01*
X3796Y2248D01*
X3804Y2242D01*
X3813Y2238D01*
X3823Y2237D01*
X3833Y2238D01*
X3842Y2242D01*
X3850Y2248D01*
X3856Y2256D01*
X3860Y2265D01*
X3861Y2275D01*
X3860Y2285D01*
X3856Y2294D01*
X3850Y2302D01*
X3842Y2308D01*
X3833Y2312D01*
X3823Y2313D01*
D02*
G37*
G36*
X3820Y2216D02*
X3815Y2216D01*
X3806Y2212D01*
X3798Y2206D01*
X3792Y2198D01*
X3788Y2189D01*
X3788Y2184D01*
X3820D01*
Y2216D01*
D02*
G37*
G36*
X3830D02*
Y2184D01*
X3862D01*
X3862Y2189D01*
X3858Y2198D01*
X3852Y2206D01*
X3844Y2212D01*
X3835Y2216D01*
X3830Y2216D01*
D02*
G37*
G36*
X1276Y2303D02*
X1206D01*
Y2234D01*
X1276D01*
Y2303D01*
D02*
G37*
G36*
X1711Y2354D02*
X1701Y2353D01*
X1691Y2349D01*
X1683Y2342D01*
X1676Y2334D01*
X1672Y2324D01*
X1671Y2314D01*
X1672Y2304D01*
X1676Y2294D01*
X1683Y2286D01*
X1691Y2279D01*
X1701Y2275D01*
X1711Y2274D01*
X1721Y2275D01*
X1731Y2279D01*
X1739Y2286D01*
X1746Y2294D01*
X1750Y2304D01*
X1751Y2314D01*
X1750Y2324D01*
X1746Y2334D01*
X1739Y2342D01*
X1731Y2349D01*
X1721Y2353D01*
X1711Y2354D01*
D02*
G37*
G36*
X3918Y2552D02*
X3907Y2550D01*
X3897Y2546D01*
X3888Y2540D01*
X3882Y2531D01*
X3878Y2521D01*
X3876Y2510D01*
X3878Y2499D01*
X3882Y2489D01*
X3888Y2480D01*
X3897Y2474D01*
X3907Y2470D01*
X3918Y2468D01*
X3929Y2470D01*
X3939Y2474D01*
X3948Y2480D01*
X3954Y2489D01*
X3958Y2499D01*
X3960Y2510D01*
X3958Y2521D01*
X3954Y2531D01*
X3948Y2540D01*
X3939Y2546D01*
X3929Y2550D01*
X3918Y2552D01*
D02*
G37*
G36*
X1411Y2554D02*
X1401Y2553D01*
X1391Y2549D01*
X1383Y2542D01*
X1376Y2534D01*
X1372Y2524D01*
X1371Y2514D01*
X1372Y2504D01*
X1376Y2494D01*
X1383Y2486D01*
X1391Y2479D01*
X1401Y2475D01*
X1411Y2474D01*
X1421Y2475D01*
X1431Y2479D01*
X1439Y2486D01*
X1446Y2494D01*
X1450Y2504D01*
X1451Y2514D01*
X1450Y2524D01*
X1446Y2534D01*
X1439Y2542D01*
X1431Y2549D01*
X1421Y2553D01*
X1411Y2554D01*
D02*
G37*
G36*
X1241Y2545D02*
X1232Y2543D01*
X1224Y2540D01*
X1216Y2534D01*
X1211Y2527D01*
X1207Y2519D01*
X1206Y2510D01*
X1207Y2501D01*
X1211Y2492D01*
X1216Y2485D01*
X1224Y2479D01*
X1232Y2476D01*
X1241Y2475D01*
X1250Y2476D01*
X1258Y2479D01*
X1266Y2485D01*
X1271Y2492D01*
X1275Y2501D01*
X1276Y2510D01*
X1275Y2519D01*
X1271Y2527D01*
X1266Y2534D01*
X1258Y2540D01*
X1250Y2543D01*
X1241Y2545D01*
D02*
G37*
G36*
X1711Y2454D02*
X1701Y2453D01*
X1691Y2449D01*
X1683Y2442D01*
X1676Y2434D01*
X1672Y2424D01*
X1671Y2414D01*
X1672Y2404D01*
X1676Y2394D01*
X1683Y2386D01*
X1691Y2379D01*
X1701Y2375D01*
X1711Y2374D01*
X1721Y2375D01*
X1731Y2379D01*
X1739Y2386D01*
X1746Y2394D01*
X1750Y2404D01*
X1751Y2414D01*
X1750Y2424D01*
X1746Y2434D01*
X1739Y2442D01*
X1731Y2449D01*
X1721Y2453D01*
X1711Y2454D01*
D02*
G37*
G36*
X4018Y2312D02*
X4013Y2312D01*
X4004Y2308D01*
X3996Y2302D01*
X3990Y2294D01*
X3986Y2285D01*
X3986Y2280D01*
X4018D01*
Y2312D01*
D02*
G37*
G36*
X4028D02*
Y2280D01*
X4060D01*
X4060Y2285D01*
X4056Y2294D01*
X4050Y2302D01*
X4042Y2308D01*
X4033Y2312D01*
X4028Y2312D01*
D02*
G37*
G36*
X1411Y2454D02*
X1401Y2453D01*
X1391Y2449D01*
X1383Y2442D01*
X1376Y2434D01*
X1372Y2424D01*
X1371Y2414D01*
X1372Y2404D01*
X1376Y2394D01*
X1383Y2386D01*
X1391Y2379D01*
X1401Y2375D01*
X1411Y2374D01*
X1421Y2375D01*
X1431Y2379D01*
X1439Y2386D01*
X1446Y2394D01*
X1450Y2404D01*
X1451Y2414D01*
X1450Y2424D01*
X1446Y2434D01*
X1439Y2442D01*
X1431Y2449D01*
X1421Y2453D01*
X1411Y2454D01*
D02*
G37*
G36*
X1711Y2254D02*
X1701Y2253D01*
X1691Y2249D01*
X1683Y2242D01*
X1676Y2234D01*
X1672Y2224D01*
X1671Y2214D01*
X1672Y2204D01*
X1676Y2194D01*
X1683Y2186D01*
X1691Y2179D01*
X1701Y2175D01*
X1711Y2174D01*
X1721Y2175D01*
X1731Y2179D01*
X1739Y2186D01*
X1746Y2194D01*
X1750Y2204D01*
X1751Y2214D01*
X1750Y2224D01*
X1746Y2234D01*
X1739Y2242D01*
X1731Y2249D01*
X1721Y2253D01*
X1711Y2254D01*
D02*
G37*
G36*
X1276Y1994D02*
X1246D01*
Y1965D01*
X1276D01*
Y1994D01*
D02*
G37*
G36*
X1411Y2054D02*
X1401Y2053D01*
X1391Y2049D01*
X1383Y2042D01*
X1376Y2034D01*
X1372Y2024D01*
X1371Y2014D01*
X1372Y2004D01*
X1376Y1994D01*
X1383Y1986D01*
X1391Y1979D01*
X1401Y1975D01*
X1411Y1974D01*
X1421Y1975D01*
X1431Y1979D01*
X1439Y1986D01*
X1446Y1994D01*
X1450Y2004D01*
X1451Y2014D01*
X1450Y2024D01*
X1446Y2034D01*
X1439Y2042D01*
X1431Y2049D01*
X1421Y2053D01*
X1411Y2054D01*
D02*
G37*
G36*
X1711D02*
X1701Y2053D01*
X1691Y2049D01*
X1683Y2042D01*
X1676Y2034D01*
X1672Y2024D01*
X1671Y2014D01*
X1672Y2004D01*
X1676Y1994D01*
X1683Y1986D01*
X1691Y1979D01*
X1701Y1975D01*
X1711Y1974D01*
X1721Y1975D01*
X1731Y1979D01*
X1739Y1986D01*
X1746Y1994D01*
X1750Y2004D01*
X1751Y2014D01*
X1750Y2024D01*
X1746Y2034D01*
X1739Y2042D01*
X1731Y2049D01*
X1721Y2053D01*
X1711Y2054D01*
D02*
G37*
G36*
X1236Y1994D02*
X1206D01*
Y1965D01*
X1236D01*
Y1994D01*
D02*
G37*
G36*
X3951Y1973D02*
X3865D01*
Y1887D01*
X3951D01*
Y1973D01*
D02*
G37*
G36*
X1236Y1955D02*
X1206D01*
Y1925D01*
X1236D01*
Y1955D01*
D02*
G37*
G36*
X1276D02*
X1246D01*
Y1925D01*
X1276D01*
Y1955D01*
D02*
G37*
G36*
X1241Y2073D02*
X1232Y2072D01*
X1224Y2069D01*
X1216Y2063D01*
X1211Y2056D01*
X1207Y2047D01*
X1206Y2038D01*
X1207Y2029D01*
X1211Y2021D01*
X1216Y2014D01*
X1224Y2008D01*
X1232Y2005D01*
X1241Y2003D01*
X1250Y2005D01*
X1258Y2008D01*
X1266Y2014D01*
X1271Y2021D01*
X1275Y2029D01*
X1276Y2038D01*
X1275Y2047D01*
X1271Y2056D01*
X1266Y2063D01*
X1258Y2069D01*
X1250Y2072D01*
X1241Y2073D01*
D02*
G37*
G36*
X3862Y2174D02*
X3830D01*
Y2142D01*
X3835Y2142D01*
X3844Y2146D01*
X3852Y2152D01*
X3858Y2160D01*
X3862Y2169D01*
X3862Y2174D01*
D02*
G37*
G36*
X1241Y2225D02*
X1232Y2223D01*
X1224Y2220D01*
X1216Y2214D01*
X1211Y2207D01*
X1207Y2199D01*
X1206Y2190D01*
X1207Y2181D01*
X1211Y2172D01*
X1216Y2165D01*
X1224Y2159D01*
X1232Y2156D01*
X1241Y2155D01*
X1250Y2156D01*
X1258Y2159D01*
X1266Y2165D01*
X1271Y2172D01*
X1275Y2181D01*
X1276Y2190D01*
X1275Y2199D01*
X1271Y2207D01*
X1266Y2214D01*
X1258Y2220D01*
X1250Y2223D01*
X1241Y2225D01*
D02*
G37*
G36*
X1411Y2254D02*
X1401Y2253D01*
X1391Y2249D01*
X1383Y2242D01*
X1376Y2234D01*
X1372Y2224D01*
X1371Y2214D01*
X1372Y2204D01*
X1376Y2194D01*
X1383Y2186D01*
X1391Y2179D01*
X1401Y2175D01*
X1411Y2174D01*
X1421Y2175D01*
X1431Y2179D01*
X1439Y2186D01*
X1446Y2194D01*
X1450Y2204D01*
X1451Y2214D01*
X1450Y2224D01*
X1446Y2234D01*
X1439Y2242D01*
X1431Y2249D01*
X1421Y2253D01*
X1411Y2254D01*
D02*
G37*
G36*
X3820Y2174D02*
X3788D01*
X3788Y2169D01*
X3792Y2160D01*
X3798Y2152D01*
X3806Y2146D01*
X3815Y2142D01*
X3820Y2142D01*
Y2174D01*
D02*
G37*
G36*
X1411Y2154D02*
X1401Y2153D01*
X1391Y2149D01*
X1383Y2142D01*
X1376Y2134D01*
X1372Y2124D01*
X1371Y2114D01*
X1372Y2104D01*
X1376Y2094D01*
X1383Y2086D01*
X1391Y2079D01*
X1401Y2075D01*
X1411Y2074D01*
X1421Y2075D01*
X1431Y2079D01*
X1439Y2086D01*
X1446Y2094D01*
X1450Y2104D01*
X1451Y2114D01*
X1450Y2124D01*
X1446Y2134D01*
X1439Y2142D01*
X1431Y2149D01*
X1421Y2153D01*
X1411Y2154D01*
D02*
G37*
G36*
X1711D02*
X1701Y2153D01*
X1691Y2149D01*
X1683Y2142D01*
X1676Y2134D01*
X1672Y2124D01*
X1671Y2114D01*
X1672Y2104D01*
X1676Y2094D01*
X1683Y2086D01*
X1691Y2079D01*
X1701Y2075D01*
X1711Y2074D01*
X1721Y2075D01*
X1731Y2079D01*
X1739Y2086D01*
X1746Y2094D01*
X1750Y2104D01*
X1751Y2114D01*
X1750Y2124D01*
X1746Y2134D01*
X1739Y2142D01*
X1731Y2149D01*
X1721Y2153D01*
X1711Y2154D01*
D02*
G37*
G36*
X4025Y2217D02*
X4015Y2216D01*
X4006Y2212D01*
X3998Y2206D01*
X3992Y2198D01*
X3988Y2189D01*
X3987Y2179D01*
X3988Y2169D01*
X3992Y2160D01*
X3998Y2152D01*
X4006Y2146D01*
X4015Y2142D01*
X4025Y2141D01*
X4035Y2142D01*
X4044Y2146D01*
X4052Y2152D01*
X4058Y2160D01*
X4062Y2169D01*
X4063Y2179D01*
X4062Y2189D01*
X4058Y2198D01*
X4052Y2206D01*
X4044Y2212D01*
X4035Y2216D01*
X4025Y2217D01*
D02*
G37*
G36*
X1706Y2509D02*
X1672D01*
X1672Y2504D01*
X1676Y2494D01*
X1683Y2486D01*
X1691Y2479D01*
X1701Y2475D01*
X1706Y2475D01*
Y2509D01*
D02*
G37*
G36*
X1841Y3089D02*
X1761D01*
Y3009D01*
X1841D01*
Y3089D01*
D02*
G37*
G36*
X1596Y3044D02*
X1562D01*
X1562Y3039D01*
X1566Y3029D01*
X1573Y3021D01*
X1581Y3014D01*
X1591Y3010D01*
X1596Y3010D01*
Y3044D01*
D02*
G37*
G36*
X1640D02*
X1606D01*
Y3010D01*
X1611Y3010D01*
X1621Y3014D01*
X1629Y3021D01*
X1636Y3029D01*
X1640Y3039D01*
X1640Y3044D01*
D02*
G37*
G36*
X3937Y3039D02*
Y3009D01*
X3966D01*
X3966Y3013D01*
X3962Y3022D01*
X3957Y3029D01*
X3949Y3035D01*
X3941Y3038D01*
X3937Y3039D01*
D02*
G37*
G36*
X3966Y2999D02*
X3937D01*
Y2970D01*
X3941Y2971D01*
X3949Y2974D01*
X3957Y2980D01*
X3962Y2987D01*
X3966Y2995D01*
X3966Y2999D01*
D02*
G37*
G36*
X1701Y3089D02*
X1691Y3088D01*
X1681Y3084D01*
X1673Y3077D01*
X1666Y3069D01*
X1662Y3059D01*
X1661Y3049D01*
X1662Y3039D01*
X1666Y3029D01*
X1673Y3021D01*
X1681Y3014D01*
X1691Y3010D01*
X1701Y3009D01*
X1711Y3010D01*
X1721Y3014D01*
X1729Y3021D01*
X1736Y3029D01*
X1740Y3039D01*
X1741Y3049D01*
X1740Y3059D01*
X1736Y3069D01*
X1729Y3077D01*
X1721Y3084D01*
X1711Y3088D01*
X1701Y3089D01*
D02*
G37*
G36*
X3927Y3039D02*
X3923Y3038D01*
X3915Y3035D01*
X3907Y3029D01*
X3902Y3022D01*
X3898Y3013D01*
X3898Y3009D01*
X3927D01*
Y3039D01*
D02*
G37*
G36*
X1596Y3088D02*
X1591Y3088D01*
X1581Y3084D01*
X1573Y3077D01*
X1566Y3069D01*
X1562Y3059D01*
X1562Y3054D01*
X1596D01*
Y3088D01*
D02*
G37*
G36*
X4207Y3204D02*
X4177D01*
X4178Y3200D01*
X4181Y3192D01*
X4187Y3184D01*
X4194Y3179D01*
X4203Y3175D01*
X4207Y3175D01*
Y3204D01*
D02*
G37*
G36*
X4246D02*
X4217D01*
Y3175D01*
X4221Y3175D01*
X4229Y3179D01*
X4236Y3184D01*
X4242Y3192D01*
X4245Y3200D01*
X4246Y3204D01*
D02*
G37*
G36*
X1296Y3226D02*
X1291Y3226D01*
X1282Y3222D01*
X1274Y3216D01*
X1268Y3208D01*
X1264Y3199D01*
X1264Y3194D01*
X1296D01*
Y3226D01*
D02*
G37*
G36*
X4325Y3244D02*
X4256D01*
Y3174D01*
X4325D01*
Y3244D01*
D02*
G37*
G36*
X1606Y3088D02*
Y3054D01*
X1640D01*
X1640Y3059D01*
X1636Y3069D01*
X1629Y3077D01*
X1621Y3084D01*
X1611Y3088D01*
X1606Y3088D01*
D02*
G37*
G36*
X2582Y3283D02*
X2565Y3281D01*
X2548Y3276D01*
X2533Y3268D01*
X2519Y3257D01*
X2508Y3244D01*
X2500Y3228D01*
X2495Y3211D01*
X2493Y3194D01*
X2495Y3177D01*
X2500Y3160D01*
X2508Y3144D01*
X2519Y3131D01*
X2533Y3120D01*
X2548Y3112D01*
X2565Y3107D01*
X2582Y3105D01*
X2600Y3107D01*
X2617Y3112D01*
X2632Y3120D01*
X2646Y3131D01*
X2657Y3144D01*
X2665Y3160D01*
X2670Y3177D01*
X2672Y3194D01*
X2670Y3211D01*
X2665Y3228D01*
X2657Y3244D01*
X2646Y3257D01*
X2632Y3268D01*
X2617Y3276D01*
X2600Y3281D01*
X2582Y3283D01*
D02*
G37*
G36*
X3032D02*
X3015Y3281D01*
X2998Y3276D01*
X2983Y3268D01*
X2969Y3257D01*
X2958Y3244D01*
X2950Y3228D01*
X2945Y3211D01*
X2943Y3194D01*
X2945Y3177D01*
X2950Y3160D01*
X2958Y3144D01*
X2969Y3131D01*
X2983Y3120D01*
X2998Y3112D01*
X3015Y3107D01*
X3032Y3105D01*
X3050Y3107D01*
X3067Y3112D01*
X3082Y3120D01*
X3096Y3131D01*
X3107Y3144D01*
X3115Y3160D01*
X3120Y3177D01*
X3122Y3194D01*
X3120Y3211D01*
X3115Y3228D01*
X3107Y3244D01*
X3096Y3257D01*
X3082Y3268D01*
X3067Y3276D01*
X3050Y3281D01*
X3032Y3283D01*
D02*
G37*
G36*
X1775Y2833D02*
Y2804D01*
X1805D01*
X1804Y2808D01*
X1801Y2816D01*
X1795Y2824D01*
X1788Y2829D01*
X1779Y2833D01*
X1775Y2833D01*
D02*
G37*
G36*
X3918Y2652D02*
X3907Y2650D01*
X3897Y2646D01*
X3888Y2640D01*
X3882Y2631D01*
X3878Y2621D01*
X3876Y2610D01*
X3878Y2599D01*
X3882Y2589D01*
X3888Y2580D01*
X3897Y2574D01*
X3907Y2570D01*
X3918Y2568D01*
X3929Y2570D01*
X3939Y2574D01*
X3948Y2580D01*
X3954Y2589D01*
X3958Y2599D01*
X3960Y2610D01*
X3958Y2621D01*
X3954Y2631D01*
X3948Y2640D01*
X3939Y2646D01*
X3929Y2650D01*
X3918Y2652D01*
D02*
G37*
G36*
X1451Y2654D02*
X1371D01*
Y2574D01*
X1451D01*
Y2654D01*
D02*
G37*
G36*
X1906Y2694D02*
X1874D01*
X1874Y2689D01*
X1878Y2680D01*
X1884Y2672D01*
X1892Y2666D01*
X1901Y2662D01*
X1906Y2662D01*
Y2694D01*
D02*
G37*
G36*
X1276Y2623D02*
X1206D01*
Y2554D01*
X1276D01*
Y2623D01*
D02*
G37*
G36*
X1750Y2509D02*
X1716D01*
Y2475D01*
X1721Y2475D01*
X1731Y2479D01*
X1739Y2486D01*
X1746Y2494D01*
X1750Y2504D01*
X1750Y2509D01*
D02*
G37*
G36*
X1706Y2553D02*
X1701Y2553D01*
X1691Y2549D01*
X1683Y2542D01*
X1676Y2534D01*
X1672Y2524D01*
X1672Y2519D01*
X1706D01*
Y2553D01*
D02*
G37*
G36*
X1716D02*
Y2519D01*
X1750D01*
X1750Y2524D01*
X1746Y2534D01*
X1739Y2542D01*
X1731Y2549D01*
X1721Y2553D01*
X1716Y2553D01*
D02*
G37*
G36*
X1948Y2694D02*
X1916D01*
Y2662D01*
X1921Y2662D01*
X1930Y2666D01*
X1938Y2672D01*
X1944Y2680D01*
X1948Y2689D01*
X1948Y2694D01*
D02*
G37*
G36*
X1765Y2794D02*
X1736D01*
X1737Y2790D01*
X1740Y2782D01*
X1746Y2774D01*
X1753Y2769D01*
X1761Y2765D01*
X1765Y2765D01*
Y2794D01*
D02*
G37*
G36*
X1805D02*
X1775D01*
Y2765D01*
X1779Y2765D01*
X1788Y2769D01*
X1795Y2774D01*
X1801Y2782D01*
X1804Y2790D01*
X1805Y2794D01*
D02*
G37*
G36*
X1765Y2833D02*
X1761Y2833D01*
X1753Y2829D01*
X1746Y2824D01*
X1740Y2816D01*
X1737Y2808D01*
X1736Y2804D01*
X1765D01*
Y2833D01*
D02*
G37*
G36*
X3959Y2751D02*
X3923D01*
Y2715D01*
X3959D01*
Y2751D01*
D02*
G37*
G36*
X3913Y2705D02*
X3877D01*
Y2669D01*
X3913D01*
Y2705D01*
D02*
G37*
G36*
X3959D02*
X3923D01*
Y2669D01*
X3959D01*
Y2705D01*
D02*
G37*
G36*
X3913Y2751D02*
X3877D01*
Y2715D01*
X3913D01*
Y2751D01*
D02*
G37*
G36*
X1726Y1548D02*
X1721Y1548D01*
X1711Y1544D01*
X1703Y1537D01*
X1696Y1529D01*
X1692Y1519D01*
X1692Y1514D01*
X1726D01*
Y1548D01*
D02*
G37*
G36*
X1736D02*
Y1514D01*
X1770D01*
X1770Y1519D01*
X1766Y1529D01*
X1759Y1537D01*
X1751Y1544D01*
X1741Y1548D01*
X1736Y1548D01*
D02*
G37*
G36*
X3921Y1564D02*
X3917Y1563D01*
X3909Y1560D01*
X3901Y1554D01*
X3896Y1547D01*
X3892Y1538D01*
X3892Y1534D01*
X3921D01*
Y1564D01*
D02*
G37*
G36*
X4467Y1534D02*
X4432D01*
Y1499D01*
X4437Y1500D01*
X4447Y1504D01*
X4456Y1510D01*
X4462Y1519D01*
X4466Y1529D01*
X4467Y1534D01*
D02*
G37*
G36*
X3921Y1524D02*
X3892D01*
X3892Y1520D01*
X3896Y1512D01*
X3901Y1505D01*
X3909Y1499D01*
X3917Y1496D01*
X3921Y1495D01*
Y1524D01*
D02*
G37*
G36*
X3960D02*
X3931D01*
Y1495D01*
X3935Y1496D01*
X3943Y1499D01*
X3951Y1505D01*
X3956Y1512D01*
X3960Y1520D01*
X3960Y1524D01*
D02*
G37*
G36*
X4422Y1534D02*
X4387D01*
X4388Y1529D01*
X4392Y1519D01*
X4398Y1510D01*
X4407Y1504D01*
X4417Y1500D01*
X4422Y1499D01*
Y1534D01*
D02*
G37*
G36*
X3931Y1564D02*
Y1534D01*
X3960D01*
X3960Y1538D01*
X3956Y1547D01*
X3951Y1554D01*
X3943Y1560D01*
X3935Y1563D01*
X3931Y1564D01*
D02*
G37*
G36*
X4422Y1689D02*
X4417Y1688D01*
X4407Y1684D01*
X4398Y1678D01*
X4392Y1669D01*
X4388Y1659D01*
X4387Y1654D01*
X4422D01*
Y1689D01*
D02*
G37*
G36*
X4432D02*
Y1654D01*
X4467D01*
X4466Y1659D01*
X4462Y1669D01*
X4456Y1678D01*
X4447Y1684D01*
X4437Y1688D01*
X4432Y1689D01*
D02*
G37*
G36*
X1631Y1749D02*
X1551D01*
Y1669D01*
X1631D01*
Y1749D01*
D02*
G37*
G36*
X4467Y1644D02*
X4432D01*
Y1609D01*
X4437Y1610D01*
X4447Y1614D01*
X4456Y1620D01*
X4462Y1629D01*
X4466Y1639D01*
X4467Y1644D01*
D02*
G37*
G36*
X4422Y1579D02*
X4417Y1578D01*
X4407Y1574D01*
X4398Y1568D01*
X4392Y1559D01*
X4388Y1549D01*
X4387Y1544D01*
X4422D01*
Y1579D01*
D02*
G37*
G36*
X4432D02*
Y1544D01*
X4467D01*
X4466Y1549D01*
X4462Y1559D01*
X4456Y1568D01*
X4447Y1574D01*
X4437Y1578D01*
X4432Y1579D01*
D02*
G37*
G36*
X4422Y1644D02*
X4387D01*
X4388Y1639D01*
X4392Y1629D01*
X4398Y1620D01*
X4407Y1614D01*
X4417Y1610D01*
X4422Y1609D01*
Y1644D01*
D02*
G37*
G36*
X1770Y1504D02*
X1736D01*
Y1470D01*
X1741Y1470D01*
X1751Y1474D01*
X1759Y1481D01*
X1766Y1489D01*
X1770Y1499D01*
X1770Y1504D01*
D02*
G37*
G36*
X1731Y1349D02*
X1721Y1348D01*
X1711Y1344D01*
X1703Y1337D01*
X1696Y1329D01*
X1692Y1319D01*
X1691Y1309D01*
X1692Y1299D01*
X1696Y1289D01*
X1703Y1281D01*
X1711Y1274D01*
X1721Y1270D01*
X1731Y1269D01*
X1741Y1270D01*
X1751Y1274D01*
X1759Y1281D01*
X1766Y1289D01*
X1770Y1299D01*
X1771Y1309D01*
X1770Y1319D01*
X1766Y1329D01*
X1759Y1337D01*
X1751Y1344D01*
X1741Y1348D01*
X1731Y1349D01*
D02*
G37*
G36*
X1491Y1449D02*
X1481Y1448D01*
X1471Y1444D01*
X1463Y1437D01*
X1456Y1429D01*
X1452Y1419D01*
X1451Y1409D01*
X1452Y1399D01*
X1456Y1389D01*
X1463Y1381D01*
X1471Y1374D01*
X1481Y1370D01*
X1491Y1369D01*
X1501Y1370D01*
X1511Y1374D01*
X1519Y1381D01*
X1526Y1389D01*
X1530Y1399D01*
X1531Y1409D01*
X1530Y1419D01*
X1526Y1429D01*
X1519Y1437D01*
X1511Y1444D01*
X1501Y1448D01*
X1491Y1449D01*
D02*
G37*
G36*
X1286Y1404D02*
X1252D01*
X1252Y1399D01*
X1256Y1389D01*
X1263Y1381D01*
X1271Y1374D01*
X1281Y1370D01*
X1286Y1370D01*
Y1404D01*
D02*
G37*
G36*
X3482Y1440D02*
X3461Y1439D01*
X3441Y1434D01*
X3421Y1426D01*
X3403Y1415D01*
X3387Y1401D01*
X3373Y1385D01*
X3362Y1366D01*
X3354Y1347D01*
X3349Y1326D01*
X3347Y1305D01*
X3349Y1284D01*
X3354Y1263D01*
X3362Y1244D01*
X3373Y1225D01*
X3387Y1209D01*
X3403Y1195D01*
X3421Y1184D01*
X3441Y1176D01*
X3461Y1171D01*
X3482Y1170D01*
X3504Y1171D01*
X3524Y1176D01*
X3544Y1184D01*
X3562Y1195D01*
X3578Y1209D01*
X3592Y1225D01*
X3603Y1244D01*
X3611Y1263D01*
X3616Y1284D01*
X3618Y1305D01*
X3616Y1326D01*
X3611Y1347D01*
X3603Y1366D01*
X3592Y1385D01*
X3578Y1401D01*
X3562Y1415D01*
X3544Y1426D01*
X3524Y1434D01*
X3504Y1439D01*
X3482Y1440D01*
D02*
G37*
G36*
X1176Y1309D02*
X1155Y1308D01*
X1134Y1303D01*
X1115Y1295D01*
X1096Y1284D01*
X1080Y1270D01*
X1066Y1254D01*
X1055Y1235D01*
X1047Y1216D01*
X1042Y1195D01*
X1041Y1174D01*
X1042Y1153D01*
X1047Y1132D01*
X1055Y1113D01*
X1066Y1094D01*
X1080Y1078D01*
X1096Y1064D01*
X1115Y1053D01*
X1134Y1045D01*
X1155Y1040D01*
X1176Y1039D01*
X1197Y1040D01*
X1218Y1045D01*
X1237Y1053D01*
X1256Y1064D01*
X1272Y1078D01*
X1286Y1094D01*
X1297Y1113D01*
X1305Y1132D01*
X1310Y1153D01*
X1311Y1174D01*
X1310Y1195D01*
X1305Y1216D01*
X1297Y1235D01*
X1286Y1254D01*
X1272Y1270D01*
X1256Y1284D01*
X1237Y1295D01*
X1218Y1303D01*
X1197Y1308D01*
X1176Y1309D01*
D02*
G37*
G36*
X4426D02*
X4405Y1308D01*
X4384Y1303D01*
X4365Y1295D01*
X4346Y1284D01*
X4330Y1270D01*
X4316Y1254D01*
X4305Y1235D01*
X4297Y1216D01*
X4292Y1195D01*
X4291Y1174D01*
X4292Y1153D01*
X4297Y1132D01*
X4305Y1113D01*
X4316Y1094D01*
X4330Y1078D01*
X4346Y1064D01*
X4365Y1053D01*
X4384Y1045D01*
X4405Y1040D01*
X4426Y1039D01*
X4447Y1040D01*
X4468Y1045D01*
X4487Y1053D01*
X4506Y1064D01*
X4522Y1078D01*
X4536Y1094D01*
X4547Y1113D01*
X4555Y1132D01*
X4560Y1153D01*
X4561Y1174D01*
X4560Y1195D01*
X4555Y1216D01*
X4547Y1235D01*
X4536Y1254D01*
X4522Y1270D01*
X4506Y1284D01*
X4487Y1295D01*
X4468Y1303D01*
X4447Y1308D01*
X4426Y1309D01*
D02*
G37*
G36*
X2132Y1440D02*
X2111Y1439D01*
X2091Y1434D01*
X2071Y1426D01*
X2053Y1415D01*
X2037Y1401D01*
X2023Y1385D01*
X2012Y1366D01*
X2004Y1347D01*
X1999Y1326D01*
X1997Y1305D01*
X1999Y1284D01*
X2004Y1263D01*
X2012Y1244D01*
X2023Y1225D01*
X2037Y1209D01*
X2053Y1195D01*
X2071Y1184D01*
X2091Y1176D01*
X2111Y1171D01*
X2132Y1170D01*
X2154Y1171D01*
X2174Y1176D01*
X2194Y1184D01*
X2212Y1195D01*
X2228Y1209D01*
X2242Y1225D01*
X2253Y1244D01*
X2261Y1263D01*
X2266Y1284D01*
X2268Y1305D01*
X2266Y1326D01*
X2261Y1347D01*
X2253Y1366D01*
X2242Y1385D01*
X2228Y1401D01*
X2212Y1415D01*
X2194Y1426D01*
X2174Y1434D01*
X2154Y1439D01*
X2132Y1440D01*
D02*
G37*
G36*
X1330Y1404D02*
X1296D01*
Y1370D01*
X1301Y1370D01*
X1311Y1374D01*
X1319Y1381D01*
X1326Y1389D01*
X1330Y1399D01*
X1330Y1404D01*
D02*
G37*
G36*
X3961Y1485D02*
X3891D01*
Y1416D01*
X3961D01*
Y1485D01*
D02*
G37*
G36*
X1861Y1747D02*
X1851Y1746D01*
X1842Y1742D01*
X1834Y1736D01*
X1828Y1728D01*
X1824Y1719D01*
X1823Y1709D01*
X1824Y1699D01*
X1828Y1690D01*
X1834Y1682D01*
X1841Y1677D01*
Y1547D01*
X1741Y1448D01*
X1731Y1449D01*
X1721Y1448D01*
X1711Y1444D01*
X1703Y1437D01*
X1696Y1429D01*
X1692Y1419D01*
X1691Y1409D01*
X1692Y1399D01*
X1649Y1355D01*
X1463D01*
X1427Y1392D01*
X1430Y1399D01*
X1431Y1409D01*
X1430Y1419D01*
X1426Y1429D01*
X1419Y1437D01*
X1411Y1444D01*
X1401Y1448D01*
X1391Y1449D01*
X1381Y1448D01*
X1371Y1444D01*
X1363Y1437D01*
X1356Y1429D01*
X1352Y1419D01*
X1351Y1409D01*
X1352Y1399D01*
X1356Y1389D01*
X1363Y1381D01*
X1371Y1374D01*
X1381Y1370D01*
X1391Y1369D01*
X1392Y1369D01*
X1441Y1321D01*
X1447Y1316D01*
X1455Y1315D01*
X1657D01*
X1665Y1316D01*
X1671Y1321D01*
X1721Y1370D01*
X1731Y1369D01*
X1741Y1370D01*
X1751Y1374D01*
X1759Y1381D01*
X1766Y1389D01*
X1770Y1399D01*
X1771Y1409D01*
X1770Y1419D01*
X1875Y1525D01*
X1880Y1531D01*
X1881Y1539D01*
X1881Y1539D01*
Y1677D01*
X1888Y1682D01*
X1894Y1690D01*
X1898Y1699D01*
X1899Y1709D01*
X1898Y1719D01*
X1894Y1728D01*
X1888Y1736D01*
X1880Y1742D01*
X1871Y1746D01*
X1861Y1747D01*
D02*
G37*
G36*
X1726Y1504D02*
X1692D01*
X1692Y1499D01*
X1696Y1489D01*
X1703Y1481D01*
X1711Y1474D01*
X1721Y1470D01*
X1726Y1470D01*
Y1504D01*
D02*
G37*
G36*
X1296Y1448D02*
Y1414D01*
X1330D01*
X1330Y1419D01*
X1326Y1429D01*
X1319Y1437D01*
X1311Y1444D01*
X1301Y1448D01*
X1296Y1448D01*
D02*
G37*
G36*
X2582Y1567D02*
X2565Y1565D01*
X2548Y1560D01*
X2533Y1552D01*
X2519Y1541D01*
X2508Y1528D01*
X2500Y1512D01*
X2495Y1495D01*
X2493Y1478D01*
X2495Y1461D01*
X2500Y1444D01*
X2508Y1428D01*
X2519Y1415D01*
X2533Y1404D01*
X2548Y1396D01*
X2565Y1391D01*
X2582Y1389D01*
X2600Y1391D01*
X2617Y1396D01*
X2632Y1404D01*
X2646Y1415D01*
X2657Y1428D01*
X2665Y1444D01*
X2670Y1461D01*
X2672Y1478D01*
X2670Y1495D01*
X2665Y1512D01*
X2657Y1528D01*
X2646Y1541D01*
X2632Y1552D01*
X2617Y1560D01*
X2600Y1565D01*
X2582Y1567D01*
D02*
G37*
G36*
X3032D02*
X3015Y1565D01*
X2998Y1560D01*
X2983Y1552D01*
X2969Y1541D01*
X2958Y1528D01*
X2950Y1512D01*
X2945Y1495D01*
X2943Y1478D01*
X2945Y1461D01*
X2950Y1444D01*
X2958Y1428D01*
X2969Y1415D01*
X2983Y1404D01*
X2998Y1396D01*
X3015Y1391D01*
X3032Y1389D01*
X3050Y1391D01*
X3067Y1396D01*
X3082Y1404D01*
X3096Y1415D01*
X3107Y1428D01*
X3115Y1444D01*
X3120Y1461D01*
X3122Y1478D01*
X3120Y1495D01*
X3115Y1512D01*
X3107Y1528D01*
X3096Y1541D01*
X3082Y1552D01*
X3067Y1560D01*
X3050Y1565D01*
X3032Y1567D01*
D02*
G37*
G36*
X1286Y1448D02*
X1281Y1448D01*
X1271Y1444D01*
X1263Y1437D01*
X1256Y1429D01*
X1252Y1419D01*
X1252Y1414D01*
X1286D01*
Y1448D01*
D02*
G37*
G36*
Y1704D02*
X1252D01*
X1252Y1699D01*
X1256Y1689D01*
X1263Y1681D01*
X1271Y1674D01*
X1281Y1670D01*
X1286Y1670D01*
Y1704D01*
D02*
G37*
G36*
X3951Y1825D02*
X3913D01*
Y1787D01*
X3919Y1788D01*
X3930Y1792D01*
X3939Y1799D01*
X3946Y1808D01*
X3950Y1819D01*
X3951Y1825D01*
D02*
G37*
G36*
X1906Y1836D02*
X1901Y1836D01*
X1892Y1832D01*
X1884Y1826D01*
X1878Y1818D01*
X1874Y1809D01*
X1874Y1804D01*
X1906D01*
Y1836D01*
D02*
G37*
G36*
X1916D02*
Y1804D01*
X1948D01*
X1948Y1809D01*
X1944Y1818D01*
X1938Y1826D01*
X1930Y1832D01*
X1921Y1836D01*
X1916Y1836D01*
D02*
G37*
G36*
X3903Y1825D02*
X3865D01*
X3866Y1819D01*
X3870Y1808D01*
X3877Y1799D01*
X3886Y1792D01*
X3897Y1788D01*
X3903Y1787D01*
Y1825D01*
D02*
G37*
G36*
X1948Y1794D02*
X1916D01*
Y1762D01*
X1921Y1762D01*
X1930Y1766D01*
X1938Y1772D01*
X1944Y1780D01*
X1948Y1789D01*
X1948Y1794D01*
D02*
G37*
G36*
X4422Y1799D02*
X4417Y1798D01*
X4407Y1794D01*
X4398Y1788D01*
X4392Y1779D01*
X4388Y1769D01*
X4387Y1764D01*
X4422D01*
Y1799D01*
D02*
G37*
G36*
X4432D02*
Y1764D01*
X4467D01*
X4466Y1769D01*
X4462Y1779D01*
X4456Y1788D01*
X4447Y1794D01*
X4437Y1798D01*
X4432Y1799D01*
D02*
G37*
G36*
X4422Y1864D02*
X4387D01*
X4388Y1859D01*
X4392Y1849D01*
X4398Y1840D01*
X4407Y1834D01*
X4417Y1830D01*
X4422Y1829D01*
Y1864D01*
D02*
G37*
G36*
X4432Y1909D02*
Y1874D01*
X4467D01*
X4466Y1879D01*
X4462Y1889D01*
X4456Y1898D01*
X4447Y1904D01*
X4437Y1908D01*
X4432Y1909D01*
D02*
G37*
G36*
X1411Y1954D02*
X1401Y1953D01*
X1391Y1949D01*
X1383Y1942D01*
X1376Y1934D01*
X1372Y1924D01*
X1371Y1914D01*
X1372Y1904D01*
X1376Y1894D01*
X1383Y1886D01*
X1391Y1879D01*
X1401Y1875D01*
X1411Y1874D01*
X1421Y1875D01*
X1431Y1879D01*
X1439Y1886D01*
X1446Y1894D01*
X1450Y1904D01*
X1451Y1914D01*
X1450Y1924D01*
X1446Y1934D01*
X1439Y1942D01*
X1431Y1949D01*
X1421Y1953D01*
X1411Y1954D01*
D02*
G37*
G36*
X1711D02*
X1701Y1953D01*
X1691Y1949D01*
X1683Y1942D01*
X1676Y1934D01*
X1672Y1924D01*
X1671Y1914D01*
X1672Y1904D01*
X1676Y1894D01*
X1683Y1886D01*
X1691Y1879D01*
X1701Y1875D01*
X1711Y1874D01*
X1721Y1875D01*
X1731Y1879D01*
X1739Y1886D01*
X1746Y1894D01*
X1750Y1904D01*
X1751Y1914D01*
X1750Y1924D01*
X1746Y1934D01*
X1739Y1942D01*
X1731Y1949D01*
X1721Y1953D01*
X1711Y1954D01*
D02*
G37*
G36*
X4422Y1909D02*
X4417Y1908D01*
X4407Y1904D01*
X4398Y1898D01*
X4392Y1889D01*
X4388Y1879D01*
X4387Y1874D01*
X4422D01*
Y1909D01*
D02*
G37*
G36*
X4467Y1864D02*
X4432D01*
Y1829D01*
X4437Y1830D01*
X4447Y1834D01*
X4456Y1840D01*
X4462Y1849D01*
X4466Y1859D01*
X4467Y1864D01*
D02*
G37*
G36*
X3903Y1873D02*
X3897Y1872D01*
X3886Y1868D01*
X3877Y1861D01*
X3870Y1852D01*
X3866Y1841D01*
X3865Y1835D01*
X3903D01*
Y1873D01*
D02*
G37*
G36*
X3913D02*
Y1835D01*
X3951D01*
X3950Y1841D01*
X3946Y1852D01*
X3939Y1861D01*
X3930Y1868D01*
X3919Y1872D01*
X3913Y1873D01*
D02*
G37*
G36*
X1906Y1794D02*
X1874D01*
X1874Y1789D01*
X1878Y1780D01*
X1884Y1772D01*
X1892Y1766D01*
X1901Y1762D01*
X1906Y1762D01*
Y1794D01*
D02*
G37*
G36*
X1530Y1704D02*
X1496D01*
Y1670D01*
X1501Y1670D01*
X1511Y1674D01*
X1519Y1681D01*
X1526Y1689D01*
X1530Y1699D01*
X1530Y1704D01*
D02*
G37*
G36*
X2161Y1747D02*
X2151Y1746D01*
X2142Y1742D01*
X2134Y1736D01*
X2128Y1728D01*
X2124Y1719D01*
X2123Y1709D01*
X2124Y1699D01*
X2128Y1690D01*
X2134Y1682D01*
X2142Y1676D01*
X2151Y1672D01*
X2161Y1671D01*
X2171Y1672D01*
X2180Y1676D01*
X2188Y1682D01*
X2194Y1690D01*
X2198Y1699D01*
X2199Y1709D01*
X2198Y1719D01*
X2194Y1728D01*
X2188Y1736D01*
X2180Y1742D01*
X2171Y1746D01*
X2161Y1747D01*
D02*
G37*
G36*
X3908Y1774D02*
X3897Y1772D01*
X3886Y1768D01*
X3877Y1761D01*
X3870Y1752D01*
X3866Y1741D01*
X3864Y1730D01*
X3866Y1719D01*
X3870Y1708D01*
X3877Y1699D01*
X3886Y1692D01*
X3897Y1688D01*
X3908Y1686D01*
X3919Y1688D01*
X3930Y1692D01*
X3939Y1699D01*
X3946Y1708D01*
X3950Y1719D01*
X3952Y1730D01*
X3950Y1741D01*
X3946Y1752D01*
X3939Y1761D01*
X3930Y1768D01*
X3919Y1772D01*
X3908Y1774D01*
D02*
G37*
G36*
X1486Y1704D02*
X1452D01*
X1452Y1699D01*
X1456Y1689D01*
X1463Y1681D01*
X1471Y1674D01*
X1481Y1670D01*
X1486Y1670D01*
Y1704D01*
D02*
G37*
G36*
X1330D02*
X1296D01*
Y1670D01*
X1301Y1670D01*
X1311Y1674D01*
X1319Y1681D01*
X1326Y1689D01*
X1330Y1699D01*
X1330Y1704D01*
D02*
G37*
G36*
X1386D02*
X1352D01*
X1352Y1699D01*
X1356Y1689D01*
X1363Y1681D01*
X1371Y1674D01*
X1381Y1670D01*
X1386Y1670D01*
Y1704D01*
D02*
G37*
G36*
X1430D02*
X1396D01*
Y1670D01*
X1401Y1670D01*
X1411Y1674D01*
X1419Y1681D01*
X1426Y1689D01*
X1430Y1699D01*
X1430Y1704D01*
D02*
G37*
G36*
X1286Y1748D02*
X1281Y1748D01*
X1271Y1744D01*
X1263Y1737D01*
X1256Y1729D01*
X1252Y1719D01*
X1252Y1714D01*
X1286D01*
Y1748D01*
D02*
G37*
G36*
X1496D02*
Y1714D01*
X1530D01*
X1530Y1719D01*
X1526Y1729D01*
X1519Y1737D01*
X1511Y1744D01*
X1501Y1748D01*
X1496Y1748D01*
D02*
G37*
G36*
X4422Y1754D02*
X4387D01*
X4388Y1749D01*
X4392Y1739D01*
X4398Y1730D01*
X4407Y1724D01*
X4417Y1720D01*
X4422Y1719D01*
Y1754D01*
D02*
G37*
G36*
X4467D02*
X4432D01*
Y1719D01*
X4437Y1720D01*
X4447Y1724D01*
X4456Y1730D01*
X4462Y1739D01*
X4466Y1749D01*
X4467Y1754D01*
D02*
G37*
G36*
X1486Y1748D02*
X1481Y1748D01*
X1471Y1744D01*
X1463Y1737D01*
X1456Y1729D01*
X1452Y1719D01*
X1452Y1714D01*
X1486D01*
Y1748D01*
D02*
G37*
G36*
X1296D02*
Y1714D01*
X1330D01*
X1330Y1719D01*
X1326Y1729D01*
X1319Y1737D01*
X1311Y1744D01*
X1301Y1748D01*
X1296Y1748D01*
D02*
G37*
G36*
X1386D02*
X1381Y1748D01*
X1371Y1744D01*
X1363Y1737D01*
X1356Y1729D01*
X1352Y1719D01*
X1352Y1714D01*
X1386D01*
Y1748D01*
D02*
G37*
G36*
X1396D02*
Y1714D01*
X1430D01*
X1430Y1719D01*
X1426Y1729D01*
X1419Y1737D01*
X1411Y1744D01*
X1401Y1748D01*
X1396Y1748D01*
D02*
G37*
G36*
X3486Y4134D02*
X3454D01*
Y4102D01*
X3459Y4102D01*
X3468Y4106D01*
X3476Y4112D01*
X3482Y4120D01*
X3486Y4129D01*
X3486Y4134D01*
D02*
G37*
G36*
X4096Y4127D02*
X4078D01*
Y4125D01*
X4080Y4116D01*
X4085Y4109D01*
X4092Y4104D01*
X4096Y4103D01*
Y4127D01*
D02*
G37*
G36*
X4123D02*
X4106D01*
Y4103D01*
X4109Y4104D01*
X4116Y4109D01*
X4121Y4116D01*
X4123Y4125D01*
Y4127D01*
D02*
G37*
G36*
X3444Y4134D02*
X3412D01*
X3412Y4129D01*
X3416Y4120D01*
X3422Y4112D01*
X3430Y4106D01*
X3439Y4102D01*
X3444Y4102D01*
Y4134D01*
D02*
G37*
G36*
X2908Y4094D02*
X2880D01*
Y4066D01*
X2883Y4067D01*
X2891Y4070D01*
X2898Y4075D01*
X2904Y4082D01*
X2907Y4090D01*
X2908Y4094D01*
D02*
G37*
G36*
X1646Y4106D02*
Y4074D01*
X1678D01*
X1678Y4079D01*
X1674Y4088D01*
X1668Y4096D01*
X1660Y4102D01*
X1651Y4106D01*
X1646Y4106D01*
D02*
G37*
G36*
X3711Y4177D02*
X3701Y4176D01*
X3692Y4172D01*
X3684Y4166D01*
X3678Y4158D01*
X3674Y4149D01*
X3673Y4139D01*
X3674Y4129D01*
X3678Y4120D01*
X3684Y4112D01*
X3692Y4106D01*
X3701Y4102D01*
X3711Y4101D01*
X3721Y4102D01*
X3730Y4106D01*
X3738Y4112D01*
X3744Y4120D01*
X3748Y4129D01*
X3749Y4139D01*
X3748Y4149D01*
X3744Y4158D01*
X3738Y4166D01*
X3730Y4172D01*
X3721Y4176D01*
X3711Y4177D01*
D02*
G37*
G36*
X2555Y4132D02*
X2551Y4131D01*
X2543Y4128D01*
X2536Y4123D01*
X2531Y4116D01*
X2527Y4108D01*
X2527Y4104D01*
X2555D01*
Y4132D01*
D02*
G37*
G36*
X2880D02*
Y4104D01*
X2908D01*
X2907Y4108D01*
X2904Y4116D01*
X2898Y4123D01*
X2891Y4128D01*
X2883Y4131D01*
X2880Y4132D01*
D02*
G37*
G36*
X4096Y4162D02*
X4092Y4161D01*
X4085Y4156D01*
X4080Y4149D01*
X4078Y4140D01*
Y4137D01*
X4096D01*
Y4162D01*
D02*
G37*
G36*
X4106D02*
Y4137D01*
X4123D01*
Y4140D01*
X4121Y4149D01*
X4116Y4156D01*
X4109Y4161D01*
X4106Y4162D01*
D02*
G37*
G36*
X2870Y4132D02*
X2866Y4131D01*
X2858Y4128D01*
X2851Y4123D01*
X2846Y4116D01*
X2842Y4108D01*
X2842Y4104D01*
X2870D01*
Y4132D01*
D02*
G37*
G36*
X2565D02*
Y4104D01*
X2593D01*
X2592Y4108D01*
X2589Y4116D01*
X2583Y4123D01*
X2576Y4128D01*
X2568Y4131D01*
X2565Y4132D01*
D02*
G37*
G36*
X2633D02*
X2630Y4131D01*
X2622Y4128D01*
X2615Y4123D01*
X2609Y4116D01*
X2606Y4108D01*
X2606Y4104D01*
X2633D01*
Y4132D01*
D02*
G37*
G36*
X2643D02*
Y4104D01*
X2671D01*
X2671Y4108D01*
X2668Y4116D01*
X2662Y4123D01*
X2655Y4128D01*
X2647Y4131D01*
X2643Y4132D01*
D02*
G37*
G36*
X2870Y4094D02*
X2842D01*
X2842Y4090D01*
X2846Y4082D01*
X2851Y4075D01*
X2858Y4070D01*
X2866Y4067D01*
X2870Y4066D01*
Y4094D01*
D02*
G37*
G36*
X4491Y4027D02*
X4481Y4026D01*
X4472Y4022D01*
X4464Y4016D01*
X4458Y4008D01*
X4454Y3999D01*
X4453Y3989D01*
X4454Y3979D01*
X4458Y3970D01*
X4464Y3962D01*
X4472Y3956D01*
X4481Y3952D01*
X4491Y3951D01*
X4501Y3952D01*
X4510Y3956D01*
X4518Y3962D01*
X4524Y3970D01*
X4528Y3979D01*
X4529Y3989D01*
X4528Y3999D01*
X4524Y4008D01*
X4518Y4016D01*
X4510Y4022D01*
X4501Y4026D01*
X4491Y4027D01*
D02*
G37*
G36*
X1791Y4057D02*
X1781Y4056D01*
X1772Y4052D01*
X1764Y4046D01*
X1758Y4038D01*
X1754Y4029D01*
X1753Y4019D01*
X1754Y4009D01*
X1758Y4000D01*
X1764Y3992D01*
X1772Y3986D01*
X1781Y3982D01*
X1791Y3981D01*
X1801Y3982D01*
X1810Y3986D01*
X1818Y3992D01*
X1824Y4000D01*
X1828Y4009D01*
X1829Y4019D01*
X1828Y4029D01*
X1824Y4038D01*
X1818Y4046D01*
X1810Y4052D01*
X1801Y4056D01*
X1791Y4057D01*
D02*
G37*
G36*
X3032Y4133D02*
X3024Y4131D01*
X3015Y4128D01*
X3008Y4123D01*
X3003Y4116D01*
X3000Y4108D01*
X2999Y4099D01*
X3000Y4090D01*
X3003Y4082D01*
X3008Y4075D01*
X3013Y4072D01*
Y3979D01*
X2672Y3639D01*
X2638D01*
X2635Y3646D01*
X2968Y3979D01*
X2968Y3979D01*
X2972Y3986D01*
X2972Y3986D01*
X2972Y3986D01*
X2974Y3993D01*
X2974Y3993D01*
Y4073D01*
X2977Y4075D01*
X2982Y4082D01*
X2986Y4090D01*
X2987Y4099D01*
X2986Y4108D01*
X2982Y4116D01*
X2977Y4123D01*
X2970Y4128D01*
X2962Y4131D01*
X2953Y4133D01*
X2945Y4131D01*
X2937Y4128D01*
X2930Y4123D01*
X2924Y4116D01*
X2921Y4108D01*
X2920Y4099D01*
X2921Y4090D01*
X2924Y4082D01*
X2930Y4075D01*
X2933Y4073D01*
Y4002D01*
X2569Y3638D01*
X2561Y3639D01*
X2551Y3638D01*
X2541Y3634D01*
X2533Y3627D01*
X2526Y3619D01*
X2522Y3609D01*
X2521Y3599D01*
X2522Y3589D01*
X2526Y3579D01*
X2533Y3571D01*
X2541Y3564D01*
X2551Y3560D01*
X2561Y3559D01*
X2571Y3560D01*
X2581Y3564D01*
X2589Y3571D01*
X2596Y3579D01*
X2600Y3589D01*
X2601Y3599D01*
X2600Y3609D01*
X2599Y3610D01*
X2614Y3625D01*
X2621Y3622D01*
Y3559D01*
X2701D01*
Y3610D01*
X3047Y3957D01*
X3047Y3957D01*
X3050Y3961D01*
X3052Y3963D01*
X3053Y3971D01*
X3053Y3971D01*
X3053Y3971D01*
Y3971D01*
Y4073D01*
X3056Y4075D01*
X3061Y4082D01*
X3065Y4090D01*
X3066Y4099D01*
X3065Y4108D01*
X3061Y4116D01*
X3056Y4123D01*
X3049Y4128D01*
X3041Y4131D01*
X3032Y4133D01*
D02*
G37*
G36*
X4391Y4027D02*
X4381Y4026D01*
X4372Y4022D01*
X4364Y4016D01*
X4358Y4008D01*
X4354Y3999D01*
X4353Y3989D01*
X4354Y3979D01*
X4358Y3970D01*
X4364Y3962D01*
X4372Y3956D01*
X4381Y3952D01*
X4391Y3951D01*
X4401Y3952D01*
X4410Y3956D01*
X4418Y3962D01*
X4424Y3970D01*
X4428Y3979D01*
X4429Y3989D01*
X4428Y3999D01*
X4424Y4008D01*
X4418Y4016D01*
X4410Y4022D01*
X4401Y4026D01*
X4391Y4027D01*
D02*
G37*
G36*
X4146Y3948D02*
X4141Y3948D01*
X4131Y3944D01*
X4123Y3937D01*
X4116Y3929D01*
X4112Y3919D01*
X4112Y3914D01*
X4146D01*
Y3948D01*
D02*
G37*
G36*
X1701Y4009D02*
X1691Y4008D01*
X1681Y4004D01*
X1673Y3997D01*
X1666Y3989D01*
X1662Y3979D01*
X1661Y3969D01*
X1662Y3959D01*
X1666Y3949D01*
X1673Y3941D01*
X1681Y3934D01*
X1691Y3930D01*
X1701Y3929D01*
X1711Y3930D01*
X1721Y3934D01*
X1729Y3941D01*
X1736Y3949D01*
X1740Y3959D01*
X1741Y3969D01*
X1740Y3979D01*
X1736Y3989D01*
X1729Y3997D01*
X1721Y4004D01*
X1711Y4008D01*
X1701Y4009D01*
D02*
G37*
G36*
X1301Y4007D02*
X1291Y4006D01*
X1282Y4002D01*
X1274Y3996D01*
X1268Y3988D01*
X1264Y3979D01*
X1263Y3969D01*
X1264Y3959D01*
X1268Y3950D01*
X1274Y3942D01*
X1282Y3936D01*
X1291Y3932D01*
X1301Y3931D01*
X1311Y3932D01*
X1320Y3936D01*
X1328Y3942D01*
X1334Y3950D01*
X1338Y3959D01*
X1339Y3969D01*
X1338Y3979D01*
X1334Y3988D01*
X1328Y3996D01*
X1320Y4002D01*
X1311Y4006D01*
X1301Y4007D01*
D02*
G37*
G36*
X1678Y4064D02*
X1646D01*
Y4032D01*
X1651Y4032D01*
X1660Y4036D01*
X1668Y4042D01*
X1674Y4050D01*
X1678Y4059D01*
X1678Y4064D01*
D02*
G37*
G36*
X2593Y4094D02*
X2565D01*
Y4066D01*
X2568Y4067D01*
X2576Y4070D01*
X2583Y4075D01*
X2589Y4082D01*
X2592Y4090D01*
X2593Y4094D01*
D02*
G37*
G36*
X2633D02*
X2606D01*
X2606Y4090D01*
X2609Y4082D01*
X2615Y4075D01*
X2622Y4070D01*
X2630Y4067D01*
X2633Y4066D01*
Y4094D01*
D02*
G37*
G36*
X2671D02*
X2643D01*
Y4066D01*
X2647Y4067D01*
X2655Y4070D01*
X2662Y4075D01*
X2668Y4082D01*
X2671Y4090D01*
X2671Y4094D01*
D02*
G37*
G36*
X2555D02*
X2527D01*
X2527Y4090D01*
X2531Y4082D01*
X2536Y4075D01*
X2543Y4070D01*
X2551Y4067D01*
X2555Y4066D01*
Y4094D01*
D02*
G37*
G36*
X3621Y4117D02*
X3611Y4116D01*
X3602Y4112D01*
X3594Y4106D01*
X3588Y4098D01*
X3584Y4089D01*
X3583Y4079D01*
X3584Y4069D01*
X3588Y4060D01*
X3594Y4052D01*
X3602Y4046D01*
X3611Y4042D01*
X3621Y4041D01*
X3631Y4042D01*
X3640Y4046D01*
X3648Y4052D01*
X3654Y4060D01*
X3658Y4069D01*
X3659Y4079D01*
X3658Y4089D01*
X3654Y4098D01*
X3648Y4106D01*
X3640Y4112D01*
X3631Y4116D01*
X3621Y4117D01*
D02*
G37*
G36*
X2717Y4133D02*
X2709Y4131D01*
X2700Y4128D01*
X2694Y4123D01*
X2688Y4116D01*
X2685Y4108D01*
X2684Y4099D01*
X2685Y4090D01*
X2688Y4082D01*
X2694Y4075D01*
X2700Y4070D01*
X2709Y4067D01*
X2717Y4065D01*
X2726Y4067D01*
X2734Y4070D01*
X2741Y4075D01*
X2746Y4082D01*
X2750Y4090D01*
X2751Y4099D01*
X2750Y4108D01*
X2746Y4116D01*
X2741Y4123D01*
X2734Y4128D01*
X2726Y4131D01*
X2717Y4133D01*
D02*
G37*
G36*
X2796D02*
X2787Y4131D01*
X2779Y4128D01*
X2772Y4123D01*
X2767Y4116D01*
X2764Y4108D01*
X2762Y4099D01*
X2764Y4090D01*
X2767Y4082D01*
X2772Y4075D01*
X2779Y4070D01*
X2787Y4067D01*
X2796Y4065D01*
X2805Y4067D01*
X2813Y4070D01*
X2820Y4075D01*
X2825Y4082D01*
X2828Y4090D01*
X2829Y4099D01*
X2828Y4108D01*
X2825Y4116D01*
X2820Y4123D01*
X2813Y4128D01*
X2805Y4131D01*
X2796Y4133D01*
D02*
G37*
G36*
X3444Y4176D02*
X3439Y4176D01*
X3430Y4172D01*
X3422Y4166D01*
X3416Y4158D01*
X3412Y4149D01*
X3412Y4144D01*
X3444D01*
Y4176D01*
D02*
G37*
G36*
X3706Y4376D02*
X3701Y4376D01*
X3692Y4372D01*
X3684Y4366D01*
X3678Y4358D01*
X3674Y4349D01*
X3674Y4344D01*
X3706D01*
Y4376D01*
D02*
G37*
G36*
X3716D02*
Y4344D01*
X3748D01*
X3748Y4349D01*
X3744Y4358D01*
X3738Y4366D01*
X3730Y4372D01*
X3721Y4376D01*
X3716Y4376D01*
D02*
G37*
G36*
X2611Y4429D02*
X2531D01*
Y4349D01*
X2551D01*
Y4297D01*
X2545Y4291D01*
X2541Y4285D01*
X2539Y4277D01*
Y4204D01*
X2536Y4201D01*
X2531Y4194D01*
X2527Y4186D01*
X2526Y4178D01*
X2527Y4169D01*
X2531Y4161D01*
X2536Y4154D01*
X2543Y4149D01*
X2551Y4145D01*
X2560Y4144D01*
X2568Y4145D01*
X2576Y4149D01*
X2583Y4154D01*
X2589Y4161D01*
X2592Y4169D01*
X2593Y4178D01*
X2592Y4186D01*
X2589Y4194D01*
X2583Y4201D01*
X2580Y4204D01*
Y4269D01*
X2585Y4274D01*
X2585Y4274D01*
X2588Y4278D01*
X2590Y4280D01*
X2591Y4288D01*
X2591Y4288D01*
X2591Y4288D01*
Y4288D01*
Y4349D01*
X2611D01*
Y4369D01*
X2689D01*
X2692Y4364D01*
X2699Y4358D01*
X2708Y4355D01*
X2717Y4354D01*
X2726Y4355D01*
X2735Y4358D01*
X2742Y4364D01*
X2748Y4371D01*
X2751Y4380D01*
X2752Y4389D01*
X2751Y4398D01*
X2748Y4407D01*
X2742Y4414D01*
X2735Y4420D01*
X2726Y4423D01*
X2717Y4424D01*
X2708Y4423D01*
X2699Y4420D01*
X2692Y4414D01*
X2689Y4409D01*
X2611D01*
Y4429D01*
D02*
G37*
G36*
X3621Y4417D02*
X3611Y4416D01*
X3602Y4412D01*
X3594Y4406D01*
X3588Y4398D01*
X3584Y4389D01*
X3583Y4379D01*
X3584Y4371D01*
X3517Y4303D01*
X3512Y4297D01*
X3511Y4289D01*
Y4089D01*
X3228D01*
X3223Y4095D01*
X3223Y4099D01*
X3222Y4108D01*
X3219Y4116D01*
X3213Y4123D01*
X3206Y4128D01*
X3198Y4131D01*
X3190Y4133D01*
X3181Y4131D01*
X3173Y4128D01*
X3166Y4123D01*
X3161Y4116D01*
X3157Y4108D01*
X3156Y4099D01*
X3157Y4090D01*
X3161Y4082D01*
X3166Y4075D01*
X3173Y4070D01*
X3175Y4069D01*
X3176Y4068D01*
X3182Y4064D01*
X3190Y4062D01*
X3194Y4063D01*
X3203Y4055D01*
X3209Y4050D01*
X3217Y4049D01*
X3523D01*
X3681Y3891D01*
Y3459D01*
X3673Y3456D01*
X3594Y3534D01*
X3588Y3539D01*
X3580Y3540D01*
X1902D01*
X1899Y3544D01*
X1892Y3550D01*
X1883Y3553D01*
X1874Y3554D01*
X1865Y3553D01*
X1856Y3550D01*
X1849Y3544D01*
X1843Y3537D01*
X1840Y3528D01*
X1839Y3522D01*
X1788Y3470D01*
X1783Y3464D01*
X1782Y3456D01*
Y3191D01*
X1738Y3147D01*
X1319D01*
X1318Y3155D01*
X1320Y3156D01*
X1328Y3162D01*
X1334Y3170D01*
X1338Y3179D01*
X1338Y3184D01*
X1264D01*
X1264Y3179D01*
X1268Y3170D01*
X1274Y3162D01*
X1282Y3156D01*
X1284Y3155D01*
X1283Y3147D01*
X1157D01*
X1149Y3146D01*
X1147Y3144D01*
X1143Y3141D01*
X1143Y3141D01*
X1088Y3087D01*
X1080Y3088D01*
X1070Y3087D01*
X1060Y3083D01*
X1051Y3077D01*
X1045Y3068D01*
X1041Y3058D01*
X1040Y3048D01*
X1041Y3038D01*
X1045Y3028D01*
X1051Y3019D01*
X1060Y3013D01*
X1062Y3012D01*
Y3004D01*
X1060Y3003D01*
X1051Y2997D01*
X1045Y2988D01*
X1041Y2978D01*
X1040Y2968D01*
X1041Y2958D01*
X1045Y2948D01*
X1051Y2939D01*
X1060Y2933D01*
X1070Y2929D01*
X1080Y2928D01*
X1090Y2929D01*
X1092Y2930D01*
X1138Y2884D01*
X1144Y2879D01*
X1152Y2878D01*
X1383D01*
X1420Y2841D01*
X1416Y2834D01*
X1377D01*
Y2764D01*
X1446D01*
Y2804D01*
X1449Y2805D01*
X1456Y2800D01*
X1455Y2799D01*
X1457Y2790D01*
X1460Y2782D01*
X1466Y2774D01*
X1473Y2769D01*
X1481Y2765D01*
X1490Y2764D01*
X1499Y2765D01*
X1508Y2769D01*
X1515Y2774D01*
X1518Y2779D01*
X1657D01*
Y2764D01*
X1671D01*
Y2715D01*
X1672Y2714D01*
Y2633D01*
X1673Y2626D01*
X1672Y2624D01*
X1671Y2614D01*
X1672Y2604D01*
X1676Y2594D01*
X1683Y2586D01*
X1691Y2579D01*
X1701Y2575D01*
X1711Y2574D01*
X1721Y2575D01*
X1731Y2579D01*
X1739Y2586D01*
X1746Y2594D01*
X1750Y2604D01*
X1751Y2614D01*
X1750Y2624D01*
X1856Y2731D01*
X1879D01*
X1882Y2723D01*
X1878Y2718D01*
X1874Y2709D01*
X1874Y2704D01*
X1948D01*
X1948Y2709D01*
X1944Y2718D01*
X1938Y2726D01*
X1939Y2731D01*
X2051D01*
X2074Y2707D01*
X2073Y2699D01*
X2074Y2689D01*
X2078Y2680D01*
X2084Y2672D01*
X2091Y2667D01*
Y2093D01*
X2066D01*
X2058Y2092D01*
X2052Y2087D01*
X1720Y1755D01*
X1715Y1749D01*
X1714Y1741D01*
Y1649D01*
X1691D01*
Y1595D01*
X1577Y1480D01*
X1572Y1474D01*
X1571Y1466D01*
Y1443D01*
X1563Y1437D01*
X1556Y1429D01*
X1552Y1419D01*
X1551Y1409D01*
X1552Y1399D01*
X1556Y1389D01*
X1563Y1381D01*
X1571Y1374D01*
X1581Y1370D01*
X1591Y1369D01*
X1601Y1370D01*
X1611Y1374D01*
X1619Y1381D01*
X1626Y1389D01*
X1630Y1399D01*
X1631Y1409D01*
X1630Y1419D01*
X1626Y1429D01*
X1619Y1437D01*
X1611Y1443D01*
Y1458D01*
X1723Y1569D01*
X1771D01*
Y1649D01*
X1754D01*
Y1733D01*
X2074Y2053D01*
X2084D01*
X2085Y2050D01*
X2091Y2044D01*
Y1831D01*
X2084Y1826D01*
X2078Y1818D01*
X2074Y1809D01*
X2073Y1799D01*
X2074Y1789D01*
X2078Y1780D01*
X2084Y1772D01*
X2092Y1766D01*
X2101Y1762D01*
X2111Y1761D01*
X2121Y1762D01*
X2130Y1766D01*
X2138Y1772D01*
X2144Y1780D01*
X2148Y1789D01*
X2149Y1799D01*
X2148Y1809D01*
X2144Y1818D01*
X2138Y1826D01*
X2135Y1828D01*
Y2039D01*
X2141Y2043D01*
X2147Y2050D01*
X2150Y2059D01*
X2151Y2068D01*
X2150Y2077D01*
X2147Y2086D01*
X2141Y2093D01*
X2135Y2097D01*
Y2670D01*
X2138Y2672D01*
X2144Y2680D01*
X2148Y2689D01*
X2149Y2699D01*
X2148Y2709D01*
X2144Y2718D01*
X2138Y2726D01*
X2131Y2731D01*
Y3242D01*
Y3377D01*
X2138Y3382D01*
X2144Y3390D01*
X2148Y3399D01*
X2149Y3409D01*
X2148Y3419D01*
X2144Y3428D01*
X2138Y3436D01*
X2130Y3442D01*
X2121Y3446D01*
X2111Y3447D01*
X2101Y3446D01*
X2092Y3442D01*
X2084Y3436D01*
X2078Y3428D01*
X2074Y3419D01*
X2073Y3409D01*
X2074Y3399D01*
X2078Y3390D01*
X2084Y3382D01*
X2090Y3378D01*
Y3243D01*
X2090Y3243D01*
X2090D01*
X2091Y3238D01*
Y2759D01*
X2083Y2756D01*
X2073Y2765D01*
X2067Y2770D01*
X2059Y2771D01*
X1848D01*
X1848Y2771D01*
X1840Y2770D01*
X1834Y2765D01*
X1721Y2653D01*
X1712Y2654D01*
Y2715D01*
X1712Y2715D01*
X1712Y2717D01*
Y2764D01*
X1726D01*
Y2834D01*
X1657D01*
Y2819D01*
X1518D01*
X1515Y2824D01*
X1508Y2829D01*
X1499Y2833D01*
X1490Y2834D01*
X1485Y2833D01*
X1406Y2912D01*
X1399Y2917D01*
X1391Y2918D01*
X1280D01*
X1239Y2960D01*
X1240Y2968D01*
X1239Y2978D01*
X1235Y2988D01*
X1229Y2997D01*
X1220Y3003D01*
X1210Y3007D01*
X1220Y3013D01*
X1220D01*
D01*
D01*
D01*
X1220Y3013D01*
X1229Y3019D01*
X1235Y3028D01*
X1239Y3038D01*
X1240Y3048D01*
X1240Y3051D01*
X1295Y3107D01*
X1746D01*
X1754Y3108D01*
X1760Y3113D01*
X1760Y3113D01*
X1760Y3113D01*
X1816Y3169D01*
X1821Y3175D01*
X1822Y3183D01*
X1822Y3183D01*
Y3448D01*
X1861Y3486D01*
X1865Y3485D01*
X1874Y3484D01*
X1883Y3485D01*
X1892Y3488D01*
X1899Y3494D01*
X1902Y3499D01*
X3412D01*
X3417Y3500D01*
X3572D01*
X3664Y3407D01*
X3663Y3399D01*
X3664Y3389D01*
X3668Y3380D01*
X3674Y3372D01*
X3682Y3366D01*
X3691Y3362D01*
X3701Y3361D01*
X3709Y3362D01*
X3722Y3350D01*
X3717Y3343D01*
X3711Y3346D01*
X3706Y3346D01*
Y3314D01*
X3738D01*
X3738Y3319D01*
X3735Y3325D01*
X3742Y3330D01*
X3771Y3301D01*
Y3067D01*
X3771Y3067D01*
X3771D01*
X3772Y3059D01*
X3777Y3052D01*
X3897Y2931D01*
Y2891D01*
X3967D01*
Y2960D01*
X3930D01*
X3926Y2967D01*
X3927Y2970D01*
X3927Y2970D01*
Y2999D01*
X3898D01*
X3898Y2999D01*
X3891Y2996D01*
X3811Y3075D01*
Y3309D01*
X3810Y3317D01*
X3805Y3323D01*
X3738Y3391D01*
X3739Y3399D01*
X3738Y3409D01*
X3734Y3418D01*
X3728Y3426D01*
X3721Y3431D01*
Y3899D01*
X3720Y3907D01*
X3715Y3913D01*
X3551Y4077D01*
Y4281D01*
X3613Y4342D01*
X3621Y4341D01*
X3631Y4342D01*
X3640Y4346D01*
X3648Y4352D01*
X3654Y4360D01*
X3658Y4369D01*
X3659Y4379D01*
X3658Y4389D01*
X3654Y4398D01*
X3648Y4406D01*
X3640Y4412D01*
X3631Y4416D01*
X3621Y4417D01*
D02*
G37*
G36*
X3748Y4334D02*
X3716D01*
Y4302D01*
X3721Y4302D01*
X3730Y4306D01*
X3738Y4312D01*
X3744Y4320D01*
X3748Y4329D01*
X3748Y4334D01*
D02*
G37*
G36*
X4096Y4358D02*
X4092Y4358D01*
X4085Y4353D01*
X4080Y4346D01*
X4078Y4337D01*
Y4334D01*
X4096D01*
Y4358D01*
D02*
G37*
G36*
X4106D02*
Y4334D01*
X4123D01*
Y4337D01*
X4121Y4346D01*
X4116Y4353D01*
X4109Y4358D01*
X4106Y4358D01*
D02*
G37*
G36*
X3171Y4429D02*
X3161Y4428D01*
X3151Y4424D01*
X3143Y4417D01*
X3136Y4409D01*
X3132Y4399D01*
X3131Y4389D01*
X3132Y4379D01*
X3118Y4365D01*
X3111Y4368D01*
Y4429D01*
X3031D01*
Y4378D01*
X2864Y4210D01*
X2862Y4209D01*
X2858Y4207D01*
X2851Y4201D01*
X2846Y4194D01*
X2842Y4186D01*
X2841Y4178D01*
X2842Y4169D01*
X2846Y4161D01*
X2851Y4154D01*
X2858Y4149D01*
X2866Y4145D01*
X2875Y4144D01*
X2883Y4145D01*
X2891Y4149D01*
X2898Y4154D01*
X2904Y4161D01*
X2907Y4169D01*
X2908Y4178D01*
X2907Y4186D01*
X2904Y4193D01*
X3060Y4349D01*
X3092D01*
X3095Y4342D01*
X2963Y4210D01*
X2962Y4210D01*
X2953Y4211D01*
X2945Y4210D01*
X2937Y4207D01*
X2930Y4201D01*
X2924Y4194D01*
X2921Y4186D01*
X2920Y4178D01*
X2921Y4169D01*
X2924Y4161D01*
X2930Y4154D01*
X2937Y4149D01*
X2945Y4145D01*
X2953Y4144D01*
X2962Y4145D01*
X2970Y4149D01*
X2977Y4154D01*
X2982Y4161D01*
X2986Y4169D01*
X2987Y4176D01*
X2990Y4179D01*
X2998Y4178D01*
X2999Y4178D01*
X3000Y4169D01*
X3003Y4161D01*
X3008Y4154D01*
X3015Y4149D01*
X3024Y4145D01*
X3032Y4144D01*
X3041Y4145D01*
X3049Y4149D01*
X3056Y4154D01*
X3061Y4161D01*
X3065Y4169D01*
X3066Y4178D01*
X3065Y4186D01*
X3061Y4194D01*
X3056Y4201D01*
X3049Y4207D01*
X3041Y4210D01*
X3032Y4211D01*
X3031Y4220D01*
X3161Y4350D01*
X3171Y4349D01*
X3181Y4350D01*
X3191Y4354D01*
X3199Y4361D01*
X3206Y4369D01*
X3210Y4379D01*
X3211Y4389D01*
X3210Y4399D01*
X3206Y4409D01*
X3199Y4417D01*
X3191Y4424D01*
X3181Y4428D01*
X3171Y4429D01*
D02*
G37*
G36*
X1726Y4448D02*
X1721Y4448D01*
X1711Y4444D01*
X1703Y4437D01*
X1696Y4429D01*
X1692Y4419D01*
X1692Y4414D01*
X1726D01*
Y4448D01*
D02*
G37*
G36*
X1866D02*
Y4414D01*
X1900D01*
X1900Y4419D01*
X1896Y4429D01*
X1889Y4437D01*
X1881Y4444D01*
X1871Y4448D01*
X1866Y4448D01*
D02*
G37*
G36*
X4160Y4522D02*
X3384D01*
X3376Y4521D01*
X3370Y4516D01*
X3351Y4498D01*
X3341Y4499D01*
X3331Y4498D01*
X3321Y4494D01*
X3312Y4488D01*
X3306Y4479D01*
X3302Y4469D01*
X3301Y4459D01*
X3302Y4449D01*
X3306Y4439D01*
X3312Y4430D01*
X3321Y4424D01*
Y4338D01*
X3194Y4211D01*
X3156D01*
Y4145D01*
X3223D01*
Y4182D01*
X3352Y4312D01*
X3423D01*
X3430Y4306D01*
X3439Y4302D01*
X3449Y4301D01*
X3459Y4302D01*
X3468Y4306D01*
X3476Y4312D01*
X3482Y4320D01*
X3486Y4329D01*
X3487Y4339D01*
X3486Y4349D01*
X3482Y4358D01*
X3476Y4366D01*
X3468Y4372D01*
X3459Y4376D01*
X3449Y4377D01*
X3439Y4376D01*
X3430Y4372D01*
X3422Y4366D01*
X3416Y4358D01*
X3414Y4352D01*
X3361D01*
Y4424D01*
X3370Y4430D01*
X3376Y4439D01*
X3380Y4449D01*
X3381Y4459D01*
X3380Y4469D01*
X3392Y4482D01*
X3866D01*
X3871Y4476D01*
Y4428D01*
X3811Y4368D01*
X3806Y4361D01*
X3805Y4353D01*
Y4346D01*
X3805Y4346D01*
X3803Y4337D01*
Y4321D01*
X3805Y4313D01*
X3805Y4313D01*
Y4149D01*
X3805Y4149D01*
X3803Y4140D01*
Y4125D01*
X3805Y4116D01*
X3809Y4109D01*
X3817Y4104D01*
X3825Y4102D01*
X3834Y4104D01*
X3841Y4109D01*
X3846Y4116D01*
X3847Y4125D01*
Y4140D01*
X3846Y4149D01*
X3845Y4149D01*
Y4313D01*
X3846Y4313D01*
X3847Y4321D01*
Y4337D01*
X3846Y4345D01*
X3900Y4399D01*
X3951D01*
Y4476D01*
X3951D01*
Y4476D01*
D01*
X3951Y4479D01*
D01*
X3954Y4482D01*
X3990D01*
X3992Y4474D01*
X3991Y4474D01*
X3983Y4467D01*
X3976Y4459D01*
X3972Y4449D01*
X3972Y4444D01*
X4050D01*
X4050Y4449D01*
X4046Y4459D01*
X4039Y4467D01*
X4031Y4474D01*
X4030Y4474D01*
X4032Y4482D01*
X4152D01*
X4181Y4453D01*
Y4422D01*
Y3945D01*
X4173Y3942D01*
X4171Y3944D01*
X4161Y3948D01*
X4156Y3948D01*
Y3909D01*
Y3870D01*
X4161Y3870D01*
X4171Y3874D01*
X4173Y3876D01*
X4181Y3873D01*
Y3805D01*
X4173Y3802D01*
X4171Y3804D01*
X4161Y3808D01*
X4156Y3808D01*
Y3769D01*
Y3730D01*
X4161Y3730D01*
X4171Y3734D01*
X4173Y3736D01*
X4181Y3733D01*
Y3494D01*
X4161D01*
Y3414D01*
X4241D01*
Y3494D01*
X4221D01*
Y3729D01*
X4291D01*
Y3809D01*
X4221D01*
Y3869D01*
X4262D01*
X4371Y3761D01*
Y3721D01*
X4364Y3716D01*
X4358Y3708D01*
X4354Y3699D01*
X4353Y3689D01*
X4354Y3679D01*
X4358Y3670D01*
X4364Y3662D01*
X4372Y3656D01*
X4381Y3652D01*
X4391Y3651D01*
X4401Y3652D01*
X4410Y3656D01*
X4418Y3662D01*
X4424Y3670D01*
X4428Y3679D01*
X4429Y3689D01*
X4428Y3699D01*
X4424Y3708D01*
X4418Y3716D01*
X4411Y3721D01*
Y3769D01*
X4410Y3777D01*
X4405Y3783D01*
X4291Y3898D01*
Y3949D01*
X4221D01*
Y4422D01*
Y4461D01*
X4221Y4461D01*
X4220Y4469D01*
X4215Y4475D01*
X4215Y4475D01*
X4174Y4516D01*
X4168Y4521D01*
X4160Y4522D01*
D02*
G37*
G36*
X4050Y4434D02*
X4016D01*
Y4400D01*
X4021Y4400D01*
X4031Y4404D01*
X4039Y4411D01*
X4046Y4419D01*
X4050Y4429D01*
X4050Y4434D01*
D02*
G37*
G36*
X1726Y4404D02*
X1692D01*
X1692Y4399D01*
X1696Y4389D01*
X1703Y4381D01*
X1711Y4374D01*
X1721Y4370D01*
X1726Y4370D01*
Y4404D01*
D02*
G37*
G36*
X1900D02*
X1866D01*
Y4370D01*
X1871Y4370D01*
X1881Y4374D01*
X1889Y4381D01*
X1896Y4389D01*
X1900Y4399D01*
X1900Y4404D01*
D02*
G37*
G36*
X4006Y4434D02*
X3972D01*
X3972Y4429D01*
X3976Y4419D01*
X3983Y4411D01*
X3991Y4404D01*
X4001Y4400D01*
X4006Y4400D01*
Y4434D01*
D02*
G37*
G36*
X3706Y4334D02*
X3674D01*
X3674Y4329D01*
X3678Y4320D01*
X3684Y4312D01*
X3692Y4306D01*
X3701Y4302D01*
X3706Y4302D01*
Y4334D01*
D02*
G37*
G36*
X3111Y4211D02*
X3102Y4210D01*
X3094Y4207D01*
X3087Y4201D01*
X3082Y4194D01*
X3079Y4186D01*
X3077Y4178D01*
X3079Y4169D01*
X3082Y4161D01*
X3087Y4154D01*
X3094Y4149D01*
X3102Y4145D01*
X3111Y4144D01*
X3120Y4145D01*
X3128Y4149D01*
X3135Y4154D01*
X3140Y4161D01*
X3143Y4169D01*
X3144Y4178D01*
X3143Y4186D01*
X3140Y4194D01*
X3135Y4201D01*
X3128Y4207D01*
X3120Y4210D01*
X3111Y4211D01*
D02*
G37*
G36*
X2712Y4173D02*
X2684D01*
X2685Y4169D01*
X2688Y4161D01*
X2694Y4154D01*
X2700Y4149D01*
X2709Y4145D01*
X2712Y4145D01*
Y4173D01*
D02*
G37*
G36*
X2750D02*
X2722D01*
Y4145D01*
X2726Y4145D01*
X2734Y4149D01*
X2741Y4154D01*
X2746Y4161D01*
X2750Y4169D01*
X2750Y4173D01*
D02*
G37*
G36*
X2736Y4545D02*
X1599D01*
X1591Y4544D01*
X1585Y4539D01*
X1517Y4471D01*
X1512Y4465D01*
X1511Y4457D01*
Y3539D01*
X1511Y3539D01*
X1511D01*
X1512Y3531D01*
X1517Y3525D01*
X1662Y3379D01*
X1661Y3369D01*
X1662Y3359D01*
X1666Y3349D01*
X1673Y3341D01*
X1681Y3334D01*
X1691Y3330D01*
X1701Y3329D01*
X1711Y3330D01*
X1721Y3334D01*
X1729Y3341D01*
X1736Y3349D01*
X1740Y3359D01*
X1741Y3369D01*
X1740Y3379D01*
X1736Y3389D01*
X1729Y3397D01*
X1721Y3404D01*
X1711Y3408D01*
X1701Y3409D01*
X1691Y3408D01*
X1551Y3547D01*
Y4449D01*
X1607Y4505D01*
X1631D01*
X1632Y4497D01*
X1626Y4492D01*
X1579Y4445D01*
X1574Y4439D01*
X1573Y4431D01*
Y3877D01*
X1573Y3877D01*
X1573D01*
X1574Y3869D01*
X1579Y3863D01*
X1662Y3779D01*
X1661Y3769D01*
X1662Y3759D01*
X1666Y3749D01*
X1673Y3741D01*
X1681Y3734D01*
X1691Y3730D01*
X1701Y3729D01*
X1711Y3730D01*
X1721Y3734D01*
X1729Y3741D01*
X1736Y3749D01*
X1740Y3759D01*
X1741Y3769D01*
X1740Y3779D01*
X1736Y3789D01*
X1729Y3797D01*
X1721Y3804D01*
X1711Y3808D01*
X1701Y3809D01*
X1691Y3808D01*
X1613Y3885D01*
Y4034D01*
X1621Y4037D01*
X1622Y4036D01*
X1631Y4032D01*
X1636Y4032D01*
Y4069D01*
Y4106D01*
X1631Y4106D01*
X1622Y4102D01*
X1621Y4101D01*
X1613Y4104D01*
Y4423D01*
X1648Y4458D01*
X1768D01*
X1775Y4451D01*
Y4428D01*
X1767Y4426D01*
X1766Y4429D01*
X1759Y4437D01*
X1751Y4444D01*
X1741Y4448D01*
X1736Y4448D01*
Y4409D01*
Y4370D01*
X1741Y4370D01*
X1751Y4374D01*
X1759Y4381D01*
X1766Y4389D01*
X1767Y4392D01*
X1775Y4390D01*
Y4375D01*
X1776Y4367D01*
X1781Y4361D01*
X1822Y4319D01*
X1821Y4309D01*
X1822Y4299D01*
X1826Y4289D01*
X1833Y4281D01*
X1841Y4274D01*
X1851Y4270D01*
X1861Y4269D01*
X1871Y4270D01*
X1881Y4274D01*
X1889Y4281D01*
X1896Y4289D01*
X1900Y4299D01*
X1901Y4309D01*
X1900Y4319D01*
X1896Y4329D01*
X1889Y4337D01*
X1881Y4344D01*
X1871Y4348D01*
X1861Y4349D01*
X1851Y4348D01*
X1815Y4383D01*
Y4395D01*
X1823Y4397D01*
X1826Y4389D01*
X1833Y4381D01*
X1841Y4374D01*
X1851Y4370D01*
X1856Y4370D01*
Y4409D01*
Y4448D01*
X1851Y4448D01*
X1841Y4444D01*
X1833Y4437D01*
X1826Y4429D01*
X1823Y4421D01*
X1815Y4423D01*
Y4459D01*
X1815Y4459D01*
X1814Y4467D01*
X1809Y4473D01*
X1790Y4492D01*
X1784Y4497D01*
X1776Y4498D01*
Y4499D01*
X1782Y4505D01*
X2728D01*
X2776Y4457D01*
Y4204D01*
X2772Y4201D01*
X2767Y4194D01*
X2764Y4186D01*
X2762Y4178D01*
X2764Y4169D01*
X2767Y4161D01*
X2772Y4154D01*
X2779Y4149D01*
X2787Y4145D01*
X2796Y4144D01*
X2805Y4145D01*
X2813Y4149D01*
X2820Y4154D01*
X2825Y4161D01*
X2828Y4169D01*
X2829Y4178D01*
X2828Y4186D01*
X2825Y4194D01*
X2820Y4201D01*
X2816Y4204D01*
Y4465D01*
X2815Y4473D01*
X2813Y4475D01*
X2810Y4479D01*
X2810Y4479D01*
X2750Y4539D01*
X2744Y4544D01*
X2736Y4545D01*
D02*
G37*
G36*
X3454Y4176D02*
Y4144D01*
X3486D01*
X3486Y4149D01*
X3482Y4158D01*
X3476Y4166D01*
X3468Y4172D01*
X3459Y4176D01*
X3454Y4176D01*
D02*
G37*
G36*
X2471Y4429D02*
X2461Y4428D01*
X2451Y4424D01*
X2443Y4417D01*
X2436Y4409D01*
X2432Y4399D01*
X2431Y4389D01*
X2432Y4379D01*
X2436Y4369D01*
X2443Y4361D01*
X2451Y4355D01*
Y4288D01*
X2451Y4288D01*
X2451D01*
X2452Y4280D01*
X2457Y4274D01*
X2461Y4270D01*
Y4204D01*
X2457Y4201D01*
X2452Y4194D01*
X2449Y4186D01*
X2447Y4178D01*
X2449Y4169D01*
X2452Y4161D01*
X2457Y4154D01*
X2464Y4149D01*
X2472Y4145D01*
X2481Y4144D01*
X2490Y4145D01*
X2498Y4149D01*
X2505Y4154D01*
X2510Y4161D01*
X2513Y4169D01*
X2515Y4178D01*
X2513Y4186D01*
X2510Y4194D01*
X2505Y4201D01*
X2501Y4204D01*
Y4278D01*
X2500Y4286D01*
X2495Y4292D01*
X2491Y4296D01*
Y4355D01*
X2499Y4361D01*
X2506Y4369D01*
X2510Y4379D01*
X2511Y4389D01*
X2510Y4399D01*
X2506Y4409D01*
X2499Y4417D01*
X2491Y4424D01*
X2481Y4428D01*
X2471Y4429D01*
D02*
G37*
G36*
X2638Y4211D02*
X2630Y4210D01*
X2622Y4207D01*
X2615Y4201D01*
X2609Y4194D01*
X2606Y4186D01*
X2605Y4178D01*
X2606Y4169D01*
X2609Y4161D01*
X2615Y4154D01*
X2622Y4149D01*
X2630Y4145D01*
X2638Y4144D01*
X2647Y4145D01*
X2655Y4149D01*
X2662Y4154D01*
X2668Y4161D01*
X2671Y4169D01*
X2672Y4178D01*
X2671Y4186D01*
X2668Y4194D01*
X2662Y4201D01*
X2655Y4207D01*
X2647Y4210D01*
X2638Y4211D01*
D02*
G37*
G36*
X1771Y4249D02*
X1691D01*
Y4169D01*
X1771D01*
Y4249D01*
D02*
G37*
G36*
X4426Y4559D02*
X4405Y4558D01*
X4384Y4553D01*
X4365Y4545D01*
X4346Y4534D01*
X4330Y4520D01*
X4316Y4504D01*
X4305Y4485D01*
X4297Y4466D01*
X4292Y4445D01*
X4291Y4424D01*
X4292Y4403D01*
X4297Y4382D01*
X4305Y4363D01*
X4316Y4344D01*
X4330Y4328D01*
X4346Y4314D01*
X4365Y4303D01*
X4384Y4295D01*
X4405Y4290D01*
X4426Y4289D01*
X4447Y4290D01*
X4468Y4295D01*
X4487Y4303D01*
X4506Y4314D01*
X4522Y4328D01*
X4536Y4344D01*
X4547Y4363D01*
X4555Y4382D01*
X4560Y4403D01*
X4561Y4424D01*
X4560Y4445D01*
X4555Y4466D01*
X4547Y4485D01*
X4536Y4504D01*
X4522Y4520D01*
X4506Y4534D01*
X4487Y4545D01*
X4468Y4553D01*
X4447Y4558D01*
X4426Y4559D01*
D02*
G37*
G36*
X4096Y4324D02*
X4078D01*
Y4321D01*
X4080Y4313D01*
X4085Y4306D01*
X4092Y4301D01*
X4096Y4300D01*
Y4324D01*
D02*
G37*
G36*
X4123D02*
X4106D01*
Y4300D01*
X4109Y4301D01*
X4116Y4306D01*
X4121Y4313D01*
X4123Y4321D01*
Y4324D01*
D02*
G37*
G36*
X1176Y4559D02*
X1155Y4558D01*
X1134Y4553D01*
X1115Y4545D01*
X1096Y4534D01*
X1080Y4520D01*
X1066Y4504D01*
X1055Y4485D01*
X1047Y4466D01*
X1042Y4445D01*
X1041Y4424D01*
X1042Y4403D01*
X1047Y4382D01*
X1055Y4363D01*
X1066Y4344D01*
X1080Y4328D01*
X1096Y4314D01*
X1115Y4303D01*
X1134Y4295D01*
X1155Y4290D01*
X1176Y4289D01*
X1197Y4290D01*
X1218Y4295D01*
X1237Y4303D01*
X1256Y4314D01*
X1272Y4328D01*
X1286Y4344D01*
X1297Y4363D01*
X1305Y4382D01*
X1310Y4403D01*
X1311Y4424D01*
X1310Y4445D01*
X1305Y4466D01*
X1297Y4485D01*
X1286Y4504D01*
X1272Y4520D01*
X1256Y4534D01*
X1237Y4545D01*
X1218Y4553D01*
X1197Y4558D01*
X1176Y4559D01*
D02*
G37*
G36*
X2712Y4211D02*
X2709Y4210D01*
X2700Y4207D01*
X2694Y4201D01*
X2688Y4194D01*
X2685Y4186D01*
X2684Y4183D01*
X2712D01*
Y4211D01*
D02*
G37*
G36*
X2722D02*
Y4183D01*
X2750D01*
X2750Y4186D01*
X2746Y4194D01*
X2741Y4201D01*
X2734Y4207D01*
X2726Y4210D01*
X2722Y4211D01*
D02*
G37*
G36*
X1731Y4349D02*
X1721Y4348D01*
X1711Y4344D01*
X1703Y4337D01*
X1696Y4329D01*
X1692Y4319D01*
X1691Y4309D01*
X1692Y4299D01*
X1696Y4289D01*
X1703Y4281D01*
X1711Y4274D01*
X1721Y4270D01*
X1731Y4269D01*
X1741Y4270D01*
X1751Y4274D01*
X1759Y4281D01*
X1766Y4289D01*
X1770Y4299D01*
X1771Y4309D01*
X1770Y4319D01*
X1766Y4329D01*
X1759Y4337D01*
X1751Y4344D01*
X1741Y4348D01*
X1731Y4349D01*
D02*
G37*
G36*
X1441Y4107D02*
X1431Y4106D01*
X1422Y4102D01*
X1414Y4096D01*
X1408Y4088D01*
X1404Y4079D01*
X1403Y4069D01*
X1404Y4059D01*
X1408Y4050D01*
X1414Y4042D01*
X1422Y4036D01*
X1426Y4035D01*
X1427Y4034D01*
X1431Y4031D01*
Y4009D01*
X1361D01*
Y3929D01*
X1422D01*
X1425Y3922D01*
X1411Y3908D01*
X1401Y3909D01*
X1391Y3908D01*
X1381Y3904D01*
X1373Y3897D01*
X1366Y3889D01*
X1362Y3879D01*
X1361Y3869D01*
X1362Y3859D01*
X1366Y3849D01*
X1373Y3841D01*
X1381Y3834D01*
X1391Y3830D01*
X1401Y3829D01*
X1411Y3830D01*
X1421Y3834D01*
X1429Y3841D01*
X1436Y3849D01*
X1440Y3859D01*
X1441Y3869D01*
X1440Y3879D01*
X1465Y3905D01*
X1470Y3911D01*
X1471Y3919D01*
Y4047D01*
X1474Y4050D01*
X1478Y4059D01*
X1479Y4069D01*
X1478Y4079D01*
X1474Y4088D01*
X1468Y4096D01*
X1460Y4102D01*
X1451Y4106D01*
X1441Y4107D01*
D02*
G37*
G36*
X1948Y3404D02*
X1916D01*
Y3372D01*
X1921Y3372D01*
X1930Y3376D01*
X1938Y3382D01*
X1944Y3390D01*
X1948Y3399D01*
X1948Y3404D01*
D02*
G37*
G36*
X3496Y3436D02*
X3491Y3436D01*
X3482Y3432D01*
X3474Y3426D01*
X3468Y3418D01*
X3464Y3409D01*
X3464Y3404D01*
X3496D01*
Y3436D01*
D02*
G37*
G36*
X3506D02*
Y3404D01*
X3538D01*
X3538Y3409D01*
X3534Y3418D01*
X3528Y3426D01*
X3520Y3432D01*
X3511Y3436D01*
X3506Y3436D01*
D02*
G37*
G36*
X1906Y3404D02*
X1874D01*
X1874Y3399D01*
X1878Y3390D01*
X1884Y3382D01*
X1892Y3376D01*
X1901Y3372D01*
X1906Y3372D01*
Y3404D01*
D02*
G37*
G36*
X1301Y3427D02*
X1291Y3426D01*
X1282Y3422D01*
X1274Y3416D01*
X1268Y3408D01*
X1264Y3399D01*
X1263Y3389D01*
X1264Y3379D01*
X1268Y3370D01*
X1274Y3362D01*
X1282Y3356D01*
X1291Y3352D01*
X1301Y3351D01*
X1311Y3352D01*
X1320Y3356D01*
X1328Y3362D01*
X1334Y3370D01*
X1338Y3379D01*
X1339Y3389D01*
X1338Y3399D01*
X1334Y3408D01*
X1328Y3416D01*
X1320Y3422D01*
X1311Y3426D01*
X1301Y3427D01*
D02*
G37*
G36*
X3496Y3394D02*
X3464D01*
X3464Y3389D01*
X3468Y3380D01*
X3474Y3372D01*
X3482Y3366D01*
X3491Y3362D01*
X3496Y3362D01*
Y3394D01*
D02*
G37*
G36*
X3538D02*
X3506D01*
Y3362D01*
X3511Y3362D01*
X3520Y3366D01*
X3528Y3372D01*
X3534Y3380D01*
X3538Y3389D01*
X3538Y3394D01*
D02*
G37*
G36*
X1906Y3446D02*
X1901Y3446D01*
X1892Y3442D01*
X1884Y3436D01*
X1878Y3428D01*
X1874Y3419D01*
X1874Y3414D01*
X1906D01*
Y3446D01*
D02*
G37*
G36*
X4026Y3449D02*
X3992D01*
X3992Y3444D01*
X3996Y3434D01*
X4003Y3426D01*
X4011Y3419D01*
X4021Y3415D01*
X4026Y3415D01*
Y3449D01*
D02*
G37*
G36*
X4070D02*
X4036D01*
Y3415D01*
X4041Y3415D01*
X4051Y3419D01*
X4059Y3426D01*
X4066Y3434D01*
X4070Y3444D01*
X4070Y3449D01*
D02*
G37*
G36*
X1401Y3509D02*
X1391Y3508D01*
X1381Y3504D01*
X1373Y3497D01*
X1366Y3489D01*
X1362Y3479D01*
X1361Y3469D01*
X1362Y3459D01*
X1366Y3449D01*
X1373Y3441D01*
X1381Y3434D01*
X1391Y3430D01*
X1401Y3429D01*
X1411Y3430D01*
X1421Y3434D01*
X1429Y3441D01*
X1436Y3449D01*
X1440Y3459D01*
X1441Y3469D01*
X1440Y3479D01*
X1436Y3489D01*
X1429Y3497D01*
X1421Y3504D01*
X1411Y3508D01*
X1401Y3509D01*
D02*
G37*
G36*
X3971Y3494D02*
X3891D01*
Y3414D01*
X3971D01*
Y3494D01*
D02*
G37*
G36*
X1916Y3446D02*
Y3414D01*
X1948D01*
X1948Y3419D01*
X1944Y3428D01*
X1938Y3436D01*
X1930Y3442D01*
X1921Y3446D01*
X1916Y3446D01*
D02*
G37*
G36*
X4301Y3494D02*
X4291Y3493D01*
X4281Y3489D01*
X4273Y3482D01*
X4266Y3474D01*
X4262Y3464D01*
X4261Y3454D01*
X4262Y3444D01*
X4266Y3434D01*
X4273Y3426D01*
X4281Y3419D01*
X4291Y3415D01*
X4301Y3414D01*
X4311Y3415D01*
X4321Y3419D01*
X4329Y3426D01*
X4336Y3434D01*
X4340Y3444D01*
X4341Y3454D01*
X4340Y3464D01*
X4336Y3474D01*
X4329Y3482D01*
X4321Y3489D01*
X4311Y3493D01*
X4301Y3494D01*
D02*
G37*
G36*
X4401D02*
X4391Y3493D01*
X4381Y3489D01*
X4373Y3482D01*
X4366Y3474D01*
X4362Y3464D01*
X4361Y3454D01*
X4362Y3444D01*
X4366Y3434D01*
X4373Y3426D01*
X4381Y3419D01*
X4391Y3415D01*
X4401Y3414D01*
X4411Y3415D01*
X4421Y3419D01*
X4429Y3426D01*
X4436Y3434D01*
X4440Y3444D01*
X4441Y3454D01*
X4440Y3464D01*
X4436Y3474D01*
X4429Y3482D01*
X4421Y3489D01*
X4411Y3493D01*
X4401Y3494D01*
D02*
G37*
G36*
X1401Y3409D02*
X1391Y3408D01*
X1381Y3404D01*
X1373Y3397D01*
X1366Y3389D01*
X1362Y3379D01*
X1361Y3369D01*
X1362Y3359D01*
X1366Y3349D01*
X1373Y3341D01*
X1381Y3334D01*
X1391Y3330D01*
X1401Y3329D01*
X1411Y3330D01*
X1421Y3334D01*
X1429Y3341D01*
X1436Y3349D01*
X1440Y3359D01*
X1441Y3369D01*
X1440Y3379D01*
X1436Y3389D01*
X1429Y3397D01*
X1421Y3404D01*
X1411Y3408D01*
X1401Y3409D01*
D02*
G37*
G36*
X1701Y3309D02*
X1691Y3308D01*
X1681Y3304D01*
X1673Y3297D01*
X1666Y3289D01*
X1662Y3279D01*
X1661Y3269D01*
X1662Y3259D01*
X1666Y3249D01*
X1673Y3241D01*
X1681Y3234D01*
X1691Y3230D01*
X1701Y3229D01*
X1711Y3230D01*
X1721Y3234D01*
X1729Y3241D01*
X1736Y3249D01*
X1740Y3259D01*
X1741Y3269D01*
X1740Y3279D01*
X1736Y3289D01*
X1729Y3297D01*
X1721Y3304D01*
X1711Y3308D01*
X1701Y3309D01*
D02*
G37*
G36*
X3881Y3327D02*
X3871Y3326D01*
X3862Y3322D01*
X3854Y3316D01*
X3848Y3308D01*
X3844Y3299D01*
X3843Y3289D01*
X3844Y3279D01*
X3848Y3270D01*
X3854Y3262D01*
X3862Y3256D01*
X3871Y3252D01*
X3881Y3251D01*
X3891Y3252D01*
X3900Y3256D01*
X3908Y3262D01*
X3914Y3270D01*
X3918Y3279D01*
X3919Y3289D01*
X3918Y3299D01*
X3914Y3308D01*
X3908Y3316D01*
X3900Y3322D01*
X3891Y3326D01*
X3881Y3327D01*
D02*
G37*
G36*
X4076Y3284D02*
X4044D01*
X4044Y3279D01*
X4048Y3270D01*
X4054Y3262D01*
X4062Y3256D01*
X4071Y3252D01*
X4076Y3252D01*
Y3284D01*
D02*
G37*
G36*
X1401Y3309D02*
X1391Y3308D01*
X1381Y3304D01*
X1373Y3297D01*
X1366Y3289D01*
X1362Y3279D01*
X1361Y3269D01*
X1362Y3259D01*
X1366Y3249D01*
X1373Y3241D01*
X1381Y3234D01*
X1391Y3230D01*
X1401Y3229D01*
X1411Y3230D01*
X1421Y3234D01*
X1429Y3241D01*
X1436Y3249D01*
X1440Y3259D01*
X1441Y3269D01*
X1440Y3279D01*
X1436Y3289D01*
X1429Y3297D01*
X1421Y3304D01*
X1411Y3308D01*
X1401Y3309D01*
D02*
G37*
G36*
X1306Y3226D02*
Y3194D01*
X1338D01*
X1338Y3199D01*
X1334Y3208D01*
X1328Y3216D01*
X1320Y3222D01*
X1311Y3226D01*
X1306Y3226D01*
D02*
G37*
G36*
X4207Y3243D02*
X4203Y3243D01*
X4194Y3239D01*
X4187Y3234D01*
X4181Y3226D01*
X4178Y3218D01*
X4177Y3214D01*
X4207D01*
Y3243D01*
D02*
G37*
G36*
X4217D02*
Y3214D01*
X4246D01*
X4245Y3218D01*
X4242Y3226D01*
X4236Y3234D01*
X4229Y3239D01*
X4221Y3243D01*
X4217Y3243D01*
D02*
G37*
G36*
X4118Y3284D02*
X4086D01*
Y3252D01*
X4091Y3252D01*
X4100Y3256D01*
X4108Y3262D01*
X4114Y3270D01*
X4118Y3279D01*
X4118Y3284D01*
D02*
G37*
G36*
X4086Y3326D02*
Y3294D01*
X4118D01*
X4118Y3299D01*
X4114Y3308D01*
X4108Y3316D01*
X4100Y3322D01*
X4091Y3326D01*
X4086Y3326D01*
D02*
G37*
G36*
X4289Y3367D02*
X4280Y3366D01*
X4271Y3363D01*
X4264Y3357D01*
X4258Y3350D01*
X4255Y3341D01*
X4254Y3332D01*
X4255Y3323D01*
X4258Y3314D01*
X4264Y3307D01*
X4271Y3301D01*
X4280Y3298D01*
X4289Y3297D01*
X4298Y3298D01*
X4307Y3301D01*
X4314Y3307D01*
X4320Y3314D01*
X4323Y3323D01*
X4324Y3332D01*
X4323Y3341D01*
X4320Y3350D01*
X4314Y3357D01*
X4307Y3363D01*
X4298Y3366D01*
X4289Y3367D01*
D02*
G37*
G36*
X3696Y3346D02*
X3691Y3346D01*
X3682Y3342D01*
X3674Y3336D01*
X3668Y3328D01*
X3664Y3319D01*
X3664Y3314D01*
X3696D01*
Y3346D01*
D02*
G37*
G36*
X4076Y3326D02*
X4071Y3326D01*
X4062Y3322D01*
X4054Y3316D01*
X4048Y3308D01*
X4044Y3299D01*
X4044Y3294D01*
X4076D01*
Y3326D01*
D02*
G37*
G36*
X3501Y3347D02*
X3491Y3346D01*
X3482Y3342D01*
X3474Y3336D01*
X3468Y3328D01*
X3464Y3319D01*
X3463Y3309D01*
X3464Y3299D01*
X3468Y3290D01*
X3474Y3282D01*
X3482Y3276D01*
X3491Y3272D01*
X3501Y3271D01*
X3511Y3272D01*
X3520Y3276D01*
X3528Y3282D01*
X3534Y3290D01*
X3538Y3299D01*
X3539Y3309D01*
X3538Y3319D01*
X3534Y3328D01*
X3528Y3336D01*
X3520Y3342D01*
X3511Y3346D01*
X3501Y3347D01*
D02*
G37*
G36*
X3696Y3304D02*
X3664D01*
X3664Y3299D01*
X3668Y3290D01*
X3674Y3282D01*
X3682Y3276D01*
X3691Y3272D01*
X3696Y3272D01*
Y3304D01*
D02*
G37*
G36*
X3738D02*
X3706D01*
Y3272D01*
X3711Y3272D01*
X3720Y3276D01*
X3728Y3282D01*
X3734Y3290D01*
X3738Y3299D01*
X3738Y3304D01*
D02*
G37*
G36*
X1701Y3509D02*
X1691Y3508D01*
X1681Y3504D01*
X1673Y3497D01*
X1666Y3489D01*
X1662Y3479D01*
X1661Y3469D01*
X1662Y3459D01*
X1666Y3449D01*
X1673Y3441D01*
X1681Y3434D01*
X1691Y3430D01*
X1701Y3429D01*
X1711Y3430D01*
X1721Y3434D01*
X1729Y3441D01*
X1736Y3449D01*
X1740Y3459D01*
X1741Y3469D01*
X1740Y3479D01*
X1736Y3489D01*
X1729Y3497D01*
X1721Y3504D01*
X1711Y3508D01*
X1701Y3509D01*
D02*
G37*
G36*
X1301Y3807D02*
X1291Y3806D01*
X1282Y3802D01*
X1274Y3796D01*
X1268Y3788D01*
X1264Y3779D01*
X1263Y3769D01*
X1264Y3759D01*
X1268Y3750D01*
X1274Y3742D01*
X1282Y3736D01*
X1291Y3732D01*
X1301Y3731D01*
X1311Y3732D01*
X1320Y3736D01*
X1328Y3742D01*
X1334Y3750D01*
X1338Y3759D01*
X1339Y3769D01*
X1338Y3779D01*
X1334Y3788D01*
X1328Y3796D01*
X1320Y3802D01*
X1311Y3806D01*
X1301Y3807D01*
D02*
G37*
G36*
X4146Y3808D02*
X4141Y3808D01*
X4131Y3804D01*
X4123Y3797D01*
X4116Y3789D01*
X4112Y3779D01*
X4112Y3774D01*
X4146D01*
Y3808D01*
D02*
G37*
G36*
X1786Y3814D02*
X1754D01*
X1754Y3809D01*
X1758Y3800D01*
X1764Y3792D01*
X1772Y3786D01*
X1781Y3782D01*
X1786Y3782D01*
Y3814D01*
D02*
G37*
G36*
X4146Y3764D02*
X4112D01*
X4112Y3759D01*
X4116Y3749D01*
X4123Y3741D01*
X4131Y3734D01*
X4141Y3730D01*
X4146Y3730D01*
Y3764D01*
D02*
G37*
G36*
X2132Y3990D02*
X2111Y3989D01*
X2091Y3984D01*
X2071Y3976D01*
X2053Y3965D01*
X2037Y3951D01*
X2023Y3935D01*
X2012Y3916D01*
X2004Y3897D01*
X1999Y3876D01*
X1997Y3855D01*
X1999Y3834D01*
X2004Y3813D01*
X2012Y3794D01*
X2023Y3775D01*
X2037Y3759D01*
X2053Y3745D01*
X2071Y3734D01*
X2091Y3726D01*
X2111Y3721D01*
X2132Y3720D01*
X2154Y3721D01*
X2174Y3726D01*
X2194Y3734D01*
X2212Y3745D01*
X2228Y3759D01*
X2242Y3775D01*
X2253Y3794D01*
X2261Y3813D01*
X2266Y3834D01*
X2268Y3855D01*
X2266Y3876D01*
X2261Y3897D01*
X2253Y3916D01*
X2242Y3935D01*
X2228Y3951D01*
X2212Y3965D01*
X2194Y3976D01*
X2174Y3984D01*
X2154Y3989D01*
X2132Y3990D01*
D02*
G37*
G36*
X3482D02*
X3461Y3989D01*
X3441Y3984D01*
X3421Y3976D01*
X3403Y3965D01*
X3387Y3951D01*
X3373Y3935D01*
X3362Y3916D01*
X3354Y3897D01*
X3349Y3876D01*
X3347Y3855D01*
X3349Y3834D01*
X3354Y3813D01*
X3362Y3794D01*
X3373Y3775D01*
X3387Y3759D01*
X3403Y3745D01*
X3421Y3734D01*
X3441Y3726D01*
X3461Y3721D01*
X3482Y3720D01*
X3504Y3721D01*
X3524Y3726D01*
X3544Y3734D01*
X3562Y3745D01*
X3578Y3759D01*
X3592Y3775D01*
X3603Y3794D01*
X3611Y3813D01*
X3616Y3834D01*
X3618Y3855D01*
X3616Y3876D01*
X3611Y3897D01*
X3603Y3916D01*
X3592Y3935D01*
X3578Y3951D01*
X3562Y3965D01*
X3544Y3976D01*
X3524Y3984D01*
X3504Y3989D01*
X3482Y3990D01*
D02*
G37*
G36*
X1401Y3809D02*
X1391Y3808D01*
X1381Y3804D01*
X1373Y3797D01*
X1366Y3789D01*
X1362Y3779D01*
X1361Y3769D01*
X1362Y3759D01*
X1366Y3749D01*
X1373Y3741D01*
X1381Y3734D01*
X1391Y3730D01*
X1401Y3729D01*
X1411Y3730D01*
X1421Y3734D01*
X1429Y3741D01*
X1436Y3749D01*
X1440Y3759D01*
X1441Y3769D01*
X1440Y3779D01*
X1436Y3789D01*
X1429Y3797D01*
X1421Y3804D01*
X1411Y3808D01*
X1401Y3809D01*
D02*
G37*
G36*
X1901Y4249D02*
X1821D01*
Y4169D01*
X1841D01*
Y3804D01*
X1826Y3790D01*
X1823Y3793D01*
X1823D01*
X1820Y3795D01*
X1824Y3800D01*
X1828Y3809D01*
X1828Y3814D01*
X1796D01*
Y3782D01*
X1801Y3782D01*
X1810Y3786D01*
X1815Y3790D01*
X1817Y3787D01*
Y3787D01*
X1820Y3784D01*
X1733Y3697D01*
X1729Y3697D01*
X1721Y3704D01*
X1711Y3708D01*
X1701Y3709D01*
X1691Y3708D01*
X1681Y3704D01*
X1673Y3697D01*
X1666Y3689D01*
X1662Y3679D01*
X1661Y3669D01*
X1662Y3659D01*
X1666Y3649D01*
X1673Y3641D01*
X1681Y3634D01*
X1691Y3630D01*
X1701Y3629D01*
X1711Y3630D01*
X1721Y3634D01*
X1729Y3641D01*
X1735Y3649D01*
X1742Y3650D01*
X1748Y3655D01*
X1875Y3782D01*
X1880Y3788D01*
X1881Y3796D01*
Y4169D01*
X1901D01*
Y4249D01*
D02*
G37*
G36*
X4146Y3904D02*
X4112D01*
X4112Y3899D01*
X4116Y3889D01*
X4123Y3881D01*
X4131Y3874D01*
X4141Y3870D01*
X4146Y3870D01*
Y3904D01*
D02*
G37*
G36*
X1696Y3908D02*
X1691Y3908D01*
X1681Y3904D01*
X1673Y3897D01*
X1666Y3889D01*
X1662Y3879D01*
X1662Y3874D01*
X1696D01*
Y3908D01*
D02*
G37*
G36*
X1706D02*
Y3874D01*
X1740D01*
X1740Y3879D01*
X1736Y3889D01*
X1729Y3897D01*
X1721Y3904D01*
X1711Y3908D01*
X1706Y3908D01*
D02*
G37*
G36*
X1740Y3864D02*
X1706D01*
Y3830D01*
X1711Y3830D01*
X1721Y3834D01*
X1729Y3841D01*
X1736Y3849D01*
X1740Y3859D01*
X1740Y3864D01*
D02*
G37*
G36*
X1786Y3856D02*
X1781Y3856D01*
X1772Y3852D01*
X1764Y3846D01*
X1758Y3838D01*
X1754Y3829D01*
X1754Y3824D01*
X1786D01*
Y3856D01*
D02*
G37*
G36*
X1796D02*
Y3824D01*
X1828D01*
X1828Y3829D01*
X1824Y3838D01*
X1818Y3846D01*
X1810Y3852D01*
X1801Y3856D01*
X1796Y3856D01*
D02*
G37*
G36*
X1696Y3864D02*
X1662D01*
X1662Y3859D01*
X1666Y3849D01*
X1673Y3841D01*
X1681Y3834D01*
X1691Y3830D01*
X1696Y3830D01*
Y3864D01*
D02*
G37*
G36*
X4491Y3727D02*
X4481Y3726D01*
X4472Y3722D01*
X4464Y3716D01*
X4458Y3708D01*
X4454Y3699D01*
X4453Y3689D01*
X4454Y3679D01*
X4458Y3670D01*
X4464Y3662D01*
X4472Y3656D01*
X4481Y3652D01*
X4491Y3651D01*
X4501Y3652D01*
X4510Y3656D01*
X4518Y3662D01*
X4524Y3670D01*
X4528Y3679D01*
X4529Y3689D01*
X4528Y3699D01*
X4524Y3708D01*
X4518Y3716D01*
X4510Y3722D01*
X4501Y3726D01*
X4491Y3727D01*
D02*
G37*
G36*
X1701Y3609D02*
X1691Y3608D01*
X1681Y3604D01*
X1673Y3597D01*
X1666Y3589D01*
X1662Y3579D01*
X1661Y3569D01*
X1662Y3559D01*
X1666Y3549D01*
X1673Y3541D01*
X1681Y3534D01*
X1691Y3530D01*
X1701Y3529D01*
X1711Y3530D01*
X1721Y3534D01*
X1729Y3541D01*
X1736Y3549D01*
X1740Y3559D01*
X1741Y3569D01*
X1740Y3579D01*
X1736Y3589D01*
X1729Y3597D01*
X1721Y3604D01*
X1711Y3608D01*
X1701Y3609D01*
D02*
G37*
G36*
X2481Y4133D02*
X2472Y4131D01*
X2464Y4128D01*
X2457Y4123D01*
X2452Y4116D01*
X2449Y4108D01*
X2447Y4099D01*
X2448Y4095D01*
X2447Y4093D01*
X2442Y4087D01*
X2441Y4079D01*
Y3633D01*
X2433Y3627D01*
X2426Y3619D01*
X2422Y3609D01*
X2421Y3599D01*
X2422Y3589D01*
X2426Y3579D01*
X2433Y3571D01*
X2441Y3564D01*
X2451Y3560D01*
X2461Y3559D01*
X2471Y3560D01*
X2481Y3564D01*
X2489Y3571D01*
X2496Y3579D01*
X2500Y3589D01*
X2501Y3599D01*
X2500Y3609D01*
X2496Y3619D01*
X2489Y3627D01*
X2481Y3633D01*
Y4066D01*
X2490Y4067D01*
X2498Y4070D01*
X2505Y4075D01*
X2510Y4082D01*
X2513Y4090D01*
X2515Y4099D01*
X2513Y4108D01*
X2510Y4116D01*
X2505Y4123D01*
X2498Y4128D01*
X2490Y4131D01*
X2481Y4133D01*
D02*
G37*
G36*
X2951Y3639D02*
X2941Y3638D01*
X2931Y3634D01*
X2923Y3627D01*
X2916Y3619D01*
X2912Y3609D01*
X2911Y3599D01*
X2912Y3589D01*
X2916Y3579D01*
X2923Y3571D01*
X2931Y3564D01*
X2941Y3560D01*
X2951Y3559D01*
X2961Y3560D01*
X2971Y3564D01*
X2979Y3571D01*
X2986Y3579D01*
X2990Y3589D01*
X2991Y3599D01*
X2990Y3609D01*
X2986Y3619D01*
X2979Y3627D01*
X2971Y3634D01*
X2961Y3638D01*
X2951Y3639D01*
D02*
G37*
G36*
X1401Y3609D02*
X1391Y3608D01*
X1381Y3604D01*
X1373Y3597D01*
X1366Y3589D01*
X1362Y3579D01*
X1361Y3569D01*
X1362Y3559D01*
X1366Y3549D01*
X1373Y3541D01*
X1381Y3534D01*
X1391Y3530D01*
X1401Y3529D01*
X1411Y3530D01*
X1421Y3534D01*
X1429Y3541D01*
X1436Y3549D01*
X1440Y3559D01*
X1441Y3569D01*
X1440Y3579D01*
X1436Y3589D01*
X1429Y3597D01*
X1421Y3604D01*
X1411Y3608D01*
X1401Y3609D01*
D02*
G37*
G36*
X1301Y3517D02*
X1291Y3516D01*
X1282Y3512D01*
X1274Y3506D01*
X1268Y3498D01*
X1264Y3489D01*
X1263Y3479D01*
X1264Y3469D01*
X1268Y3460D01*
X1274Y3452D01*
X1282Y3446D01*
X1291Y3442D01*
X1301Y3441D01*
X1311Y3442D01*
X1320Y3446D01*
X1328Y3452D01*
X1334Y3460D01*
X1338Y3469D01*
X1339Y3479D01*
X1338Y3489D01*
X1334Y3498D01*
X1328Y3506D01*
X1320Y3512D01*
X1311Y3516D01*
X1301Y3517D01*
D02*
G37*
G36*
X4026Y3493D02*
X4021Y3493D01*
X4011Y3489D01*
X4003Y3482D01*
X3996Y3474D01*
X3992Y3464D01*
X3992Y3459D01*
X4026D01*
Y3493D01*
D02*
G37*
G36*
X4036D02*
Y3459D01*
X4070D01*
X4070Y3464D01*
X4066Y3474D01*
X4059Y3482D01*
X4051Y3489D01*
X4041Y3493D01*
X4036Y3493D01*
D02*
G37*
G36*
X3151Y3639D02*
X3141Y3638D01*
X3131Y3634D01*
X3123Y3627D01*
X3116Y3619D01*
X3112Y3609D01*
X3111Y3599D01*
X3112Y3589D01*
X3116Y3579D01*
X3123Y3571D01*
X3131Y3564D01*
X3141Y3560D01*
X3151Y3559D01*
X3161Y3560D01*
X3171Y3564D01*
X3179Y3571D01*
X3186Y3579D01*
X3190Y3589D01*
X3191Y3599D01*
X3190Y3609D01*
X3186Y3619D01*
X3179Y3627D01*
X3171Y3634D01*
X3161Y3638D01*
X3151Y3639D01*
D02*
G37*
G36*
X1401Y3709D02*
X1391Y3708D01*
X1381Y3704D01*
X1373Y3697D01*
X1366Y3689D01*
X1362Y3679D01*
X1361Y3669D01*
X1362Y3659D01*
X1366Y3649D01*
X1373Y3641D01*
X1381Y3634D01*
X1391Y3630D01*
X1401Y3629D01*
X1411Y3630D01*
X1421Y3634D01*
X1429Y3641D01*
X1436Y3649D01*
X1440Y3659D01*
X1441Y3669D01*
X1440Y3679D01*
X1436Y3689D01*
X1429Y3697D01*
X1421Y3704D01*
X1411Y3708D01*
X1401Y3709D01*
D02*
G37*
G36*
X3111Y4133D02*
X3102Y4131D01*
X3094Y4128D01*
X3087Y4123D01*
X3082Y4116D01*
X3079Y4108D01*
X3077Y4099D01*
X3079Y4090D01*
X3082Y4082D01*
X3087Y4075D01*
X3091Y4073D01*
Y3667D01*
X3061Y3638D01*
X3051Y3639D01*
X3041Y3638D01*
X3031Y3634D01*
X3023Y3627D01*
X3016Y3619D01*
X3012Y3609D01*
X3011Y3599D01*
X3012Y3589D01*
X3016Y3579D01*
X3023Y3571D01*
X3031Y3564D01*
X3041Y3560D01*
X3051Y3559D01*
X3061Y3560D01*
X3071Y3564D01*
X3079Y3571D01*
X3086Y3579D01*
X3090Y3589D01*
X3091Y3599D01*
X3090Y3609D01*
X3125Y3645D01*
X3130Y3651D01*
X3131Y3659D01*
X3131Y3659D01*
X3131Y3659D01*
Y3659D01*
Y4073D01*
X3135Y4075D01*
X3140Y4082D01*
X3143Y4090D01*
X3144Y4099D01*
X3143Y4108D01*
X3140Y4116D01*
X3135Y4123D01*
X3128Y4128D01*
X3120Y4131D01*
X3111Y4133D01*
D02*
G37*
G36*
X1301Y3717D02*
X1291Y3716D01*
X1282Y3712D01*
X1274Y3706D01*
X1268Y3698D01*
X1264Y3689D01*
X1263Y3679D01*
X1264Y3669D01*
X1268Y3660D01*
X1274Y3652D01*
X1282Y3646D01*
X1291Y3642D01*
X1301Y3641D01*
X1311Y3642D01*
X1320Y3646D01*
X1328Y3652D01*
X1334Y3660D01*
X1338Y3669D01*
X1339Y3679D01*
X1338Y3689D01*
X1334Y3698D01*
X1328Y3706D01*
X1320Y3712D01*
X1311Y3716D01*
X1301Y3717D01*
D02*
G37*
G36*
X2891Y3639D02*
X2856D01*
Y3604D01*
X2891D01*
Y3639D01*
D02*
G37*
G36*
X2846Y3594D02*
X2811D01*
Y3559D01*
X2846D01*
Y3594D01*
D02*
G37*
G36*
X2891D02*
X2856D01*
Y3559D01*
X2891D01*
Y3594D01*
D02*
G37*
G36*
X2846Y3639D02*
X2811D01*
Y3604D01*
X2846D01*
Y3639D01*
D02*
G37*
%LPD*%
D10*
X3197Y4089D02*
X3201Y4094D01*
X1866Y3520D02*
X3580D01*
X1200Y3040D02*
X1287Y3127D01*
X1080Y3050D02*
X1157Y3127D01*
X1287D01*
X3190Y4083D02*
X3197Y4089D01*
X3189Y4097D02*
X3197Y4089D01*
X3217Y4069D01*
X1200Y3048D02*
Y3050D01*
Y3040D02*
Y3048D01*
X2111Y2067D02*
Y2699D01*
X2115Y1791D02*
Y2063D01*
X1200Y2970D02*
X1272Y2898D01*
X1080Y2970D02*
X1152Y2898D01*
X2111Y2067D02*
X2115Y2063D01*
X1734Y1609D02*
Y1741D01*
X1591Y1466D02*
X1734Y1609D01*
X1152Y2898D02*
X1272D01*
X2111Y3242D02*
Y3406D01*
Y2699D02*
Y3242D01*
Y1799D02*
Y2067D01*
X2110Y3243D02*
X2111Y3242D01*
X2105Y2073D02*
X2111Y2067D01*
X1272Y2898D02*
X1391D01*
X3217Y4069D02*
X3531D01*
X3701Y3399D02*
Y3899D01*
X3531Y4069D02*
X3701Y3899D01*
X3531Y4069D02*
Y4289D01*
X3621Y4379D01*
X1874Y3519D02*
X3412D01*
X4121Y4502D02*
X4160D01*
X4201Y3454D02*
Y4422D01*
X3384Y4502D02*
X4121D01*
X3341Y4332D02*
X3442D01*
X1441Y4048D02*
X1451D01*
X1402Y1388D02*
Y1409D01*
X3033Y3971D02*
Y4101D01*
X2953Y4179D02*
X2961D01*
X4201Y4422D02*
Y4461D01*
X3514Y4502D02*
X4121D01*
X2111Y2699D02*
X2115Y2695D01*
X2059Y2751D02*
X2111Y2699D01*
X2110Y3243D02*
Y3405D01*
X4160Y4502D02*
X4201Y4461D01*
X1391Y1409D02*
X1402D01*
X3791Y3067D02*
X3932Y2926D01*
X3791Y3067D02*
Y3309D01*
X3701Y3399D02*
X3791Y3309D01*
X2953Y4178D02*
Y4179D01*
X2875Y4178D02*
X2878Y4178D01*
X2561Y3599D02*
X2562Y3602D01*
X1734Y1741D02*
X2066Y2073D01*
X2105D01*
X3442Y4332D02*
X3449Y4339D01*
X3341Y4332D02*
Y4459D01*
X1591Y1409D02*
Y1466D01*
X2878Y4178D02*
Y4196D01*
X3071Y4389D01*
X2961Y4179D02*
X3171Y4389D01*
X3580Y3520D02*
X3701Y3399D01*
X1802Y3456D02*
X1866Y3520D01*
X1802Y3183D02*
Y3456D01*
X1746Y3127D02*
X1802Y3183D01*
X1795Y4375D02*
Y4459D01*
X1776Y4478D02*
X1795Y4459D01*
X1640Y4478D02*
X1776D01*
X1795Y4375D02*
X1861Y4309D01*
X2115Y2073D02*
Y2695D01*
X2110Y3405D02*
X2111Y3406D01*
X1391Y2898D02*
X1490Y2799D01*
X1692D01*
X1848Y2751D02*
X2059D01*
X1711Y2614D02*
X1848Y2751D01*
X1531Y4457D02*
X1599Y4525D01*
X1531Y3539D02*
Y4457D01*
Y3539D02*
X1701Y3369D01*
Y3669D02*
X1734D01*
X1861Y3796D02*
Y4209D01*
X1734Y3669D02*
X1861Y3796D01*
X1287Y3127D02*
X1746D01*
X1692Y2715D02*
X1692Y2715D01*
Y2633D02*
Y2715D01*
Y2633D02*
X1711Y2614D01*
X1657Y1335D02*
X1731Y1409D01*
X1402Y1388D02*
X1455Y1335D01*
X1657D01*
X2661Y3599D02*
X3033Y3971D01*
X2562Y3602D02*
X2953Y3993D01*
Y4099D01*
X2736Y4525D02*
X2796Y4465D01*
X1599Y4525D02*
X2736D01*
X1731Y1409D02*
X1861Y1539D01*
Y1709D01*
X3051Y3599D02*
X3111Y3659D01*
Y4099D01*
X3825Y4329D02*
Y4353D01*
X3911Y4439D01*
X2461Y3599D02*
Y4079D01*
X2481Y4099D01*
X2571Y4389D02*
X2717D01*
X3341Y4459D02*
X3384Y4502D01*
X2796Y4178D02*
Y4465D01*
X1593Y4431D02*
X1640Y4478D01*
X1593Y3877D02*
Y4431D01*
Y3877D02*
X1701Y3769D01*
X4391Y3689D02*
Y3769D01*
X4251Y3909D02*
X4391Y3769D01*
X3190Y4178D02*
X3341Y4329D01*
X1441Y4048D02*
Y4069D01*
X1451Y3919D02*
Y4048D01*
X1401Y3869D02*
X1451Y3919D01*
X1692Y2715D02*
Y2799D01*
X3825Y4132D02*
Y4329D01*
X2571Y4288D02*
Y4389D01*
X2560Y4277D02*
X2571Y4288D01*
X2560Y4178D02*
Y4277D01*
X2471Y4288D02*
Y4389D01*
Y4288D02*
X2481Y4278D01*
Y4178D02*
Y4278D01*
X4290Y3209D02*
X4291Y3208D01*
D11*
X1200Y3048D02*
D03*
Y2968D02*
D03*
X1080Y3048D02*
D03*
Y2968D02*
D03*
X4427Y1869D02*
D03*
Y1759D02*
D03*
Y1649D02*
D03*
Y1539D02*
D03*
X3341Y4459D02*
D03*
D12*
X3926Y1451D02*
D03*
X3932Y2926D02*
D03*
X1241Y2588D02*
D03*
Y2268D02*
D03*
Y1960D02*
D03*
D13*
X3926Y1529D02*
D03*
X3932Y3004D02*
D03*
X1770Y2799D02*
D03*
X1490D02*
D03*
X1241Y2510D02*
D03*
Y2190D02*
D03*
Y2038D02*
D03*
X4212Y3209D02*
D03*
D14*
X4023Y2275D02*
D03*
X3823D02*
D03*
X3825Y2179D02*
D03*
X4025D02*
D03*
X3449Y4339D02*
D03*
Y4139D02*
D03*
X1301Y3189D02*
D03*
Y3389D02*
D03*
Y3479D02*
D03*
Y3679D02*
D03*
Y3769D02*
D03*
Y3969D02*
D03*
X1641Y4069D02*
D03*
X1441D02*
D03*
X1791Y4019D02*
D03*
Y3819D02*
D03*
X3711Y4139D02*
D03*
Y4339D02*
D03*
X1911Y2699D02*
D03*
X2111D02*
D03*
X1911Y3409D02*
D03*
X2111D02*
D03*
X3701Y3309D02*
D03*
X3501D02*
D03*
X4391Y3989D02*
D03*
Y3689D02*
D03*
X4491Y3989D02*
D03*
Y3689D02*
D03*
X3621Y4379D02*
D03*
Y4079D02*
D03*
X2161Y1709D02*
D03*
X1861D02*
D03*
X1911Y1799D02*
D03*
X2111D02*
D03*
X3881Y3289D02*
D03*
X4081D02*
D03*
X3501Y3399D02*
D03*
X3701D02*
D03*
D15*
X3908Y1930D02*
D03*
D16*
Y1830D02*
D03*
Y1730D02*
D03*
D17*
X3918Y2710D02*
D03*
D18*
Y2610D02*
D03*
Y2510D02*
D03*
D19*
X1692Y2799D02*
D03*
X1412D02*
D03*
X4290Y3209D02*
D03*
D20*
X1291Y1409D02*
D03*
X1391D02*
D03*
X1491D02*
D03*
X1591D02*
D03*
X1291Y1709D02*
D03*
X1391D02*
D03*
X1491D02*
D03*
X1411Y2514D02*
D03*
Y2414D02*
D03*
Y2314D02*
D03*
Y2214D02*
D03*
Y2114D02*
D03*
Y2014D02*
D03*
Y1914D02*
D03*
X1711Y2614D02*
D03*
Y2514D02*
D03*
Y2414D02*
D03*
Y2314D02*
D03*
Y2214D02*
D03*
Y2114D02*
D03*
Y2014D02*
D03*
Y1914D02*
D03*
X2471Y4389D02*
D03*
X3171D02*
D03*
X1861Y4309D02*
D03*
Y4409D02*
D03*
X1731Y4309D02*
D03*
Y4409D02*
D03*
X1701Y3049D02*
D03*
X1601D02*
D03*
X1731Y1309D02*
D03*
Y1409D02*
D03*
Y1509D02*
D03*
X4151Y3909D02*
D03*
Y3769D02*
D03*
X4031Y3454D02*
D03*
X4401D02*
D03*
X4301D02*
D03*
X4011Y4439D02*
D03*
X3151Y3599D02*
D03*
X3051D02*
D03*
X2951D02*
D03*
X2461D02*
D03*
X2561D02*
D03*
D21*
X1591Y1709D02*
D03*
X1861Y4209D02*
D03*
X1731D02*
D03*
Y1609D02*
D03*
D22*
X1701Y3269D02*
D03*
Y3369D02*
D03*
Y3469D02*
D03*
Y3569D02*
D03*
Y3669D02*
D03*
Y3769D02*
D03*
Y3869D02*
D03*
Y3969D02*
D03*
X1401Y3269D02*
D03*
Y3369D02*
D03*
Y3469D02*
D03*
Y3569D02*
D03*
Y3669D02*
D03*
Y3769D02*
D03*
Y3869D02*
D03*
D23*
Y3969D02*
D03*
D24*
X1411Y2614D02*
D03*
X2571Y4389D02*
D03*
X3071D02*
D03*
X1801Y3049D02*
D03*
X4251Y3909D02*
D03*
Y3769D02*
D03*
X3931Y3454D02*
D03*
X4201D02*
D03*
X3911Y4439D02*
D03*
X2851Y3599D02*
D03*
X2661D02*
D03*
D25*
X4426Y1174D02*
D03*
X1176D02*
D03*
Y4424D02*
D03*
X4426D02*
D03*
X3482Y1305D02*
D03*
X2132D02*
D03*
Y3855D02*
D03*
X3482D02*
D03*
D26*
X3032Y1478D02*
D03*
X2582D02*
D03*
Y3194D02*
D03*
X3032D02*
D03*
D27*
X3190Y4178D02*
D03*
D28*
Y4099D02*
D03*
X3111Y4178D02*
D03*
Y4099D02*
D03*
X3032Y4178D02*
D03*
Y4099D02*
D03*
X2953Y4178D02*
D03*
Y4099D02*
D03*
X2875Y4178D02*
D03*
Y4099D02*
D03*
X2796Y4178D02*
D03*
Y4099D02*
D03*
X2717Y4178D02*
D03*
Y4099D02*
D03*
X2638Y4178D02*
D03*
Y4099D02*
D03*
X2560Y4178D02*
D03*
Y4099D02*
D03*
X2481Y4178D02*
D03*
Y4099D02*
D03*
D29*
X4101Y4329D02*
D03*
X3825D02*
D03*
Y4132D02*
D03*
X4101D02*
D03*
D30*
X2116Y2068D02*
D03*
X4289Y3332D02*
D03*
X1874Y3519D02*
D03*
X2717Y4389D02*
D03*
M02*
