%FSLAX23Y23*%
%MOIN*%
G70*
G01*
G75*
G04 Layer_Color=16711935*
%ADD10C,0.020*%
%ADD11C,0.060*%
%ADD12R,0.049X0.049*%
%ADD13C,0.049*%
%ADD14C,0.055*%
%ADD15R,0.067X0.067*%
%ADD16C,0.067*%
%ADD17R,0.063X0.063*%
%ADD18C,0.063*%
%ADD19R,0.049X0.049*%
%ADD20C,0.059*%
%ADD21R,0.059X0.059*%
%ADD22C,0.059*%
%ADD23R,0.059X0.059*%
%ADD24R,0.059X0.059*%
%ADD25C,0.250*%
%ADD26C,0.157*%
%ADD27R,0.046X0.046*%
%ADD28C,0.046*%
%ADD29O,0.024X0.039*%
%ADD30C,0.050*%
%ADD31C,0.015*%
%ADD32C,0.008*%
%ADD33C,0.010*%
%ADD34C,0.024*%
%ADD35C,0.010*%
%ADD36C,0.020*%
%ADD37C,0.008*%
%ADD38C,0.006*%
%ADD39C,0.068*%
%ADD40R,0.057X0.057*%
%ADD41C,0.057*%
%ADD42C,0.063*%
%ADD43R,0.075X0.075*%
%ADD44C,0.075*%
%ADD45R,0.071X0.071*%
%ADD46C,0.071*%
%ADD47R,0.057X0.057*%
%ADD48C,0.067*%
%ADD49R,0.067X0.067*%
%ADD50C,0.067*%
%ADD51R,0.067X0.067*%
%ADD52R,0.067X0.067*%
%ADD53C,0.258*%
%ADD54C,0.165*%
%ADD55R,0.054X0.054*%
%ADD56C,0.054*%
%ADD57O,0.032X0.047*%
%ADD58C,0.058*%
D39*
X1200Y3048D02*
D03*
Y2968D02*
D03*
X1080Y3048D02*
D03*
Y2968D02*
D03*
X4427Y1869D02*
D03*
Y1759D02*
D03*
Y1649D02*
D03*
Y1539D02*
D03*
X3341Y4459D02*
D03*
D40*
X3926Y1451D02*
D03*
X3932Y2926D02*
D03*
X1241Y2588D02*
D03*
Y2268D02*
D03*
Y1960D02*
D03*
D41*
X3926Y1529D02*
D03*
X3932Y3004D02*
D03*
X1770Y2799D02*
D03*
X1490D02*
D03*
X1241Y2510D02*
D03*
Y2190D02*
D03*
Y2038D02*
D03*
X4212Y3209D02*
D03*
D42*
X4023Y2275D02*
D03*
X3823D02*
D03*
X3825Y2179D02*
D03*
X4025D02*
D03*
X3449Y4339D02*
D03*
Y4139D02*
D03*
X1301Y3189D02*
D03*
Y3389D02*
D03*
Y3479D02*
D03*
Y3679D02*
D03*
Y3769D02*
D03*
Y3969D02*
D03*
X1641Y4069D02*
D03*
X1441D02*
D03*
X1791Y4019D02*
D03*
Y3819D02*
D03*
X3711Y4139D02*
D03*
Y4339D02*
D03*
X1911Y2699D02*
D03*
X2111D02*
D03*
X1911Y3409D02*
D03*
X2111D02*
D03*
X3701Y3309D02*
D03*
X3501D02*
D03*
X4391Y3989D02*
D03*
Y3689D02*
D03*
X4491Y3989D02*
D03*
Y3689D02*
D03*
X3621Y4379D02*
D03*
Y4079D02*
D03*
X2161Y1709D02*
D03*
X1861D02*
D03*
X1911Y1799D02*
D03*
X2111D02*
D03*
X3881Y3289D02*
D03*
X4081D02*
D03*
X3501Y3399D02*
D03*
X3701D02*
D03*
D43*
X3908Y1930D02*
D03*
D44*
Y1830D02*
D03*
Y1730D02*
D03*
D45*
X3918Y2710D02*
D03*
D46*
Y2610D02*
D03*
Y2510D02*
D03*
D47*
X1692Y2799D02*
D03*
X1412D02*
D03*
X4290Y3209D02*
D03*
D48*
X1291Y1409D02*
D03*
X1391D02*
D03*
X1491D02*
D03*
X1591D02*
D03*
X1291Y1709D02*
D03*
X1391D02*
D03*
X1491D02*
D03*
X1411Y2514D02*
D03*
Y2414D02*
D03*
Y2314D02*
D03*
Y2214D02*
D03*
Y2114D02*
D03*
Y2014D02*
D03*
Y1914D02*
D03*
X1711Y2614D02*
D03*
Y2514D02*
D03*
Y2414D02*
D03*
Y2314D02*
D03*
Y2214D02*
D03*
Y2114D02*
D03*
Y2014D02*
D03*
Y1914D02*
D03*
X2471Y4389D02*
D03*
X3171D02*
D03*
X1861Y4309D02*
D03*
Y4409D02*
D03*
X1731Y4309D02*
D03*
Y4409D02*
D03*
X1701Y3049D02*
D03*
X1601D02*
D03*
X1731Y1309D02*
D03*
Y1409D02*
D03*
Y1509D02*
D03*
X4151Y3909D02*
D03*
Y3769D02*
D03*
X4031Y3454D02*
D03*
X4401D02*
D03*
X4301D02*
D03*
X4011Y4439D02*
D03*
X3151Y3599D02*
D03*
X3051D02*
D03*
X2951D02*
D03*
X2461D02*
D03*
X2561D02*
D03*
D49*
X1591Y1709D02*
D03*
X1861Y4209D02*
D03*
X1731D02*
D03*
Y1609D02*
D03*
D50*
X1701Y3269D02*
D03*
Y3369D02*
D03*
Y3469D02*
D03*
Y3569D02*
D03*
Y3669D02*
D03*
Y3769D02*
D03*
Y3869D02*
D03*
Y3969D02*
D03*
X1401Y3269D02*
D03*
Y3369D02*
D03*
Y3469D02*
D03*
Y3569D02*
D03*
Y3669D02*
D03*
Y3769D02*
D03*
Y3869D02*
D03*
D51*
Y3969D02*
D03*
D52*
X1411Y2614D02*
D03*
X2571Y4389D02*
D03*
X3071D02*
D03*
X1801Y3049D02*
D03*
X4251Y3909D02*
D03*
Y3769D02*
D03*
X3931Y3454D02*
D03*
X4201D02*
D03*
X3911Y4439D02*
D03*
X2851Y3599D02*
D03*
X2661D02*
D03*
D53*
X4426Y1174D02*
D03*
X1176D02*
D03*
Y4424D02*
D03*
X4426D02*
D03*
X3482Y1305D02*
D03*
X2132D02*
D03*
Y3855D02*
D03*
X3482D02*
D03*
D54*
X3032Y1478D02*
D03*
X2582D02*
D03*
Y3194D02*
D03*
X3032D02*
D03*
D55*
X3190Y4178D02*
D03*
D56*
Y4099D02*
D03*
X3111Y4178D02*
D03*
Y4099D02*
D03*
X3032Y4178D02*
D03*
Y4099D02*
D03*
X2953Y4178D02*
D03*
Y4099D02*
D03*
X2875Y4178D02*
D03*
Y4099D02*
D03*
X2796Y4178D02*
D03*
Y4099D02*
D03*
X2717Y4178D02*
D03*
Y4099D02*
D03*
X2638Y4178D02*
D03*
Y4099D02*
D03*
X2560Y4178D02*
D03*
Y4099D02*
D03*
X2481Y4178D02*
D03*
Y4099D02*
D03*
D57*
X4101Y4329D02*
D03*
X3825D02*
D03*
Y4132D02*
D03*
X4101D02*
D03*
D58*
X2116Y2068D02*
D03*
X4289Y3332D02*
D03*
X1874Y3519D02*
D03*
X2717Y4389D02*
D03*
M02*
