%FSLAX23Y23*%
%MOIN*%
G70*
G01*
G75*
G04 Layer_Color=32896*
%ADD10C,0.020*%
%ADD11C,0.060*%
%ADD12R,0.049X0.049*%
%ADD13C,0.049*%
%ADD14C,0.055*%
%ADD15R,0.067X0.067*%
%ADD16C,0.067*%
%ADD17R,0.063X0.063*%
%ADD18C,0.063*%
%ADD19R,0.049X0.049*%
%ADD20C,0.059*%
%ADD21R,0.059X0.059*%
%ADD22C,0.059*%
%ADD23R,0.059X0.059*%
%ADD24R,0.059X0.059*%
%ADD25C,0.250*%
%ADD26C,0.157*%
%ADD27R,0.046X0.046*%
%ADD28C,0.046*%
%ADD29O,0.024X0.039*%
%ADD30C,0.050*%
%ADD31C,0.015*%
%ADD32C,0.008*%
%ADD33C,0.010*%
%ADD34C,0.024*%
%ADD35C,0.010*%
%ADD36C,0.020*%
%ADD37C,0.008*%
%ADD38C,0.006*%
%ADD39C,0.068*%
%ADD40R,0.057X0.057*%
%ADD41C,0.057*%
%ADD42C,0.063*%
%ADD43R,0.075X0.075*%
%ADD44C,0.075*%
%ADD45R,0.071X0.071*%
%ADD46C,0.071*%
%ADD47R,0.057X0.057*%
%ADD48C,0.067*%
%ADD49R,0.067X0.067*%
%ADD50C,0.067*%
%ADD51R,0.067X0.067*%
%ADD52R,0.067X0.067*%
%ADD53C,0.258*%
%ADD54C,0.165*%
%ADD55R,0.054X0.054*%
%ADD56C,0.054*%
%ADD57O,0.032X0.047*%
%ADD58C,0.058*%
%ADD59C,0.001*%
D35*
X1000Y1000D02*
Y4600D01*
X4600D01*
Y1000D02*
Y4600D01*
X1000Y1000D02*
X4600D01*
X2827Y2244D02*
Y2250D01*
Y2244D02*
X2835Y2236D01*
X2788Y2305D02*
X2792Y2301D01*
X2769Y2305D02*
X2788D01*
X2764Y2310D02*
X2769Y2305D01*
X3332Y2214D02*
X3348Y2198D01*
X3316Y2197D02*
X3332Y2214D01*
X3124Y2208D02*
X3132Y2201D01*
X3310Y2599D02*
X3320Y2608D01*
X3338D01*
X3347Y2599D01*
Y2562D01*
X3338Y2553D01*
X3320D01*
X3310Y2562D01*
Y2580D01*
X3329D01*
X3292Y2553D02*
Y2608D01*
X3265D01*
X3255Y2599D01*
Y2580D01*
X3265Y2571D01*
X3292D01*
X3200Y2599D02*
X3210Y2608D01*
X3228D01*
X3237Y2599D01*
Y2590D01*
X3228Y2580D01*
X3210D01*
X3200Y2571D01*
Y2562D01*
X3210Y2553D01*
X3228D01*
X3237Y2562D01*
X3182Y2553D02*
X3145Y2590D01*
X3127Y2608D02*
X3109D01*
X3118D01*
Y2553D01*
X3127D01*
X3109D01*
X3081D02*
Y2608D01*
X3063Y2590D01*
X3045Y2608D01*
Y2553D01*
X3026Y2608D02*
Y2562D01*
X3017Y2553D01*
X2999D01*
X2990Y2562D01*
Y2608D01*
X2916D02*
Y2553D01*
X2889D01*
X2880Y2562D01*
Y2571D01*
X2889Y2580D01*
X2916D01*
X2889D01*
X2880Y2590D01*
Y2599D01*
X2889Y2608D01*
X2916D01*
X2852Y2553D02*
X2834D01*
X2825Y2562D01*
Y2580D01*
X2834Y2590D01*
X2852D01*
X2861Y2580D01*
Y2562D01*
X2852Y2553D01*
X2797Y2590D02*
X2779D01*
X2770Y2580D01*
Y2553D01*
X2797D01*
X2806Y2562D01*
X2797Y2571D01*
X2770D01*
X2751Y2590D02*
Y2553D01*
Y2571D01*
X2742Y2580D01*
X2733Y2590D01*
X2724D01*
X2660Y2608D02*
Y2553D01*
X2687D01*
X2696Y2562D01*
Y2580D01*
X2687Y2590D01*
X2660D01*
X2586D02*
X2568Y2553D01*
X2550Y2590D01*
X2531Y2553D02*
X2513D01*
X2522D01*
Y2608D01*
X2531Y2599D01*
X2486Y2553D02*
Y2562D01*
X2476D01*
Y2553D01*
X2486D01*
X2440D02*
X2421D01*
X2431D01*
Y2608D01*
X2440Y2599D01*
X3749Y2134D02*
Y2184D01*
X3724D01*
X3716Y2176D01*
Y2159D01*
X3724Y2151D01*
X3749D01*
X3691Y2184D02*
X3674D01*
X3666Y2176D01*
Y2151D01*
X3691D01*
X3699Y2159D01*
X3691Y2168D01*
X3666D01*
X3649Y2184D02*
Y2151D01*
Y2168D01*
X3641Y2176D01*
X3632Y2184D01*
X3624D01*
X3591D02*
X3574D01*
X3566Y2176D01*
Y2151D01*
X3591D01*
X3599Y2159D01*
X3591Y2168D01*
X3566D01*
X3499Y2184D02*
Y2151D01*
Y2168D01*
X3491Y2176D01*
X3482Y2184D01*
X3474D01*
X3441Y2151D02*
X3424D01*
X3416Y2159D01*
Y2176D01*
X3424Y2184D01*
X3441D01*
X3449Y2176D01*
Y2159D01*
X3441Y2151D01*
X3399Y2201D02*
Y2151D01*
X3374D01*
X3366Y2159D01*
Y2168D01*
Y2176D01*
X3374Y2184D01*
X3399D01*
X3341Y2151D02*
X3324D01*
X3316Y2159D01*
Y2176D01*
X3324Y2184D01*
X3341D01*
X3349Y2176D01*
Y2159D01*
X3341Y2151D01*
X3299D02*
X3274D01*
X3266Y2159D01*
X3274Y2168D01*
X3291D01*
X3299Y2176D01*
X3291Y2184D01*
X3266D01*
X3199Y2151D02*
Y2184D01*
X3191D01*
X3183Y2176D01*
Y2151D01*
Y2176D01*
X3174Y2184D01*
X3166Y2176D01*
Y2151D01*
X3141D02*
X3124D01*
X3116Y2159D01*
Y2176D01*
X3124Y2184D01*
X3141D01*
X3149Y2176D01*
Y2159D01*
X3141Y2151D01*
X3099Y2184D02*
X3083Y2151D01*
X3066Y2184D01*
X3024Y2151D02*
X3041D01*
X3049Y2159D01*
Y2176D01*
X3041Y2184D01*
X3024D01*
X3016Y2176D01*
Y2168D01*
X3049D01*
X2999Y2151D02*
X2983D01*
X2991D01*
Y2184D01*
X2999D01*
X2958Y2151D02*
X2933D01*
X2924Y2159D01*
X2933Y2168D01*
X2949D01*
X2958Y2176D01*
X2949Y2184D01*
X2924D01*
X2833Y2151D02*
X2849D01*
X2858Y2159D01*
Y2176D01*
X2849Y2184D01*
X2833D01*
X2824Y2176D01*
Y2168D01*
X2858D01*
X2808Y2151D02*
Y2184D01*
X2799D01*
X2791Y2176D01*
Y2151D01*
Y2176D01*
X2783Y2184D01*
X2774Y2176D01*
Y2151D01*
X2699Y2184D02*
X2683D01*
X2674Y2176D01*
Y2151D01*
X2699D01*
X2708Y2159D01*
X2699Y2168D01*
X2674D01*
X2658Y2151D02*
Y2184D01*
X2649D01*
X2641Y2176D01*
Y2151D01*
Y2176D01*
X2633Y2184D01*
X2624Y2176D01*
Y2151D01*
X2608Y2201D02*
Y2151D01*
X2583D01*
X2574Y2159D01*
Y2168D01*
Y2176D01*
X2583Y2184D01*
X2608D01*
X2558Y2151D02*
X2541D01*
X2549D01*
Y2184D01*
X2558D01*
X2491Y2151D02*
X2508D01*
X2516Y2159D01*
Y2176D01*
X2508Y2184D01*
X2491D01*
X2483Y2176D01*
Y2168D01*
X2516D01*
X2466Y2151D02*
Y2184D01*
X2441D01*
X2433Y2176D01*
Y2151D01*
X2408Y2193D02*
Y2184D01*
X2416D01*
X2399D01*
X2408D01*
Y2159D01*
X2399Y2151D01*
X2349D02*
X2366D01*
X2374Y2159D01*
Y2176D01*
X2366Y2184D01*
X2349D01*
X2341Y2176D01*
Y2168D01*
X2374D01*
X2249Y2151D02*
X2266D01*
X2274Y2159D01*
Y2176D01*
X2266Y2184D01*
X2249D01*
X2241Y2176D01*
Y2168D01*
X2274D01*
X2224Y2184D02*
X2191Y2151D01*
X2208Y2168D01*
X2191Y2184D01*
X2224Y2151D01*
X2166Y2193D02*
Y2184D01*
X2175D01*
X2158D01*
X2166D01*
Y2159D01*
X2158Y2151D01*
X2108D02*
X2125D01*
X2133Y2159D01*
Y2176D01*
X2125Y2184D01*
X2108D01*
X2100Y2176D01*
Y2168D01*
X2133D01*
X2083Y2184D02*
Y2151D01*
Y2168D01*
X2075Y2176D01*
X2066Y2184D01*
X2058D01*
X2033Y2151D02*
Y2184D01*
X2008D01*
X2000Y2176D01*
Y2151D01*
X1975D02*
X1958D01*
X1950Y2159D01*
Y2176D01*
X1958Y2184D01*
X1975D01*
X1983Y2176D01*
Y2159D01*
X1975Y2151D01*
X3721Y2295D02*
X3729Y2303D01*
X3746D01*
X3754Y2295D01*
Y2286D01*
X3746Y2278D01*
X3729D01*
X3721Y2270D01*
Y2261D01*
X3729Y2253D01*
X3746D01*
X3754Y2261D01*
X3704Y2253D02*
X3687D01*
X3696D01*
Y2286D01*
X3704D01*
X3662Y2253D02*
X3637D01*
X3629Y2261D01*
X3637Y2270D01*
X3654D01*
X3662Y2278D01*
X3654Y2286D01*
X3629D01*
X3604Y2295D02*
Y2286D01*
X3612D01*
X3596D01*
X3604D01*
Y2261D01*
X3596Y2253D01*
X3546D02*
X3562D01*
X3571Y2261D01*
Y2278D01*
X3562Y2286D01*
X3546D01*
X3537Y2278D01*
Y2270D01*
X3571D01*
X3521Y2253D02*
Y2286D01*
X3512D01*
X3504Y2278D01*
Y2253D01*
Y2278D01*
X3496Y2286D01*
X3487Y2278D01*
Y2253D01*
X3462Y2286D02*
X3446D01*
X3437Y2278D01*
Y2253D01*
X3462D01*
X3471Y2261D01*
X3462Y2270D01*
X3437D01*
X3337Y2303D02*
Y2253D01*
X3362D01*
X3371Y2261D01*
Y2278D01*
X3362Y2286D01*
X3337D01*
X3296Y2253D02*
X3312D01*
X3321Y2261D01*
Y2278D01*
X3312Y2286D01*
X3296D01*
X3287Y2278D01*
Y2270D01*
X3321D01*
X3221Y2253D02*
X3204D01*
X3213D01*
Y2303D01*
X3221D01*
X3171Y2253D02*
X3154D01*
X3146Y2261D01*
Y2278D01*
X3154Y2286D01*
X3171D01*
X3179Y2278D01*
Y2261D01*
X3171Y2253D01*
X3096Y2286D02*
X3121D01*
X3129Y2278D01*
Y2261D01*
X3121Y2253D01*
X3096D01*
X3071Y2286D02*
X3054D01*
X3046Y2278D01*
Y2253D01*
X3071D01*
X3079Y2261D01*
X3071Y2270D01*
X3046D01*
X3029Y2253D02*
X3013D01*
X3021D01*
Y2303D01*
X3029D01*
X2988Y2253D02*
X2971D01*
X2979D01*
Y2286D01*
X2988D01*
X2946D02*
X2913D01*
X2946Y2253D01*
X2913D01*
X2888Y2286D02*
X2871D01*
X2863Y2278D01*
Y2253D01*
X2888D01*
X2896Y2261D01*
X2888Y2270D01*
X2863D01*
X2813Y2286D02*
X2838D01*
X2846Y2278D01*
Y2261D01*
X2838Y2253D01*
X2813D01*
X2788Y2286D02*
X2771D01*
X2763Y2278D01*
Y2253D01*
X2788D01*
X2796Y2261D01*
X2788Y2270D01*
X2763D01*
X2738Y2253D02*
X2721D01*
X2713Y2261D01*
Y2278D01*
X2721Y2286D01*
X2738D01*
X2746Y2278D01*
Y2261D01*
X2738Y2253D01*
X2646Y2236D02*
Y2286D01*
X2621D01*
X2613Y2278D01*
Y2261D01*
X2621Y2253D01*
X2646D01*
X2588D02*
X2571D01*
X2563Y2261D01*
Y2278D01*
X2571Y2286D01*
X2588D01*
X2596Y2278D01*
Y2261D01*
X2588Y2253D01*
X2546Y2286D02*
Y2253D01*
Y2270D01*
X2538Y2278D01*
X2529Y2286D01*
X2521D01*
X2413Y2295D02*
X2421Y2303D01*
X2438D01*
X2446Y2295D01*
Y2261D01*
X2438Y2253D01*
X2421D01*
X2413Y2261D01*
Y2278D01*
X2429D01*
X2396Y2253D02*
Y2303D01*
X2371D01*
X2363Y2295D01*
Y2278D01*
X2371Y2270D01*
X2396D01*
X2313Y2295D02*
X2321Y2303D01*
X2338D01*
X2346Y2295D01*
Y2286D01*
X2338Y2278D01*
X2321D01*
X2313Y2270D01*
Y2261D01*
X2321Y2253D01*
X2338D01*
X2346Y2261D01*
X2296Y2253D02*
X2263Y2286D01*
X2246Y2303D02*
Y2261D01*
X2238Y2253D01*
X2221D01*
X2213Y2261D01*
Y2303D01*
X2196Y2253D02*
Y2303D01*
X2180Y2286D01*
X2163Y2303D01*
Y2253D01*
X2146Y2303D02*
X2130D01*
X2138D01*
Y2253D01*
X2146D01*
X2130D01*
X3227Y2495D02*
X3235Y2503D01*
X3252D01*
X3260Y2495D01*
Y2461D01*
X3252Y2453D01*
X3235D01*
X3227Y2461D01*
Y2478D01*
X3243D01*
X3185Y2453D02*
X3202D01*
X3210Y2461D01*
Y2478D01*
X3202Y2486D01*
X3185D01*
X3177Y2478D01*
Y2470D01*
X3210D01*
X3152Y2453D02*
X3135D01*
X3127Y2461D01*
Y2478D01*
X3135Y2486D01*
X3152D01*
X3160Y2478D01*
Y2461D01*
X3152Y2453D01*
X3110Y2486D02*
Y2453D01*
Y2470D01*
X3102Y2478D01*
X3093Y2486D01*
X3085D01*
X3043Y2436D02*
X3035D01*
X3027Y2445D01*
Y2486D01*
X3052D01*
X3060Y2478D01*
Y2461D01*
X3052Y2453D01*
X3027D01*
X2985D02*
X3002D01*
X3010Y2461D01*
Y2478D01*
X3002Y2486D01*
X2985D01*
X2977Y2478D01*
Y2470D01*
X3010D01*
X2910Y2503D02*
Y2453D01*
X2885D01*
X2877Y2461D01*
Y2470D01*
X2885Y2478D01*
X2910D01*
X2885D01*
X2877Y2486D01*
Y2495D01*
X2885Y2503D01*
X2910D01*
X2860Y2486D02*
Y2453D01*
Y2470D01*
X2852Y2478D01*
X2843Y2486D01*
X2835D01*
X2810Y2453D02*
X2793D01*
X2802D01*
Y2486D01*
X2810D01*
X2768Y2453D02*
Y2486D01*
X2744D01*
X2735Y2478D01*
Y2453D01*
X2685Y2503D02*
Y2453D01*
X2710D01*
X2719Y2461D01*
Y2478D01*
X2710Y2486D01*
X2685D01*
X2644Y2453D02*
X2660D01*
X2669Y2461D01*
Y2478D01*
X2660Y2486D01*
X2644D01*
X2635Y2478D01*
Y2470D01*
X2669D01*
X2619Y2453D02*
X2602D01*
X2610D01*
Y2486D01*
X2619D01*
X2577D02*
Y2453D01*
Y2470D01*
X2569Y2478D01*
X2560Y2486D01*
X2552D01*
X2519Y2453D02*
X2502D01*
X2494Y2461D01*
Y2478D01*
X2502Y2486D01*
X2519D01*
X2527Y2478D01*
Y2461D01*
X2519Y2453D01*
D36*
X1887Y2711D02*
X3802D01*
X1887Y2061D02*
Y2711D01*
Y2061D02*
X3802D01*
Y2711D01*
D59*
X2154Y2445D02*
X2349D01*
X1949D02*
X2144D01*
X2154Y2446D02*
X2349D01*
X1949D02*
X2144D01*
X2154Y2447D02*
X2349D01*
X1949D02*
X2144D01*
X2154Y2448D02*
X2349D01*
X1949D02*
X2144D01*
X2154Y2449D02*
X2349D01*
X1949D02*
X2144D01*
X2154Y2450D02*
X2349D01*
X1949D02*
X2144D01*
X2154Y2451D02*
X2349D01*
X1949D02*
X2144D01*
X2154Y2452D02*
X2349D01*
X1949D02*
X2144D01*
X2154Y2453D02*
X2349D01*
X1949D02*
X2144D01*
X2154Y2454D02*
X2349D01*
X1949D02*
X2144D01*
X2154Y2455D02*
X2349D01*
X1949D02*
X2144D01*
X2154Y2456D02*
X2349D01*
X1949D02*
X2144D01*
X2154Y2457D02*
X2349D01*
X1949D02*
X2144D01*
X2154Y2458D02*
X2349D01*
X1949D02*
X2144D01*
X2154Y2459D02*
X2349D01*
X1949D02*
X2144D01*
X2154Y2460D02*
X2349D01*
X1949D02*
X2144D01*
X2154Y2461D02*
X2349D01*
X1949D02*
X2144D01*
X2154Y2462D02*
X2349D01*
X1949D02*
X2144D01*
X2154Y2463D02*
X2349D01*
X1949D02*
X2144D01*
X2154Y2464D02*
X2349D01*
X1949D02*
X2144D01*
X2154Y2465D02*
X2349D01*
X1949D02*
X2144D01*
X2154Y2466D02*
X2349D01*
X1949D02*
X2144D01*
X2154Y2467D02*
X2349D01*
X1949D02*
X2144D01*
X2154Y2468D02*
X2349D01*
X1949D02*
X2144D01*
X2154Y2469D02*
X2349D01*
X1949D02*
X2144D01*
X2154Y2470D02*
X2349D01*
X1949D02*
X2144D01*
X2154Y2471D02*
X2349D01*
X1949D02*
X2144D01*
X2154Y2472D02*
X2349D01*
X1949D02*
X2144D01*
X2154Y2473D02*
X2349D01*
X1949D02*
X2144D01*
X2154Y2474D02*
X2349D01*
X1949D02*
X2144D01*
X2154Y2475D02*
X2349D01*
X1949D02*
X2144D01*
X2154Y2476D02*
X2349D01*
X1949D02*
X2144D01*
X2154Y2477D02*
X2349D01*
X1949D02*
X2144D01*
X2154Y2478D02*
X2349D01*
X1949D02*
X2144D01*
X2154Y2479D02*
X2349D01*
X1949D02*
X2144D01*
X2154Y2480D02*
X2349D01*
X1949D02*
X2144D01*
X2154Y2481D02*
X2349D01*
X1949D02*
X2144D01*
X2154Y2482D02*
X2349D01*
X1949D02*
X2144D01*
X2154Y2483D02*
X2349D01*
X1949D02*
X2144D01*
X2154Y2484D02*
X2349D01*
X1949D02*
X2144D01*
X2154Y2485D02*
X2349D01*
X1949D02*
X2144D01*
X2154Y2486D02*
X2349D01*
X1949D02*
X2144D01*
X2154Y2487D02*
X2349D01*
X1949D02*
X2144D01*
X2154Y2488D02*
X2349D01*
X1949D02*
X2144D01*
X2154Y2489D02*
X2349D01*
X1949D02*
X2144D01*
X2154Y2490D02*
X2349D01*
X1949D02*
X2144D01*
X2154Y2491D02*
X2349D01*
X1949D02*
X2144D01*
X2154Y2492D02*
X2349D01*
X1949D02*
X2144D01*
X2154Y2493D02*
X2349D01*
X1949D02*
X2144D01*
X2154Y2494D02*
X2349D01*
X1949D02*
X2144D01*
X2154Y2495D02*
X2349D01*
X1949D02*
X2144D01*
X2154Y2496D02*
X2349D01*
X1949D02*
X2144D01*
X2154Y2497D02*
X2349D01*
X1949D02*
X2144D01*
X2154Y2498D02*
X2349D01*
X1949D02*
X2144D01*
X2154Y2499D02*
X2349D01*
X1949D02*
X2144D01*
X2154Y2500D02*
X2349D01*
X1949D02*
X2144D01*
X2154Y2501D02*
X2349D01*
X1949D02*
X2144D01*
X2154Y2502D02*
X2349D01*
X1949D02*
X2144D01*
X2154Y2503D02*
X2349D01*
X1949D02*
X2144D01*
X2154Y2504D02*
X2349D01*
X1949D02*
X2144D01*
X2154Y2505D02*
X2349D01*
X1949D02*
X2144D01*
X2154Y2506D02*
X2349D01*
X1949D02*
X2144D01*
X2154Y2507D02*
X2349D01*
X1949D02*
X2144D01*
X2154Y2508D02*
X2349D01*
X1949D02*
X2144D01*
X2154Y2509D02*
X2349D01*
X1949D02*
X2144D01*
X2154Y2510D02*
X2349D01*
X1949D02*
X2144D01*
X2154Y2511D02*
X2349D01*
X1949D02*
X2144D01*
X2154Y2512D02*
X2349D01*
X1949D02*
X2144D01*
X2154Y2513D02*
X2349D01*
X1949D02*
X2144D01*
X2154Y2514D02*
X2349D01*
X1949D02*
X2144D01*
X2154Y2515D02*
X2349D01*
X1949D02*
X2144D01*
X2154Y2516D02*
X2349D01*
X1949D02*
X2144D01*
X2154Y2517D02*
X2349D01*
X1949D02*
X2144D01*
X2154Y2518D02*
X2349D01*
X1949D02*
X2144D01*
X2154Y2519D02*
X2349D01*
X1949D02*
X2144D01*
X2154Y2520D02*
X2349D01*
X1949D02*
X2144D01*
X2154Y2521D02*
X2349D01*
X1949D02*
X2144D01*
X2154Y2522D02*
X2349D01*
X1949D02*
X2144D01*
X2169Y2523D02*
X2349D01*
X1949D02*
X2128D01*
X2182Y2524D02*
X2349D01*
X1949D02*
X2116D01*
X2190Y2525D02*
X2349D01*
X1949D02*
X2108D01*
X2196Y2526D02*
X2349D01*
X1949D02*
X2102D01*
X2198Y2527D02*
X2349D01*
X1949D02*
X2100D01*
X2203Y2528D02*
X2349D01*
X1949D02*
X2095D01*
X2206Y2529D02*
X2349D01*
X1949D02*
X2091D01*
X2210Y2530D02*
X2349D01*
X1949D02*
X2088D01*
X2212Y2531D02*
X2349D01*
X1949D02*
X2086D01*
X2215Y2532D02*
X2349D01*
X1949D02*
X2083D01*
X2218Y2533D02*
X2349D01*
X1949D02*
X2080D01*
X2220Y2534D02*
X2349D01*
X2154D02*
X2175D01*
X2123D02*
X2143D01*
X1949D02*
X2078D01*
X2221Y2535D02*
X2349D01*
X2154D02*
X2179D01*
X2118D02*
X2144D01*
X1949D02*
X2076D01*
X2224Y2536D02*
X2349D01*
X2154D02*
X2188D01*
X2110D02*
X2144D01*
X1949D02*
X2074D01*
X2227Y2537D02*
X2349D01*
X2154D02*
X2194D01*
X2104D02*
X2144D01*
X1949D02*
X2071D01*
X2229Y2538D02*
X2349D01*
X2154D02*
X2198D01*
X2100D02*
X2144D01*
X1949D02*
X2069D01*
X2232Y2539D02*
X2349D01*
X2154D02*
X2202D01*
X2096D02*
X2144D01*
X1949D02*
X2066D01*
X2233Y2540D02*
X2349D01*
X2154D02*
X2204D01*
X2093D02*
X2144D01*
X1949D02*
X2065D01*
X2235Y2541D02*
X2349D01*
X2154D02*
X2208D01*
X2090D02*
X2144D01*
X1949D02*
X2062D01*
X2237Y2542D02*
X2349D01*
X2154D02*
X2211D01*
X2087D02*
X2144D01*
X1949D02*
X2060D01*
X2240Y2543D02*
X2349D01*
X2154D02*
X2214D01*
X2084D02*
X2144D01*
X1949D02*
X2058D01*
X2241Y2544D02*
X2349D01*
X2154D02*
X2215D01*
X2083D02*
X2144D01*
X1949D02*
X2057D01*
X2243Y2545D02*
X2349D01*
X2154D02*
X2218D01*
X2080D02*
X2144D01*
X1949D02*
X2054D01*
X2245Y2546D02*
X2349D01*
X2154D02*
X2220D01*
X2078D02*
X2144D01*
X1949D02*
X2053D01*
X2247Y2547D02*
X2349D01*
X2154D02*
X2223D01*
X2075D02*
X2144D01*
X1949D02*
X2051D01*
X2249Y2548D02*
X2349D01*
X2154D02*
X2224D01*
X2074D02*
X2144D01*
X1949D02*
X2049D01*
X2250Y2549D02*
X2349D01*
X2154D02*
X2227D01*
X2071D02*
X2144D01*
X1949D02*
X2047D01*
X2253Y2550D02*
X2349D01*
X2154D02*
X2229D01*
X2069D02*
X2144D01*
X1949D02*
X2045D01*
X2255Y2551D02*
X2349D01*
X2154D02*
X2231D01*
X2066D02*
X2144D01*
X1949D02*
X2043D01*
X2256Y2552D02*
X2349D01*
X2154D02*
X2233D01*
X2064D02*
X2144D01*
X1949D02*
X2041D01*
X2258Y2553D02*
X2349D01*
X2154D02*
X2234D01*
X2063D02*
X2144D01*
X1949D02*
X2040D01*
X2259Y2554D02*
X2349D01*
X2154D02*
X2237D01*
X2061D02*
X2144D01*
X1949D02*
X2038D01*
X2262Y2555D02*
X2349D01*
X2154D02*
X2239D01*
X2058D02*
X2144D01*
X1949D02*
X2036D01*
X2263Y2556D02*
X2349D01*
X2154D02*
X2241D01*
X2057D02*
X2144D01*
X1949D02*
X2035D01*
X2264Y2557D02*
X2349D01*
X2154D02*
X2242D01*
X2056D02*
X2144D01*
X1949D02*
X2034D01*
X2266Y2558D02*
X2349D01*
X2154D02*
X2245D01*
X2053D02*
X2144D01*
X1949D02*
X2032D01*
X2268Y2559D02*
X2349D01*
X2154D02*
X2246D01*
X2051D02*
X2144D01*
X1949D02*
X2030D01*
X2269Y2560D02*
X2349D01*
X2154D02*
X2249D01*
X2049D02*
X2144D01*
X1949D02*
X2028D01*
X2272Y2561D02*
X2349D01*
X2154D02*
X2250D01*
X2047D02*
X2144D01*
X1949D02*
X2026D01*
X2272Y2562D02*
X2349D01*
X2154D02*
X2251D01*
X2047D02*
X2144D01*
X1949D02*
X2026D01*
X2274Y2563D02*
X2349D01*
X2154D02*
X2254D01*
X2044D02*
X2144D01*
X1949D02*
X2023D01*
X2276Y2564D02*
X2349D01*
X2154D02*
X2255D01*
X2043D02*
X2144D01*
X1949D02*
X2022D01*
X2277Y2565D02*
X2349D01*
X2154D02*
X2257D01*
X2040D02*
X2144D01*
X1949D02*
X2020D01*
X2278Y2566D02*
X2349D01*
X2154D02*
X2258D01*
X2040D02*
X2144D01*
X1949D02*
X2020D01*
X2280Y2567D02*
X2349D01*
X2154D02*
X2260D01*
X2038D02*
X2144D01*
X1949D02*
X2018D01*
X2282Y2568D02*
X2349D01*
X2154D02*
X2262D01*
X2036D02*
X2144D01*
X1949D02*
X2016D01*
X2283Y2569D02*
X2349D01*
X2154D02*
X2264D01*
X2034D02*
X2144D01*
X1949D02*
X2014D01*
X2284Y2570D02*
X2349D01*
X2154D02*
X2264D01*
X2034D02*
X2144D01*
X1949D02*
X2014D01*
X2286Y2571D02*
X2349D01*
X2154D02*
X2266D01*
X2031D02*
X2144D01*
X1949D02*
X2012D01*
X2287Y2572D02*
X2349D01*
X2154D02*
X2268D01*
X2030D02*
X2144D01*
X1949D02*
X2010D01*
X2289Y2573D02*
X2349D01*
X2154D02*
X2269D01*
X2028D02*
X2144D01*
X1949D02*
X2009D01*
X2290Y2574D02*
X2349D01*
X2154D02*
X2271D01*
X2026D02*
X2144D01*
X1949D02*
X2008D01*
X2291Y2575D02*
X2349D01*
X2154D02*
X2272D01*
X2026D02*
X2144D01*
X1949D02*
X2007D01*
X2293Y2576D02*
X2349D01*
X2154D02*
X2274D01*
X2024D02*
X2144D01*
X1949D02*
X2005D01*
X2294Y2577D02*
X2349D01*
X2154D02*
X2276D01*
X2022D02*
X2144D01*
X1949D02*
X2004D01*
X2296Y2578D02*
X2349D01*
X2154D02*
X2277D01*
X2021D02*
X2144D01*
X1949D02*
X2002D01*
X2297Y2579D02*
X2349D01*
X2154D02*
X2278D01*
X2020D02*
X2144D01*
X1949D02*
X2001D01*
X2298Y2580D02*
X2349D01*
X2154D02*
X2280D01*
X2018D02*
X2144D01*
X1949D02*
X2000D01*
X2300Y2581D02*
X2349D01*
X2154D02*
X2281D01*
X2017D02*
X2144D01*
X1949D02*
X1998D01*
X2301Y2582D02*
X2349D01*
X2154D02*
X2282D01*
X2015D02*
X2144D01*
X1949D02*
X1996D01*
X2303Y2583D02*
X2349D01*
X2154D02*
X2284D01*
X2013D02*
X2144D01*
X1949D02*
X1995D01*
X2304Y2584D02*
X2349D01*
X2154D02*
X2285D01*
X2013D02*
X2144D01*
X1949D02*
X1994D01*
X2305Y2585D02*
X2349D01*
X2154D02*
X2286D01*
X2011D02*
X2144D01*
X1949D02*
X1992D01*
X2307Y2586D02*
X2349D01*
X2154D02*
X2288D01*
X2009D02*
X2144D01*
X1949D02*
X1991D01*
X2308Y2587D02*
X2349D01*
X2154D02*
X2290D01*
X2008D02*
X2144D01*
X1949D02*
X1990D01*
X2309Y2588D02*
X2349D01*
X2154D02*
X2290D01*
X2007D02*
X2144D01*
X1949D02*
X1988D01*
X2311Y2589D02*
X2349D01*
X2154D02*
X2292D01*
X2006D02*
X2144D01*
X1949D02*
X1987D01*
X2312Y2590D02*
X2349D01*
X2154D02*
X2294D01*
X2004D02*
X2144D01*
X1949D02*
X1986D01*
X2314Y2591D02*
X2349D01*
X2154D02*
X2295D01*
X2003D02*
X2144D01*
X1949D02*
X1984D01*
X2315Y2592D02*
X2349D01*
X2154D02*
X2296D01*
X2002D02*
X2144D01*
X1949D02*
X1983D01*
X2316Y2593D02*
X2349D01*
X2154D02*
X2298D01*
X2000D02*
X2144D01*
X1949D02*
X1982D01*
X2318Y2594D02*
X2349D01*
X2154D02*
X2299D01*
X1999D02*
X2144D01*
X1949D02*
X1980D01*
X2319Y2595D02*
X2349D01*
X2154D02*
X2300D01*
X1997D02*
X2144D01*
X1949D02*
X1978D01*
X2321Y2596D02*
X2349D01*
X2154D02*
X2302D01*
X1996D02*
X2144D01*
X1949D02*
X1977D01*
X2321Y2597D02*
X2349D01*
X2154D02*
X2303D01*
X1995D02*
X2144D01*
X1949D02*
X1976D01*
X2323Y2598D02*
X2349D01*
X2154D02*
X2304D01*
X1993D02*
X2144D01*
X1949D02*
X1974D01*
X2325Y2599D02*
X2349D01*
X2154D02*
X2306D01*
X1992D02*
X2144D01*
X1949D02*
X1973D01*
X2326Y2600D02*
X2349D01*
X2154D02*
X2308D01*
X1990D02*
X2144D01*
X1949D02*
X1972D01*
X2327Y2601D02*
X2349D01*
X2154D02*
X2308D01*
X1989D02*
X2144D01*
X1949D02*
X1971D01*
X2329Y2602D02*
X2349D01*
X2154D02*
X2310D01*
X1988D02*
X2144D01*
X1949D02*
X1969D01*
X2330Y2603D02*
X2349D01*
X2154D02*
X2312D01*
X1986D02*
X2144D01*
X1949D02*
X1968D01*
X2331Y2604D02*
X2349D01*
X2154D02*
X2313D01*
X1985D02*
X2144D01*
X1949D02*
X1966D01*
X2333Y2605D02*
X2349D01*
X2154D02*
X2314D01*
X1984D02*
X2144D01*
X1949D02*
X1965D01*
X2334Y2606D02*
X2349D01*
X2154D02*
X2316D01*
X1982D02*
X2144D01*
X1949D02*
X1964D01*
X2335Y2607D02*
X2349D01*
X2154D02*
X2317D01*
X1981D02*
X2144D01*
X1949D02*
X1962D01*
X2337Y2608D02*
X2349D01*
X2154D02*
X2319D01*
X1979D02*
X2144D01*
X1949D02*
X1961D01*
X2339Y2609D02*
X2349D01*
X2154D02*
X2320D01*
X1978D02*
X2144D01*
X1949D02*
X1959D01*
X2339Y2610D02*
X2349D01*
X2154D02*
X2321D01*
X1977D02*
X2144D01*
X1949D02*
X1958D01*
X2341Y2611D02*
X2349D01*
X2154D02*
X2322D01*
X1976D02*
X2144D01*
X1949D02*
X1957D01*
X2343Y2612D02*
X2349D01*
X2154D02*
X2324D01*
X1974D02*
X2144D01*
X1949D02*
X1955D01*
X2344Y2613D02*
X2349D01*
X2154D02*
X2326D01*
X1972D02*
X2144D01*
X1949D02*
X1953D01*
X2345Y2614D02*
X2349D01*
X2154D02*
X2326D01*
X1972D02*
X2144D01*
X1949D02*
X1953D01*
X2347Y2615D02*
X2349D01*
X2154D02*
X2328D01*
X1970D02*
X2144D01*
X1949D02*
X1951D01*
X2348Y2616D02*
X2349D01*
X2154D02*
X2329D01*
X1968D02*
X2144D01*
X1949D02*
X1950D01*
X2154Y2617D02*
X2331D01*
X1966D02*
X2144D01*
X2154Y2618D02*
X2333D01*
X1965D02*
X2144D01*
X2154Y2619D02*
X2333D01*
X1964D02*
X2144D01*
X2154Y2620D02*
X2335D01*
X1963D02*
X2144D01*
X2154Y2621D02*
X2337D01*
X1961D02*
X2144D01*
X2154Y2622D02*
X2338D01*
X1960D02*
X2144D01*
X2154Y2623D02*
X2339D01*
X1959D02*
X2144D01*
X2154Y2624D02*
X2341D01*
X1957D02*
X2144D01*
X2154Y2625D02*
X2342D01*
X1956D02*
X2144D01*
X2154Y2626D02*
X2343D01*
X1954D02*
X2144D01*
X2154Y2627D02*
X2344D01*
X1953D02*
X2144D01*
X2154Y2628D02*
X2346D01*
X1952D02*
X2144D01*
X2154Y2629D02*
X2347D01*
X1950D02*
X2144D01*
X2154Y2630D02*
X2349D01*
X1949D02*
X2144D01*
X2154Y2631D02*
X2349D01*
X1949D02*
X2144D01*
X2154Y2632D02*
X2349D01*
X1949D02*
X2144D01*
X2154Y2633D02*
X2349D01*
X1949D02*
X2144D01*
X2154Y2634D02*
X2349D01*
X1949D02*
X2144D01*
X2154Y2635D02*
X2349D01*
X1949D02*
X2144D01*
X2154Y2636D02*
X2349D01*
X1949D02*
X2144D01*
X2154Y2637D02*
X2349D01*
X1949D02*
X2144D01*
X2154Y2638D02*
X2349D01*
X1949D02*
X2144D01*
X2154Y2639D02*
X2349D01*
X1949D02*
X2144D01*
X2154Y2640D02*
X2349D01*
X1949D02*
X2144D01*
X2154Y2641D02*
X2349D01*
X1949D02*
X2144D01*
X2154Y2642D02*
X2349D01*
X1949D02*
X2144D01*
X2154Y2643D02*
X2349D01*
X1949D02*
X2144D01*
X2154Y2644D02*
X2349D01*
X1949D02*
X2144D01*
X3470Y2648D02*
X3582D01*
X3470Y2568D02*
X3582D01*
X3745Y2488D02*
X3756D01*
X3621D02*
X3638D01*
X3573D02*
X3584D01*
X3516D02*
X3530D01*
X3466D02*
X3477D01*
X3412D02*
X3430D01*
X3470Y2676D02*
X3582D01*
X3470Y2675D02*
X3582D01*
X3470Y2674D02*
X3582D01*
X3470Y2673D02*
X3582D01*
X3470Y2672D02*
X3582D01*
X3470Y2671D02*
X3582D01*
X3470Y2670D02*
X3582D01*
X3470Y2669D02*
X3582D01*
X3470Y2668D02*
X3582D01*
X3470Y2667D02*
X3582D01*
X3470Y2666D02*
X3582D01*
X3470Y2665D02*
X3582D01*
X3470Y2664D02*
X3582D01*
X3470Y2663D02*
X3582D01*
X3470Y2662D02*
X3582D01*
X3470Y2661D02*
X3582D01*
X3470Y2660D02*
X3582D01*
X3470Y2659D02*
X3582D01*
X3470Y2658D02*
X3582D01*
X3470Y2657D02*
X3582D01*
X3470Y2656D02*
X3582D01*
X3470Y2655D02*
X3582D01*
X3470Y2654D02*
X3582D01*
X3470Y2653D02*
X3582D01*
X3470Y2652D02*
X3582D01*
X3470Y2651D02*
X3582D01*
X3470Y2650D02*
X3582D01*
X3470Y2649D02*
X3582D01*
X3470Y2646D02*
X3582D01*
X3470Y2647D02*
X3582D01*
X3470Y2641D02*
X3582D01*
X3470Y2627D02*
X3582D01*
X3470Y2640D02*
X3582D01*
X3470Y2639D02*
X3582D01*
X3470Y2638D02*
X3582D01*
X3470Y2637D02*
X3582D01*
X3470Y2636D02*
X3582D01*
X3470Y2635D02*
X3582D01*
X3470Y2634D02*
X3582D01*
X3470Y2633D02*
X3582D01*
X3470Y2632D02*
X3582D01*
X3470Y2631D02*
X3582D01*
X3470Y2630D02*
X3582D01*
X3470Y2629D02*
X3582D01*
X3470Y2628D02*
X3582D01*
X3470Y2626D02*
X3582D01*
X3470Y2625D02*
X3582D01*
X3470Y2624D02*
X3582D01*
X3470Y2623D02*
X3582D01*
X3470Y2622D02*
X3582D01*
X3470Y2621D02*
X3582D01*
X3470Y2620D02*
X3582D01*
X3470Y2619D02*
X3582D01*
X3470Y2618D02*
X3582D01*
X3470Y2617D02*
X3582D01*
X3470Y2616D02*
X3582D01*
X3470Y2615D02*
X3582D01*
X3470Y2614D02*
X3582D01*
X3470Y2613D02*
X3582D01*
X3470Y2612D02*
X3582D01*
X3470Y2611D02*
X3582D01*
X3470Y2610D02*
X3582D01*
X3470Y2609D02*
X3582D01*
X3470Y2608D02*
X3582D01*
X3470Y2607D02*
X3582D01*
X3470Y2606D02*
X3582D01*
X3470Y2605D02*
X3582D01*
X3470Y2604D02*
X3582D01*
X3470Y2603D02*
X3582D01*
X3470Y2602D02*
X3582D01*
X3470Y2601D02*
X3582D01*
X3470Y2600D02*
X3582D01*
X3470Y2599D02*
X3582D01*
X3470Y2598D02*
X3582D01*
X3470Y2597D02*
X3582D01*
X3470Y2596D02*
X3582D01*
X3470Y2595D02*
X3582D01*
X3470Y2594D02*
X3582D01*
X3470Y2593D02*
X3582D01*
X3470Y2592D02*
X3582D01*
X3470Y2591D02*
X3582D01*
X3470Y2590D02*
X3582D01*
X3470Y2589D02*
X3582D01*
X3470Y2588D02*
X3582D01*
X3470Y2587D02*
X3582D01*
X3470Y2586D02*
X3582D01*
X3470Y2585D02*
X3582D01*
X3470Y2584D02*
X3582D01*
X3470Y2583D02*
X3582D01*
X3470Y2582D02*
X3582D01*
X3470Y2581D02*
X3582D01*
X3470Y2580D02*
X3582D01*
X3470Y2579D02*
X3582D01*
X3470Y2578D02*
X3582D01*
X3470Y2577D02*
X3582D01*
X3470Y2576D02*
X3582D01*
X3470Y2575D02*
X3582D01*
X3470Y2574D02*
X3582D01*
X3470Y2573D02*
X3582D01*
X3470Y2572D02*
X3582D01*
X3470Y2571D02*
X3582D01*
X3470Y2570D02*
X3582D01*
X3470Y2569D02*
X3582D01*
X3470Y2645D02*
X3582D01*
X3470Y2644D02*
X3582D01*
X3470Y2643D02*
X3582D01*
X3470Y2642D02*
X3582D01*
X3470Y2566D02*
X3582D01*
X3470Y2567D02*
X3582D01*
X3509Y2541D02*
X3562D01*
X3505Y2540D02*
X3564D01*
X3502Y2539D02*
X3565D01*
X3500Y2538D02*
X3566D01*
X3498Y2537D02*
X3567D01*
X3498Y2536D02*
X3567D01*
X3495Y2535D02*
X3567D01*
X3494Y2534D02*
X3567D01*
X3493Y2533D02*
X3566D01*
X3492Y2532D02*
X3566D01*
X3492Y2531D02*
X3565D01*
X3491Y2530D02*
X3563D01*
X3447Y2521D02*
X3477D01*
X3444Y2518D02*
X3462D01*
X3444Y2517D02*
X3461D01*
X3443Y2516D02*
X3460D01*
X3442Y2515D02*
X3459D01*
X3439Y2514D02*
X3457D01*
X3438Y2513D02*
X3456D01*
X3437Y2512D02*
X3455D01*
X3436Y2511D02*
X3455D01*
X3446Y2520D02*
X3465D01*
X3445Y2519D02*
X3463D01*
X3495Y2498D02*
X3535D01*
X3497Y2497D02*
X3535D01*
X3498Y2496D02*
X3535D01*
X3499Y2495D02*
X3535D01*
X3500Y2494D02*
X3535D01*
X3596Y2511D02*
X3615D01*
X3597Y2510D02*
X3616D01*
X3598Y2509D02*
X3616D01*
X3599Y2508D02*
X3617D01*
X3600Y2507D02*
X3618D01*
X3601Y2506D02*
X3619D01*
X3602Y2505D02*
X3620D01*
X3605Y2504D02*
X3622D01*
X3605Y2503D02*
X3623D01*
X3606Y2502D02*
X3624D01*
X3607Y2501D02*
X3625D01*
X3608Y2500D02*
X3626D01*
X3609Y2499D02*
X3627D01*
X3610Y2498D02*
X3627D01*
X3611Y2497D02*
X3629D01*
X3612Y2496D02*
X3630D01*
X3613Y2495D02*
X3631D01*
X3614Y2494D02*
X3632D01*
X3455Y2528D02*
X3477D01*
X3454Y2527D02*
X3477D01*
X3453Y2526D02*
X3477D01*
X3451Y2525D02*
X3477D01*
X3450Y2524D02*
X3477D01*
X3449Y2523D02*
X3477D01*
X3448Y2522D02*
X3477D01*
X3684Y2454D02*
X3754D01*
X3683Y2453D02*
X3754D01*
X3682Y2452D02*
X3753D01*
X3682Y2451D02*
X3752D01*
X3682Y2450D02*
X3751D01*
X3682Y2449D02*
X3750D01*
X3682Y2448D02*
X3749D01*
X3683Y2447D02*
X3747D01*
X3684Y2446D02*
X3745D01*
X3685Y2455D02*
X3755D01*
X3685Y2445D02*
X3743D01*
X3688Y2456D02*
X3755D01*
X3375Y2453D02*
X3392D01*
X3375Y2452D02*
X3391D01*
X3374Y2451D02*
X3389D01*
X3374Y2450D02*
X3388D01*
X3375Y2449D02*
X3387D01*
X3375Y2448D02*
X3386D01*
X3750Y2541D02*
X3751D01*
X3747Y2540D02*
X3754D01*
X3746Y2539D02*
X3755D01*
X3745Y2538D02*
X3755D01*
X3745Y2537D02*
X3755D01*
X3745Y2536D02*
X3756D01*
X3745Y2535D02*
X3756D01*
X3745Y2534D02*
X3756D01*
X3745Y2533D02*
X3756D01*
X3745Y2532D02*
X3756D01*
X3745Y2531D02*
X3756D01*
X3745Y2530D02*
X3756D01*
X3745Y2529D02*
X3756D01*
X3745Y2528D02*
X3756D01*
X3745Y2527D02*
X3756D01*
X3745Y2526D02*
X3756D01*
X3745Y2525D02*
X3756D01*
X3745Y2524D02*
X3756D01*
X3745Y2523D02*
X3756D01*
X3745Y2522D02*
X3756D01*
X3745Y2521D02*
X3756D01*
X3745Y2520D02*
X3756D01*
X3745Y2519D02*
X3756D01*
X3745Y2518D02*
X3756D01*
X3745Y2517D02*
X3756D01*
X3745Y2516D02*
X3756D01*
X3745Y2515D02*
X3756D01*
X3745Y2514D02*
X3756D01*
X3745Y2513D02*
X3756D01*
X3745Y2512D02*
X3756D01*
X3745Y2511D02*
X3756D01*
X3745Y2510D02*
X3756D01*
X3745Y2509D02*
X3756D01*
X3745Y2508D02*
X3756D01*
X3745Y2507D02*
X3756D01*
X3745Y2506D02*
X3756D01*
X3745Y2505D02*
X3756D01*
X3745Y2504D02*
X3756D01*
X3745Y2503D02*
X3756D01*
X3745Y2502D02*
X3756D01*
X3745Y2501D02*
X3756D01*
X3745Y2500D02*
X3756D01*
X3745Y2499D02*
X3756D01*
X3745Y2498D02*
X3756D01*
X3745Y2497D02*
X3756D01*
X3745Y2496D02*
X3756D01*
X3745Y2495D02*
X3756D01*
X3745Y2494D02*
X3756D01*
X3745Y2493D02*
X3756D01*
X3745Y2492D02*
X3756D01*
X3745Y2491D02*
X3756D01*
X3745Y2490D02*
X3756D01*
X3745Y2489D02*
X3756D01*
X3617Y2492D02*
X3635D01*
X3618Y2491D02*
X3636D01*
X3619Y2490D02*
X3637D01*
X3620Y2489D02*
X3637D01*
X3616Y2493D02*
X3634D01*
X3589Y2517D02*
X3607D01*
X3591Y2516D02*
X3608D01*
X3592Y2515D02*
X3609D01*
X3594Y2514D02*
X3611D01*
X3594Y2513D02*
X3612D01*
X3595Y2512D02*
X3613D01*
X3585Y2521D02*
X3604D01*
X3586Y2520D02*
X3605D01*
X3587Y2519D02*
X3605D01*
X3588Y2518D02*
X3606D01*
X3576Y2541D02*
X3582D01*
X3575Y2540D02*
X3583D01*
X3574Y2539D02*
X3584D01*
X3573Y2538D02*
X3584D01*
X3573Y2537D02*
X3585D01*
X3573Y2536D02*
X3587D01*
X3573Y2535D02*
X3589D01*
X3573Y2534D02*
X3590D01*
X3573Y2533D02*
X3591D01*
X3573Y2532D02*
X3592D01*
X3573Y2531D02*
X3593D01*
X3573Y2530D02*
X3594D01*
X3573Y2529D02*
X3594D01*
X3573Y2528D02*
X3595D01*
X3573Y2527D02*
X3596D01*
X3573Y2526D02*
X3597D01*
X3573Y2525D02*
X3599D01*
X3573Y2524D02*
X3601D01*
X3573Y2523D02*
X3602D01*
X3573Y2522D02*
X3603D01*
X3573Y2521D02*
X3584D01*
X3573Y2520D02*
X3584D01*
X3573Y2519D02*
X3584D01*
X3573Y2518D02*
X3584D01*
X3573Y2517D02*
X3584D01*
X3573Y2516D02*
X3584D01*
X3573Y2515D02*
X3584D01*
X3573Y2514D02*
X3584D01*
X3573Y2513D02*
X3584D01*
X3573Y2512D02*
X3584D01*
X3573Y2511D02*
X3584D01*
X3573Y2510D02*
X3584D01*
X3573Y2509D02*
X3584D01*
X3573Y2508D02*
X3584D01*
X3573Y2507D02*
X3584D01*
X3573Y2506D02*
X3584D01*
X3573Y2505D02*
X3584D01*
X3573Y2504D02*
X3584D01*
X3573Y2503D02*
X3584D01*
X3573Y2502D02*
X3584D01*
X3573Y2501D02*
X3584D01*
X3573Y2500D02*
X3584D01*
X3573Y2499D02*
X3584D01*
X3573Y2498D02*
X3584D01*
X3573Y2497D02*
X3584D01*
X3573Y2496D02*
X3584D01*
X3573Y2495D02*
X3584D01*
X3573Y2494D02*
X3584D01*
X3573Y2493D02*
X3584D01*
X3573Y2492D02*
X3584D01*
X3573Y2491D02*
X3584D01*
X3573Y2490D02*
X3584D01*
X3573Y2489D02*
X3584D01*
X3491Y2503D02*
X3530D01*
X3492Y2502D02*
X3532D01*
X3493Y2501D02*
X3533D01*
X3493Y2500D02*
X3534D01*
X3494Y2499D02*
X3534D01*
X3505Y2493D02*
X3534D01*
X3510Y2492D02*
X3533D01*
X3518Y2491D02*
X3533D01*
X3517Y2490D02*
X3532D01*
X3516Y2489D02*
X3531D01*
X3467Y2540D02*
X3476D01*
X3466Y2539D02*
X3476D01*
X3466Y2538D02*
X3477D01*
X3465Y2537D02*
X3477D01*
X3464Y2536D02*
X3477D01*
X3462Y2535D02*
X3477D01*
X3461Y2534D02*
X3477D01*
X3460Y2533D02*
X3477D01*
X3459Y2532D02*
X3477D01*
X3458Y2531D02*
X3477D01*
X3457Y2530D02*
X3477D01*
X3456Y2529D02*
X3477D01*
X3466Y2520D02*
X3477D01*
X3466Y2519D02*
X3477D01*
X3466Y2518D02*
X3477D01*
X3466Y2517D02*
X3477D01*
X3466Y2516D02*
X3477D01*
X3466Y2515D02*
X3477D01*
X3466Y2514D02*
X3477D01*
X3466Y2513D02*
X3477D01*
X3466Y2512D02*
X3477D01*
X3466Y2511D02*
X3477D01*
X3466Y2510D02*
X3477D01*
X3466Y2509D02*
X3477D01*
X3466Y2508D02*
X3477D01*
X3466Y2507D02*
X3477D01*
X3466Y2506D02*
X3477D01*
X3466Y2505D02*
X3477D01*
X3466Y2504D02*
X3477D01*
X3466Y2503D02*
X3477D01*
X3466Y2502D02*
X3477D01*
X3466Y2501D02*
X3477D01*
X3466Y2500D02*
X3477D01*
X3466Y2499D02*
X3477D01*
X3466Y2498D02*
X3477D01*
X3466Y2497D02*
X3477D01*
X3466Y2496D02*
X3477D01*
X3466Y2495D02*
X3477D01*
X3466Y2494D02*
X3477D01*
X3466Y2493D02*
X3477D01*
X3466Y2492D02*
X3477D01*
X3466Y2491D02*
X3477D01*
X3466Y2490D02*
X3477D01*
X3466Y2489D02*
X3477D01*
X3469Y2541D02*
X3474D01*
X3490Y2529D02*
X3508D01*
X3490Y2528D02*
X3506D01*
X3489Y2527D02*
X3504D01*
X3489Y2526D02*
X3503D01*
X3488Y2525D02*
X3501D01*
X3487Y2524D02*
X3500D01*
X3487Y2523D02*
X3500D01*
X3487Y2522D02*
X3499D01*
X3487Y2521D02*
X3499D01*
X3487Y2520D02*
X3499D01*
X3487Y2519D02*
X3498D01*
X3487Y2518D02*
X3498D01*
X3487Y2517D02*
X3498D01*
X3487Y2516D02*
X3498D01*
X3487Y2515D02*
X3498D01*
X3487Y2514D02*
X3498D01*
X3487Y2513D02*
X3499D01*
X3487Y2512D02*
X3499D01*
X3487Y2511D02*
X3499D01*
X3487Y2510D02*
X3500D01*
X3488Y2509D02*
X3500D01*
X3488Y2508D02*
X3501D01*
X3488Y2507D02*
X3502D01*
X3489Y2506D02*
X3503D01*
X3489Y2505D02*
X3504D01*
X3490Y2504D02*
X3508D01*
X3435Y2510D02*
X3454D01*
X3434Y2509D02*
X3453D01*
X3434Y2508D02*
X3452D01*
X3433Y2507D02*
X3450D01*
X3432Y2506D02*
X3449D01*
X3431Y2505D02*
X3448D01*
X3429Y2504D02*
X3446D01*
X3428Y2503D02*
X3445D01*
X3427Y2502D02*
X3444D01*
X3425Y2501D02*
X3444D01*
X3424Y2500D02*
X3443D01*
X3423Y2499D02*
X3442D01*
X3423Y2498D02*
X3441D01*
X3422Y2497D02*
X3440D01*
X3421Y2496D02*
X3438D01*
X3420Y2495D02*
X3437D01*
X3419Y2494D02*
X3436D01*
X3417Y2493D02*
X3434D01*
X3416Y2492D02*
X3434D01*
X3415Y2491D02*
X3433D01*
X3414Y2490D02*
X3432D01*
X3413Y2489D02*
X3431D01*
X3745Y2486D02*
X3756D01*
X3745Y2487D02*
X3756D01*
X3745Y2481D02*
X3756D01*
X3745Y2467D02*
X3756D01*
X3745Y2480D02*
X3756D01*
X3745Y2479D02*
X3756D01*
X3745Y2478D02*
X3756D01*
X3745Y2477D02*
X3756D01*
X3745Y2476D02*
X3756D01*
X3745Y2475D02*
X3756D01*
X3745Y2474D02*
X3756D01*
X3745Y2473D02*
X3756D01*
X3745Y2472D02*
X3756D01*
X3745Y2471D02*
X3756D01*
X3745Y2470D02*
X3756D01*
X3745Y2469D02*
X3756D01*
X3745Y2468D02*
X3756D01*
X3745Y2466D02*
X3756D01*
X3745Y2465D02*
X3756D01*
X3745Y2464D02*
X3756D01*
X3745Y2463D02*
X3756D01*
X3745Y2462D02*
X3755D01*
X3745Y2461D02*
X3755D01*
X3744Y2460D02*
X3755D01*
X3744Y2459D02*
X3755D01*
X3743Y2458D02*
X3755D01*
X3742Y2457D02*
X3755D01*
X3745Y2485D02*
X3756D01*
X3745Y2484D02*
X3756D01*
X3745Y2483D02*
X3756D01*
X3745Y2482D02*
X3756D01*
X3623Y2486D02*
X3640D01*
X3622Y2487D02*
X3639D01*
X3629Y2481D02*
X3647D01*
X3630Y2480D02*
X3648D01*
X3631Y2479D02*
X3648D01*
X3632Y2478D02*
X3649D01*
X3633Y2477D02*
X3650D01*
X3634Y2476D02*
X3651D01*
X3635Y2475D02*
X3652D01*
X3624Y2485D02*
X3641D01*
X3625Y2484D02*
X3642D01*
X3627Y2483D02*
X3645D01*
X3628Y2482D02*
X3646D01*
X3644Y2467D02*
X3661D01*
X3636Y2474D02*
X3653D01*
X3637Y2473D02*
X3654D01*
X3638Y2472D02*
X3656D01*
X3640Y2471D02*
X3658D01*
X3641Y2470D02*
X3659D01*
X3642Y2469D02*
X3659D01*
X3643Y2468D02*
X3660D01*
X3645Y2466D02*
X3662D01*
X3646Y2465D02*
X3663D01*
X3647Y2464D02*
X3664D01*
X3648Y2463D02*
X3665D01*
X3649Y2462D02*
X3667D01*
X3650Y2461D02*
X3668D01*
X3652Y2460D02*
X3669D01*
X3653Y2459D02*
X3670D01*
X3654Y2458D02*
X3671D01*
X3655Y2457D02*
X3672D01*
X3656Y2456D02*
X3673D01*
X3657Y2455D02*
X3674D01*
X3658Y2454D02*
X3675D01*
X3659Y2453D02*
X3676D01*
X3659Y2452D02*
X3676D01*
X3661Y2451D02*
X3676D01*
X3662Y2450D02*
X3676D01*
X3664Y2449D02*
X3676D01*
X3665Y2448D02*
X3676D01*
X3666Y2447D02*
X3675D01*
X3667Y2446D02*
X3674D01*
X3669Y2445D02*
X3673D01*
X3573Y2486D02*
X3584D01*
X3573Y2487D02*
X3584D01*
X3573Y2481D02*
X3584D01*
X3573Y2467D02*
X3584D01*
X3573Y2480D02*
X3584D01*
X3573Y2479D02*
X3584D01*
X3573Y2478D02*
X3584D01*
X3573Y2477D02*
X3584D01*
X3573Y2476D02*
X3584D01*
X3573Y2475D02*
X3584D01*
X3573Y2474D02*
X3584D01*
X3573Y2473D02*
X3584D01*
X3573Y2472D02*
X3584D01*
X3573Y2471D02*
X3584D01*
X3573Y2470D02*
X3584D01*
X3573Y2469D02*
X3584D01*
X3573Y2468D02*
X3584D01*
X3573Y2466D02*
X3584D01*
X3573Y2465D02*
X3584D01*
X3573Y2464D02*
X3584D01*
X3573Y2463D02*
X3584D01*
X3573Y2462D02*
X3584D01*
X3573Y2461D02*
X3584D01*
X3573Y2460D02*
X3584D01*
X3573Y2459D02*
X3584D01*
X3573Y2458D02*
X3584D01*
X3573Y2457D02*
X3584D01*
X3573Y2456D02*
X3584D01*
X3573Y2455D02*
X3584D01*
X3573Y2454D02*
X3584D01*
X3573Y2453D02*
X3584D01*
X3573Y2452D02*
X3584D01*
X3573Y2451D02*
X3584D01*
X3573Y2450D02*
X3584D01*
X3573Y2449D02*
X3584D01*
X3573Y2448D02*
X3584D01*
X3573Y2447D02*
X3584D01*
X3574Y2446D02*
X3583D01*
X3576Y2445D02*
X3582D01*
X3573Y2485D02*
X3584D01*
X3573Y2484D02*
X3584D01*
X3573Y2483D02*
X3584D01*
X3573Y2482D02*
X3584D01*
X3514Y2486D02*
X3530D01*
X3466D02*
X3477D01*
X3515Y2487D02*
X3530D01*
X3513Y2485D02*
X3529D01*
X3512Y2484D02*
X3528D01*
X3466Y2487D02*
X3477D01*
X3466Y2481D02*
X3477D01*
X3509D02*
X3525D01*
X3466Y2467D02*
X3477D01*
X3466Y2480D02*
X3477D01*
X3466Y2479D02*
X3477D01*
X3466Y2478D02*
X3477D01*
X3466Y2477D02*
X3477D01*
X3466Y2476D02*
X3477D01*
X3466Y2475D02*
X3477D01*
X3466Y2474D02*
X3477D01*
X3466Y2473D02*
X3477D01*
X3466Y2472D02*
X3477D01*
X3466Y2471D02*
X3477D01*
X3466Y2470D02*
X3477D01*
X3466Y2469D02*
X3477D01*
X3466Y2468D02*
X3477D01*
X3466Y2466D02*
X3477D01*
X3466Y2465D02*
X3477D01*
X3466Y2464D02*
X3477D01*
X3466Y2463D02*
X3477D01*
X3466Y2462D02*
X3477D01*
X3466Y2461D02*
X3477D01*
X3466Y2460D02*
X3477D01*
X3466Y2459D02*
X3477D01*
X3466Y2458D02*
X3477D01*
X3466Y2457D02*
X3477D01*
X3466Y2456D02*
X3477D01*
X3466Y2455D02*
X3477D01*
X3466Y2454D02*
X3477D01*
X3466Y2453D02*
X3477D01*
X3466Y2452D02*
X3477D01*
X3466Y2451D02*
X3477D01*
X3466Y2450D02*
X3477D01*
X3466Y2449D02*
X3477D01*
X3466Y2448D02*
X3477D01*
X3467Y2447D02*
X3476D01*
X3467Y2446D02*
X3476D01*
X3469Y2445D02*
X3475D01*
X3466Y2485D02*
X3477D01*
X3466Y2484D02*
X3477D01*
X3466Y2483D02*
X3477D01*
X3466Y2482D02*
X3477D01*
X3509Y2480D02*
X3524D01*
X3498Y2467D02*
X3513D01*
X3509Y2479D02*
X3523D01*
X3508Y2478D02*
X3522D01*
X3507Y2477D02*
X3521D01*
X3506Y2476D02*
X3521D01*
X3505Y2475D02*
X3520D01*
X3504Y2474D02*
X3519D01*
X3504Y2473D02*
X3519D01*
X3502Y2472D02*
X3518D01*
X3501Y2471D02*
X3517D01*
X3500Y2470D02*
X3516D01*
X3500Y2469D02*
X3515D01*
X3499Y2468D02*
X3514D01*
X3498Y2466D02*
X3513D01*
X3497Y2465D02*
X3512D01*
X3497Y2464D02*
X3511D01*
X3496Y2463D02*
X3510D01*
X3494Y2462D02*
X3509D01*
X3493Y2461D02*
X3509D01*
X3493Y2460D02*
X3508D01*
X3492Y2459D02*
X3507D01*
X3491Y2458D02*
X3506D01*
X3490Y2457D02*
X3506D01*
X3489Y2456D02*
X3505D01*
X3488Y2455D02*
X3504D01*
X3487Y2454D02*
X3503D01*
X3487Y2453D02*
X3502D01*
X3487Y2452D02*
X3501D01*
X3487Y2451D02*
X3500D01*
X3487Y2450D02*
X3499D01*
X3487Y2449D02*
X3498D01*
X3487Y2448D02*
X3498D01*
X3487Y2447D02*
X3498D01*
X3488Y2446D02*
X3496D01*
X3489Y2445D02*
X3495D01*
X3511Y2483D02*
X3526D01*
X3510Y2482D02*
X3526D01*
X3410Y2486D02*
X3428D01*
X3411Y2487D02*
X3429D01*
X3404Y2481D02*
X3422D01*
X3390Y2467D02*
X3407D01*
X3394Y2472D02*
X3412D01*
X3393Y2471D02*
X3411D01*
X3392Y2470D02*
X3410D01*
X3391Y2469D02*
X3409D01*
X3391Y2468D02*
X3408D01*
X3389Y2466D02*
X3406D01*
X3388Y2465D02*
X3405D01*
X3387Y2464D02*
X3404D01*
X3386Y2463D02*
X3403D01*
X3384Y2462D02*
X3401D01*
X3382Y2461D02*
X3400D01*
X3381Y2460D02*
X3399D01*
X3380Y2459D02*
X3398D01*
X3380Y2458D02*
X3397D01*
X3379Y2457D02*
X3396D01*
X3378Y2456D02*
X3395D01*
X3377Y2455D02*
X3394D01*
X3376Y2454D02*
X3393D01*
X3376Y2447D02*
X3385D01*
X3376Y2446D02*
X3384D01*
X3378Y2445D02*
X3382D01*
X3403Y2480D02*
X3421D01*
X3402Y2479D02*
X3420D01*
X3401Y2478D02*
X3419D01*
X3401Y2477D02*
X3418D01*
X3400Y2476D02*
X3417D01*
X3399Y2475D02*
X3416D01*
X3397Y2474D02*
X3415D01*
X3396Y2473D02*
X3413D01*
X3409Y2485D02*
X3426D01*
X3408Y2484D02*
X3425D01*
X3406Y2483D02*
X3423D01*
X3405Y2482D02*
X3423D01*
M02*
